<?xml version="1.0" encoding="utf-8"?>
<!-- Generator: Adobe Illustrator 21.1.0, SVG Export Plug-In . SVG Version: 6.00 Build 0)  -->
<svg version="1.1" id="Layer_1" xmlns="http://www.w3.org/2000/svg" xmlns:xlink="http://www.w3.org/1999/xlink" x="0px" y="0px"
	 viewBox="0 0 16 15" style="enable-background:new 0 0 16 15;" xml:space="preserve">
<style type="text/css">
	.st0{fill:#E7E7E7;}
</style>
<g>
	<g>
		<g>
			<path class="st0" d="M14.2,13.6c-0.1,0-0.2,0-0.3-0.1L4.8,8C4.6,7.9,4.5,7.7,4.5,7.5c0-0.2,0.1-0.4,0.3-0.5l9-5.6
				c0.2-0.1,0.4-0.1,0.6,0c0.2,0.1,0.3,0.3,0.3,0.5L14.8,13c0,0.2-0.1,0.4-0.3,0.5C14.4,13.6,14.3,13.6,14.2,13.6z M6.2,7.5l7.4,4.5
				l-0.1-9.1L6.2,7.5z"/>
		</g>
		<g>
			<path class="st0" d="M1.9,13.7c-0.3,0-0.6-0.3-0.6-0.6L1.2,2c0-0.3,0.3-0.6,0.6-0.6c0.3,0,0.6,0.3,0.6,0.6l0.1,11.2
				C2.5,13.4,2.2,13.7,1.9,13.7z"/>
		</g>
	</g>
</g>
</svg>
