<?xml version="1.0" encoding="utf-8"?>
<!-- Generator: Adobe Illustrator 21.1.0, SVG Export Plug-In . SVG Version: 6.00 Build 0)  -->
<svg version="1.1" id="Layer_1" xmlns="http://www.w3.org/2000/svg" xmlns:xlink="http://www.w3.org/1999/xlink" x="0px" y="0px"
	 viewBox="0 0 16 15" style="enable-background:new 0 0 16 15;" xml:space="preserve">
<style type="text/css">
	.st0{fill:#E7E7E7;}
</style>
<g>
	<g>
		<g>
			<path class="st0" d="M1.8,1.4c0.1,0,0.2,0,0.3,0.1L11.2,7c0.2,0.1,0.3,0.3,0.3,0.5c0,0.2-0.1,0.4-0.3,0.5l-9,5.7
				c-0.2,0.1-0.4,0.1-0.6,0c-0.2-0.1-0.3-0.3-0.3-0.5L1.2,2c0-0.2,0.1-0.4,0.3-0.5C1.6,1.5,1.7,1.4,1.8,1.4z M9.8,7.5L2.4,3.1l0.1,9
				L9.8,7.5z"/>
		</g>
		<g>
			<path class="st0" d="M14,1.2c0.3,0,0.6,0.3,0.6,0.6L14.8,13c0,0.3-0.3,0.6-0.6,0.6c-0.3,0-0.6-0.3-0.6-0.6L13.5,1.8
				C13.5,1.5,13.7,1.2,14,1.2z"/>
		</g>
	</g>
</g>
</svg>
