<?xml version="1.0" encoding="utf-8"?>
<!-- Generator: Adobe Illustrator 21.1.0, SVG Export Plug-In . SVG Version: 6.00 Build 0)  -->
<svg version="1.1" id="Layer_1" xmlns="http://www.w3.org/2000/svg" xmlns:xlink="http://www.w3.org/1999/xlink" x="0px" y="0px"
	 viewBox="0 0 23 15" style="enable-background:new 0 0 23 15;" xml:space="preserve">
<style type="text/css">
	.st0{fill:#E7E7E7;}
</style>
<g>
	<g>
		<g>
			<g>
				<path class="st0" d="M2.4,14c-0.1,0-0.2,0-0.3-0.1c-0.2-0.1-0.3-0.3-0.3-0.5L1.5,2.2c0-0.2,0.1-0.4,0.3-0.5
					c0.2-0.1,0.4-0.1,0.6,0L11.6,7c0.2,0.1,0.3,0.3,0.3,0.5c0,0.2-0.1,0.4-0.3,0.5l-8.9,5.9C2.7,13.9,2.6,14,2.4,14z M2.7,4.3l0.2,7
					c0,0.4,0.5,0.7,0.9,0.5L9.4,8c0.3-0.2,0.3-0.7,0-1L3.6,3.8C3.2,3.5,2.7,3.8,2.7,4.3z"/>
			</g>
			<g>
				<path class="st0" d="M15.9,13.5c-0.3,0-0.6-0.2-0.6-0.6L14.9,1.8c0-0.3,0.2-0.6,0.6-0.6c0.3,0,0.6,0.2,0.6,0.6l0.4,11.2
					C16.5,13.2,16.2,13.5,15.9,13.5z"/>
			</g>
			<g>
				<path class="st0" d="M21,13.4c-0.3,0-0.6-0.2-0.6-0.6L20,1.6C20,1.3,20.2,1,20.6,1c0.3,0,0.6,0.2,0.6,0.6l0.4,11.2
					C21.5,13.1,21.3,13.4,21,13.4z"/>
			</g>
		</g>
	</g>
</g>
</svg>
