<?xml version="1.0" encoding="utf-8"?>
<!-- Generator: Adobe Illustrator 21.1.0, SVG Export Plug-In . SVG Version: 6.00 Build 0)  -->
<svg version="1.1" id="Layer_1" xmlns="http://www.w3.org/2000/svg" xmlns:xlink="http://www.w3.org/1999/xlink" x="0px" y="0px"
	 viewBox="0 0 222 179" style="enable-background:new 0 0 222 179;" xml:space="preserve">
<style type="text/css">
	.st0{fill:url(#SVGID_1_);}
	.st1{fill:url(#SVGID_2_);}
	.st2{fill:url(#SVGID_3_);}
	.st3{fill:url(#SVGID_4_);}
	.st4{fill:url(#SVGID_5_);}
	.st5{fill:url(#SVGID_6_);}
	.st6{fill:url(#SVGID_7_);}
	.st7{fill:url(#SVGID_8_);}
	.st8{fill:url(#SVGID_9_);}
			.mixBlendColorDodge {mix-blend-mode: color-dodge;}
		.mixBlendMultiply {mix-blend-mode: multiply;}
		.mixBlendScreen {mix-blend-mode: screen;}
</style>
<g>
	
		<linearGradient id="SVGID_1_" gradientUnits="userSpaceOnUse" x1="35.5176" y1="-92.5016" x2="197.6358" y2="-92.5016" gradientTransform="matrix(0.2687 0.9632 -0.9632 0.2687 -14.9708 17.4692)">
		<stop  offset="0.1616" style="stop-color:#D67F01"/>
		<stop  offset="0.2104" style="stop-color:#D98503"/>
		<stop  offset="0.2737" style="stop-color:#E1950A"/>
		<stop  offset="0.3447" style="stop-color:#EFB014"/>
		<stop  offset="0.3682" style="stop-color:#F4BA18"/>
		<stop  offset="0.4303" style="stop-color:#F2AA1A"/>
		<stop  offset="0.4743" style="stop-color:#F09C1B"/>
		<stop  offset="0.5407" style="stop-color:#8C3900"/>
		<stop  offset="0.6147" style="stop-color:#8F3F01"/>
		<stop  offset="0.7067" style="stop-color:#FCC223"/>
		<stop  offset="1" style="stop-color:#A75C01"/>
	</linearGradient>
	<path class="st0" d="M128.3,65.3C78.4,36.5,27.8,30.9,15.2,52.8c-12.6,21.9,17.6,62.9,67.4,91.7c49.9,28.8,100.5,34.4,113.1,12.5
		C208.4,135.1,178.2,94.1,128.3,65.3L128.3,65.3z"/>
	
		<linearGradient id="SVGID_2_" gradientUnits="userSpaceOnUse" x1="-531.92" y1="385.004" x2="-319.8919" y2="385.004" gradientTransform="matrix(-0.8661 -0.4999 -0.4999 0.8661 -68.6211 -445.4781)">
		<stop  offset="0" style="stop-color:#E5A601"/>
		<stop  offset="8.330940e-02" style="stop-color:#FDC324"/>
		<stop  offset="0.1516" style="stop-color:#FDD55A"/>
		<stop  offset="0.4069" style="stop-color:#FDF2A3"/>
		<stop  offset="0.421" style="stop-color:#FCEE9D"/>
		<stop  offset="0.4392" style="stop-color:#FBE48D"/>
		<stop  offset="0.4598" style="stop-color:#F8D372"/>
		<stop  offset="0.4821" style="stop-color:#F5BB4D"/>
		<stop  offset="0.5055" style="stop-color:#F19D1E"/>
		<stop  offset="0.518" style="stop-color:#EE8B01"/>
		<stop  offset="0.5625" style="stop-color:#BD4A01"/>
		<stop  offset="0.6087" style="stop-color:#8E4500"/>
		<stop  offset="0.6515" style="stop-color:#E5A002"/>
		<stop  offset="0.6569" style="stop-color:#EAAB16"/>
		<stop  offset="0.6669" style="stop-color:#F2BD37"/>
		<stop  offset="0.6766" style="stop-color:#F8CA4E"/>
		<stop  offset="0.6856" style="stop-color:#FCD25C"/>
		<stop  offset="0.6934" style="stop-color:#FDD561"/>
		<stop  offset="0.7326" style="stop-color:#FDD55F"/>
		<stop  offset="0.7467" style="stop-color:#FDD358"/>
		<stop  offset="0.7568" style="stop-color:#FDD14D"/>
		<stop  offset="0.7649" style="stop-color:#FDCD3C"/>
		<stop  offset="0.7707" style="stop-color:#FDC92A"/>
		<stop  offset="0.7826" style="stop-color:#FAC326"/>
		<stop  offset="0.7985" style="stop-color:#F0B21A"/>
		<stop  offset="0.8167" style="stop-color:#E09606"/>
		<stop  offset="0.8205" style="stop-color:#DC8F01"/>
		<stop  offset="0.8227" style="stop-color:#E29D16"/>
		<stop  offset="0.8267" style="stop-color:#EAB233"/>
		<stop  offset="0.8311" style="stop-color:#F0C34B"/>
		<stop  offset="0.836" style="stop-color:#F6D05E"/>
		<stop  offset="0.8418" style="stop-color:#F9D96B"/>
		<stop  offset="0.8493" style="stop-color:#FBDE73"/>
		<stop  offset="0.8644" style="stop-color:#FCE075"/>
		<stop  offset="0.9367" style="stop-color:#FCE27D"/>
		<stop  offset="1" style="stop-color:#FCD74B"/>
	</linearGradient>
	<path class="st1" d="M40.4,34.3c22.8-2.8,57,6.3,90.9,25.8c33.9,19.5,58.8,44.7,67.8,65.8l12.4,7.2l-12.2,21c0,0.1-0.1,0.1-0.1,0.2
		c0,0.1-0.1,0.1-0.1,0.2l-0.1,0.2l0,0c-13.3,21.7-64.4,15.9-114.8-13.2c-50.3-29.1-81-70.4-68.9-92.7l0,0L28,27.1L40.4,34.3z"/>
	
		<linearGradient id="SVGID_3_" gradientUnits="userSpaceOnUse" x1="14.1128" y1="-112.9474" x2="178.9739" y2="-112.9474" gradientTransform="matrix(0.2687 0.9632 -0.9632 0.2687 -14.9708 17.4692)">
		<stop  offset="0.1616" style="stop-color:#FDF6C5"/>
		<stop  offset="0.1989" style="stop-color:#FDF4BF"/>
		<stop  offset="0.2472" style="stop-color:#FCEEAF"/>
		<stop  offset="0.3017" style="stop-color:#FCE494"/>
		<stop  offset="0.3607" style="stop-color:#FBD66F"/>
		<stop  offset="0.4226" style="stop-color:#FAC440"/>
		<stop  offset="0.469" style="stop-color:#F9B517"/>
		<stop  offset="0.5531" style="stop-color:#AA5C06"/>
		<stop  offset="0.5826" style="stop-color:#8D3B00"/>
		<stop  offset="0.6342" style="stop-color:#8F3F01"/>
		<stop  offset="0.6767" style="stop-color:#D08C14"/>
		<stop  offset="0.7035" style="stop-color:#FABF20"/>
		<stop  offset="0.8149" style="stop-color:#E19605"/>
		<stop  offset="0.8202" style="stop-color:#E5A113"/>
		<stop  offset="0.8332" style="stop-color:#EDB630"/>
		<stop  offset="0.8469" style="stop-color:#F4C747"/>
		<stop  offset="0.8618" style="stop-color:#F8D357"/>
		<stop  offset="0.8784" style="stop-color:#FBDA61"/>
		<stop  offset="0.9005" style="stop-color:#FCDC64"/>
		<stop  offset="1" style="stop-color:#FAC442"/>
	</linearGradient>
	<path class="st2" d="M143,39.9C92.3,10.6,40.8,4.9,28,27.1c-12.8,22.2,17.9,64,68.6,93.2c50.7,29.3,102.2,35,115,12.7
		C224.4,110.9,193.7,69.1,143,39.9L143,39.9z"/>
	
		<linearGradient id="SVGID_4_" gradientUnits="userSpaceOnUse" x1="-496.954" y1="236.341" x2="-434.0453" y2="236.341" gradientTransform="matrix(-2.4801 -1.4315 -0.6038 1.0459 -890.0137 -836.9456)">
		<stop  offset="0.1616" style="stop-color:#C87600"/>
		<stop  offset="0.2493" style="stop-color:#C27000"/>
		<stop  offset="0.3631" style="stop-color:#B26000"/>
		<stop  offset="0.4907" style="stop-color:#984500"/>
		<stop  offset="0.5407" style="stop-color:#8C3900"/>
		<stop  offset="0.6147" style="stop-color:#8F3F01"/>
		<stop  offset="0.7067" style="stop-color:#FCB900"/>
		<stop  offset="1" style="stop-color:#8C4E01"/>
	</linearGradient>
	<path class="st3" d="M43.8,31.6c-10.5,18.2,15.9,53.1,59,77.9c43.1,24.9,86.5,30.3,97,12.1c10.5-18.2-15.9-53.1-59-77.9
		C97.7,18.8,54.3,13.4,43.8,31.6z"/>
	
		<radialGradient id="SVGID_5_" cx="-622.7567" cy="1227.2058" r="5.8129" gradientTransform="matrix(-12.2603 -7.0768 -3.0102 5.2155 -3820.7991 -10728.4131)" gradientUnits="userSpaceOnUse">
		<stop  offset="0" style="stop-color:#FCDC6D"/>
		<stop  offset="1" style="stop-color:#EEA819"/>
	</radialGradient>
	<path class="st4" d="M49,38.1c-9.7,16.7,14.4,48.7,53.8,71.5c39.4,22.7,79.1,27.6,88.8,10.8c9.7-16.7-14.4-48.7-53.8-71.5
		C98.4,26.2,58.7,21.3,49,38.1z"/>
	
		<linearGradient id="SVGID_6_" gradientUnits="userSpaceOnUse" x1="-11.7862" y1="360.6096" x2="76.1553" y2="360.6096" gradientTransform="matrix(0.8661 0.4999 -0.4999 0.8661 271.867 -249.5764)">
		<stop  offset="0.1616" style="stop-color:#C87600"/>
		<stop  offset="0.2493" style="stop-color:#C27000"/>
		<stop  offset="0.3631" style="stop-color:#B26000"/>
		<stop  offset="0.4907" style="stop-color:#984500"/>
		<stop  offset="0.5407" style="stop-color:#8C3900"/>
		<stop  offset="0.6147" style="stop-color:#8F3F01"/>
		<stop  offset="0.7067" style="stop-color:#D88100"/>
		<stop  offset="1" style="stop-color:#8C4E01"/>
	</linearGradient>
	<path class="st5" d="M140,60.7l-13.6-7.8l-2.8,4.9c-4-2.3-8-4.3-11.9-5.9c-3.9-1.6-7.5-2.8-10.8-3.5c-3.3-0.7-6.1-0.9-8.5-0.6
		c-2.4,0.3-4.1,1.3-5,3c-1.3,2.3-1.3,4.7,0,7.4c1.3,2.6,3.3,5.2,5.9,7.9c2.6,2.6,5.6,5.3,9,7.8c3.4,2.6,6.5,4.9,9.4,7.1
		c2.9,2.2,5.2,4.1,7.1,5.8c1.8,1.7,2.5,2.9,2,3.8c-0.3,0.5-1.2,0.6-2.7,0.4c-1.5-0.3-3.5-1.2-6.2-2.7c-3.8-2.2-7-4.7-9.5-7.5
		c-2.5-2.8-3.7-5.4-3.6-7.8l-17.4-10l-7.3,12.7l17.4,10l1.2-2.1c3.6,3.5,7.2,6.5,10.9,9.2l-3,5.3l13.6,7.8l2.8-4.8
		c4.1,2.2,8,4.2,11.9,5.9c3.9,1.7,7.5,2.9,10.7,3.7c3.3,0.8,6.1,1,8.4,0.7c2.3-0.3,4-1.4,5-3.1c1.3-2.3,1.4-4.8,0.1-7.5
		c-1.3-2.7-3.3-5.3-5.9-8c-2.6-2.7-5.7-5.3-9.2-7.9c-3.5-2.6-6.7-5-9.6-7.2c-2.9-2.2-5.3-4.1-7.2-5.8c-1.9-1.7-2.6-3-2.1-3.8
		c0.4-0.7,1.4-0.8,3-0.3c1.6,0.5,3.5,1.3,5.7,2.6c1.7,1,3.4,2.1,5,3.4c1.6,1.3,2.9,2.6,4.1,3.9c1.1,1.3,2,2.6,2.6,3.8
		c0.6,1.3,0.8,2.4,0.6,3.3l17.6,10.1l7.1-12.4l-17.6-10.1l-1.2,2.1c-1-1-2.3-2.1-3.8-3.5c-1.5-1.3-3.3-2.8-5.3-4.3L140,60.7
		L140,60.7z"/>
	
		<linearGradient id="SVGID_7_" gradientUnits="userSpaceOnUse" x1="33.0679" y1="313.0285" x2="33.0679" y2="404.6767" gradientTransform="matrix(0.8661 0.4999 -0.4999 0.8661 271.867 -249.5764)">
		<stop  offset="0" style="stop-color:#FCE28A"/>
		<stop  offset="0.4069" style="stop-color:#FDF2A3"/>
		<stop  offset="0.462" style="stop-color:#FDF09D"/>
		<stop  offset="0.5336" style="stop-color:#FDEB8D"/>
		<stop  offset="0.6143" style="stop-color:#FDE172"/>
		<stop  offset="0.7009" style="stop-color:#FDD54D"/>
		<stop  offset="0.7707" style="stop-color:#FDC92A"/>
		<stop  offset="0.8644" style="stop-color:#FCE075"/>
		<stop  offset="0.9367" style="stop-color:#FCE27D"/>
	</linearGradient>
	<path class="st6" d="M141.2,58.7l-13.6-7.8l-2.8,4.9c-4-2.3-8-4.3-11.9-5.9c-3.9-1.6-7.5-2.8-10.8-3.5c-3.3-0.7-6.1-0.9-8.5-0.6
		c-2.4,0.3-4.1,1.3-5,3c-1.3,2.3-1.3,4.7,0,7.4c1.3,2.6,3.3,5.2,5.9,7.9c2.6,2.6,5.6,5.3,9,7.8c3.4,2.6,6.5,4.9,9.4,7.1
		c2.9,2.2,5.2,4.1,7.1,5.8c1.8,1.7,2.5,2.9,2,3.8c-0.3,0.5-1.2,0.6-2.7,0.4c-1.5-0.3-3.5-1.2-6.2-2.7c-3.8-2.2-7-4.7-9.5-7.5
		c-2.5-2.8-3.7-5.4-3.6-7.8l-17.4-10l-7.3,12.7l17.4,10l1.2-2.1c3.6,3.5,7.2,6.5,10.9,9.2l-3,5.3l13.6,7.8l2.8-4.8
		c4.1,2.2,8,4.2,11.9,5.9c3.9,1.7,7.5,2.9,10.7,3.7c3.3,0.8,6.1,1,8.4,0.7c2.4-0.3,4-1.4,5-3.1c1.3-2.3,1.4-4.8,0.1-7.5
		c-1.3-2.7-3.3-5.3-5.9-8c-2.6-2.7-5.7-5.3-9.2-7.9c-3.5-2.6-6.7-5-9.6-7.2c-2.9-2.2-5.3-4.1-7.2-5.8c-1.9-1.7-2.6-3-2.1-3.8
		c0.4-0.7,1.4-0.8,3-0.3c1.6,0.5,3.5,1.3,5.7,2.6c1.7,1,3.4,2.1,5,3.4c1.6,1.3,2.9,2.6,4.1,3.9c1.1,1.3,2,2.6,2.6,3.8
		c0.6,1.3,0.8,2.4,0.6,3.3l17.6,10.1l7.1-12.4l-17.6-10.1l-1.2,2.1c-1-1-2.3-2.1-3.8-3.5c-1.5-1.3-3.3-2.8-5.4-4.3L141.2,58.7
		L141.2,58.7z"/>
	
		<linearGradient id="SVGID_8_" gradientUnits="userSpaceOnUse" x1="94.2613" y1="-194.5186" x2="94.2613" y2="-34.1814" gradientTransform="matrix(0.2687 0.9632 -0.9632 0.2687 -14.9708 17.4692)">
		<stop  offset="0" style="stop-color:#FDD451"/>
		<stop  offset="0.4069" style="stop-color:#FFEA61"/>
		<stop  offset="0.4816" style="stop-color:#FFE75B"/>
		<stop  offset="0.5786" style="stop-color:#FEDF4B"/>
		<stop  offset="0.6873" style="stop-color:#FED230"/>
		<stop  offset="0.7707" style="stop-color:#FDC517"/>
		<stop  offset="0.8644" style="stop-color:#FDD645"/>
		<stop  offset="0.9367" style="stop-color:#FCD749"/>
	</linearGradient>
	<path class="st7" d="M103.4,108.5C64,85.8,40.2,53.4,50.1,36.1c10-17.3,49.9-12.8,89.3,9.9c39.3,22.7,63.2,55.1,53.2,72.4
		C182.7,135.7,142.7,131.2,103.4,108.5L103.4,108.5z M144.2,37.7C94.4,8.9,43.7,3.3,31.1,25.2C18.5,47,48.7,88.1,98.6,116.9
		c49.9,28.8,100.5,34.4,113.1,12.5C224.3,107.5,194.1,66.5,144.2,37.7L144.2,37.7z"/>
	
		<linearGradient id="SVGID_9_" gradientUnits="userSpaceOnUse" x1="-489.4101" y1="406.3997" x2="-438.9892" y2="364.5776" gradientTransform="matrix(-0.8661 -0.4999 -0.4999 0.8661 -68.6211 -445.4781)">
		<stop  offset="0" style="stop-color:#A8A8A8"/>
		<stop  offset="0.9972" style="stop-color:#000000"/>
	</linearGradient>
	<path class="st8 mixBlendScreen" d="M47.2,75.6c6,1.2,12.2,2.3,18.3,3.3C75,89.3,88,99.6,103.4,108.5c39.3,22.7,79.3,27.1,89.3,9.9
		c6-10.4-0.3-26.3-14.9-42.3c4-1.5,7.7-3,11-4.6c21.3,21.6,31,43.8,22.9,57.9c-12.6,21.9-63.3,16.2-113.1-12.5
		C77.2,104.5,59.5,90,47.2,75.6z"/>
</g>
</svg>
