<?xml version="1.0" encoding="utf-8"?>
<!-- Generator: Adobe Illustrator 21.1.0, SVG Export Plug-In . SVG Version: 6.00 Build 0)  -->
<svg version="1.1" id="Layer_1" xmlns="http://www.w3.org/2000/svg" xmlns:xlink="http://www.w3.org/1999/xlink" x="0px" y="0px"
	 viewBox="0 0 222 179" style="enable-background:new 0 0 222 179;" xml:space="preserve">
<style type="text/css">
	.st0{fill:url(#SVGID_1_);}
	.st1{fill:url(#SVGID_2_);}
	.st2{fill:url(#SVGID_3_);}
	.st3{fill:url(#SVGID_4_);}
	.st4{fill:url(#SVGID_5_);}
	.st5{fill:url(#SVGID_6_);}
	.st6{fill:url(#SVGID_7_);}
	.st7{fill:url(#SVGID_8_);}
	.st8{fill:url(#SVGID_9_);}
			.mixBlendColorDodge {mix-blend-mode: color-dodge;}
		.mixBlendMultiply {mix-blend-mode: multiply;}
		.mixBlendScreen {mix-blend-mode: screen;}
</style>
<g>
	
		<linearGradient id="SVGID_1_" gradientUnits="userSpaceOnUse" x1="54.4411" y1="148.8565" x2="187.6882" y2="148.8565" gradientTransform="matrix(0.238 -0.9713 0.9713 0.238 -65.9334 161.856)">
		<stop  offset="0.1616" style="stop-color:#FDF6C5"/>
		<stop  offset="0.1989" style="stop-color:#FDF4BF"/>
		<stop  offset="0.2472" style="stop-color:#FCEEAF"/>
		<stop  offset="0.3017" style="stop-color:#FCE494"/>
		<stop  offset="0.3607" style="stop-color:#FBD66F"/>
		<stop  offset="0.4226" style="stop-color:#FAC440"/>
		<stop  offset="0.469" style="stop-color:#F9B517"/>
		<stop  offset="0.5355" style="stop-color:#AA5C06"/>
		<stop  offset="0.5588" style="stop-color:#8D3B00"/>
		<stop  offset="0.6146" style="stop-color:#8F3F01"/>
		<stop  offset="0.644" style="stop-color:#D08C14"/>
		<stop  offset="0.6625" style="stop-color:#FABF20"/>
		<stop  offset="0.8107" style="stop-color:#E19605"/>
		<stop  offset="0.8162" style="stop-color:#E5A113"/>
		<stop  offset="0.8298" style="stop-color:#EDB630"/>
		<stop  offset="0.8443" style="stop-color:#F4C747"/>
		<stop  offset="0.8598" style="stop-color:#F8D357"/>
		<stop  offset="0.8773" style="stop-color:#FBDA61"/>
		<stop  offset="0.9005" style="stop-color:#FCDC64"/>
		<stop  offset="1" style="stop-color:#FAC442"/>
	</linearGradient>
	<path class="st0" d="M126.9,112.4c41.2-24.5,65.9-59,55.2-77C171.3,17.3,129.2,22.5,88,47C46.8,71.5,22.1,106,32.8,124
		C43.6,142.1,85.7,136.9,126.9,112.4L126.9,112.4z"/>
	
		<linearGradient id="SVGID_2_" gradientUnits="userSpaceOnUse" x1="116.7427" y1="-1421.6771" x2="293.2667" y2="-1421.6771" gradientTransform="matrix(-0.8597 0.5109 -0.5109 -0.8597 -440.6321 -1243.9749)">
		<stop  offset="0" style="stop-color:#E5A601"/>
		<stop  offset="8.330940e-02" style="stop-color:#FDC324"/>
		<stop  offset="0.1516" style="stop-color:#FDD55A"/>
		<stop  offset="0.4069" style="stop-color:#FDF2A3"/>
		<stop  offset="0.421" style="stop-color:#FCEE9D"/>
		<stop  offset="0.4392" style="stop-color:#FBE48D"/>
		<stop  offset="0.4598" style="stop-color:#F8D372"/>
		<stop  offset="0.4821" style="stop-color:#F5BB4D"/>
		<stop  offset="0.5055" style="stop-color:#F19D1E"/>
		<stop  offset="0.518" style="stop-color:#EE8B01"/>
		<stop  offset="0.5625" style="stop-color:#BD4A01"/>
		<stop  offset="0.6087" style="stop-color:#8E4500"/>
		<stop  offset="0.6515" style="stop-color:#E5A002"/>
		<stop  offset="0.6569" style="stop-color:#EAAB16"/>
		<stop  offset="0.6669" style="stop-color:#F2BD37"/>
		<stop  offset="0.6766" style="stop-color:#F8CA4E"/>
		<stop  offset="0.6856" style="stop-color:#FCD25C"/>
		<stop  offset="0.6934" style="stop-color:#FDD561"/>
		<stop  offset="0.7326" style="stop-color:#FDD55F"/>
		<stop  offset="0.7467" style="stop-color:#FDD358"/>
		<stop  offset="0.7568" style="stop-color:#FDD14D"/>
		<stop  offset="0.7649" style="stop-color:#FDCD3C"/>
		<stop  offset="0.7707" style="stop-color:#FDC92A"/>
		<stop  offset="0.7826" style="stop-color:#FAC326"/>
		<stop  offset="0.7985" style="stop-color:#F0B21A"/>
		<stop  offset="0.8167" style="stop-color:#E09606"/>
		<stop  offset="0.8205" style="stop-color:#DC8F01"/>
		<stop  offset="0.8227" style="stop-color:#E29D16"/>
		<stop  offset="0.8267" style="stop-color:#EAB233"/>
		<stop  offset="0.8311" style="stop-color:#F0C34B"/>
		<stop  offset="0.836" style="stop-color:#F6D05E"/>
		<stop  offset="0.8418" style="stop-color:#F9D96B"/>
		<stop  offset="0.8493" style="stop-color:#FBDE73"/>
		<stop  offset="0.8644" style="stop-color:#FCE075"/>
		<stop  offset="0.9367" style="stop-color:#FCE27D"/>
		<stop  offset="1" style="stop-color:#FCD74B"/>
	</linearGradient>
	<path class="st1" d="M54,139.2c19,2.1,47.4-5.8,75.4-22.5c28-16.6,48.5-37.8,55.8-55.5l10.3-6.1l-10.3-17.4c0-0.1-0.1-0.1-0.1-0.2
		c0-0.1-0.1-0.1-0.1-0.2l-0.1-0.2l0,0C173.6,19.2,131,24.6,89.4,49.3c-41.6,24.7-66.7,59.5-56.4,77.9l0,0l10.7,18L54,139.2z"/>
	
		<linearGradient id="SVGID_3_" gradientUnits="userSpaceOnUse" x1="36.3104" y1="165.5585" x2="171.8131" y2="165.5585" gradientTransform="matrix(0.238 -0.9713 0.9713 0.238 -65.9334 161.856)">
		<stop  offset="0.1616" style="stop-color:#D67F01"/>
		<stop  offset="0.2104" style="stop-color:#D98503"/>
		<stop  offset="0.2737" style="stop-color:#E1950A"/>
		<stop  offset="0.3447" style="stop-color:#EFB014"/>
		<stop  offset="0.3682" style="stop-color:#F4BA18"/>
		<stop  offset="0.4303" style="stop-color:#F2AA1A"/>
		<stop  offset="0.4743" style="stop-color:#F09C1B"/>
		<stop  offset="0.5407" style="stop-color:#8C3900"/>
		<stop  offset="0.6147" style="stop-color:#8F3F01"/>
		<stop  offset="0.7067" style="stop-color:#FCC223"/>
		<stop  offset="1" style="stop-color:#A75C01"/>
	</linearGradient>
	<path class="st2" d="M139.4,133.4c41.9-24.9,67-60,56.1-78.4C184.6,36.7,141.8,42,99.9,66.9c-41.9,24.9-67,60-56.1,78.4
		C54.7,163.6,97.5,158.3,139.4,133.4L139.4,133.4z"/>
	
		<linearGradient id="SVGID_4_" gradientUnits="userSpaceOnUse" x1="-270.9332" y1="-1254.0441" x2="-218.5522" y2="-1254.0441" gradientTransform="matrix(-2.4618 1.463 -0.6169 -1.0381 -1254.7585 -840.7684)">
		<stop  offset="0.1616" style="stop-color:#C87600"/>
		<stop  offset="0.2245" style="stop-color:#C27000"/>
		<stop  offset="0.3061" style="stop-color:#B26000"/>
		<stop  offset="0.3976" style="stop-color:#984500"/>
		<stop  offset="0.4334" style="stop-color:#8C3900"/>
		<stop  offset="0.6147" style="stop-color:#8F3F01"/>
		<stop  offset="1" style="stop-color:#AB4B00"/>
	</linearGradient>
	<path class="st3" d="M56.9,141.4c-8.9-15,12.7-44.3,48.3-65.5c35.6-21.2,71.7-26.1,80.6-11.1c8.9,15-12.7,44.3-48.3,65.5
		C101.9,151.4,65.8,156.4,56.9,141.4z"/>
	
		<radialGradient id="SVGID_5_" cx="42.5924" cy="-2095.0486" r="4.8398" gradientTransform="matrix(-12.1696 7.2319 -3.0769 -5.1775 -5807.7769 -11054.1406)" gradientUnits="userSpaceOnUse">
		<stop  offset="0" style="stop-color:#D69810"/>
		<stop  offset="1" style="stop-color:#BD7006"/>
	</radialGradient>
	<path class="st4" d="M61.2,135.9c-8.2-13.8,11.5-40.7,44-60.1c32.5-19.3,65.6-23.8,73.8-9.9c8.2,13.8-11.5,40.7-44,60.1
		C102.4,145.3,69.4,149.8,61.2,135.9z"/>
	
		<radialGradient id="SVGID_6_" cx="43.0124" cy="-3711.793" r="7.0541" gradientTransform="matrix(-12.1696 7.2319 -4.2064 -7.079 -14957.0059 -26456.4062)" gradientUnits="userSpaceOnUse">
		<stop  offset="0" style="stop-color:#FFFFFF"/>
		<stop  offset="0.5889" style="stop-color:#FFFFFF"/>
		<stop  offset="0.6858" style="stop-color:#FFFFFF"/>
		<stop  offset="0.8005" style="stop-color:#FEFEFD"/>
		<stop  offset="0.8429" style="stop-color:#FCFAF6"/>
		<stop  offset="0.8733" style="stop-color:#F8F2EA"/>
		<stop  offset="0.898" style="stop-color:#F3E7D9"/>
		<stop  offset="0.9192" style="stop-color:#EBDAC3"/>
		<stop  offset="0.938" style="stop-color:#E2C8A8"/>
		<stop  offset="0.955" style="stop-color:#D7B487"/>
		<stop  offset="0.9707" style="stop-color:#CB9C61"/>
		<stop  offset="0.9853" style="stop-color:#BC8136"/>
		<stop  offset="0.9983" style="stop-color:#AD6407"/>
		<stop  offset="1" style="stop-color:#AB6001"/>
	</radialGradient>
	<path class="st5 mixBlendMultiply" d="M61.2,135.9c-8.2-13.8,11.5-40.7,44-60.1c32.5-19.3,65.6-23.8,73.8-9.9c8.2,13.8-11.5,40.7-44,60.1
		C102.4,145.3,69.4,149.8,61.2,135.9z"/>
	
		<linearGradient id="SVGID_7_" gradientUnits="userSpaceOnUse" x1="102.1256" y1="262.3508" x2="102.1256" y2="100.8078" gradientTransform="matrix(0.238 -0.9713 0.9713 0.238 -65.9334 161.856)">
		<stop  offset="0" style="stop-color:#E09110"/>
		<stop  offset="0.4069" style="stop-color:#F4AE01"/>
		<stop  offset="0.5196" style="stop-color:#F1A801"/>
		<stop  offset="0.6656" style="stop-color:#E89800"/>
		<stop  offset="0.7707" style="stop-color:#E08800"/>
		<stop  offset="1" style="stop-color:#C96200"/>
	</linearGradient>
	<path class="st6" d="M105.7,76.7c32.5-19.3,65.8-23.4,74.2-9.2c8.5,14.3-11,41.5-43.6,60.8c-32.5,19.3-65.8,23.4-74.2,9.2
		C53.7,123.3,73.2,96,105.7,76.7L105.7,76.7z M140.5,135.2c41.2-24.5,65.9-59,55.2-77c-10.7-18.1-52.8-12.9-94.1,11.6
		c-41.2,24.5-65.9,59-55.2,77.1C57.1,164.9,99.2,159.7,140.5,135.2L140.5,135.2z"/>
	
		<linearGradient id="SVGID_8_" gradientUnits="userSpaceOnUse" x1="-1838.4248" y1="-1442.4019" x2="-1765.2074" y2="-1442.4019" gradientTransform="matrix(-0.8597 0.5109 -0.5109 -0.8597 -2165.3289 -219.0503)">
		<stop  offset="1.473460e-02" style="stop-color:#8E3900"/>
		<stop  offset="6.083851e-02" style="stop-color:#934100"/>
		<stop  offset="0.1342" style="stop-color:#A15900"/>
		<stop  offset="0.1616" style="stop-color:#A76300"/>
		<stop  offset="0.272" style="stop-color:#A35D00"/>
		<stop  offset="0.4149" style="stop-color:#994D00"/>
		<stop  offset="0.5407" style="stop-color:#8C3900"/>
		<stop  offset="0.6147" style="stop-color:#8F3F01"/>
		<stop  offset="0.7067" style="stop-color:#A25500"/>
		<stop  offset="1" style="stop-color:#8C4E01"/>
	</linearGradient>
	<path class="st7" d="M125.5,122.8l11.2-6.7l-2.4-4.1c3.3-2,6.4-4.1,9.1-6.2c2.8-2.2,5.1-4.3,7-6.4c1.9-2.1,3.2-4.1,3.9-5.9
		c0.7-1.9,0.7-3.5-0.1-4.9c-1.1-1.9-2.9-2.9-5.3-3c-2.4-0.1-5.1,0.2-8.1,1c-3,0.8-6.1,1.9-9.3,3.4c-3.2,1.4-6.2,2.7-9,4
		c-2.7,1.2-5.1,2.1-7.1,2.8c-2,0.6-3.2,0.6-3.6-0.1c-0.2-0.4,0-1.1,0.8-2.1c0.8-1,2.3-2.1,4.5-3.4c3.2-1.9,6.3-3.1,9.3-3.8
		c3-0.7,5.4-0.5,7.1,0.6l14.4-8.5l-6.2-10.5l-14.4,8.5l1,1.7c-4,1.2-7.7,2.6-11.1,4.2l-2.6-4.4l-11.2,6.7l2.4,4
		c-3.3,2-6.3,4.1-9.1,6.3c-2.8,2.1-5.2,4.2-7.1,6.3c-1.9,2.1-3.2,4-3.9,5.9c-0.7,1.8-0.7,3.5,0.2,4.9c1.1,1.9,2.9,3,5.4,3.1
		c2.5,0.1,5.2-0.2,8.2-1.1c3-0.8,6.2-2,9.5-3.4c3.3-1.5,6.4-2.8,9.1-4c2.8-1.2,5.2-2.2,7.2-2.9c2-0.7,3.2-0.7,3.6,0
		c0.3,0.6,0,1.3-1,2.3c-1,1-2.4,2-4.2,3.1c-1.4,0.9-2.9,1.6-4.5,2.2c-1.6,0.6-3.1,1.1-4.5,1.4c-1.4,0.3-2.7,0.4-3.8,0.3
		c-1.2-0.1-2.1-0.4-2.7-0.9l-14.5,8.6l6.1,10.2l14.5-8.6l-1-1.7c1.1-0.3,2.5-0.8,4.1-1.3c1.6-0.6,3.4-1.3,5.3-2.1L125.5,122.8
		L125.5,122.8z"/>
	
		<linearGradient id="SVGID_9_" gradientUnits="userSpaceOnUse" x1="-1801.0802" y1="-1482.0164" x2="-1801.0802" y2="-1405.7139" gradientTransform="matrix(-0.8597 0.5109 -0.5109 -0.8597 -2165.3289 -219.0503)">
		<stop  offset="0" style="stop-color:#EAA210"/>
		<stop  offset="0.4069" style="stop-color:#FDC301"/>
		<stop  offset="0.5144" style="stop-color:#FABD01"/>
		<stop  offset="0.6537" style="stop-color:#F3AD00"/>
		<stop  offset="0.7707" style="stop-color:#EA9A00"/>
		<stop  offset="1" style="stop-color:#B46501"/>
	</linearGradient>
	<path class="st8" d="M126.4,124.4l11.2-6.7l-2.4-4.1c3.3-2,6.4-4.1,9.1-6.2c2.8-2.2,5.1-4.3,7-6.4c1.9-2.1,3.2-4.1,3.9-5.9
		c0.7-1.9,0.7-3.5-0.1-4.9c-1.1-1.9-2.9-2.9-5.3-3c-2.4-0.1-5.1,0.2-8.1,1c-3,0.8-6.1,1.9-9.3,3.4c-3.2,1.4-6.2,2.7-9,4
		c-2.7,1.2-5.1,2.1-7.1,2.8c-2,0.6-3.2,0.6-3.6-0.1c-0.2-0.4,0-1.1,0.8-2.1c0.8-1,2.3-2.1,4.5-3.4c3.2-1.9,6.3-3.1,9.3-3.8
		c3-0.6,5.4-0.5,7.1,0.6l14.4-8.5l-6.2-10.5l-14.4,8.5l1,1.7c-4,1.2-7.7,2.6-11.1,4.2l-2.6-4.4l-11.2,6.7l2.4,4
		c-3.3,2-6.3,4.1-9.1,6.3c-2.8,2.1-5.2,4.2-7.1,6.3c-1.9,2.1-3.2,4-3.9,5.9c-0.7,1.8-0.7,3.5,0.2,4.9c1.1,1.9,2.9,3,5.4,3.1
		c2.5,0.1,5.2-0.2,8.2-1c3-0.8,6.2-2,9.5-3.4c3.3-1.5,6.4-2.8,9.1-4c2.8-1.2,5.2-2.2,7.2-2.9c2-0.7,3.2-0.7,3.6,0
		c0.3,0.6,0,1.3-1,2.3c-1,1-2.4,2-4.2,3.1c-1.4,0.9-2.9,1.6-4.5,2.2c-1.6,0.6-3.1,1.1-4.5,1.4c-1.4,0.3-2.7,0.4-3.8,0.3
		c-1.2-0.1-2.1-0.4-2.7-0.9l-14.5,8.6l6.1,10.2l14.5-8.6l-1-1.7c1.1-0.3,2.5-0.8,4.1-1.3c1.6-0.6,3.4-1.3,5.3-2.1L126.4,124.4
		L126.4,124.4z"/>
</g>
</svg>
