<?xml version="1.0" encoding="utf-8"?>
<!-- Generator: Adobe Illustrator 21.1.0, SVG Export Plug-In . SVG Version: 6.00 Build 0)  -->
<svg version="1.1" id="Layer_1" xmlns="http://www.w3.org/2000/svg" xmlns:xlink="http://www.w3.org/1999/xlink" x="0px" y="0px"
	 viewBox="0 0 157 135" style="enable-background:new 0 0 157 135;" xml:space="preserve">
<style type="text/css">
	.st0{fill:url(#SVGID_1_);}
	.st1{fill:url(#SVGID_2_);}
	.st2{fill:url(#SVGID_3_);}
	.st3{fill:url(#SVGID_4_);}
	.st4{fill:url(#SVGID_5_);}
	.st5{fill:url(#SVGID_6_);}
	.st6{fill:url(#SVGID_7_);}
	.st7{fill:url(#SVGID_8_);}
	.st8{fill:url(#SVGID_9_);}
		.mixBlendColorDodge {mix-blend-mode: color-dodge;}
		.mixBlendMultiply {mix-blend-mode: multiply;}
		.mixBlendScreen {mix-blend-mode: screen;}
</style>
<g>
	
		<linearGradient id="SVGID_1_" gradientUnits="userSpaceOnUse" x1="86.9599" y1="94.5662" x2="187.3631" y2="94.5662" gradientTransform="matrix(0.6656 -0.7463 0.7463 0.6656 -80.8244 100.214)">
		<stop  offset="0.1616" style="stop-color:#FDF6C5"/>
		<stop  offset="0.1989" style="stop-color:#FDF4BF"/>
		<stop  offset="0.2472" style="stop-color:#FCEEAF"/>
		<stop  offset="0.3017" style="stop-color:#FCE494"/>
		<stop  offset="0.3607" style="stop-color:#FBD66F"/>
		<stop  offset="0.4226" style="stop-color:#FAC440"/>
		<stop  offset="0.469" style="stop-color:#F9B517"/>
		<stop  offset="0.5355" style="stop-color:#AA5C06"/>
		<stop  offset="0.5588" style="stop-color:#8D3B00"/>
		<stop  offset="0.6146" style="stop-color:#8F3F01"/>
		<stop  offset="0.644" style="stop-color:#D08C14"/>
		<stop  offset="0.6625" style="stop-color:#FABF20"/>
		<stop  offset="0.8107" style="stop-color:#E19605"/>
		<stop  offset="0.8162" style="stop-color:#E5A113"/>
		<stop  offset="0.8298" style="stop-color:#EDB630"/>
		<stop  offset="0.8443" style="stop-color:#F4C747"/>
		<stop  offset="0.8598" style="stop-color:#F8D357"/>
		<stop  offset="0.8773" style="stop-color:#FBDA61"/>
		<stop  offset="0.9005" style="stop-color:#FCDC64"/>
		<stop  offset="1" style="stop-color:#FAC442"/>
	</linearGradient>
	<path class="st0" d="M68.7,106.1c12.2,3.3,25.3,3.8,37.5,0.8c30.5-7.5,44-34.3,30.1-59.8c-8.3-15.3-24.7-26.6-43-31.6
		c-12.2-3.3-25.3-3.8-37.5-0.8c-30.5,7.5-44,34.3-30.1,59.8C34.1,89.7,50.4,101.1,68.7,106.1L68.7,106.1z"/>
	
		<linearGradient id="SVGID_2_" gradientUnits="userSpaceOnUse" x1="-66.9971" y1="-1407.7361" x2="58.4481" y2="-1407.7361" gradientTransform="matrix(-0.9647 -0.2634 0.2634 -0.9647 447.2846 -1296.6815)">
		<stop  offset="0" style="stop-color:#E5A601"/>
		<stop  offset="8.330940e-02" style="stop-color:#FDC324"/>
		<stop  offset="0.1516" style="stop-color:#FDD55A"/>
		<stop  offset="0.4069" style="stop-color:#FDF2A3"/>
		<stop  offset="0.421" style="stop-color:#FCEE9D"/>
		<stop  offset="0.4392" style="stop-color:#FBE48D"/>
		<stop  offset="0.4598" style="stop-color:#F8D372"/>
		<stop  offset="0.4821" style="stop-color:#F5BB4D"/>
		<stop  offset="0.5055" style="stop-color:#F19D1E"/>
		<stop  offset="0.518" style="stop-color:#EE8B01"/>
		<stop  offset="0.5625" style="stop-color:#BD4A01"/>
		<stop  offset="0.6087" style="stop-color:#8E4500"/>
		<stop  offset="0.6515" style="stop-color:#E5A002"/>
		<stop  offset="0.6569" style="stop-color:#EAAB16"/>
		<stop  offset="0.6669" style="stop-color:#F2BD37"/>
		<stop  offset="0.6766" style="stop-color:#F8CA4E"/>
		<stop  offset="0.6856" style="stop-color:#FCD25C"/>
		<stop  offset="0.6934" style="stop-color:#FDD561"/>
		<stop  offset="0.7326" style="stop-color:#FDD55F"/>
		<stop  offset="0.7467" style="stop-color:#FDD358"/>
		<stop  offset="0.7568" style="stop-color:#FDD14D"/>
		<stop  offset="0.7649" style="stop-color:#FDCD3C"/>
		<stop  offset="0.7707" style="stop-color:#FDC92A"/>
		<stop  offset="0.7826" style="stop-color:#FAC326"/>
		<stop  offset="0.7985" style="stop-color:#F0B21A"/>
		<stop  offset="0.8167" style="stop-color:#E09606"/>
		<stop  offset="0.8205" style="stop-color:#DC8F01"/>
		<stop  offset="0.8227" style="stop-color:#E29D16"/>
		<stop  offset="0.8267" style="stop-color:#EAB233"/>
		<stop  offset="0.8311" style="stop-color:#F0C34B"/>
		<stop  offset="0.836" style="stop-color:#F6D05E"/>
		<stop  offset="0.8418" style="stop-color:#F9D96B"/>
		<stop  offset="0.8493" style="stop-color:#FBDE73"/>
		<stop  offset="0.8644" style="stop-color:#FCE075"/>
		<stop  offset="0.9367" style="stop-color:#FCE27D"/>
		<stop  offset="1" style="stop-color:#FCD74B"/>
	</linearGradient>
	<path class="st1" d="M20.2,45.6l-2.7,10l1.3,0.4c0,6.7,1.8,13.6,5.5,20.4c8.5,15.6,25.1,27.1,43.7,32.2c12.4,3.4,25.7,3.9,38.1,0.8
		c14.4-3.6,25.1-11.3,31-21.2l1.3,0.4l2.6-9.6l0,0c2.6-9.5,1.4-20-4.2-30.4c-8.5-15.6-25.1-27.1-43.7-32.2
		C80.7,13,67.4,12.5,55,15.6C36.5,20.1,24.2,31.6,20.2,45.6L20.2,45.6z"/>
	
		<linearGradient id="SVGID_3_" gradientUnits="userSpaceOnUse" x1="75.5987" y1="99.7783" x2="177.7763" y2="99.7783" gradientTransform="matrix(0.6656 -0.7463 0.7463 0.6656 -80.8244 100.214)">
		<stop  offset="0.1616" style="stop-color:#D67F01"/>
		<stop  offset="0.2104" style="stop-color:#D98503"/>
		<stop  offset="0.2737" style="stop-color:#E1950A"/>
		<stop  offset="0.3447" style="stop-color:#EFB014"/>
		<stop  offset="0.3682" style="stop-color:#F4BA18"/>
		<stop  offset="0.4303" style="stop-color:#F2AA1A"/>
		<stop  offset="0.4743" style="stop-color:#F09C1B"/>
		<stop  offset="0.5407" style="stop-color:#8C3900"/>
		<stop  offset="0.6147" style="stop-color:#8F3F01"/>
		<stop  offset="0.7067" style="stop-color:#FCC223"/>
		<stop  offset="1" style="stop-color:#A75C01"/>
	</linearGradient>
	<path class="st2" d="M65.4,118.2c12.4,3.4,25.7,3.9,38.1,0.8c31.1-7.7,44.8-34.9,30.7-60.8c-8.5-15.6-25.1-27.1-43.7-32.2
		c-12.4-3.4-25.7-3.9-38.1-0.8C21.3,32.8,7.6,60,21.7,86C30.2,101.5,46.8,113.1,65.4,118.2L65.4,118.2z"/>
	
		<linearGradient id="SVGID_4_" gradientUnits="userSpaceOnUse" x1="83.2092" y1="101.2732" x2="164.1463" y2="101.2732" gradientTransform="matrix(0.6656 -0.7463 0.7463 0.6656 -80.8244 100.214)">
		<stop  offset="0.1616" style="stop-color:#C87600"/>
		<stop  offset="0.2245" style="stop-color:#C27000"/>
		<stop  offset="0.3061" style="stop-color:#B26000"/>
		<stop  offset="0.3976" style="stop-color:#984500"/>
		<stop  offset="0.4334" style="stop-color:#8C3900"/>
		<stop  offset="0.6147" style="stop-color:#8F3F01"/>
		<stop  offset="1" style="stop-color:#AB4B00"/>
	</linearGradient>
	<path class="st3" d="M67.2,111.8c9.8,2.7,20.4,3.1,30.2,0.7c24.6-6.1,35.5-27.6,24.3-48.2C114.9,52,101.8,42.9,87,38.8
		c-9.8-2.7-20.4-3.1-30.2-0.7c-24.6,6.1-35.5,27.6-24.3,48.2C39.2,98.6,52.4,107.8,67.2,111.8L67.2,111.8z"/>
	
		<radialGradient id="SVGID_5_" cx="-790.2825" cy="714.5632" r="8.048" gradientTransform="matrix(3.6022 -4.0386 4.0386 3.6022 38.8274 -5693.561)" gradientUnits="userSpaceOnUse">
		<stop  offset="0" style="stop-color:#D69810"/>
		<stop  offset="1" style="stop-color:#BD7006"/>
	</radialGradient>
	<path class="st4" d="M68.2,108.1c9.7,2.6,20.1,3.1,29.8,0.7c24.3-6,35-27.3,24-47.5c-6.6-12.2-19.6-21.2-34.2-25.2
		C78.1,33.4,67.7,33,58,35.4c-24.3,6-35,27.3-23.9,47.5C40.7,95.1,53.6,104.1,68.2,108.1L68.2,108.1z"/>
	
		<linearGradient id="SVGID_6_" gradientUnits="userSpaceOnUse" x1="125.1277" y1="43.2684" x2="125.1277" y2="156.9739" gradientTransform="matrix(0.6656 -0.7463 0.7463 0.6656 -80.8244 100.214)">
		<stop  offset="0" style="stop-color:#EAA210"/>
		<stop  offset="0.4069" style="stop-color:#FDC301"/>
		<stop  offset="0.5318" style="stop-color:#FABD01"/>
		<stop  offset="0.694" style="stop-color:#F2AD01"/>
		<stop  offset="0.8758" style="stop-color:#E49200"/>
		<stop  offset="1" style="stop-color:#D97C00"/>
	</linearGradient>
	<path class="st5" d="M87.3,37.8c14.6,4,27.5,13,34.2,25.2c11,20.3,0.3,41.5-23.9,47.5c-9.7,2.4-20.1,2-29.8-0.7
		c-14.6-4-27.5-13-34.1-25.2c-11-20.2-0.3-41.5,23.9-47.5C67.2,34.7,77.6,35.1,87.3,37.8L87.3,37.8z M65.1,119.4
		c12.3,3.4,25.4,3.9,37.7,0.8c30.8-7.6,44.3-34.5,30.3-60.2c-8.4-15.4-24.8-26.8-43.3-31.9c-12.3-3.4-25.4-3.9-37.7-0.8
		C21.4,34.9,7.8,61.9,21.8,87.5C30.2,102.9,46.7,114.3,65.1,119.4L65.1,119.4z"/>
	
		<linearGradient id="SVGID_7_" gradientUnits="userSpaceOnUse" x1="-2163.0652" y1="-1463.4559" x2="-2163.0652" y2="-1373.0288" gradientTransform="matrix(-0.9647 -0.2634 0.2634 -0.9647 -1634.9166 -1865.3386)">
		<stop  offset="0.1616" style="stop-color:#BE7100"/>
		<stop  offset="0.2541" style="stop-color:#B96B00"/>
		<stop  offset="0.374" style="stop-color:#AA5B00"/>
		<stop  offset="0.5085" style="stop-color:#934000"/>
		<stop  offset="0.5407" style="stop-color:#8C3900"/>
		<stop  offset="0.6147" style="stop-color:#8F3F01"/>
		<stop  offset="0.7067" style="stop-color:#A25500"/>
		<stop  offset="1" style="stop-color:#8C4E01"/>
	</linearGradient>
	<path class="st6" d="M45.3,62.3l3.9,7.1l3-0.7c-0.1,0.7-0.2,1.6-0.2,2.6c0,1,0.1,2.1,0.3,3.3l-7.9,2L44,78.1l1.5,0.7l0.2-0.1
		l2.6,4.7l6.9-1.7c1.1,2.1,2.5,4,4.2,5.7c1.7,1.7,3.6,3.1,5.6,4.3c1.5,0.8,3,1.4,4.6,1.9c0.6,0.2,1.2,0.3,1.8,0.4
		c2.3,0.4,4.6,0.3,6.9-0.3c3.2-0.8,5.5-2,6.9-3.6c1.4-1.6,2.2-3.3,2.6-5.2c0.3-1.9,0.3-3.9-0.1-5.9c-0.4-2-0.8-3.9-1.1-5.6
		c-0.4-1.7-0.5-3.2-0.4-4.4c0.1-1.2,0.7-2,1.9-2.3c0.5-0.1,1-0.1,1.5,0.1c0.3,0.1,0.7,0.2,1,0.4c1,0.5,1.8,1.4,2.5,2.7
		c1.1,2,1.3,3.9,0.7,5.9c-0.6,1.9-2.1,3.5-4.3,4.6L89,82l1.4,0.3l3.9,7.1l14.1-3.5l3.3,0.7l0.4-1.6l-4.9-8.9l-2.9,0.7
		c0.3-2.5,0.2-4.9-0.4-7l5.2-1.3l1.8,1l0.4-1.6l-3.8-7l-6.8,1.7c-1.2-2-2.7-3.9-4.3-5.7c-1.6-1.7-3.4-3.2-5.4-4.3
		c-1.5-0.9-3-1.5-4.6-1.9c-0.6-0.2-1.1-0.3-1.7-0.4c-2.2-0.4-4.5-0.3-7,0.3c-3.3,0.8-5.6,2-7,3.6c-1.4,1.6-2.3,3.4-2.6,5.3
		c-0.3,1.9-0.3,3.9,0.1,6c0.4,2.1,0.8,4,1.1,5.8c0.3,1.7,0.5,3.3,0.5,4.5c0,1.3-0.6,2-1.8,2.3c-0.6,0.1-1.1,0.1-1.6,0
		c-0.4-0.1-0.8-0.3-1.2-0.5c-0.9-0.6-1.7-1.5-2.3-2.6c-0.5-0.9-0.8-1.8-0.9-2.8c-0.1-1,0-1.9,0.3-2.8c0.3-0.9,0.8-1.7,1.4-2.5
		c0.2-0.2,0.5-0.5,0.7-0.7l1.4,0.5l0.4-1.6l-4.9-9l-17.4,4.3l-0.4,1.6L45.3,62.3z"/>
	
		<linearGradient id="SVGID_8_" gradientUnits="userSpaceOnUse" x1="-2163.0652" y1="-1465.0789" x2="-2163.0652" y2="-1374.6527" gradientTransform="matrix(-0.9647 -0.2634 0.2634 -0.9647 -1634.9166 -1865.3386)">
		<stop  offset="0" style="stop-color:#EAA210"/>
		<stop  offset="0.4069" style="stop-color:#FDC301"/>
		<stop  offset="0.5144" style="stop-color:#FABD01"/>
		<stop  offset="0.6537" style="stop-color:#F3AD00"/>
		<stop  offset="0.7707" style="stop-color:#EA9A00"/>
		<stop  offset="1" style="stop-color:#B46501"/>
	</linearGradient>
	<path class="st7" d="M69.1,95.1c0.6,0.2,1.2,0.3,1.8,0.4c2.3,0.4,4.6,0.3,6.9-0.3c3.2-0.8,5.5-2,6.9-3.6c1.4-1.6,2.2-3.3,2.6-5.2
		c0.3-1.9,0.3-3.9-0.1-5.9c-0.4-2-0.8-3.9-1.1-5.6c-0.4-1.7-0.5-3.2-0.4-4.4c0.1-1.2,0.7-2,1.9-2.3c0.4-0.1,1-0.1,1.5,0.1
		c0.3,0.1,0.7,0.2,1,0.4c1,0.5,1.8,1.4,2.5,2.7c1.1,2,1.3,3.9,0.7,5.9c-0.6,1.9-2,3.5-4.3,4.6l4.9,8.9l17.8-4.4l-4.9-8.9l-2.9,0.7
		c0.3-2.5,0.2-4.9-0.4-7l7.4-1.8l-3.8-7l-6.8,1.7c-1.2-2-2.7-3.9-4.3-5.7c-1.6-1.7-3.4-3.2-5.4-4.3c-1.5-0.8-3-1.5-4.6-1.9
		c-0.6-0.1-1.1-0.3-1.7-0.4c-2.2-0.4-4.5-0.3-7,0.3c-3.3,0.8-5.6,2-7,3.6c-1.4,1.6-2.3,3.4-2.6,5.3c-0.3,1.9-0.3,3.9,0.1,6
		c0.4,2.1,0.8,4,1.1,5.8c0.3,1.7,0.5,3.3,0.5,4.5c0,1.3-0.6,2-1.8,2.3c-0.6,0.1-1.1,0.1-1.6,0c-0.4-0.1-0.8-0.3-1.2-0.5
		c-0.9-0.6-1.7-1.5-2.3-2.6c-0.5-0.9-0.8-1.8-0.9-2.8c-0.1-1,0-1.9,0.3-2.8c0.3-0.9,0.8-1.7,1.4-2.5c0.7-0.7,1.5-1.3,2.6-1.7l-4.9-9
		l-17.4,4.3l4.9,9l3-0.7c-0.1,0.7-0.2,1.6-0.2,2.6c0,1,0.1,2.1,0.3,3.3l-7.9,2l3.8,7l6.9-1.7c1.1,2.1,2.5,4,4.2,5.7
		c1.7,1.7,3.6,3.1,5.6,4.3C66,94.1,67.5,94.7,69.1,95.1L69.1,95.1z"/>
	<g>
		
			<linearGradient id="SVGID_9_" gradientUnits="userSpaceOnUse" x1="-53.2198" y1="-1439.0762" x2="44.6806" y2="-1439.0762" gradientTransform="matrix(-0.9647 -0.2634 0.2634 -0.9647 447.2846 -1296.6815)">
			<stop  offset="0" style="stop-color:#FDA800"/>
			<stop  offset="0.4979" style="stop-color:#FDED7E"/>
			<stop  offset="0.5721" style="stop-color:#FBE878"/>
			<stop  offset="0.6685" style="stop-color:#F4DA68"/>
			<stop  offset="0.7771" style="stop-color:#E9C34D"/>
			<stop  offset="0.8937" style="stop-color:#DAA328"/>
			<stop  offset="1" style="stop-color:#CA8000"/>
		</linearGradient>
		<path class="st8" d="M124.3,88.2c-1.7,5.3-5,10-9.2,13.7c-4.2,3.6-9.3,6.3-14.6,8c-10.7,3.4-22.3,3.1-33,0.3
			c-2.7-0.8-5.3-1.7-7.9-2.7c-2.6-1.1-5.1-2.3-7.5-3.7c-2.4-1.4-4.7-3-6.9-4.7c-2.2-1.8-4.2-3.7-6.1-5.8c-3.7-4.2-6.7-9-8.5-14.3
			c-1.8-5.3-2.2-11-1-16.4c-1.1,5.4-0.5,11.1,1.3,16.3c1.8,5.2,4.9,9.9,8.6,14c7.4,8.2,17.4,13.7,28,16.6c10.6,2.9,22,3.2,32.6-0.1
			c5.3-1.6,10.3-4.2,14.5-7.7C119.1,98.1,122.5,93.5,124.3,88.2z"/>
	</g>
</g>
</svg>
