<?xml version="1.0" encoding="utf-8"?>
<!-- Generator: Adobe Illustrator 21.1.0, SVG Export Plug-In . SVG Version: 6.00 Build 0)  -->
<svg version="1.1" id="Layer_1" xmlns="http://www.w3.org/2000/svg" xmlns:xlink="http://www.w3.org/1999/xlink" x="0px" y="0px"
	 viewBox="0 0 159 155" style="enable-background:new 0 0 159 155;" xml:space="preserve">
<style type="text/css">
	.st0{fill:#0059FF;}
	.st1{fill:#12908B;}
	.st2{fill:url(#SVGID_1_);}
	.st3{fill:url(#SVGID_2_);}
	.st4{opacity:0.53;fill:#5CF4FF;enable-background:new    ;}
	.st5{fill:#5CF4FF;}
	.st6{fill:#5CF5FF;}
	.st7{fill:url(#SVGID_3_);}
	.st8{fill:url(#SVGID_4_);}
	.st9{fill:url(#SVGID_5_);}
	.st10{fill:#31A9FB;}
</style>
<g>
	<polygon class="st0" points="132.9,42.9 109.9,86.3 47.2,110.8 25.9,100.4 39.6,58.4 128.1,37.3 	"/>
	<polygon class="st1" points="47.2,110.8 25.9,100.4 100.4,71.8 109.9,86.3 	"/>
	
		<linearGradient id="SVGID_1_" gradientUnits="userSpaceOnUse" x1="-4695.1265" y1="1668.7817" x2="-4656.7002" y2="1668.7817" gradientTransform="matrix(-0.9715 0.2372 0.2372 0.9715 -4820.6772 -450.0037)">
		<stop  offset="0" style="stop-color:#FFFFFF"/>
		<stop  offset="1" style="stop-color:#9579A7"/>
	</linearGradient>
	<polygon class="st2" points="100.4,71.8 128.1,37.3 132.9,42.9 109.9,86.3 	"/>
	
		<linearGradient id="SVGID_2_" gradientUnits="userSpaceOnUse" x1="-4616.4702" y1="1672.9994" x2="-4577.5459" y2="1672.9994" gradientTransform="matrix(-0.9715 0.2372 0.2372 0.9715 -4820.6772 -450.0037)">
		<stop  offset="0" style="stop-color:#FFFFFF"/>
		<stop  offset="1" style="stop-color:#9579A7"/>
	</linearGradient>
	<polygon class="st3" points="62.6,86.6 39.6,58.4 25.9,100.4 47.2,110.8 	"/>
	<polygon class="st4" points="128.1,37.3 132.9,42.9 103.6,75.4 60,89.5 39.6,58.4 	"/>
	<polygon class="st5" points="25.9,100.4 36.6,91.8 39.6,58.4 	"/>
	<polygon class="st6" points="103.6,75.4 109.9,86.3 132.9,42.9 	"/>
</g>
<linearGradient id="SVGID_3_" gradientUnits="userSpaceOnUse" x1="25.9" y1="79.4" x2="58.8521" y2="79.4">
	<stop  offset="0" style="stop-color:#0048DB"/>
	<stop  offset="1" style="stop-color:#0061F6"/>
</linearGradient>
<polygon class="st7" points="39.6,58.4 58.9,87.7 25.9,100.4 36.6,91.8 "/>
<linearGradient id="SVGID_4_" gradientUnits="userSpaceOnUse" x1="25.9" y1="99.275" x2="60.9501" y2="99.275">
	<stop  offset="0" style="stop-color:#001E6C"/>
	<stop  offset="1" style="stop-color:#0043BF"/>
</linearGradient>
<polygon class="st8" points="58.9,87.7 60,89.5 61,89.2 47.2,110.8 25.9,100.4 "/>
<linearGradient id="SVGID_5_" gradientUnits="userSpaceOnUse" x1="47.2" y1="93.1" x2="109.9" y2="93.1">
	<stop  offset="0" style="stop-color:#0044BC"/>
	<stop  offset="0.4819" style="stop-color:#0055E8"/>
	<stop  offset="1" style="stop-color:#0041B4"/>
</linearGradient>
<polygon class="st9" points="103.6,75.4 109.9,86.3 47.2,110.8 61,89.2 "/>
<polygon class="st10" points="128.1,37.3 132.9,42.9 103.6,75.4 100.4,71.8 "/>
<polygon class="st10" points="100.4,71.8 103.6,75.4 60,89.5 58.9,87.7 "/>
<polygon class="st10" points="62.4,86.4 58.9,87.7 39.6,58.4 "/>
</svg>
