<?xml version="1.0" encoding="utf-8"?>
<!-- Generator: Adobe Illustrator 21.1.0, SVG Export Plug-In . SVG Version: 6.00 Build 0)  -->
<svg version="1.1" id="Layer_1" xmlns="http://www.w3.org/2000/svg" xmlns:xlink="http://www.w3.org/1999/xlink" x="0px" y="0px"
	 viewBox="0 0 967 965" style="enable-background:new 0 0 967 965;" xml:space="preserve">
<style type="text/css">
	.st0{opacity:0.25;fill:url(#SVGID_1_);enable-background:new    ;}
	.st1{fill:url(#SVGID_2_);}
</style>
<g>
	
		<radialGradient id="SVGID_1_" cx="-1655.3887" cy="289.7487" r="209.3999" gradientTransform="matrix(-2.0314 0 0 -2.0314 -2879.2563 1071.0955)" gradientUnits="userSpaceOnUse">
		<stop  offset="0.5479" style="stop-color:#008BC4"/>
		<stop  offset="0.5946" style="stop-color:#0085BC;stop-opacity:0.8966"/>
		<stop  offset="0.6665" style="stop-color:#0076A7;stop-opacity:0.7377"/>
		<stop  offset="0.7544" style="stop-color:#005D84;stop-opacity:0.5431"/>
		<stop  offset="0.8551" style="stop-color:#003B53;stop-opacity:0.3205"/>
		<stop  offset="0.9651" style="stop-color:#000F15;stop-opacity:7.712191e-02"/>
		<stop  offset="1" style="stop-color:#000000;stop-opacity:0"/>
	</radialGradient>
	<path class="st0" d="M58.1,482.6c0,234.9,190.5,425.3,425.4,425.3c64.7,0,126-14.5,180.8-40.3c10.8-5.1,21.4-10.6,31.7-16.6
		c41.3-23.8,78.2-54.5,109.2-90.4c11.3-13,21.8-26.8,31.5-41.1c13.1-19.5,24.7-40.1,34.4-61.8c24.2-53.4,37.7-112.8,37.7-175.2
		c0-62.6-13.5-122-37.8-175.5c-7.8-17.1-16.6-33.7-26.6-49.6c-21.5-34.4-47.7-65.5-77.8-92.3l-0.1-0.1
		c-75.2-67.1-174.3-107.9-283-107.9c-34.8,0-68.6,4.2-100.9,12.1c-45.1,11-87.2,29-125.3,53.1h-0.1c-7.4,4.7-14.7,9.6-21.8,14.7
		c-5.9,4.3-11.8,8.7-17.5,13.3c-27.9,22.3-52.9,48-74.3,76.5c-44.8,59.4-74.3,130.9-82.9,208.6C59,450.9,58.1,466.6,58.1,482.6z"/>
	
		<radialGradient id="SVGID_2_" cx="-2066.0408" cy="383.501" r="209.367" gradientTransform="matrix(-1.4471 0 0 -1.4471 -2556.3677 1077.5643)" gradientUnits="userSpaceOnUse">
		<stop  offset="0.8128" style="stop-color:#008BC4"/>
		<stop  offset="0.834" style="stop-color:#006F9D"/>
		<stop  offset="0.8632" style="stop-color:#004E6D"/>
		<stop  offset="0.8923" style="stop-color:#003246"/>
		<stop  offset="0.9209" style="stop-color:#001C27"/>
		<stop  offset="0.9487" style="stop-color:#000C12"/>
		<stop  offset="0.9755" style="stop-color:#000304"/>
		<stop  offset="1" style="stop-color:#000000"/>
	</radialGradient>
	<path class="st1" d="M130.4,522.6c0,167.3,135.7,303,303,303c46.1,0,89.7-10.3,128.8-28.7c7.7-3.6,15.2-7.6,22.6-11.8
		c29.4-17,55.7-38.8,77.8-64.4c8.1-9.3,15.6-19.1,22.4-29.3c9.3-13.9,17.6-28.6,24.5-44c17.3-38.1,26.8-80.3,26.8-124.8
		c0-44.6-9.6-86.9-26.9-125c-5.5-12.2-11.9-24-18.9-35.3c-15.3-24.5-34-46.6-55.5-65.8l0,0c-53.5-47.8-124.2-76.9-201.6-76.9
		c-24.8,0-48.9,3-71.9,8.6c-32.1,7.8-62.1,20.7-89.3,37.8l0,0c-5.3,3.3-10.5,6.8-15.5,10.5c-4.2,3-8.4,6.2-12.4,9.5
		c-19.9,15.9-37.7,34.2-53,54.5c-31.9,42.3-53,93.2-59,148.6C131.1,500,130.4,511.2,130.4,522.6z"/>
</g>
</svg>
