<?xml version="1.0" encoding="utf-8"?>
<!-- Generator: Adobe Illustrator 21.1.0, SVG Export Plug-In . SVG Version: 6.00 Build 0)  -->
<svg version="1.1" id="Layer_1" xmlns="http://www.w3.org/2000/svg" xmlns:xlink="http://www.w3.org/1999/xlink" x="0px" y="0px"
	 viewBox="0 0 240 188" style="enable-background:new 0 0 240 188;" xml:space="preserve">
<style type="text/css">
	.st0{opacity:0.61;fill:#5BAEFF;enable-background:new    ;}
	.st1{fill:url(#SVGID_1_);}
	.st2{opacity:0.61;}
	.st3{fill:#90CCFF;}
	.st4{fill:#4ACCFF;}
	.st5{fill:url(#SVGID_2_);}
	.st6{fill:#5BAEFF;}
	.st7{fill:url(#SVGID_3_);}
</style>
<g>
	<path class="st0" d="M119.9,155.5c41.9,16.3,87.5-22.9,85.9-79.7c-1.6-56.8-95-63.3-129.4-40.6C41.8,58,54.9,130.2,119.9,155.5z"/>
	
		<radialGradient id="SVGID_1_" cx="-3561.7405" cy="188.3045" r="56.1352" gradientTransform="matrix(-1.4471 0 0 -1.4471 -5010.7847 343.5614)" gradientUnits="userSpaceOnUse">
		<stop  offset="0" style="stop-color:#5EA4EA"/>
		<stop  offset="0.7654" style="stop-color:#75FFF6"/>
		<stop  offset="1" style="stop-color:#F2F4FF"/>
	</radialGradient>
	<path class="st1" d="M71.6,90.4c0,32.6,26.5,59.1,59.1,59.1c9,0,17.5-2,25.1-5.6c1.5-0.7,3-1.5,4.4-2.3c5.7-3.3,10.9-7.6,15.2-12.6
		c1.6-1.8,3-3.7,4.4-5.7c1.8-2.7,3.4-5.6,4.8-8.6c3.4-7.4,5.2-15.7,5.2-24.3c0-8.7-1.9-16.9-5.2-24.4c-1.1-2.4-2.3-4.7-3.7-6.9
		c-3-4.8-6.6-9.1-10.8-12.8l0,0c-10.4-9.3-24.2-15-39.3-15c-4.8,0-9.5,0.6-14,1.7c-6.3,1.5-12.1,4-17.4,7.4l0,0c-1,0.7-2,1.3-3,2
		c-0.8,0.6-1.6,1.2-2.4,1.8c-3.9,3.1-7.3,6.7-10.3,10.6C77.3,63.1,73.2,73,72,83.8C71.7,86,71.6,88.2,71.6,90.4z"/>
	<g class="st2">
		<path class="st3" d="M127,23v0.8c38.1,0,76.9,16.1,78,52c0.7,24.5-7.7,47.7-23,63.5c-12,12.3-27.1,19.1-42.5,19.1
			c-6.6,0-13-1.2-19.3-3.7C79,138.7,61.4,105,58.9,81c-2.1-19.5,4.6-36.4,17.8-45.2c11.5-7.5,30.3-12,50.3-12V23L127,23z M127,23
			c-19.8,0-38.7,4.4-50.7,12.2c-34.5,22.8-21.4,95,43.6,120.3c6.5,2.5,13.1,3.7,19.6,3.7c35.3,0,67.7-35.4,66.3-83.4
			C204.7,38.6,164.4,23,127,23L127,23z"/>
	</g>
	<path class="st4" d="M105.8,11.3c-9.7,1.8-18.7,6.2-25.4,13c-6.7,6.8-10.9,15.8-13.1,25.4c-2.5,9.7-4,19.7-4.8,29.6
		c-0.7,10-0.5,20,1.3,29.8c1.8,9.7,5,19.2,10.2,27.7c5.2,8.4,12.1,15.8,20.5,21.1s18.3,8.4,28.3,9c10,0.7,20.3-0.7,29.8-3.9
		c19.2-6.4,35.8-20,45.4-37.3c4.9-8.7,9-18,10.9-27.4c1.7-9.5,0.2-19.3-4.4-28.1c-4.6-8.8-11.3-16.5-18.5-23.8
		c-7.2-7.2-15.2-13.6-23.2-19.9C146.6,14.1,125.4,7.9,105.8,11.3z M187.1,45.1c7.7,6.8,15.1,14.1,20.8,23s8.2,20.3,6.4,31
		c-0.9,5.3-2.5,10.4-4.6,15.2c-1,2.4-2,4.8-3.3,7.1c-1.2,2.3-2.4,4.6-3.9,6.8c-5.6,9-13,16.7-21.5,22.8
		c-8.4,6.1-17.9,10.7-27.8,13.7c-9.9,3-20.2,4.7-30.6,4.2c-10.3-0.6-20.8-3-29.9-8.2c-9.1-5.1-17.1-12.5-22.9-21.4
		c-5.9-8.8-9.7-18.9-11.7-29.2C54,89.4,55.9,68.1,61,48c2.5-10.2,7.3-20.5,15.3-28c7.9-7.6,18.5-11.8,29-12.8
		c10.6-1,21.1,0.7,30.8,4.1s18.9,8.3,27.1,14.5C171.3,32.1,179.3,38.4,187.1,45.1z"/>
	
		<radialGradient id="SVGID_2_" cx="-3555.4702" cy="178.6467" r="55.4693" gradientTransform="matrix(-1.4471 0 0 -1.4471 -5010.7847 343.5614)" gradientUnits="userSpaceOnUse">
		<stop  offset="0" style="stop-color:#5EA4EA"/>
		<stop  offset="0.7654" style="stop-color:#75FFF6"/>
		<stop  offset="1" style="stop-color:#F2F4FF"/>
	</radialGradient>
	<path class="st5" d="M72.1,141.5c-0.3,0.6-0.5,1.2-0.7,1.8c-0.1,0.6,0,1.3,0.4,1.8c1.4,2.1,3.9,3.2,6.2,4.4
		c4.7,2.2,9.5,3.9,14.2,6.1c9.4,4.3,18.9,8.3,29,10.2c10,2,20.5,2,30.4-0.4c10-2.3,19.4-6.6,28-12.1c8.8-5.2,16.7-12.1,22.1-20.7
		c5.5-8.6,8-18.9,7.5-29.1s-3.6-20.2-8.2-29.3c-4.7-9.1-10.9-17.4-18.3-24.6c-3.7-3.5-7.7-6.8-12-9.6s-8.7-5.6-12.7-8.9
		c-4-3.2-7.8-6.8-11-10.9c-3.2-4-5.8-8.6-10.1-11.5c-2.1-1.5-4.3-2.7-6.7-3.7c-2.4-1-4.8-1.7-7.3-2.3c-5-0.9-10.2,0-15,1.8
		c-9.6,3.6-17.8,10.3-24.4,18.1c-3.3,3.9-6.2,8.2-8.3,12.8c-1.1,2.3-1.9,4.8-3,7.1c-1.1,2.4-2.3,4.7-3.6,6.9
		c-2.8,4.4-5.9,8.4-7.7,13.3c-0.9,2.4-1.7,4.8-2.1,7.3c-0.3,2.5-0.4,5.1-0.1,7.6c1,10.2,4.1,20.1,6.7,30.1
		c2.7,9.9,5.3,19.9,7.3,30.1C73.2,139.1,72.6,140.4,72.1,141.5z M65.1,107.8c-2.8-9.9-6-19.8-7.1-30.1c-0.3-2.6-0.2-5.2,0-7.8
		c0.4-2.6,1.2-5.1,2.1-7.6c1.7-5,5-9.2,7.6-13.6c2.7-4.4,4.4-9.1,6.5-13.9c2.2-4.8,5.2-9.1,8.6-13c6.7-7.9,15.1-14.6,25-18.1
		c4.9-1.7,10.2-2.6,15.4-1.6c2.6,0.6,5.1,1.3,7.4,2.4c2.4,1,4.7,2.2,6.8,3.8c4.3,3.1,6.9,7.8,10.1,11.7c3.2,4,6.9,7.6,11,10.7
		c4,3.2,8.3,6,12.7,8.8s8.5,6,12.2,9.6c7.5,7.1,13.9,15.4,18.8,24.6c4.8,9.2,8.1,19.3,8.6,29.8c0.5,10.4-2,21.1-7.6,29.9
		c-5.6,8.9-13.7,15.9-22.6,21.2c-8.8,5.5-18.3,10.1-28.5,12.2c-10.2,2.2-20.8,2.1-30.9-0.1c-10.2-2.1-19.7-6.3-29.1-10.6
		c-4.6-2.3-9.5-4.1-14.1-6.3c-2.2-1.2-4.7-2.3-6.2-4.6c-0.4-0.5-0.4-1.3-0.4-1.9c0.2-0.6,0.4-1.3,0.7-1.8c0.6-1.1,1.1-2.4,0.8-3.7
		C70.6,127.7,67.9,117.7,65.1,107.8z"/>
	<path class="st0" d="M118.8,156.1c41.9,16.3,87.5-22.9,85.9-79.7c-1.6-56.8-95-63.3-129.4-40.6C40.7,58.6,53.8,130.8,118.8,156.1z"
		/>
	<path class="st6" d="M90.6,109.1c1.5,1.8,2.9,3.5,3.9,5.7c0.6,1.4,1.8,3.3,0.5,4.6c-1.5,1.5-4.9-0.8-6.2-2.1
		c-0.6-0.6-1.3-1.2-1.9-1.9c-0.7-0.7-1.1-1.5-1.5-2.4c-0.9-2.1-0.7-4.3-0.7-6.6c0-1.4-0.3-3,0-4.3c0.3-1.2,1.4-3.1,2.2-4
		c1.8-2.3,2.7,0.1,3.1,1.9c0.4,2.1,0.4,4.1,1.1,6.1c0.2,0.5,0.2,1,0.4,1.4c0.1,0.3,0.5,0.6,0.6,0.8c0.3,0.8,0.1,2,0.1,2.9
		L90.6,109.1z"/>
	<path class="st6" d="M82,89.3c0.2-0.5,1.4-2,0.4-2.3c-0.4-0.1-1.2,0.2-1.4,0.5c-0.9,0.9-0.8,2.8-0.8,4c0,1,0.2,1.6,1,0.7
		c0.5-0.5,1.1-1.5,1.2-2.1L82,89.3z"/>
	<path class="st6" d="M100.6,118.1c0.7-0.9,1.1-1.6,2.2-1.9c0.6-0.2,1.3-0.2,2-0.3c2.4-0.5,4.6,0.9,6.7,1.8c1.9,0.8,3.9,1.4,5.9,2.2
		c2.3,0.9,4.3,2.7,5.7,4.8c1.7,2.5,3.1,5.4,4.1,8.3c0.6,1.6,1.6,4.3,1,6.1c-0.6,1.9-2.2,2.8-4.1,2.9c-1.8,0.1-3.8,0.2-5.6-0.1
		c-1-0.1-1.9-0.5-2.9-0.6c-0.8-0.1-1.6,0-2.4,0c-0.8-0.1-1.6-0.3-2.4-0.4c-1.6-0.1-2.9-0.7-4.3-1.5c-1.3-0.8-2.4-2-3.6-3
		c-1.5-1.3-3.1-2.6-3.9-4.4c-0.6-1.5-0.6-2.9-0.6-4.5c0-1.3-0.2-2.7,0-4c0.1-0.6,0.3-1.1,0.4-1.6c0-0.5-0.1-1.1,0-1.6
		C98.9,119.2,99.6,118.6,100.6,118.1z"/>
	<path class="st6" d="M102.1,109.5c-0.7-0.9-1.9-2.3-3.1-1.2c-0.6,0.5-0.7,2-0.3,2.6C99.6,112,101.9,110.8,102.1,109.5L102.1,109.5z
		"/>
	<path class="st6" d="M159.1,70.6c-2.4-1.8-4.5-3.9-6.7-6.1c-1.7-1.6-3.6-3.1-5.4-4.8c-1.5-1.4-3-3.6-3.4-5.7
		c-0.4-2.1-0.4-3.8,0.1-5.8c0.4-1.6,0.6-2.8,1.9-3.9c1.3-1.1,2.6-1,4.3-1c2.1,0.1,3.8,0.8,5.6,1.8c3,1.6,5.4,3.8,8.1,5.7
		c2.5,1.7,3.8,4.1,2.7,5.6c1.5,1.3,2.4,2.3,3.3,4.1c1.2,2.5,1.9,5.4,2,8.2c0,1.8,0,3.8-1.3,5.2c-2,2.2-6.4-0.3-8.3-1.6
		c-0.8-0.5-1.6-1.1-2.3-1.7c-1-0.8-2.3-1.8-3.7-1.4c-1.6,0.4-2.9,2.1-2.1,3.8c1.2,2.4,3.6,0.8,4.7-0.6L159.1,70.6z"/>
	<path class="st6" d="M134.6,39.3c0.5,1.1,1,1.6,0.3,2.6s-1.8,2.1-2.9,2.6c-1.1,0.5-2.6,0.6-3.7,0.7c-2,0.2-4,0.1-6,0.1
		c-1.8,0-3.5,0-5.3,0c-1.3,0-2.7,0.2-3.9-0.4c-2.2-1-3.4-2.5-2.4-4.8c2.3-5.4,9.1-6.8,14.3-6.7c2.1,0,4.3-0.1,6.3,0.7
		C133.5,35,136.6,36.8,134.6,39.3z"/>
	<path class="st6" d="M104.8,50.1c-0.8-1.4-1.9-2.4-3.5-1.5c-1.1,0.6-2,1.9-1.7,3.2c0.2,0.8,1,1.4,1.9,1.6c1.5,0.3,2.8-1.2,3.7-2.2
		L104.8,50.1z"/>
	<path class="st6" d="M96.9,100.2c1,1.6,1.1,1.7,1.1,3.6c0,0.9,0.3,2.6-0.7,3.1c-0.7,0.3-1.2-0.1-1.6-0.3c-0.7-0.4-1.3-0.9-1.6-1.7
		c-0.5-1.1-0.8-2.5-0.6-3.7c0.4-2.1,2.1-1.3,3.4-0.2C96.9,101,96.9,100.2,96.9,100.2z"/>
	<path class="st6" d="M144.7,133.8c1.3,0.1,4.2-0.3,5.2,1.1c0.4,0.6,0.7,1.1,0.8,1.8c0.2,2.2-1.3,4-3,5.3c-2.6,1.9-6.7,3-9.5,1
		c-2.1-1.5-2.3-4.7-0.3-6.3c1.5-1.2,5.3-3.7,7.3-2.4L144.7,133.8z"/>
	<path class="st6" d="M135.4,130.4c-1.3,1.6-1.5,1.8-3,1c-0.6-0.3-1-0.3-1.2-1c0-0.2-0.1-1.1,0-1.3c0.4-0.5,1.4-0.6,2-0.6
		c0.9,0.1,1.6,0.4,1.7,1.5L135.4,130.4z"/>
	
		<radialGradient id="SVGID_3_" cx="-3547.356" cy="182.3292" r="51.5836" gradientTransform="matrix(-1.4471 0 0 -1.4471 -5010.7847 343.5614)" gradientUnits="userSpaceOnUse">
		<stop  offset="0" style="stop-color:#5EA4EA"/>
		<stop  offset="0.7654" style="stop-color:#75FFF6"/>
		<stop  offset="1" style="stop-color:#F2F4FF"/>
	</radialGradient>
	<path class="st7" d="M108.3,17.8l-7.3-0.2c-2.4,0.1-4.9,0.2-7.3,0.4c-4.8,0.5-9.6,1.2-14.2,2.6l-1.7,0.5l-1.6,0.7l-3.3,1.4
		c-1.1,0.5-2,1.3-3,1.9c-1,0.7-2,1.2-2.8,2.1l-2.6,2.4c-0.8,0.9-1.4,1.9-2.2,2.8c-0.8,0.9-1.3,1.9-1.9,3c-0.5,1-1.2,2-1.6,3.1
		c-1.9,4.3-3.1,9-4.1,13.7c-2,9.4-2.7,19.2-5.5,28.8c-1.4,4.7-3.2,9.4-4.9,13.9c-1.6,4.5-3.2,9.1-2.4,13.4c0.8,4.2,4.1,7.7,7.8,10.6
		c2,1.3,3.9,2.8,5.9,3.9c2.1,1.2,4.1,2.4,6.3,3.5C79,135.2,98,140.8,117.4,141c9.7,0,19.4-1.1,28.6-4.2c9.2-2.9,17.9-7.8,24.6-14.8
		c0.8-0.9,1.7-1.7,2.5-2.6l2.1-2.9c1.5-1.9,2.7-4,4.1-6.1c2.7-4.1,5.4-8.1,8.2-12.1c5.5-8,11.3-15.9,14.1-25.1c1.4-4.5,2-9.3,2.1-14
		c0-2.4-0.1-4.8-0.3-7.2s-0.6-4.6-1.5-6.7c-1.6-4.3-4.9-7.8-8.8-10.4c-3.9-2.6-8.3-4.6-12.9-6.1c-18.4-6-38.1-7.4-57.4-9.9
		C118,18.6,113.1,17.9,108.3,17.8z M151.9,21.8c9.7,1.1,19.4,2.4,28.9,5.2c4.7,1.4,9.4,3.2,13.6,5.9c2.1,1.4,4.1,3,5.8,4.9
		s3.1,4.1,4.1,6.5s1.6,5,1.7,7.5c0.2,2.5,0.4,5,0.3,7.4c-0.1,5-0.8,10-2.4,14.8c-3.2,9.6-9.4,17.5-15.1,25.3
		c-2.9,3.9-5.8,7.8-8.6,11.8c-1.4,2-2.6,4.1-4.2,6l-2.2,3c-0.8,0.9-1.7,1.8-2.6,2.7c-7,7-15.7,12-25,15.1s-19.1,4.7-28.9,4.8
		c-19.7,0.2-39.3-4.9-56.8-13.8c-2.2-1-4.3-2.3-6.5-3.5s-4.2-2.7-6.3-4.1c-3.9-3-7.9-7-9.1-12.5c-1.1-5.5,0.8-10.6,2.5-15.1
		c1.7-4.6,3.5-9.1,4.9-13.7c2.8-9.1,3.3-18.9,5.5-28.6c1.1-4.8,2.5-9.6,4.6-14.2c0.5-1.2,1.2-2.2,1.8-3.3s1.3-2.2,2.2-3.1
		c0.8-1,1.6-2,2.5-2.9l2.9-2.5c0.9-0.9,2.1-1.4,3.1-2.1c1.1-0.6,2.1-1.4,3.3-1.8l3.5-1.4l1.7-0.7l1.8-0.4c4.8-1.3,9.7-1.9,14.6-2.1
		c9.8-0.6,19.5,0.4,29.2,1.5L151.9,21.8z"/>
	<path class="st6" d="M39,119.4c0.7,0.3,1.2,0.4,1.6,1c0.3,0.4,0.5,0.9,0.5,1.4s0,1.1-0.4,1.5s-1.3,0.5-1.7,0.6
		c-2.8,0.6-6.3-0.7-7.6-3.4c-0.3-0.6-0.5-1.3-0.7-1.9c-0.1-0.6-0.1-0.8,0.3-1.3c0.4-0.6,0.9-1.1,1-1.9c0.2-2.1-1.6-4.2-1-6.2
		c0.4-1.1,0.8-2.3,2.2-2c1.4,0.4,2.6,1.7,3.4,2.9c0.6,0.9,1.1,1.8,1.4,2.8c0.2,0.9,0.4,1.8,0.7,2.6c0.3,0.8,0.6,1.5,0.9,2.3
		C40.1,119,40.5,120.1,39,119.4z"/>
	<path class="st6" d="M34.7,103c0.2-0.5,0.6-1.9-0.4-1.9c-0.8,0-1.3,1.3-1.4,1.9c-0.3,1.2,1.7,1.2,1.6,0.4L34.7,103z"/>
	<path class="st6" d="M34.4,132.7c-0.9,0-1.8,0-2.6,0.1c0.1,0.2-0.1,0.5-0.1,0.7c-0.1,0.7,0,1.4,0.2,2c0.3,1.1,1.2,2.1,2.1,2.7
		c1.7,1,3.5,0.2,4.8-0.9c1.1-0.9,2.1-2.6,0.8-3.7c-0.9-0.8-2.1-1.3-3.3-1.7c-0.6-0.2-1.9-0.7-2.5-0.2L34.4,132.7z"/>
	<path class="st6" d="M213.3,48.6c0.9,0.4,1.4,0.4,1.7,1.3c0.4,1.2,0.6,2.6,0.6,3.9c0,2.3-0.5,4.4-1.7,6.4c-0.2,0.3-0.6,0.9-1,0.9
		c-0.5,0.1-1.2-0.6-1.5-0.9c-1.2-1-2.1-2.2-2.9-3.6c-0.8-1.3-0.9-2.8-0.7-4.3c0.1-1,0.4-1.9,0.6-2.9c0.1-0.7,0.2-1.3,0.5-1.9
		c0.4-0.8,0.8-1.7,1.8-1.5c0.8,0.1,1.8,0.9,2.4,1.3C214,48,214.4,49.1,213.3,48.6z"/>
	<path class="st6" d="M213.8,68.1c0.1-0.3,0.2-0.6,0.2-0.9c-0.7-0.4-1.1-0.5-1.8-0.1c-0.6,0.3-1.1,1-0.7,1.7c0.3,0.5,1,1,1.6,0.7
		c0.7-0.3,1.4-0.9,1.3-1.7L213.8,68.1z"/>
	<path class="st6" d="M219,86.7c0.3,0.6,0.7,1.7,0,2.3c-0.2,0.1-0.5,0.2-0.8,0.2c-0.3-0.1-0.4-0.3-0.6-0.5c-0.6-0.7-1.4-1.6-1.3-2.6
		c0-0.6,0.3-2.2,1.2-2c1.1,0.3,1.3,2.6,1.4,3.4v-0.8H219z"/>
	<path class="st6" d="M208.8,134.4c-0.6,1-1.4,1.7-2.2,2.5c-0.4,0.4-1.2,1.2-1.9,0.9c-0.4-0.2-0.6-1.4-0.6-1.8
		c0.1-0.7,0.7-1.7,1.1-2.2c0.6-0.7,1.7-1.4,2.6-1c0.6,0.2,0.9,0.5,0.9,1.2L208.8,134.4L208.8,134.4z"/>
	<path class="st6" d="M196.8,126.5c-1.2,2.3-3,4.5-5.2,6c-0.4,0.3-1,0.6-1.5,0.2c-0.6-0.6,0.1-1.5,0.3-2.1c0.9-1.9,2-3.7,3.2-5.5
		c0.6-0.9,1.3-1.8,1.7-2.8c0.5-1,1.1-2,1.6-3.1c0.5-0.9,1-1.8,1.5-2.7c0.2-0.3,0.6-1.1,1-1.2c0.4-0.2,0.9,0.4,1.1,0.8
		c0.3,0.8,0.2,1.7,0.1,2.5c-0.2,1-0.5,1.9-0.9,2.8c-0.4,1-0.6,2-1.2,2.9c-0.5,0.9-1.1,1.9-1.7,2.8c-0.4,0.6-0.9,1.2-1.3,1.7
		c-0.6,0.6-1.2,1-1.8,1.6L196.8,126.5z"/>
	<path class="st6" d="M79.5,154c-0.9-0.2-2.3-0.9-2.9,0.2c-0.4,0.8-0.2,1.5,0.1,2.3c0.6,1.5,1.5,3,3.3,3c1.2,0,3.1-0.5,3-2
		c0-0.9-0.6-1.4-1.3-1.9c-0.8-0.5-1.9-1.2-2.8-1.3L79.5,154z"/>
</g>
</svg>
