<?xml version="1.0" encoding="utf-8"?>
<!-- Generator: Adobe Illustrator 21.1.0, SVG Export Plug-In . SVG Version: 6.00 Build 0)  -->
<svg version="1.1" id="Layer_1" xmlns="http://www.w3.org/2000/svg" xmlns:xlink="http://www.w3.org/1999/xlink" x="0px" y="0px"
	 viewBox="0 0 325 297" style="enable-background:new 0 0 325 297;" xml:space="preserve">
<style type="text/css">
	.st0{fill-rule:evenodd;clip-rule:evenodd;fill:url(#SVGID_1_);}
	.st1{opacity:0.58;}
	.st2{fill-rule:evenodd;clip-rule:evenodd;fill:#9CBDFF;}
	.st3{fill-rule:evenodd;clip-rule:evenodd;fill:url(#SVGID_2_);}
	.st4{fill-rule:evenodd;clip-rule:evenodd;fill:url(#SVGID_3_);}
	.st5{fill-rule:evenodd;clip-rule:evenodd;fill:url(#SVGID_4_);}
	.st6{fill-rule:evenodd;clip-rule:evenodd;fill:url(#SVGID_5_);}
	.st7{fill-rule:evenodd;clip-rule:evenodd;fill:url(#SVGID_6_);}
	.st8{fill-rule:evenodd;clip-rule:evenodd;fill:url(#SVGID_7_);}
	.st9{fill-rule:evenodd;clip-rule:evenodd;fill:#A99AF4;}
	.st10{fill-rule:evenodd;clip-rule:evenodd;fill:#573DAE;}
	.st11{fill-rule:evenodd;clip-rule:evenodd;fill:url(#SVGID_8_);}
	.st12{fill-rule:evenodd;clip-rule:evenodd;fill:#A972B0;}
	.st13{fill-rule:evenodd;clip-rule:evenodd;fill:url(#SVGID_9_);}
	.st14{fill-rule:evenodd;clip-rule:evenodd;fill:url(#SVGID_10_);}
	.st15{opacity:0.88;fill-rule:evenodd;clip-rule:evenodd;fill:#A99AF4;}
	.st16{fill-rule:evenodd;clip-rule:evenodd;fill:#5729AE;}
	.st17{fill:#00E7F4;}
	.st18{fill-rule:evenodd;clip-rule:evenodd;fill:url(#SVGID_11_);}
	.st19{fill-rule:evenodd;clip-rule:evenodd;fill:url(#SVGID_12_);}
</style>
<g>
	
		<radialGradient id="SVGID_1_" cx="-3045.1184" cy="134.0486" r="116.7807" gradientTransform="matrix(-1.4471 0 0 1.4471 -4210.5835 -88.8833)" gradientUnits="userSpaceOnUse">
		<stop  offset="0" style="stop-color:#B840C7"/>
		<stop  offset="0.6983" style="stop-color:#750088"/>
		<stop  offset="0.9478" style="stop-color:#5E1377"/>
		<stop  offset="0.9972" style="stop-color:#8160FF"/>
	</radialGradient>
	<path class="st0" d="M46.8,145.3c0,67.9,55,122.9,122.9,122.9c18.7,0,36.4-4.2,52.3-11.6c3.1-1.5,6.2-3.1,9.2-4.8
		c11.9-6.9,22.6-15.7,31.6-26.1c3.3-3.8,6.3-7.7,9.1-11.9c3.8-5.6,7.1-11.6,9.9-17.8c7-15.4,10.9-32.6,10.9-50.6
		c0-18.1-3.9-35.3-10.9-50.7c-2.2-5-4.8-9.7-7.7-14.3c-6.2-9.9-13.8-18.9-22.5-26.7l0,0c-21.7-19.4-50.4-31.2-81.8-31.2
		c-10.1,0-19.8,1.2-29.2,3.5c-13,3.2-25.2,8.4-36.2,15.3h0c-2.2,1.4-4.2,2.8-6.3,4.2c-1.7,1.2-3.4,2.5-5,3.8
		c-8.1,6.4-15.3,13.9-21.5,22.1C58.5,88.6,50,109.2,47.5,131.7C47,136.2,46.8,140.7,46.8,145.3z"/>
	<g class="st1">
		<path class="st2" d="M207.8,159.2c0.8,0.3,2.3,0.8,2.1,1.5c-0.1,0.3-0.5,0.6-0.6,1c-0.2,0.3-0.3,0.6-0.3,0.9
			c-0.1,0.4-0.4,1.1-0.9,1.4c-0.4,0.2-0.8,0-1-0.2c-0.3-0.3-0.6-0.5-0.6-0.8c0-0.4-0.1-0.8-0.2-1.2c-0.1-0.1-0.3-0.3-0.3-0.4
			c-0.1-0.2-0.1-0.4,0-0.6C205.9,160.2,206.5,159.3,207.8,159.2z"/>
		<path class="st2" d="M211.1,165.3c0.1-0.2,0-0.4-0.2-0.5c-1.2,0-1.6,1.4-0.5,1.7c1.3,0.3,1.4-0.8,1.1-1.2H211.1z"/>
		<path class="st2" d="M233.1,174.5c-0.6-0.2-1.1-0.4-1.8-0.3c-0.6,0.1-1.1,0.3-1.4,0.6c-0.5,0.3-0.7,0.8-0.9,1.2
			c-0.1,0.2-0.3,0.4-0.2,0.6c0.4,0.9,2,1.5,3.3,1.7c0.7,0.1,1.4,0.3,2.2,0.3c0.5,0,1.1,0.1,1.6,0.1c0.4,0,0.8,0.2,1.3,0.1
			c0.3-0.1,0.8-0.2,1-0.3c0.8-0.4,1.4-1,1.3-1.6c-0.1-1.1-2.3-2-3.7-2.5C234.4,174,232.5,173.5,233.1,174.5z"/>
		<path class="st2" d="M227.3,173c0.2,0.3,0.3,0.4-0.1,0.6c-0.3,0.1-0.7,0.1-1.1,0.1c-0.6-0.1-1.4-0.7-1-1.1
			c0.2-0.2,0.8-0.6,1.2-0.6c0.8,0,1.8,0.6,1.7,1.1H227.3z"/>
		<path class="st2" d="M202.4,180c-0.2-0.2-0.5-0.6-1-0.5c-0.5,0.1-0.5,0.5-0.5,0.7c0.1,0.6,1.3,0,1.2-0.4L202.4,180z"/>
		<path class="st2" d="M193.4,183.6c0.2,0.2,0.3,0.4,0.2,0.7c-0.1,0.3-0.6,0.5-1.1,0.5c-0.9,0-1.4-0.1-1.6-0.6
			c-0.1-0.3,0.3-0.8,0.7-1c0.2-0.1,0.4-0.2,0.7-0.2c0.5,0,0.8,0.2,1,0.5L193.4,183.6z"/>
		<path class="st2" d="M166.1,196.4c0.2,0.1,0.4,0.2,0.5,0.3c0,0.1,0,0.2,0,0.2c-0.1,0.3-1.1,0.4-1.5,0.4c-1.3,0-2.7-0.2-3.7-0.8
			c-0.6-0.4-1.1-1-1-1.5c0.2-0.7,1.5-1.1,2.6-1.3c1-0.1,2.5-0.2,3.3,0.3c0.3,0.2,0.5,0.4,0.6,0.6c0,0.2-0.1,0.4-0.1,0.6
			c0,0.3,0.2,0.5,0,0.7C166.6,196.2,166.4,196.3,166.1,196.4z"/>
		<path class="st2" d="M158.4,196.4c0.1-0.2,0-0.2-0.2-0.4c-0.2-0.2-0.4-0.2-0.7-0.2c-0.5,0.1-0.8,0.4-0.6,0.7
			c0.1,0.2,0.5,0.3,0.8,0.3c0.4,0,0.7-0.1,0.8-0.4L158.4,196.4z"/>
		<path class="st2" d="M148.6,179.6c0.5,0.1,0.7,0.2,1,0.5c0.1,0.1,0.2,0.2,0.1,0.4c-0.3,0.4-1.1,0.8-1.8,0.9
			c-0.5,0.1-1.1,0.1-1.5-0.1c-0.4-0.1-0.7-0.4-1-0.6c-0.3-0.2-0.5-0.4-0.7-0.6c-0.4-0.4-0.7-0.7-0.3-1.1c0.4-0.4,1.2-0.6,1.9-0.6
			c0.6,0,0.9,0.1,1.4,0.3C148.1,178.8,148.5,178.9,148.6,179.6z"/>
		<path class="st2" d="M151.2,181.4c-0.4,0-0.8,0.1-1.1,0.2c0,0.1-0.2,0.2-0.1,0.3c0.1,0.2,0.6,0.1,0.8,0.1c0.3,0,0.6-0.1,0.8-0.2
			c0.1,0,0.4-0.2,0.1-0.3L151.2,181.4z"/>
		<path class="st2" d="M185.7,194.9c0.2,0.3,0.5,0.6,0.1,0.9c-0.4,0.3-1.1,0.2-1.6,0.1c-0.3-0.1-0.5-0.1-0.6-0.3c0-0.2,0-0.4,0-0.6
			c0-0.4-0.7-0.7-0.1-1.2c0.3-0.2,0.8-0.3,1.2-0.3c0.7,0.1,1.1,0.5,1.3,0.9L185.7,194.9z"/>
		<path class="st2" d="M243.7,211c0.8,0.1,1.6,0.4,2.1,0.7c0,0.1,0,0.1,0,0.2c0.2,0.3,0.2,0.7,0,1c-0.9,1-2.6,0.9-4.1,0.9
			c-1.7,0-3.8,0.1-3-1.3c0.3-0.6,0.8-1.7,1.8-2.1c0.5-0.2,0.8-0.1,1.3,0C242.3,210.6,243.2,210.7,243.7,211L243.7,211z"/>
		<path class="st2" d="M224.7,212.6c-0.3-0.3-0.6-0.8-1.3-0.8c-0.5,0-0.7,0.2-1.1,0.3c-0.8,0.4-1.6,0.8-0.8,1.5
			c0.4,0.3,1.3,0.5,1.9,0.4c0.5-0.1,1.5-0.5,1.3-0.9V212.6z"/>
		<path class="st2" d="M145.5,124.8c0.6,0.8,0.7,0.8,0.3,1.6c-0.3,0.6-0.4,1.2-1.2,1.7c-0.9,0.6-2.2,0.5-3.4,0.6
			c-0.9,0.1-1.5,0.2-2.3-0.2c-0.8-0.4-1.6-1-2.1-1.5c-1.6-1.7-1.5-4.2-0.2-6c0.9-1.2,2.1-2.5,4.3-2.9c1.8-0.3,3.9-0.1,5.2,0.8
			c1.3,0.9,1.6,2.1,1.2,3.2c-0.1,0.3-0.2,0.5-0.4,0.8c-0.1,0.3-0.1,0.7,0,1C146.9,124.3,146.6,124.6,145.5,124.8z"/>
		<path class="st2" d="M149,127.8c-1.2,0.6-1,0.5-1.2,1.2c-0.1,0.3-0.3,0.4-0.2,0.7c0.1,0.4,1,0.7,1.7,0.7c0.5,0,1.3-0.6,1.5-0.8
			c0.3-0.4,0.2-0.6-0.1-0.9L149,127.8z"/>
		<path class="st2" d="M269.8,127.6c0.3,0.6,0.6,1.4-0.6,1.8c-0.8,0.3-2,0-2.7-0.3c-1-0.5-2-1.6-2.2-2.4c-0.2-0.8,1.4-1.7,2.6-1.8
			c2.5-0.2,3.8,2.2,3.9,3.3L269.8,127.6z"/>
		<path class="st2" d="M271.5,134.5c0.1-0.2,0.7-0.7,0.6-0.9c0-0.1-0.3-0.1-0.3-0.2c-0.3-0.3-0.7-0.6-1.2-0.6
			c-1.2-0.1-2.2,0.1-2.8,0.8c-0.4,0.4-0.4,0.9,0.2,1.2c0.6,0.4,2,0.6,2.7,0.1L271.5,134.5z"/>
		<path class="st2" d="M161.6,215.4c0.8,1.1,0.7,2.3,0.4,3.4c-0.2,0.7-0.4,1.7-1.7,2c-3.1,0.8-5.4-3.2-6-4.5
			c-0.5-1.1-0.7-2.3-0.3-3.4c0.2-0.7,1.1-2,2.1-2.3c1.4-0.4,3,0.1,3.8,0.8c1.9,1.5,1.4,3.5,2.4,5.2L161.6,215.4z"/>
		<path class="st2" d="M163.2,215.1c0.3,0,1.7,0.1,2.2,0.3c0.3,0.1,0.9,0.3,1,0.6c0.1,0.3-0.3,0.7-0.6,0.9c-0.2,0.1-0.7,0.3-1.1,0.2
			c-0.3-0.1-0.5-0.3-0.7-0.4c-0.3-0.3-0.5-0.5-0.8-0.9c-0.1-0.1-0.2-0.3-0.3-0.4c-0.1-0.2,0.2-0.3,0.3-0.5V215.1z"/>
		<path class="st2" d="M120.6,105c0.8,0.3,2.3,0.8,2.1,1.5c-0.1,0.3-0.5,0.6-0.6,1c-0.2,0.3-0.3,0.6-0.3,0.9
			c-0.1,0.4-0.4,1.1-0.9,1.4c-0.4,0.2-0.8,0-1-0.2c-0.3-0.3-0.6-0.5-0.6-0.8c0-0.4-0.1-0.8-0.2-1.2c-0.1-0.1-0.3-0.3-0.3-0.4
			c-0.1-0.2-0.1-0.4,0-0.6C118.7,106,119.3,105.2,120.6,105z"/>
		<path class="st2" d="M123.9,111.1c0.1-0.2,0-0.4-0.2-0.5c-1.2,0-1.6,1.4-0.5,1.7c1.3,0.3,1.4-0.8,1.1-1.2H123.9z"/>
		<path class="st2" d="M115.3,125.8c-0.2-0.2-0.5-0.6-1-0.5c-0.5,0.1-0.5,0.5-0.5,0.7c0.1,0.6,1.3,0,1.2-0.4L115.3,125.8z"/>
		<path class="st2" d="M106.2,129.4c0.2,0.2,0.3,0.4,0.2,0.7c-0.1,0.3-0.6,0.5-1.1,0.5c-0.9,0-1.4-0.1-1.6-0.6
			c-0.1-0.3,0.3-0.8,0.7-1c0.2-0.1,0.4-0.2,0.7-0.2c0.5,0,0.8,0.2,1,0.5L106.2,129.4z"/>
		<path class="st2" d="M78.9,142.2c0.2,0.1,0.5,0.2,0.5,0.3c0,0.1,0,0.2,0,0.2c-0.1,0.3-1.1,0.4-1.5,0.4c-1.3,0-2.7-0.2-3.7-0.8
			c-0.6-0.4-1.1-1-1-1.5c0.2-0.7,1.5-1.1,2.6-1.3c1-0.1,2.5-0.2,3.3,0.3c0.3,0.2,0.5,0.4,0.6,0.6c0,0.2-0.1,0.4-0.1,0.6
			c0,0.3,0.2,0.5,0,0.7C79.4,142,79.2,142.1,78.9,142.2z"/>
		<path class="st2" d="M71.3,142.3c0.1-0.2,0-0.2-0.2-0.4c-0.2-0.2-0.4-0.2-0.7-0.2c-0.5,0.1-0.8,0.4-0.6,0.7
			c0.1,0.2,0.5,0.3,0.8,0.3c0.4,0,0.7-0.1,0.8-0.4L71.3,142.3z"/>
		<path class="st2" d="M138.2,42.4c0.5,0.1,0.7,0.2,1,0.5c0.1,0.1,0.2,0.2,0.1,0.4c-0.3,0.4-1.1,0.8-1.8,0.9
			c-0.5,0.1-1.1,0.1-1.5-0.1c-0.4-0.1-0.7-0.4-1-0.6c-0.3-0.2-0.5-0.4-0.7-0.6c-0.4-0.4-0.7-0.7-0.3-1.1c0.4-0.4,1.2-0.6,1.9-0.6
			c0.6,0,0.9,0.1,1.4,0.3C137.7,41.7,138.1,41.8,138.2,42.4z"/>
		<path class="st2" d="M140.8,44.2c-0.4,0-0.8,0.1-1.1,0.2c0,0.1-0.2,0.2-0.1,0.3c0.1,0.2,0.6,0.1,0.8,0.1c0.3,0,0.6-0.1,0.8-0.2
			c0.1,0,0.4-0.2,0.1-0.3L140.8,44.2z"/>
		<path class="st2" d="M98.5,140.8c0.2,0.3,0.5,0.6,0.1,0.9c-0.4,0.3-1.1,0.2-1.6,0.1c-0.3-0.1-0.5-0.1-0.6-0.3c0-0.2,0-0.4,0-0.6
			c0-0.4-0.7-0.7-0.1-1.2c0.3-0.2,0.8-0.3,1.2-0.3c0.7,0.1,1.1,0.5,1.3,0.9L98.5,140.8z"/>
		<path class="st2" d="M137.5,158.4c-0.3-0.3-0.6-0.8-1.3-0.8c-0.5,0-0.7,0.2-1.1,0.3c-0.8,0.4-1.6,0.8-0.8,1.5
			c0.4,0.3,1.3,0.5,1.9,0.4c0.5-0.1,1.5-0.5,1.3-0.9V158.4z"/>
		<path class="st2" d="M74.4,161.2c0.8,1.1,0.7,2.3,0.4,3.4c-0.2,0.7-0.4,1.7-1.7,2c-3.1,0.8-5.4-3.2-6-4.5
			c-0.5-1.1-0.7-2.3-0.3-3.4c0.2-0.7,1.1-2,2.1-2.3c1.4-0.4,3,0.1,3.8,0.8c1.9,1.5,1.4,3.5,2.4,5.2L74.4,161.2z"/>
		<path class="st2" d="M76,160.9c0.3,0,1.7,0.1,2.2,0.3c0.3,0.1,0.9,0.3,1,0.6c0.1,0.3-0.3,0.7-0.6,0.9c-0.2,0.1-0.7,0.3-1.1,0.2
			c-0.3-0.1-0.5-0.3-0.7-0.4c-0.3-0.3-0.5-0.5-0.8-0.9c-0.1-0.1-0.2-0.3-0.3-0.4c-0.1-0.2,0.2-0.3,0.3-0.5V160.9z"/>
		<path class="st2" d="M144.8,207.4c-0.2-0.2-0.5-0.6-1-0.5c-0.5,0.1-0.5,0.5-0.5,0.7c0.1,0.6,1.3,0,1.2-0.4L144.8,207.4z"/>
		<path class="st2" d="M135.7,210.9c0.2,0.2,0.3,0.4,0.2,0.7c-0.1,0.3-0.6,0.5-1.1,0.5c-0.9,0-1.4-0.1-1.6-0.6
			c-0.1-0.3,0.3-0.8,0.7-1c0.2-0.1,0.4-0.2,0.7-0.2c0.5,0,0.8,0.2,1,0.5L135.7,210.9z"/>
		<path class="st2" d="M108.5,223.7c0.2,0.1,0.5,0.2,0.5,0.3c0,0.1,0,0.2,0,0.2c-0.1,0.3-1.1,0.4-1.5,0.4c-1.3,0-2.7-0.2-3.7-0.8
			c-0.6-0.4-1.1-1-1-1.5c0.2-0.7,1.5-1.1,2.6-1.3c1-0.1,2.5-0.2,3.3,0.3c0.3,0.2,0.5,0.4,0.6,0.6c0,0.2-0.1,0.4-0.1,0.6
			c0,0.3,0.2,0.5,0,0.7C109,223.5,108.7,223.6,108.5,223.7z"/>
		<path class="st2" d="M100.8,223.8c0.1-0.2,0-0.2-0.2-0.4c-0.2-0.2-0.4-0.2-0.7-0.2c-0.5,0.1-0.8,0.4-0.6,0.7
			c0.1,0.2,0.5,0.3,0.8,0.3c0.4,0,0.7-0.1,0.8-0.4L100.8,223.8z"/>
		<path class="st2" d="M128.1,222.3c0.2,0.3,0.5,0.6,0.1,0.9c-0.4,0.3-1.1,0.2-1.6,0.1c-0.3-0.1-0.5-0.1-0.6-0.3c0-0.2,0-0.4,0-0.6
			c0-0.4-0.7-0.7-0.1-1.2c0.3-0.2,0.8-0.3,1.2-0.3c0.7,0.1,1.1,0.5,1.3,0.9L128.1,222.3z"/>
		<path class="st2" d="M104,242.7c0.8,1.1,0.7,2.3,0.4,3.4c-0.2,0.7-0.4,1.7-1.7,2c-3.1,0.8-5.4-3.2-6-4.5c-0.5-1.1-0.7-2.3-0.3-3.4
			c0.2-0.7,1.1-2,2.1-2.3c1.4-0.4,3,0.1,3.8,0.8c1.9,1.5,1.4,3.5,2.4,5.2L104,242.7z"/>
		<path class="st2" d="M105.5,242.5c0.3,0,1.7,0.1,2.2,0.3c0.3,0.1,0.9,0.3,1,0.6c0.1,0.3-0.3,0.7-0.6,0.9c-0.2,0.1-0.7,0.3-1.1,0.2
			c-0.3-0.1-0.5-0.3-0.7-0.4c-0.3-0.3-0.5-0.5-0.8-0.9c-0.1-0.1-0.2-0.3-0.3-0.4c-0.1-0.2,0.2-0.3,0.3-0.5V242.5z"/>
		<path class="st2" d="M164.9,224.9c-0.3,0.1-0.7,0.2-1,0.3c0.1,0.2-0.1,0.5,0.3,0.7c0.3,0.1,1,0.1,1.3,0c0.4-0.1,0.7-0.3,0.7-0.6
			c0-0.3-0.5-0.5-1-0.5L164.9,224.9z"/>
		<path class="st2" d="M212.5,238c0.2,0.3,0.2,0.5-0.2,0.8c-0.6,0.4-1.4,0.4-2.1,0.1c-0.9-0.4-1.9-1.4-1.6-2.1
			c0.2-0.5,1.1-1,1.9-0.7c0.4,0.1,0.9,0.3,1.2,0.5C212.3,237,212.5,237.5,212.5,238L212.5,238z"/>
		<path class="st2" d="M174.5,84.2c0.4,0.2,0.5,0.3,0.6,0.6c0.1,0.3,0.2,0.6-0.1,0.9c-0.6,0.6-2.1,0.9-3.1,1.1
			c-1,0.1-1.7,0.1-2.5-0.3c-0.9-0.4-1.5-0.9-1.6-1.6c-0.2-0.7,0.1-1.2,1.1-1.6c0.8-0.3,1.9-0.7,2.8-0.8c0.9-0.1,1.5,0.1,2.2,0.4
			C174.4,83.2,175.2,83.8,174.5,84.2z"/>
		<path class="st2" d="M166.5,86.4c0-0.2,0-0.4-0.3-0.4c-0.4-0.1-1.2,0.2-1.5,0.4c-0.2,0.1-0.5,0.5-0.4,0.7c0,0.2,0.3,0.3,0.5,0.4
			c0.4,0.2,0.8,0.2,1.2,0.1c0.3-0.1,0.9-0.3,0.8-0.5L166.5,86.4z"/>
		<path class="st2" d="M191,63.3c0,0.3,0,0.5-0.3,0.8c-0.4,0.4-1,0.8-1.7,1c-0.9,0.3-2,0.6-3,0.5c-0.7,0-1.5-0.6-1.6-1
			c-0.1-0.5,0.2-1.3,0.7-1.7c1-0.8,2.8-1.5,4.5-1.4C191.5,61.7,191.6,63.5,191,63.3z"/>
		<path class="st2" d="M182.5,67.5c0.2-0.1,0.4-0.3,0.4-0.4c-0.3-0.1-0.4-0.3-0.7-0.3c-0.3-0.1-0.7,0-0.9,0.1
			c-0.4,0.1-0.7,0.3-0.7,0.6c0,0.3,0.2,0.4,0.6,0.5c0.3,0.1,0.4,0.1,0.7,0c0.2-0.1,0.5-0.2,0.6-0.3V67.5z"/>
	</g>
	
		<linearGradient id="SVGID_2_" gradientUnits="userSpaceOnUse" x1="-3632.4075" y1="164.1086" x2="-3632.4075" y2="14.7833" gradientTransform="matrix(-1 0 0 1 -3407.6873 0)">
		<stop  offset="0" style="stop-color:#4F0E6F"/>
		<stop  offset="1" style="stop-color:#450086"/>
	</linearGradient>
	<path class="st3" d="M261.7,63.3l-0.6-10.8c0,0-35.9-30.4-87.4-37.7l-7.1,7.6l-4.9,7.7c0,0,44,23.4,72.4,61.3l-3.3,3l-30.8-17.4
		l-30.2,5.5l0.6,8.8c0,0,36.2,43.3,77,72.7h28.9l9.8-64l1.9-12.6L270.3,67L261.7,63.3z"/>
	
		<linearGradient id="SVGID_3_" gradientUnits="userSpaceOnUse" x1="-3501.3972" y1="209.4893" x2="-3501.3972" y2="44.7904" gradientTransform="matrix(-1 0 0 1 -3407.6873 0)">
		<stop  offset="0" style="stop-color:#4F0E6F"/>
		<stop  offset="1" style="stop-color:#450086"/>
	</linearGradient>
	<path class="st4" d="M83.5,44.8c0,0,26.8,5.5,59.1,36.9l12.4,4.7c0,0-59.5,14.3-80.3,24.5l3.6,10.1l-19.6,18.4
		c0,0,10.1,36.4,32.4,63.3l-4.1,6.8c0,0-30.9-5.7-45.6-17.5l-8.8-38.2l5.3-2.3C37.7,151.4,40.8,70.8,83.5,44.8z"/>
	
		<linearGradient id="SVGID_4_" gradientUnits="userSpaceOnUse" x1="-3571.5957" y1="258.0501" x2="-3571.5957" y2="222.5979" gradientTransform="matrix(-1 0 0 1 -3407.6873 0)">
		<stop  offset="0" style="stop-color:#4F0E6F"/>
		<stop  offset="1" style="stop-color:#450086"/>
	</linearGradient>
	<path class="st5" d="M205.4,241.9L184,222.6l-57.1,3.2l5.6,14.2l-10,2.9c0,0,16.9,19.9,76,14.1L205.4,241.9z"/>
	
		<linearGradient id="SVGID_5_" gradientUnits="userSpaceOnUse" x1="-3614.1511" y1="271.2874" x2="-3614.1511" y2="251.7719" gradientTransform="matrix(-1 0 0 1 -3407.6873 0)">
		<stop  offset="0" style="stop-color:#4F0E6F"/>
		<stop  offset="1" style="stop-color:#450086"/>
	</linearGradient>
	<path class="st6" d="M231.1,251.8v7.9l-27.9,11.6l-21.3-3.9C181.8,267.4,213.3,263.1,231.1,251.8z"/>
	
		<linearGradient id="SVGID_6_" gradientUnits="userSpaceOnUse" x1="-3514.4568" y1="282.2167" x2="-3514.4568" y2="233.5835" gradientTransform="matrix(-1 0 0 1 -3407.6873 0)">
		<stop  offset="0" style="stop-color:#4F0E6F"/>
		<stop  offset="1" style="stop-color:#450086"/>
	</linearGradient>
	<path class="st7" d="M137.4,263.6l-8.9-11.8l-24-18.2l-18.9,1.3l-9.4,9.5c0,0,15.9,23.3,51.4,37.8L137.4,263.6z"/>
	
		<linearGradient id="SVGID_7_" gradientUnits="userSpaceOnUse" x1="-3518.8804" y1="63.6107" x2="-3518.8804" y2="22.3956" gradientTransform="matrix(-1 0 0 1 -3407.6873 0)">
		<stop  offset="0" style="stop-color:#4F0E6F"/>
		<stop  offset="1" style="stop-color:#450086"/>
	</linearGradient>
	<path class="st8" d="M134.9,63.6c0,0-11.5-30.9-20.1-41.2c0,0-18.2-0.2-27.2,12.9L98,45.5C98,45.5,112.7,46.2,134.9,63.6z"/>
	<path class="st9" d="M173.6,14.8c0,0,48.5,38.8,66.6,74.7l18.8,25l-59.1-37.4l-30.2,5.5c0,0,51,54.4,85.5,76.7l21,4.9l11.7-76.6
		l-19.1-20.6l-2.6,24.5l-5-31v-7.9C261.1,52.5,225.2,20.7,173.6,14.8z"/>
	<path class="st10" d="M127.6,282.2l-21.3-31.6l-30.1-6.2C76.2,244.4,89.8,267.6,127.6,282.2z"/>
	<path class="st10" d="M84.2,208.9l-38-46.7l-13.7-8.4l8.8,38.2C41.3,192,56,206.2,84.2,208.9z"/>
	
		<linearGradient id="SVGID_8_" gradientUnits="userSpaceOnUse" x1="-3497.9763" y1="230.4267" x2="-3497.9763" y2="210.8158" gradientTransform="matrix(-1 0 0 1 -3407.6873 0)">
		<stop  offset="0" style="stop-color:#4F0E6F"/>
		<stop  offset="1" style="stop-color:#450086"/>
	</linearGradient>
	<polygon class="st11" points="106.3,222.1 81.4,210.8 73.8,216 84.2,227.6 106.8,230.4 	"/>
	<polygon class="st10" points="73.8,216 99.2,224.3 106.8,230.4 84.2,227.6 	"/>
	<path class="st12" d="M234,91.4l25,23l-18.8-25c0,0-31.4-51.8-66.6-74.7l-20.5,14.4C153.1,29.2,207.3,56.4,234,91.4z"/>
	<path class="st12" d="M169.7,82.6l0.4,5.9l-9.4,1c0,0,42.8,50,83.2,75.1l3.3-0.4L169.7,82.6z"/>
	<path class="st12" d="M134.9,63.6L94.7,47.9l3.3-2.4L87.5,35.3C87.5,35.3,111.4,35.7,134.9,63.6z"/>
	<polygon class="st12" points="74.6,110.8 56.3,91.4 99,94.4 150.4,87.5 76.2,114.4 	"/>
	
		<linearGradient id="SVGID_9_" gradientUnits="userSpaceOnUse" x1="-3551.7644" y1="150.3815" x2="-3551.7644" y2="102.4532" gradientTransform="matrix(-1 0 0 1 -3407.6873 0)">
		<stop  offset="0" style="stop-color:#4F0E6F"/>
		<stop  offset="1" style="stop-color:#450086"/>
	</linearGradient>
	<polygon class="st13" points="192.4,135.9 144.3,102.5 95.7,110.3 95.7,127.1 137.6,150.4 	"/>
	
		<linearGradient id="SVGID_10_" gradientUnits="userSpaceOnUse" x1="-3593.301" y1="164.524" x2="-3593.301" y2="151.4092" gradientTransform="matrix(-1 0 0 1 -3407.6873 0)">
		<stop  offset="0" style="stop-color:#4F0E6F"/>
		<stop  offset="1" style="stop-color:#450086"/>
	</linearGradient>
	<polygon class="st14" points="199.9,155.9 191.9,151.4 171.3,153.6 173.6,162.2 186.9,164.5 	"/>
	<polygon class="st9" points="192.4,135.9 161.6,138.2 132.1,105.3 144.3,102.5 	"/>
	<polygon class="st15" points="199.9,155.9 189.9,160.4 181.8,155.9 171.3,153.6 191.9,151.4 	"/>
	<polygon class="st12" points="161.6,138.2 137.4,145.3 95.7,127.1 128.7,156.1 192.4,135.9 	"/>
	<polygon class="st12" points="186.9,164.5 189.9,160.4 181.8,155.9 171.3,153.6 167.1,164.5 	"/>
	<polygon class="st10" points="39.8,131.6 52.7,146.7 63.6,164.5 39.8,146.7 	"/>
	<path class="st16" d="M125.2,242.8l7.3-2.7l-5.6-14.2l54.2,1.1l20.9,17.4l-3.5,12.6c0,0-21.2,6.4-41,3.4
		C137.6,257.4,125.2,242.8,125.2,242.8z"/>
	<polygon class="st15" points="184,222.6 181.1,226.9 202,244.3 205.4,241.9 	"/>
	<polygon class="st12" points="78.2,120.9 47.5,131.7 58.6,139.3 	"/>
	<g>
		<g>
			<path class="st17" d="M275.9,153.3l0.4-0.9c-0.5-0.3-51.3-25.7-68.2-38.4c-14.9-11.2-20.8-20.5-21.9-22.4l11.9-7l83.4,43l0.4-0.9
				l-83.8-43.3L185,91.2l0.2,0.4c0.1,0.1,5.4,10.4,22.4,23.2C224.5,127.5,275.4,153,275.9,153.3z"/>
		</g>
		<g>
			<polygon class="st17" points="278.3,148.7 278.8,147.8 244.7,130.2 215.2,102.5 217.9,100.7 281,131 281.4,130.2 217.9,99.6 
				213.6,102.4 244.2,131 			"/>
		</g>
		<g>
			<polygon class="st17" points="282.2,120.5 283,119.8 233,62.5 185.9,16.6 185.3,17.3 232.3,63.2 			"/>
		</g>
		<g>
			<polygon class="st17" points="285.3,115.4 270.6,68.4 269.7,68.7 282.6,109.9 255.6,72 214.8,25.5 214,26.1 254.8,72.6 			"/>
		</g>
		<g>
			<polygon class="st17" points="51.7,86.8 89.3,85.9 130.8,78.5 130.8,74.8 130.6,74.6 94.9,54.3 73.9,51.7 73.7,52.7 94.7,55.3 
				129.8,75.3 129.8,77.7 89.2,84.9 51.7,85.8 			"/>
		</g>
		<g>
			<polygon class="st17" points="87.5,80.4 111.7,77.5 111.7,74.7 92.5,58.8 68.8,57 68.7,58 92.1,59.7 110.7,75.2 110.7,76.6 
				87.5,79.5 54.8,78.8 54.8,79.7 			"/>
		</g>
		<g>
			<polygon class="st17" points="41.4,126.4 55.2,122.7 55.3,122.5 60.5,110.2 48.6,95.4 47.9,96 59.4,110.4 54.5,121.9 41.1,125.5 
							"/>
		</g>
		<g>
			<polygon class="st17" points="41.4,123.4 48.6,120.5 51.1,112.6 46,104.1 45.2,104.6 50.1,112.7 47.8,119.8 41.1,122.5 			"/>
		</g>
		<g>
			<polygon class="st17" points="192.3,136.3 192.5,135.4 150.5,125.9 95.9,109.8 95.6,110.7 150.2,126.9 			"/>
		</g>
		<g>
			<polygon class="st17" points="137.2,150.7 137.9,150.1 127.6,138.9 96,118.6 95.5,119.4 127,139.7 			"/>
		</g>
		<g>
			
				<rect x="165.5" y="204.9" transform="matrix(9.754800e-02 -0.9952 0.9952 9.754800e-02 -89.0486 381.8252)" class="st17" width="1" height="70.2"/>
		</g>
		<g>
			<polygon class="st17" points="127.6,228 173.6,227.2 173.6,226.3 127.6,227.1 			"/>
		</g>
	</g>
	
		<linearGradient id="SVGID_11_" gradientUnits="userSpaceOnUse" x1="-3664.8445" y1="230.4881" x2="-3664.8445" y2="195.9374" gradientTransform="matrix(-1 0 0 1 -3407.6873 0)">
		<stop  offset="0" style="stop-color:#4F0E6F"/>
		<stop  offset="1" style="stop-color:#450086"/>
	</linearGradient>
	<path class="st18" d="M281.7,195.9v15.2l-9.1,11c0,0-22.7,9.2-40,8.3l6.8-13.3l-3.4-6L281.7,195.9z"/>
	
		<linearGradient id="SVGID_12_" gradientUnits="userSpaceOnUse" x1="-3673.5898" y1="188.5875" x2="-3673.5898" y2="176.9679" gradientTransform="matrix(-1 0 0 1 -3407.6873 0)">
		<stop  offset="0" style="stop-color:#4F0E6F"/>
		<stop  offset="1" style="stop-color:#450086"/>
	</linearGradient>
	<polygon class="st19" points="284,183.8 275.4,188.6 252.5,188.6 247.8,180.5 279.3,177 	"/>
	<polygon class="st9" points="284,183.8 272.6,185.6 252,183.8 247.8,180.5 279.3,177 	"/>
	<polygon class="st9" points="281.7,195.9 281.7,211.1 268.3,219.3 247.8,216 236,211.1 	"/>
	<polygon class="st12" points="247.8,180.5 252,183.8 275.4,188.6 249.5,190.8 	"/>
	<polygon class="st12" points="239.4,217.1 255.2,222.6 232.6,230.4 236,217.1 236,211.1 	"/>
</g>
</svg>
