<?xml version="1.0" encoding="utf-8"?>
<!-- Generator: Adobe Illustrator 21.1.0, SVG Export Plug-In . SVG Version: 6.00 Build 0)  -->
<svg version="1.1" id="Layer_1" xmlns="http://www.w3.org/2000/svg" xmlns:xlink="http://www.w3.org/1999/xlink" x="0px" y="0px"
	 viewBox="0 0 88.3 88.6" style="enable-background:new 0 0 88.3 88.6;" xml:space="preserve">
<style type="text/css">
	.st0{fill:#0088E9;}
	.st1{fill:#0059FF;}
	.st2{fill:url(#SVGID_1_);}
	.st3{opacity:0.55;fill:#00C5FF;enable-background:new    ;}
	.st4{fill:#12908B;}
	.st5{fill:url(#SVGID_2_);}
	.st6{opacity:0.75;fill:#5CF4FF;enable-background:new    ;}
	.st7{fill:#FFFFFF;}
	.st8{fill:#5CF4FF;}
	.st9{fill:url(#SVGID_3_);}
	.st10{fill:url(#SVGID_4_);}
	.st11{fill:#002675;}
</style>
<polyline class="st0" points="37.7,31.1 40.4,48.6 39.5,61.7 "/>
<g>
	<polygon class="st1" points="57.9,62.8 88.1,28.9 81.4,14.3 33,0 18.1,25.3 39.5,61.7 	"/>
	
		<linearGradient id="SVGID_1_" gradientUnits="userSpaceOnUse" x1="-4413.4302" y1="1183.2776" x2="-4413.4302" y2="1212.4186" gradientTransform="matrix(-0.9548 -0.2973 0.2973 -0.9548 -4530.02 -121.8481)">
		<stop  offset="0" style="stop-color:#FFFFFF"/>
		<stop  offset="1" style="stop-color:#9579A7"/>
	</linearGradient>
	<polygon class="st2" points="70.4,40.8 57.9,62.8 39.5,61.7 18.1,25.3 	"/>
	<polygon class="st3" points="39.5,61.7 40.4,48.6 33,0 18.1,25.3 	"/>
	<polygon class="st4" points="39.5,61.7 40.4,48.6 59.6,49.9 57.9,62.8 	"/>
	
		<linearGradient id="SVGID_2_" gradientUnits="userSpaceOnUse" x1="-4443.5791" y1="1187.6506" x2="-4443.5791" y2="1240.9434" gradientTransform="matrix(-0.9548 -0.2973 0.2973 -0.9548 -4530.02 -121.8481)">
		<stop  offset="0" style="stop-color:#FFFFFF"/>
		<stop  offset="1" style="stop-color:#9579A7"/>
	</linearGradient>
	<polygon class="st5" points="59.6,49.9 81.4,14.3 88.1,28.9 57.9,62.8 	"/>
	<polygon class="st6" points="88.1,28.9 70.4,40.8 18.1,25.3 33,0 81.4,14.3 	"/>
	<polyline class="st0" points="37.7,31.1 40.4,48.6 39.5,61.7 18.1,25.3 37.7,31.1 	"/>
	<polygon class="st7" points="34.1,31.8 34.5,39.3 29.8,37.9 27.5,29.8 	"/>
	<polygon class="st8" points="70.4,40.8 57.9,62.8 88.1,28.9 	"/>
</g>
<linearGradient id="SVGID_3_" gradientUnits="userSpaceOnUse" x1="49.2378" y1="50.1583" x2="52.1468" y2="33.6608">
	<stop  offset="0" style="stop-color:#0040D2"/>
	<stop  offset="0.9949" style="stop-color:#002BAA"/>
</linearGradient>
<polygon class="st9" points="37.7,31.1 66,39.5 59.6,49.9 40.4,48.6 "/>
<linearGradient id="SVGID_4_" gradientUnits="userSpaceOnUse" x1="54.091" y1="58.991" x2="71.341" y2="41.741">
	<stop  offset="0" style="stop-color:#0047DD"/>
	<stop  offset="0.9949" style="stop-color:#002392"/>
</linearGradient>
<polygon class="st10" points="59.6,49.9 66,39.5 70.4,40.8 57.9,62.8 "/>
<polygon class="st11" points="40.4,48.6 59.6,49.9 57.9,62.8 39.5,61.7 "/>
</svg>
