<?xml version="1.0" encoding="utf-8"?>
<!-- Generator: Adobe Illustrator 21.1.0, SVG Export Plug-In . SVG Version: 6.00 Build 0)  -->
<svg version="1.1" id="Layer_1" xmlns="http://www.w3.org/2000/svg" xmlns:xlink="http://www.w3.org/1999/xlink" x="0px" y="0px"
	 viewBox="0 0 750 1334" style="enable-background:new 0 0 750 1334;" xml:space="preserve">
<style type="text/css">
	.st0{fill:url(#SVGID_1_);}
	.st1{opacity:0.5;}
	.st2{fill:#4F3899;}
	.st3{opacity:0.63;}
	.st4{fill:url(#SVGID_2_);}
	.st5{fill:url(#SVGID_3_);}
	.st6{fill:url(#SVGID_4_);}
	.st7{fill:url(#SVGID_5_);}
	.st8{fill:url(#SVGID_6_);}
	.st9{fill:url(#SVGID_7_);}
	.st10{fill:url(#SVGID_8_);}
	.st11{fill:url(#SVGID_9_);}
	.st12{fill:url(#SVGID_10_);}
	.st13{fill:url(#SVGID_11_);}
	.st14{fill:url(#SVGID_12_);}
	.st15{fill:url(#SVGID_13_);}
	.st16{fill:url(#SVGID_14_);}
	.st17{fill:url(#SVGID_15_);}
	.st18{fill:url(#SVGID_16_);}
	.st19{fill:url(#SVGID_17_);}
	.st20{fill:url(#SVGID_18_);}
	.st21{fill:url(#SVGID_19_);}
	.st22{fill:url(#SVGID_20_);}
	.st23{fill:url(#SVGID_21_);}
	.st24{fill:url(#SVGID_22_);}
	.st25{fill:url(#SVGID_23_);}
	.st26{fill:url(#SVGID_24_);}
	.st27{fill:url(#SVGID_25_);}
	.st28{fill:url(#SVGID_26_);}
	.st29{fill:url(#SVGID_27_);}
	.st30{fill:url(#SVGID_28_);}
	.st31{fill:url(#SVGID_29_);}
	.st32{fill:url(#SVGID_30_);}
	.st33{fill:url(#SVGID_31_);}
	.st34{fill:url(#SVGID_32_);}
	.st35{fill:url(#SVGID_33_);}
	.st36{fill:url(#SVGID_34_);}
	.st37{fill:url(#SVGID_35_);}
	.st38{fill:url(#SVGID_36_);}
	.st39{fill:url(#SVGID_37_);}
	.st40{fill:url(#SVGID_38_);}
	.st41{fill:url(#SVGID_39_);}
	.st42{fill:url(#SVGID_40_);}
	.st43{fill:url(#SVGID_41_);}
	.st44{fill:url(#SVGID_42_);}
	.st45{fill:url(#SVGID_43_);}
	.st46{fill:url(#SVGID_44_);}
	.st47{fill:url(#SVGID_45_);}
	.st48{fill:url(#SVGID_46_);}
	.st49{fill:url(#SVGID_47_);}
	.st50{fill:url(#SVGID_48_);}
	.st51{fill:url(#SVGID_49_);}
	.st52{fill:url(#SVGID_50_);}
	.st53{fill:url(#SVGID_51_);}
	.st54{fill:url(#SVGID_52_);}
	.st55{fill:url(#SVGID_53_);}
	.st56{fill:url(#SVGID_54_);}
	.st57{fill:url(#SVGID_55_);}
	.st58{fill:url(#SVGID_56_);}
	.st59{fill:url(#SVGID_57_);}
	.st60{fill:url(#SVGID_58_);}
	.st61{fill:url(#SVGID_59_);}
	.st62{fill:url(#SVGID_60_);}
	.st63{fill:url(#SVGID_61_);}
</style>
<radialGradient id="SVGID_1_" cx="-3019.2549" cy="276.8987" r="267.0855" gradientTransform="matrix(-1.4471 0 0 1.4471 -3934.0693 163.3646)" gradientUnits="userSpaceOnUse">
	<stop  offset="0" style="stop-color:#7C83FF"/>
	<stop  offset="0.8436" style="stop-color:#482088"/>
	<stop  offset="0.9478" style="stop-color:#403B77"/>
	<stop  offset="0.9972" style="stop-color:#4D79D1"/>
</radialGradient>
<path class="st0" d="M93.9,656c0,155.2,125.9,281.1,281.1,281.1c42.8,0,83.2-9.6,119.5-26.6c7.2-3.3,14.1-7,21-11
	c27.3-15.8,51.7-36,72.2-59.7c7.5-8.6,14.4-17.7,20.8-27.2c8.6-12.9,16.3-26.5,22.7-40.8c16-35.3,24.9-74.5,24.9-115.8
	c0-41.4-8.9-80.6-25-116c-5.1-11.3-11-22.3-17.6-32.8c-14.2-22.7-31.5-43.3-51.4-61l0,0c-49.7-44.4-115.2-71.3-187-71.3
	c-23,0-45.3,2.8-66.7,8c-29.8,7.2-57.6,19.2-82.8,35.1l0,0c-4.9,3.1-9.7,6.3-14.4,9.7c-3.9,2.8-7.8,5.7-11.5,8.8
	c-18.4,14.7-34.9,31.7-49.1,50.6C121,526.3,101.5,573.6,95.8,625C94.5,635.1,93.9,645.5,93.9,656z"/>
<g class="st1">
	<path class="st2" d="M95.6,624.9c1,1.8,1.9,3.6,2.5,5.6c1,3,2.4,5.3,4,8.1c1.8,3.2,2.9,6.9,4.4,10.3c3.3,7.6,5.7,15.8,8.4,23.6
		c3,8.7,5.9,17.3,9.6,25.8c1.7,3.8,4.1,7.2,5.8,11s3.3,7.4,5.4,11c5.1,8.8,9.8,17.8,15.2,26.4c9.8,15.6,21.5,29.4,32.9,43.8
		c5.7,7.3,12.5,13.6,19.1,20.1c7.4,7.4,14,15.6,21.7,22.8c6,5.6,12.2,11.3,19,15.8c3.9,2.6,7.6,5.4,11.5,7.9c5,3.2,10.8,5,16.1,7.7
		c17.6,8.5,36.5,13.8,55,19.7c18.2,5.8,35.6,13.7,54.2,18.4c3.8,1,7.7,1.3,11.5,2.1c4.2,0.8,8.2,2,12.4,2.5c8.5,1,16.7,3.8,25.3,4.3
		c6,0.3,11.6-0.9,17.5-1.2c7.6-0.4,15,0.5,22.5,1c8.3,0.6,16.6,0.1,24.9-1c7.2-3.3,14.1-7,21-11c-0.2,0.1-0.5,0.2-0.8,0.2
		c-4.9,1.6-9.4,4.4-14.3,5.5c-5.3,1.2-10.7,2.1-16.1,3c-7.4,1.3-14.1,1.2-21.5,0.1c-3.8-0.6-7.7-1.1-11.5-1.9
		c-4.1-0.9-8.3,0.2-12.4-0.7c-5.7-1.4-12.1-0.3-18-0.5c-10.1-0.3-20-4.1-29.8-6c-10.8-2.2-21.1-6.1-32.2-7.4
		c-6.3-0.7-11.2-2.9-17.2-4.8c-5.1-1.6-8.4-4.4-12.7-7.7c-8.2-6.1-16.5-12.4-26-16.4s-19.6-6.7-29.6-8.7
		c-8.3-1.6-17.3-5.6-23.7-11.3c-2.8-2.5-5.5-5.2-8.3-7.7c-3.4-3.1-7.1-5.9-10.1-9.4c-3.5-4-7.4-7.6-10.9-11.6
		c-3.8-4.4-6.9-9.4-10.7-13.8c-6-7.1-15.1-10.8-21-17.9c-1.2-1.5-2.1-3.3-3.3-4.8c-1.4-1.5-2.8-2.3-3.6-4.2c-1-2.4-3.4-7.8-2.1-10.5
		c2.6-5.3,16.7,8.4,18.9,10.5c3.5,3.3,6.3,6.6,10.5,9c2.5,1.4,5,3,7.7,4.1c4.5,1.8,9.6,2,14.3,3c13.1,2.8,26.5,4.3,39.7,6.4
		c17.9,2.8,36,6.5,53.6,10.8c16.5,4,32.8,8.6,49.3,12.6c8.8,2.1,17.5,4.3,26.3,6.2c10.8,2.4,21.3,5.7,32.1,7.8
		c17.7,3.4,35.6,7.4,53.7,7.9c14.2,0.4,28.3,1.1,42.6,1.1c19.2,0,39.7,1.9,58.6-2.6c0.2,0,0.5-0.1,0.7-0.2
		c7.5-8.6,14.4-17.7,20.8-27.2c-6.9,3-14.1,5.4-21.5,6.7c-5.4,1-11.1,2.2-15.5,5.4c-3,2.2-5.7,4.1-9.3,5.3
		c-12.2,3.9-23.1,3.7-35.4,0.1c-4.6-1.4-9.1-2.8-13.6-4.3c-3.3-1.1-6.4-3.1-9.8-4c-9.5-2.5-19.3-4.3-28.8-6.5
		c-4.5-1-9.3-1.9-13.8-3.3c-5-1.6-9.8-4.1-14.6-6.1c-9.3-3.8-17.9-7.7-27.8-9.4c-6.2-1-13.5-1.8-19.2-4.7c-1.9-0.9-4.6-2.2-4.3-4.7
		c0.3-3.1,4.3-2.2,6.5-1.9c6.4,1.1,12.9,1.7,19.3,3.4c11.4,3.1,22.6,4.5,34.4,5.3c17.5,1.2,35.2,2.2,52.7,1.3
		c13.9-0.7,27.9-1.9,41.8-1.8c13.4,0.1,26.5-1,39.3-5.3c14.4-4.8,29.1-9.1,42.4-16.4c16-35.3,24.9-74.5,24.9-115.8
		c0-41.4-8.9-80.6-25-116c1.9,5.1,3.4,10.4,5.6,15.3c4.2,9.8,6.8,19.8,6.8,30.4c0,4-0.5,8.4,0.1,12.3c0.7,5.2,1.1,8.6-0.4,13.8
		c-1.1,3.8-1.5,7.6-3.1,11.3c-0.6,1.4-1.3,2-2.2,3.1c-1,1.1-1.4,2.4-2.2,3.7c-2.3,3.7-5.5,8.7-9.5,10.8c-2.4,1.3-5.5,2.4-8.2,3.1
		c-3.3,1-4.6,1.3-7.9,0.1c-2.4-0.9-5.8-2-8.4-2.2c-1.7,0-3,0.7-4.6,1c-2,0.3-3.9,0.2-6,0.6c-8.3,1.7-16.3,3.8-24.8,3.7
		c-6.7-0.1-13.2,1-19.9,1c-8.1,0-16.1,0.2-24.2-0.8c-5.4-0.7-11.2-2.1-16.7-2.4c-5.5-0.3-11.2,0.2-16.7,0.1
		c-19.2-0.3-39.1-4.9-55.8-14.6c-9.1-5.3-18.2-9.3-28.4-12.2c-12.8-3.7-25.9-7.3-39-9.8c-12.1-2.3-24.1-6.3-35.3-11.5
		c-5.1-2.3-9.6-5.2-14.3-8.3c-4.1-2.8-8.6-5-12.7-7.9c-11.6-8.6-21.7-18.6-31.9-28.8c-5.8-5.8-11.7-11.6-17.7-17.1
		c-5-4.5-10.3-6.6-16.7-8.1c-10.2-2.4-15.9-13.9-21.4-22.2c-6.9-10.4-12.7-22.3-13.1-35.1c-0.2-5.4,0.2-10.4,1.2-15.7
		c0.4-2.4,1-4.6,1.9-6.7c0.6-1.4,1.7-2.7,2-4.1c0.3-1.2,0.3-2.5,0.6-3.6c0.2-1,0.8-2.2,1.1-3.1c0.6-2.4,1.8-5.7,1.6-8.4v-0.2
		c-3.9,2.8-7.8,5.7-11.5,8.8c0,1.1-0.2,2.2,0.1,3.3c0.2,1.3,0.7,2.4,1,3.8c0.3,1.9,1.1,3.1,1,5.2c0,2.3,0,4.3-0.5,6.4
		c-1.4,5.2-4.8,10-4.7,15.5c0,5.7,1.5,10.9,3.6,16.2c2,5,4.1,9.6,6.5,14.3c1.7,3.3,3.3,6,5.5,8.9c2,2.6,4.2,5.2,5.7,8.1
		c1.2,2.3,2.4,4.6,3.3,7c1.8,4.3,4.8,6.6,8.1,9.8c6.8,6.5,15.3,11.8,22.5,18.1c5.6,4.8,11.8,10.8,16.2,16.7
		c2.1,2.9,12.7,11.1,9.8,15.5c-1.3,1.9-5.3,1.3-7.1,1.3c-4,0-8.4-1-12-2.7c-10.3-4.7-20.6-10.2-31.4-13.4
		c-4.9-1.4-10.1-2.2-14.7-4.3c-5.5-2.5-11-5.6-16.1-8.8c-4.1-2.5-6.5-5.8-9.6-9.4c-1.7-2.1-4.2-3.2-6.1-5.1
		c-2.2-2.2-3.6-4.8-6.1-6.8c-6-4.7-11.5-10.7-15.8-17c-4-5.8-5.5-13-7.2-19.6c-0.5-1.8-1.1-3.3-1.2-5.2c-0.1-2.2,0-4.5,0-6.8V487
		C120.8,526.3,101.3,573.5,95.6,624.9z"/>
	<path class="st2" d="M223.8,441.7c1.1,6.4,1.7,12.7,2.9,19s1.6,13.4,4.1,19.3c4.3,10.1,5.7,21.4,12.6,30.3
		c2.9,3.8,5.2,7.9,8.9,11.1c1.4,1.2,2.9,1.5,4.5,2.4c1.4,1,3,2.4,4.4,3.4c7.4,5.4,15.2,10.9,21.7,17.3c7,6.9,13.6,13.6,21.9,19
		c2.5,1.6,5.1,2.8,7.7,4.2c2.2,1.2,3.9,2.7,6.2,3.6c2.9,1.1,4.8,1.7,7.4,3.5c2,1.4,4.3,2.8,6.5,3.7c4,1.6,7.8,3.4,11.8,5
		c1.8,0.7,3.7,1.2,5.6,1.8c5.3,2,9.1,1.8,15.8,2.4c2.2-1,0.3-1-1.4-1.8c-1.3-0.7-1.7-1-2.8-2.2c-1.4-1.4-3.2-3.3-4.8-4.4
		c-3-2.2-6.9-3.2-10.1-5.2c-4.1-2.6-8.1-5.7-12.1-8.4c-3.3-2.3-5.9-6-8.6-8.8c-3-3.1-6.6-6-9.8-8.9c-3.8-3.4-7.1-7.3-10.9-10.6
		c-4.2-3.6-7.1-7.4-9.7-12.2c-1.1-2-2.8-3.4-3.9-5.5c-1.1-1.9-2.3-3.7-3.1-5.7c-1-2.4-2.2-4.5-3.2-6.8c-1.2-2.6-1.1-5.7-1.7-8.6
		c-1.7-8.3-3.4-16.6-4.9-24.9c-1.3-6.9-1.4-14.3-1.6-21.4c-0.2-6.8-2.2-13.4-2.2-20.3c0-2.7-0.1-5,1-7.4c1.4-3.2,3.1-6,4.2-9.4
		c3.6-10.2,10.1-19.6,18.8-25.9c1.3-1,5.5-3.5,9.6-6.5c-29.8,7.2-57.6,19.2-82.8,35.1l0,0C223.3,425.7,222.5,434,223.8,441.7z"/>
	<path class="st2" d="M305.2,442.1c0.6,3.6,2.8,6.2,3.8,9.6c1.2,3.9,2,7.7,2.6,11.7c0.8,6,0.3,12,1,18.1
		c1.4,11.4,5.1,22.7,10.2,32.9c5,10.3,13.7,18.7,23.1,25.1c9.8,6.7,20.6,11.7,31.3,16.7c6.1,2.8,12.5,3.9,18.7,6.3
		c5.2,1.9,10.3,4.2,15.5,6.2c5.1,2,9.8,5.5,15,7.2c3.2,1,6.3,2.1,9.5,3.3c5.5,1.9,10.4,4.8,15.8,7.1c7.5,3.3,15.3,5.8,23.3,7.7
		c7.9,1.9,15.5,0.7,23.5-0.3c6.6-0.8,13.4-1.4,19.9-2.9c12-2.9,25-2.1,37.3-2.1c9.3,0,20.1,0.9,28.3-4.1c2.4-1.4,5-3,6.3-5.5
		c1.6-3.1,1.8-6.9,2.5-10.3c1.4-6.8,7.9-11.5,12.4-16.5c5.8-6.5,8-14.8,9.1-23.2c1-6.6,1.1-15.1-0.5-21.9
		c-14.2-22.7-31.5-43.3-51.4-61c4.7,8.9,8.3,18.4,12.4,27.6c6.2,13.8,11.7,28.9,11.2,44.3c-0.2,6-0.7,12.8-3.9,18.1
		c-2.5,4.1-6.6,7-10.5,9.4c-6.5,3.9-13,8.2-20,10.9c-7.9,3-15.8,5.9-23.7,8.9c-4.6,1.7-9,3.7-14,4.3c-5.9,0.7-12.4,0.3-18.3,0.2
		c-21.6-0.6-41.6-10.7-61.9-16.8c-6.5-2-13.3-2.9-19.8-5c-4.1-1.4-7.5-3.2-11.2-5.1c-9.1-4.7-18.9-8.2-27.4-14
		c-8.4-5.8-16.2-12.9-22.7-20.7c-5-6-7.3-12.1-9.8-19.5c-4.9-14.6-6.7-28.7-8.1-44c-0.6-6.5-2.8-12.3-4.3-18.6c-1-4.2-0.4-9,2.9-12
		c6.7-5.9,16.6-9.6,25.1-11.7c5.2-1.2,10.2-2.9,15.5-2.9s10.5,0,15.8,0c5.1,0,10-1.1,15.1-1.1c6,0,11.6,1.7,17.5,2.2
		c6.2,0.5,12.4,1.2,18.5,2.3c7.3,1.3,14.2,4.2,21.3,6.3c13.6,4.1,27.6,10.8,38.8,19.6c2.9,2.2,6,4,9.1,6c2.6,1.8,3.6,3.8,5.3,6.5
		c3.7,5.7,5.7,10.5,7.4,17.2c1.2,4.5,1,8.8,1,13.4c-0.1,5.9,0.8,12.3,1.8,18.2c1.4,8.4,9.6,21,0.6,27.7c-2.5,1.9-5.5,2.4-8.6,2
		c-4.4-0.6-9.3-1.9-13.5-3.1c-12.4-3.5-25.3-7.6-38.1-9.2c-3.9-0.5-7.6-0.2-11.4-1.2c-2.4-0.7-4.7-1.4-7.1-1.9
		c-5.6-1-11.2-4.7-15.7-8.4c-2-1.7-3.7-3.8-5.7-5.5c-2.8-2.3-6.2-3.8-8.9-6.3c-3.8-3.6-7.5-7.4-11.1-11.2
		c-7.4-7.8-12.7-17.5-19-26.1c-4-5.4-8.4-11.3-9.5-18.1c-0.8-5.2,5.5-8,9.4-9.6c3.8-1.6,9.2-2.6,13.4-1.9c6.3,1.1,12.1,4.9,18,7.4
		c12.9,5.7,27.4,7.1,38.6,16.2c4.1,3.3,3.9,6.4,5.2,11c0.6,2.1,2.2,4.3,3.2,6.3c1.7,3.1,1.9,3.9,1,7.3c-0.8,3.2-1.7,7.7-5.4,9.2
		c-3.3,1.3-8.5,0.2-11.3-1.6c-1.7-1.1-3.1-2.4-5.2-3.1c-1.2-0.5-4.1-1.8-5.3-1.4c-2.1,0.8-0.5,2.1,0.3,3.2c0.8,1.2,1.3,1.9,1.9,3.2
		c0.4,1,0.5,2.3,1.2,3.2c3.3,3.8,9.9,5.7,14.5,7.3c4,1.4,7,3.1,11.4,3.1c5.9,0,3.5-4.3,4.4-8.6c1.2-5.5,7.5-7.6,8.2-13.3
		c0.7-5.5-1.1-12-3.4-17c-1-2.2-2.4-4-3.7-6c-2.2-3.3-5.4-5.3-8.8-7.6c-9.8-6.5-22.1-9.6-33.2-13.4c-11.2-3.8-23.3-4.4-34.4-8.4
		c-7.5-2.7-15.4-3.6-23.2-5c-7.2-1.3-13.4,1.5-16.4,8.1c-3.1,6.9-6.9,14.4-4.7,22c3,10.5,6.5,21,12,30.5
		c6.8,11.7,15.1,22.8,27.5,29.3c8.7,4.6,18.1,7.2,27.3,10.6c7.2,2.7,14,4.8,21.5,6c11.5,1.7,22,8.5,33.2,11.3
		c15.4,3.9,31.1,6.9,46.8,9.1c6,0.8,10.9,1.4,16.8,0.5c2.6-0.4,5.1-0.1,7.6-1.2c1.8-0.8,3.6-1.6,5.4-2.4c6.1-2.6,12-7,11.3-14.4
		c-0.7-7-3.2-14-4.5-20.9c-0.9-4.5-1-9.1-2.1-13.6c-0.8-3.5-1.6-7-2.6-10.5c-0.8-2.7-1.9-6.2-3.6-8.5c-3.3-4.5-5.7-9.9-9.2-14.2
		c-1.4-1.8-2.9-3.1-4-5.1c-1.1-1.9-1.4-2.9-3-4.6c-1.3-1.5-2.2-3.3-3.6-4.8c-2.4-2.6-6-4.7-8.8-6.7c-6.7-4.8-14-9.4-21.6-12.7
		c-7.4-3.2-15.1-5.4-22.7-7.9c-6.8-2.4-13.1-6.1-19.9-8.7c-7.4-2.9-15.9-4.8-23.8-5.7c-16.3-2-32.5-3.4-48.9-3.4
		c-20.5,0.1-43.3-7.7-62.7,2.1c-5.4,2.7-8.5,6-10.9,11.5c-3.5,8-5.1,17.3-5,26C305.1,434.5,304.6,438.5,305.2,442.1z"/>
</g>
<g class="st3">
	<linearGradient id="SVGID_2_" gradientUnits="userSpaceOnUse" x1="217.8038" y1="877.853" x2="581.5809" y2="484.2218">
		<stop  offset="0" style="stop-color:#5E2F98"/>
		<stop  offset="0.2514" style="stop-color:#643CA6"/>
		<stop  offset="0.7212" style="stop-color:#755FC9"/>
		<stop  offset="0.8352" style="stop-color:#7A68D3"/>
	</linearGradient>
	<path class="st4" d="M622.9,530.5c-1.4,3.8-3.3,7.1-4.5,10.9c-0.9,2.9-1.7,5.2-3.3,7.8c-1.5,2.5-2.5,5.3-3.9,7.9
		c-1.5,2.7-3.1,6-3.8,9c-0.6,2.3-0.7,4.8-1.3,7.1c-0.8,3-1.6,6-2.5,9c-0.5,1.9-1.5,3.6-2.6,5.3c-1.1,1.8-2.4,4.5-4.1,5.7
		c-5.5,3.9-13.5,2.2-19.9,1.6c-5.8-0.6-11.7-0.7-17.6-1.5c-3-0.4-6.2-0.4-9.2-0.2c-2.7,0.1-6.1,0.5-8.8,1c-2.5,0.5-5,0.6-7.5,1
		c-3.6,0.6-7.2,1.5-10.9,1.8c-4.1,0.3-8.2,0.9-12.3,1c-5.8,0.1-11.8-0.5-17.6,0.1c-5.1,0.5-10.2,1.4-15.3,1.4
		c-6.7,0-13.3-2-19.5-4.2c-10.3-3.8-21-6.8-31.3-10.6c-3.8-1.4-7.3-3.7-10.8-5.7c-3.2-1.8-6.6-3.1-9.6-5.1c-5.5-3.7-12.4-6-18.8-7.4
		c-6.5-1.4-12.8-3.8-19.3-5.3c-4.3-1-8.5-3.2-12.8-3.8c0.8,3.4,8.2,4.6,10.8,5.6c6.1,2.2,12.8,3.4,18.7,6.1c3.9,1.7,6.6,5.1,9.7,7.9
		c2.8,2.6,4.9,5.3,8.1,7.5c3.4,2.2,6.5,3.6,10.5,4.4c8.3,1.7,16.4,4.6,24.7,6.5c8.2,1.8,16.4,3.7,24,7.2c2.1,1,8.3,3.4,8.6,6.5
		c0.2,2.4-2.8,1.6-4.5,1.6c-3.7,0-8.6-0.9-12.1,0.6c-2.7,1.1-4.9,2.3-7.8,3c-5.9,1.3-13.3,0.2-18.8-2c-8-3.1-16.7-4.7-25-6.3
		c-5.8-1.1-11.4-2.8-17.2-4c-4.6-1-8.9-1.1-13.4-1.6c-6.5-0.6-13.1-1.4-19.6-2.5c-5.2-0.9-10.9-1.4-15.6-3.7
		c-4-1.9-8.6-3.2-12.1-5.9c-0.9-0.7-6.2-5.3-7.4-4.2c-2.6,2.2,12,10.5,13,11.2c4.7,3.2,9.6,5.2,14.9,7.4c6.6,2.7,13.4,3.9,20.3,5.6
		c7.9,2,15.7,3.6,23.5,5.6c7.9,2,16,3,23.7,5.6c3.9,1.3,7.8,2.6,11.5,4.5c3.4,1.7,7,2.9,10.3,4.7c7.2,3.9,14,9.3,21.8,11.8
		c6.8,2.2,13.9,4.1,21,4.6c9.4,0.8,18.8-0.6,28.1-1.5c9.5-1,19.1-1.8,28.6-1.6c8.9,0.1,17.7,2,26.5,2.4c6.1,0.3,11-1.9,16.6-4
		c6.3-2.3,11.7-5.4,17.5-8.8c4.9-3,10.7-4.7,16.5-4.5c1.4,0.1,2.4,0.6,3.7,0.8c1.5,0.3,2.6-0.5,4-1.1c5.2-2.5,10.4-6.5,13-11.9
		c2.7-5.8,4-11.9,4.9-18.2c0.5-3.6,0.1-7.2,0.1-10.8c0-4.8,0.9-9.5,0.8-14.3c-0.1-7.6,0.9-15.7-1.5-23c-2.3-6.9-6.9-13.4-11.1-19.3
		c-2.4-3.3-4.4-6.9-6.8-10.1c-0.9,1.7,1.2,5.1,1.6,6.9C620.6,528.3,621.5,533,622.9,530.5z"/>
	<linearGradient id="SVGID_3_" gradientUnits="userSpaceOnUse" x1="59.1809" y1="731.2604" x2="422.9579" y2="337.6293">
		<stop  offset="0" style="stop-color:#5E2F98"/>
		<stop  offset="0.2514" style="stop-color:#643CA6"/>
		<stop  offset="0.7212" style="stop-color:#755FC9"/>
		<stop  offset="0.8352" style="stop-color:#7A68D3"/>
	</linearGradient>
	<path class="st5" d="M265.6,572c2.3,2.9,6.3,6.6,6.9,10.4c0.6,3.6-3.5,3.2-6.2,2.7c-5.8-0.9-11.9-1.4-17.4-3.7
		c-3.3-1.4-6.3-3.2-9.5-4.6c-2.7-1.1-5.6-1.5-8.3-2.7c-6.4-2.7-13.3-4.1-19.7-7.1c-5.7-2.6-10.5-6.7-15-11c-3.1-3-6.1-5.3-8.3-9.2
		c-1.6-2.9-3.5-5.6-4.8-8.6c-1.6-3.7-2.6-8.7-3.1-12.7c-0.3-2.2-0.4-4.8-0.1-7c0.7-5.3,6.1-5.8,10.6-5.2c5.5,0.8,10,4,14.1,7.5
		c4,3.4,7.2,7.5,11.7,10.2c4.9,3,9.7,6,14.5,9.3c2.6,1.8,4.9,3.3,7.1,5.6c1.8,1.8,3.5,3.8,5.5,5.5s4.2,3.1,6.4,4.5
		c1.8,1.1,3.5,2.7,5.3,3.7c2.4,1.3,4.6,2.7,6.6,4.7c1.3,1.3,2.7,2.5,3.6,4.2C267.1,571.5,266.8,575,265.6,572z"/>
	<linearGradient id="SVGID_4_" gradientUnits="userSpaceOnUse" x1="16.8101" y1="692.1032" x2="380.5872" y2="298.472">
		<stop  offset="0" style="stop-color:#5E2F98"/>
		<stop  offset="0.2514" style="stop-color:#643CA6"/>
		<stop  offset="0.7212" style="stop-color:#755FC9"/>
		<stop  offset="0.8352" style="stop-color:#7A68D3"/>
	</linearGradient>
	<path class="st6" d="M201.3,495.2c-0.9-3-1.6-4.1-4.3-5.5c-1.7-0.9-3-1.1-4.1,0.8c-2.2,3.7-0.6,8.1,0.8,11.7c1,2.6,5.2,5.2,7.1,1.9
		c1.3-2.2,1.2-8.7-1.8-9.6L201.3,495.2z"/>
	<linearGradient id="SVGID_5_" gradientUnits="userSpaceOnUse" x1="193.6219" y1="855.5051" x2="557.399" y2="461.874">
		<stop  offset="0" style="stop-color:#5E2F98"/>
		<stop  offset="0.2514" style="stop-color:#643CA6"/>
		<stop  offset="0.7212" style="stop-color:#755FC9"/>
		<stop  offset="0.8352" style="stop-color:#7A68D3"/>
	</linearGradient>
	<path class="st7" d="M436.4,604.1c-1.4-2.7-1.8-3-4.3-3.9c-2-0.8-3-1.4-5.2-1.6c-2.2-0.2-4.6-1.4-6.9-0.6c-3.4,1.2-2.8,4.3-0.5,6.4
		c1.1,1.1,2.1,1.8,3.4,2.1c1.8,0.4,3.6,0.8,5.5,0.8c3.1,0,5.8,0.1,8.5-1.7C437.2,604.9,437,604.4,436.4,604.1L436.4,604.1z"/>
	<linearGradient id="SVGID_6_" gradientUnits="userSpaceOnUse" x1="344.9684" y1="995.3731" x2="708.7455" y2="601.7419">
		<stop  offset="0" style="stop-color:#5E2F98"/>
		<stop  offset="0.2514" style="stop-color:#643CA6"/>
		<stop  offset="0.7212" style="stop-color:#755FC9"/>
		<stop  offset="0.8352" style="stop-color:#7A68D3"/>
	</linearGradient>
	<path class="st8" d="M568,802.3c-8.8,3.3-18.5,4.5-28,4.7c-11.2,0.2-22.6,0.1-33.8-1c-7.5-0.7-14.9-0.5-22.3-1.6
		c-3.6-0.5-7-0.4-10.6-0.5c-2.1-0.1-4.2-1.3-6.3-0.7c-7.8,2.4,6.1,6.9,7.7,7.7c5.7,2.8,12,3.8,18,5.5c2.3,0.7,4.7,1.3,6.9,2.1
		c2.2,0.8,4.1,1.9,6.4,2.4c9.2,2,18.4,2.9,27.6,4.9c3.4,0.7,7.1,1.3,10.6,0.6c3.7-0.7,7.1-2.9,10.4-4.5c4-2,8.1-3.8,11.8-6.4
		c1.6-1.2,4.1-2.8,5.4-4.3c1-1.1,1-1.8,1.5-3.2c0.9-2.4,0.9-3.3-1.2-5.1c-1.6-1.4-3.5-1.8-5.6-1.2
		C566.5,801.9,566.5,802.1,568,802.3z"/>
	<linearGradient id="SVGID_7_" gradientUnits="userSpaceOnUse" x1="264.7164" y1="921.2076" x2="628.4935" y2="527.5765">
		<stop  offset="0" style="stop-color:#5E2F98"/>
		<stop  offset="0.2514" style="stop-color:#643CA6"/>
		<stop  offset="0.7212" style="stop-color:#755FC9"/>
		<stop  offset="0.8352" style="stop-color:#7A68D3"/>
	</linearGradient>
	<path class="st9" d="M329.6,894.8c4.7,1.5,9.1,3.2,13.2,6c1.8,1.2,3.9,3.4,1.3,5c-3.5,2.1-9.2,1-13,0.7c-6.5-0.6-13-1.8-19.5-2.6
		c-4.4-0.6-8.8-1.1-13.1-1.9c-5.7-1.2-11.2-3-16.8-4.8c-4.1-1.4-7.9-3.1-11.6-5.4c-3.8-2.4-7.7-4.4-11.1-7.3
		c-4.5-3.8-10.4-6.7-12.2-12.8c-1.5-5,9.4-3.2,11.5-2.9c8,1,16.1,3.4,23.7,6c3.3,1.2,6.9,2.1,10.1,3.5c4.3,1.9,8.5,4.2,12.9,5.9
		c2.1,0.8,3.9,2.1,6.1,2.9c1.9,0.7,3.7,1.3,5.6,2.1c2.1,0.8,4.1,1.8,6.3,2.5C327.7,893.1,332.5,894.4,329.6,894.8z"/>
	<linearGradient id="SVGID_8_" gradientUnits="userSpaceOnUse" x1="216.0481" y1="876.2305" x2="579.8252" y2="482.5993">
		<stop  offset="0" style="stop-color:#5E2F98"/>
		<stop  offset="0.2514" style="stop-color:#643CA6"/>
		<stop  offset="0.7212" style="stop-color:#755FC9"/>
		<stop  offset="0.8352" style="stop-color:#7A68D3"/>
	</linearGradient>
	<path class="st10" d="M242.9,858.2c-0.8-2.7-2.6-4-4.6-5.9c-1.6-1.5-3.1-3.2-5.3-3.5c-1.7-0.2-4.3,1.7-3.6,3.6
		c0.4,1,1.6,2.1,2.3,2.9c0.8,1.1,1.7,2.2,3,2.8c2.6,1.3,5.1,1.1,7.7,0.5L242.9,858.2z"/>
	<linearGradient id="SVGID_9_" gradientUnits="userSpaceOnUse" x1="221.5089" y1="881.2771" x2="585.286" y2="487.6459">
		<stop  offset="0" style="stop-color:#5E2F98"/>
		<stop  offset="0.2514" style="stop-color:#643CA6"/>
		<stop  offset="0.7212" style="stop-color:#755FC9"/>
		<stop  offset="0.8352" style="stop-color:#7A68D3"/>
	</linearGradient>
	<path class="st11" d="M214.7,792.4c1.9,0.9,3.9,2.3,6,2.8c1.5,0.4,3.2,0.6,4.8,0.8c4.8,0.8,9.7,1.1,14.6,1.6
		c6.2,0.6,12.3,1.5,18.5,1.9c10.9,0.8,22.4,1.8,32.8,5.1c8.9,2.9,17.1,6.4,25.4,10.8c7.1,3.8,14.1,8,20.4,13.1
		c2.1,1.7,4,3.7,5.9,5.7c1.2,1.3,2.6,2.7,3.3,4.3c1.1,2.6,0.1,4.4-2.2,5.8c-3.5,2.2-7.8,2.4-11.8,3c-6,0.8-11.9,1.6-17.9,2.5
		c-6.1,0.9-12.4,1.8-18.6,2c-6.4,0.3-13,0.2-19.1-2.2c-4.4-1.7-8.4-3.3-12.5-5.6c-3.9-2.2-7.8-4.5-11.5-7c-2.6-1.8-5.5-3.3-7.8-5.5
		c-1-1-2.1-1.8-3.1-2.7c-1.7-1.4-2.9-3.2-4.6-4.6c-3.7-3-7.2-6.9-10.1-10.7c-2.3-3-5.1-5.6-7.3-8.6c-1.3-1.8-2.7-2.7-3.5-4.9
		C216,799.1,214.7,795,214.7,792.4z"/>
	<linearGradient id="SVGID_10_" gradientUnits="userSpaceOnUse" x1="156.812" y1="821.4869" x2="520.5891" y2="427.8558">
		<stop  offset="0" style="stop-color:#5E2F98"/>
		<stop  offset="0.2514" style="stop-color:#643CA6"/>
		<stop  offset="0.7212" style="stop-color:#755FC9"/>
		<stop  offset="0.8352" style="stop-color:#7A68D3"/>
	</linearGradient>
	<path class="st12" d="M201.6,783.5c-1.2-2.3-2.2-3.1-4-4.8c-1.3-1.3-3-3.4-4.9-4c-1-0.3-2.1-0.3-2.7,0.4c-0.6,0.7-1,1.9-0.8,2.8
		c0.4,2.2,2.5,3.9,4.4,4.9c2.3,1.2,3.6,0.6,6,0.3L201.6,783.5z"/>
	<linearGradient id="SVGID_11_" gradientUnits="userSpaceOnUse" x1="92.4801" y1="762.0342" x2="456.2572" y2="368.403">
		<stop  offset="0" style="stop-color:#5E2F98"/>
		<stop  offset="0.2514" style="stop-color:#643CA6"/>
		<stop  offset="0.7212" style="stop-color:#755FC9"/>
		<stop  offset="0.8352" style="stop-color:#7A68D3"/>
	</linearGradient>
	<path class="st13" d="M118.5,705.7c1.1,1,2.4,1.9,3.2,3.2c1.5,2.1,2.7,4.3,4.3,6.3c1.8,2.1,3.1,4.4,4.5,6.8c1.7,3,3.7,5.7,5.3,8.8
		c3.4,6.5,6.2,13.4,9.3,20.1c1.5,3.4,2.9,6.8,4.4,10.2c1.6,3.6,3.1,7.3,3.7,11.2c0.4,2.8,1.2,7.6-2.6,8.1c-4.7,0.6-9.4-3.4-12.8-6.1
		c-9-7.1-16.6-15.9-22.7-25.6c-6.1-9.6-12-21.1-10.4-32.9c0.7-5.3,0.3-10.7-0.4-15.9c-0.7-5.6-2.4-11.2-2.5-16.9
		c-0.1-4-0.7-8,0.1-11.9c0.2-1.1,0.6-2.7,1.7-3.4c1-0.6,1.8,0,2.7,0.7c2.8,2.1,5.1,4.7,6.6,7.9c1.9,3.8,2,8,3.5,12
		c0.5,1.4,0.9,2.9,1.5,4.1c0.6,1.1,1.3,2.1,1.9,3.2c1.1,2,1.4,4.1,1.9,6.2c0.3,1.3,0.6,2.5,0.9,3.9c0.3,1,0.7,2.1,0.9,3.2
		C123.8,709.8,123.5,710.8,118.5,705.7z"/>
	<linearGradient id="SVGID_12_" gradientUnits="userSpaceOnUse" x1="138.8486" y1="804.886" x2="502.6257" y2="411.2549">
		<stop  offset="0" style="stop-color:#5E2F98"/>
		<stop  offset="0.2514" style="stop-color:#643CA6"/>
		<stop  offset="0.7212" style="stop-color:#755FC9"/>
		<stop  offset="0.8352" style="stop-color:#7A68D3"/>
	</linearGradient>
	<path class="st14" d="M161.9,775.2c0.9,0.9,6.6,6.4,4.4,7.8c-0.6,0.4-2.3-0.1-2.9-0.3c-1.3-0.5-2.1-1.4-3.1-2.2
		c-1.4-1.1-1.5-2-1.6-3.8c0-2.5,1.6-2.4,3.7-1.6L161.9,775.2L161.9,775.2z"/>
	<linearGradient id="SVGID_13_" gradientUnits="userSpaceOnUse" x1="137.5674" y1="803.702" x2="501.3445" y2="410.0708">
		<stop  offset="0" style="stop-color:#5E2F98"/>
		<stop  offset="0.2514" style="stop-color:#643CA6"/>
		<stop  offset="0.7212" style="stop-color:#755FC9"/>
		<stop  offset="0.8352" style="stop-color:#7A68D3"/>
	</linearGradient>
	<path class="st15" d="M148.3,788.2c-1.2-1.6-1.6-2.3-3.3-3c-1.4-0.5-2.5-1.5-3.9-1.8c-1.8-0.3-2.6,0.4-2.8,2.2
		c-0.3,3.1,3.6,7.1,5.3,9.4c2.1,2.8,4.5,5.6,7.3,7.8c3.9,3.1,6.8-1.9,5.3-5.6c-0.9-2.2-1.2-4.9-2.6-6.8c-2.2-3.1-5.4-3.1-8.9-3.7
		L148.3,788.2z"/>
	<linearGradient id="SVGID_14_" gradientUnits="userSpaceOnUse" x1="112.2432" y1="780.2984" x2="476.0203" y2="386.6673">
		<stop  offset="0" style="stop-color:#5E2F98"/>
		<stop  offset="0.2514" style="stop-color:#643CA6"/>
		<stop  offset="0.7212" style="stop-color:#755FC9"/>
		<stop  offset="0.8352" style="stop-color:#7A68D3"/>
	</linearGradient>
	<path class="st16" d="M451.3,449.8c3.8,2.4,5.3,4.3,6.6,8.6c0.5,1.8,1.2,5.6-0.3,7.1c-2.5,2.6-9.4-0.2-11.9-1.2
		c-4.8-1.9-9.7-4.6-14.7-5.8c-9.5-2.2-19.9-3.1-28-8.9c-4.6-3.3-8.6-7.8-11.7-12.5c-2-3-4.8-5.4-5-9.3c-0.5-7.8,10.4-8.3,15.5-7.1
		c10.9,2.5,21.7,5.9,31.9,10.8c6,2.9,13.4,6.6,17.7,11.9c1,1.3,2,3.3,2.5,4.9C454.3,449.6,455.5,453.1,451.3,449.8z"/>
	<linearGradient id="SVGID_15_" gradientUnits="userSpaceOnUse" x1="123.9138" y1="791.0839" x2="487.6909" y2="397.4528">
		<stop  offset="0" style="stop-color:#5E2F98"/>
		<stop  offset="0.2514" style="stop-color:#643CA6"/>
		<stop  offset="0.7212" style="stop-color:#755FC9"/>
		<stop  offset="0.8352" style="stop-color:#7A68D3"/>
	</linearGradient>
	<path class="st17" d="M430.9,471.7c1.3-2.9,1.9-3.1-0.2-4.9c-1.5-1.2-4.1-2.7-5.8-3.6c-2-1-5.5-2-7.8-1.8c-5.5,0.7-3,6.8-1.3,9.8
		c1.1,1.9,1.8,3.6,3.6,4.6c2.1,1.2,3.5,1.8,5.8,1c1.6-0.5,3.2-1.7,4.4-2.8c0.9-0.8,3.1-2.3,2.8-3.8c-0.2,0-0.5-0.1-0.7-0.1
		L430.9,471.7z"/>
	<linearGradient id="SVGID_16_" gradientUnits="userSpaceOnUse" x1="155.2525" y1="820.0457" x2="519.0296" y2="426.4146">
		<stop  offset="0" style="stop-color:#5E2F98"/>
		<stop  offset="0.2514" style="stop-color:#643CA6"/>
		<stop  offset="0.7212" style="stop-color:#755FC9"/>
		<stop  offset="0.8352" style="stop-color:#7A68D3"/>
	</linearGradient>
	<path class="st18" d="M469.3,539.1c-0.1-2.6,0.1-3.2-1.5-4.8c-2.4-2.5-5.9-4.3-8.8-6.2c-6.5-4.2-13.4-7.2-20.7-9.7
		c-6.5-2.2-13.1-3.5-19.9-4.6c-5-0.8-9.8-2.4-14.9-3.2c-7.8-1.1-17.4-4.8-23.6,2.5c-5,6,4.3,13.9,8.6,17.2c3.9,2.9,7.9,4.4,12.6,5.5
		c5.4,1.4,10.7,3,16.1,4.3c10,2.5,19.4,7.3,29,11c6.6,2.6,11.3,2.3,17.3-1.6C466.7,547.5,472.2,541.8,469.3,539.1z"/>
	<linearGradient id="SVGID_17_" gradientUnits="userSpaceOnUse" x1="111.7641" y1="779.8556" x2="475.5412" y2="386.2245">
		<stop  offset="0" style="stop-color:#5E2F98"/>
		<stop  offset="0.2514" style="stop-color:#643CA6"/>
		<stop  offset="0.7212" style="stop-color:#755FC9"/>
		<stop  offset="0.8352" style="stop-color:#7A68D3"/>
	</linearGradient>
	<path class="st19" d="M378.4,494.4c1.3,2.4,4.5,6.8,0.4,8.3c-2.4,0.9-4.1-1.1-5.9-2.4c-2-1.5-4.2-2.9-5.5-5.1
		c-1.4-2.4-0.7-4.6,1.8-5.7c4.9-2.2,7.2,2.5,10,5.7L378.4,494.4z"/>
	<linearGradient id="SVGID_18_" gradientUnits="userSpaceOnUse" x1="47.5015" y1="720.4669" x2="411.2786" y2="326.8357">
		<stop  offset="0" style="stop-color:#5E2F98"/>
		<stop  offset="0.2514" style="stop-color:#643CA6"/>
		<stop  offset="0.7212" style="stop-color:#755FC9"/>
		<stop  offset="0.8352" style="stop-color:#7A68D3"/>
	</linearGradient>
	<path class="st20" d="M301.6,446.6c4.3,4.5,7,9.8,6.2,16.2c-0.7,6.3-4.9,7.6-10.2,5c-1.4-0.7-3.3-1.4-4.5-2.3
		c-1.5-1.1-2.3-3.2-3.4-4.7c-2.5-3.3-3.8-6.8-3.7-11c0.1-3.9-0.5-8.2,0.6-12c0.6-2.1,1.4-4.9,3.3-6.2c2.2-1.5,3.9,0.5,5.5,1.8
		s2.9,1.9,3.9,3.8c1.9,3.2,2.9,6.8,3.9,10.4L301.6,446.6z"/>
	<linearGradient id="SVGID_19_" gradientUnits="userSpaceOnUse" x1="154.0102" y1="818.8976" x2="517.7872" y2="425.2665">
		<stop  offset="0" style="stop-color:#5E2F98"/>
		<stop  offset="0.2514" style="stop-color:#643CA6"/>
		<stop  offset="0.7212" style="stop-color:#755FC9"/>
		<stop  offset="0.8352" style="stop-color:#7A68D3"/>
	</linearGradient>
	<path class="st21" d="M390.2,581.4c-0.2-3-0.1-3.2-2.3-4.8c-1.6-1.2-3.2-2.6-5-3.6c-2.8-1.6-7.5-3.1-10.8-3.3
		c-2.9-0.2-6-0.1-8.7,1.4c-1.7,1-2,2.9-1.6,4.9c0.6,2.8,3.4,4.6,5.5,6.3s5,3.9,7.6,4.5c3.3,0.8,6.5,1.3,9.8,0.4
		c2-0.5,6.1-1.3,6.1-4.1L390.2,581.4z"/>
	<linearGradient id="SVGID_20_" gradientUnits="userSpaceOnUse" x1="122.972" y1="790.2134" x2="486.7491" y2="396.5823">
		<stop  offset="0" style="stop-color:#5E2F98"/>
		<stop  offset="0.2514" style="stop-color:#643CA6"/>
		<stop  offset="0.7212" style="stop-color:#755FC9"/>
		<stop  offset="0.8352" style="stop-color:#7A68D3"/>
	</linearGradient>
	<path class="st22" d="M351.8,554c-1.9-2.7-3.1-5.1-6.1-6.9c-1.3-0.8-4.5-3.2-6.1-3.2c-1.1,0-2.5,1.5-2.7,2.6
		c-0.2,1.4,1.2,3.2,1.9,4.3c1.6,2.4,4.2,4.7,6.7,5.7c1.4,0.6,2.5,0.9,3.9,0.4c1.4-0.4,2-1.8,3.1-2.2L351.8,554z"/>
	<linearGradient id="SVGID_21_" gradientUnits="userSpaceOnUse" x1="146.6212" y1="812.069" x2="510.3982" y2="418.4379">
		<stop  offset="0" style="stop-color:#5E2F98"/>
		<stop  offset="0.2514" style="stop-color:#643CA6"/>
		<stop  offset="0.7212" style="stop-color:#755FC9"/>
		<stop  offset="0.8352" style="stop-color:#7A68D3"/>
	</linearGradient>
	<path class="st23" d="M504.6,438c3.8,3.8,7,7.8,8.2,13.3c0.4,1.7,0.4,3.3-1.1,4.6c-2,1.8-4.6,0.8-7,0c-6.7-2.3-13-6.3-18.9-10.1
		c-5.3-3.5-12.5-4.5-16.5-9.6c-2.2-2.8-4.5-5.8-2.4-9.4c1.8-3.1,6.6-4.4,9.9-4.5c4.7-0.1,9.7,1.5,13.8,3.7
		C498,430.2,502.9,435.9,504.6,438z"/>
	<linearGradient id="SVGID_22_" gradientUnits="userSpaceOnUse" x1="147.4211" y1="812.8082" x2="511.1982" y2="419.1771">
		<stop  offset="0" style="stop-color:#5E2F98"/>
		<stop  offset="0.2514" style="stop-color:#643CA6"/>
		<stop  offset="0.7212" style="stop-color:#755FC9"/>
		<stop  offset="0.8352" style="stop-color:#7A68D3"/>
	</linearGradient>
	<path class="st24" d="M526.5,421.6c-7.4-1.4-13.8-3-20.3-6.9c-1.3-0.8-2.6-1.2-3.9-1.9c-1.1-0.7-1.5-1.5-2.4-2.4
		c0.6-3,8.8-1.2,10.6-0.4c2.5,1,5,2.5,7.4,3.7c1.3,0.6,2.6,1.2,3.8,2.1c2.4,1.8,3.9,4.9,5.5,7.4L526.5,421.6z"/>
</g>
<g class="st1">
	<linearGradient id="SVGID_23_" gradientUnits="userSpaceOnUse" x1="149.839" y1="747.6583" x2="550.839" y2="436.6583">
		<stop  offset="0" style="stop-color:#3E2172"/>
		<stop  offset="0.3826" style="stop-color:#442C80"/>
		<stop  offset="1" style="stop-color:#53449E"/>
	</linearGradient>
	<path class="st25" d="M296.1,586.6c2.1,1.2,4.4,2.7,6.6,3.6c3.7,1.5,7.1,3.7,10.8,5.3c4.3,1.9,9,3.1,13.5,4.7
		c6.4,2.2,12.4,4.7,18.1,8.2c5.8,3.5,11.3,8.6,14.3,14.8c1.7,3.5,2.4,8.3,0.3,11.9c-1.2,2.1-3.1,4.3-5.3,5.3
		c-3.8,1.7-7.5,0.6-11.3-0.3c-4.8-1.1-9.6-2.7-13.9-4.9c-2.4-1.2-4.6-2.7-6.9-3.9c-2.5-1.3-5.2-2.3-7.8-3.3c-2-0.8-4.1-1.5-6.1-2.2
		c-2.8-0.9-4.7-2.1-7-3.8c-4.1-2.9-7.9-7-10.3-11.4c-3.2-5.8-4.9-11.7-3.8-18.2C288,587.5,291.7,585,296.1,586.6z"/>
	<linearGradient id="SVGID_24_" gradientUnits="userSpaceOnUse" x1="207.3895" y1="821.8632" x2="608.3895" y2="510.8632">
		<stop  offset="0" style="stop-color:#3E2172"/>
		<stop  offset="0.3826" style="stop-color:#442C80"/>
		<stop  offset="1" style="stop-color:#53449E"/>
	</linearGradient>
	<path class="st26" d="M367.2,622.7c1.4-1.9,2.4-1.7,4.7-1.6c1.7,0.1,3.6,0.6,5.3,0.9c8.7,1.8,17.5,2.8,26.2,5
		c4.8,1.2,9.3,2.5,13.8,4.9c4.4,2.3,8.9,4.4,13.1,7c9.9,5.9,20.2,10.5,31.6,12.9c7,1.5,14,2.9,21,4.2c4.2,0.8,8.5,1.4,12.7,2.3
		c4.2,0.9,8.4,2.1,12.6,3c7.6,1.7,14.9,3.5,22.3,6.3s14.9,5.4,20.7,11c3,2.9,6.8,7.1,6.8,11.5c0,3.1-1.3,6-2.9,8.6
		c-5.8,9.6-16.9,15.3-26.6,20.2c-13.4,6.8-29.3,7.7-44,9.4c-19.1,2.2-38.5,1-57.3-2.9c-8.5-1.7-17-3.4-25.5-5
		c-10.2-1.9-20.6-3.3-30.8-5.4c-8.4-1.8-16.9-3.7-25.1-6.1c-4.5-1.3-9.1-2.8-13.3-4.7c-3.8-1.7-7.4-3.9-11-6.1
		c-2.9-1.7-6-3.5-8.6-5.6c-2.3-1.9-4.3-4.4-6.1-6.7c-3-3.9-4.9-8.2-7.4-12.4c-1.6-2.9-3.3-5.9-5.2-8.6c-2-2.7-4.3-5.2-6.4-7.7
		c-4.5-5.4-9.9-10-14.1-15.6c-2.4-3.2-4.8-7.3-5.1-11.4c-0.2-2.8-0.2-5.7,2.7-6.9c2.8-1.2,6-1.3,9-0.9c3,0.4,6,1.6,8.9,2.5
		c5.1,1.6,10.1,3.4,14.9,5.9c11.9,6.4,23.7,14.3,37.1,17.2c5.5,1.2,11.1,1.8,16.4-0.4c3.9-1.6,7.9-3.4,11.3-5.9
		c4.6-3.4,3.2-7.3,1.2-11.9C369,627.6,366.5,623.2,367.2,622.7z"/>
	<linearGradient id="SVGID_25_" gradientUnits="userSpaceOnUse" x1="89.5695" y1="669.9474" x2="490.5695" y2="358.9474">
		<stop  offset="0" style="stop-color:#3E2172"/>
		<stop  offset="0.3826" style="stop-color:#442C80"/>
		<stop  offset="1" style="stop-color:#53449E"/>
	</linearGradient>
	<path class="st27" d="M109.7,560.5c0,4.9,0.5,9.7,1.2,14.6c0.3,2.1,0.7,4.3,1,6.4c0.4,2.9,1.8,5.4,2.5,8.3
		c1.2,5.1,3.6,9.5,5.8,14.3c2.2,4.8,3.6,9.9,5.7,14.8c6,13.8,9.6,28.4,15.4,42.2c2.9,6.8,5.5,13.9,8.7,20.6c2.9,6,6.3,11.8,9.3,17.8
		c1.1,2.2,4.2,6.3,1.9,8.7c-1.9,1.9-5.3,0.1-7.2-0.9c-7.9-4.2-11.2-14.2-16.1-21.2c-2.5-3.5-6.2-6.2-8.8-9.7
		c-3.3-4.6-7.3-10-9.5-15.2c-4.6-10.7-7.4-21.8-11.3-32.7c-3.3-9-3.8-17.8-3.8-27.2c0-4-0.4-7.9,0.8-11.7
		C106.3,585.9,107.2,580,109.7,560.5z"/>
	<linearGradient id="SVGID_26_" gradientUnits="userSpaceOnUse" x1="61.3394" y1="633.5479" x2="462.3394" y2="322.5479">
		<stop  offset="0" style="stop-color:#3E2172"/>
		<stop  offset="0.3826" style="stop-color:#442C80"/>
		<stop  offset="1" style="stop-color:#53449E"/>
	</linearGradient>
	<path class="st28" d="M124.3,574.1c3.3,3.2,10.1,11,6.9,16.3c-1.8,2.9-7,1.6-8.8-0.8c-1.6-2.1-1.2-5.6-1.2-8.1
		c0-1.4-0.5-3.4,0.1-4.6c0.5-1.1,1.7-1.4,2-2.7h1C124.3,574.2,124.3,574.1,124.3,574.1z"/>
	<linearGradient id="SVGID_27_" gradientUnits="userSpaceOnUse" x1="200.4733" y1="812.9456" x2="601.4733" y2="501.9456">
		<stop  offset="0" style="stop-color:#3E2172"/>
		<stop  offset="0.3826" style="stop-color:#442C80"/>
		<stop  offset="1" style="stop-color:#53449E"/>
	</linearGradient>
	<path class="st29" d="M188,725.6c4.6,2.5,8,5.4,12.2,8.4c3.7,2.6,7.7,4.5,11.8,6.5c10.5,5.1,21.2,8.2,32.7,10.2
		c14.5,2.5,29.3,4.5,43.4,9.1c10.7,3.5,21.3,7.3,31.9,11c10,3.5,21.3,6.1,30.2,12c2.2,1.5,5.1,3.7,4.3,6.7c-1.2,4.7-10.9,4.9-14.4,5
		c-10.4,0.4-20.9-0.1-31.3,0c-5,0-10-0.3-15,0.2c-6.5,0.6-12.1,0.6-18.6,0c-7.8-0.7-16-0.5-23.5-2.9c-14.5-4.7-28.8-10.1-43-15.7
		c-12.7-5-31.1-15.4-30-31.3C179.1,738.1,183.4,728.5,188,725.6z"/>
	<linearGradient id="SVGID_28_" gradientUnits="userSpaceOnUse" x1="146.6577" y1="743.5564" x2="547.6578" y2="432.5564">
		<stop  offset="0" style="stop-color:#3E2172"/>
		<stop  offset="0.3826" style="stop-color:#442C80"/>
		<stop  offset="1" style="stop-color:#53449E"/>
	</linearGradient>
	<path class="st30" d="M167.1,738.1c2.1-4.4,2.7-5.5,0.4-9.5c-1.4-2.5-5.8-6.3-9-6.3c-6.5,0-6.7,7.4-5.2,11.9
		c1.3,3.9,3,9.9,7.6,10.2c2,0.1,2.6-0.2,4.1-1.3s3.6-4.7,5.3-5L167.1,738.1L167.1,738.1z"/>
	<linearGradient id="SVGID_29_" gradientUnits="userSpaceOnUse" x1="310.8565" y1="955.2725" x2="711.8565" y2="644.2725">
		<stop  offset="0" style="stop-color:#3E2172"/>
		<stop  offset="0.3826" style="stop-color:#442C80"/>
		<stop  offset="1" style="stop-color:#53449E"/>
	</linearGradient>
	<path class="st31" d="M622.6,750.6c1.2,4.9,1.9,9.4-0.5,14.1c-3.3,6.6-10.6,11-17.4,13.1c-4.3,1.3-8.6,1.8-13.1,2
		c-4.9,0.2-9.9,1-14.8,1.1c-7.6,0.1-14.5,0.6-22.1,1.7c-4.1,0.6-8,1.8-12.1,2.3c-3.2,0.4-6.2,0.8-9.4,1.5
		c-6.6,1.5-13.2,1.6-19.8,2.5c-6.9,1-14.4,0.5-21.2-0.5c-6.1-0.9-12.5-1.7-15.4-7.6c-2.3-4.6-0.6-7.1,3.5-10.3
		c3.6-2.8,9.6-4,13.9-5.4c6.5-2.1,12.9-4.1,19.5-5.7c9.3-2.2,18.2-5.5,27.3-8.2c18.8-5.5,36.8-13.3,56.5-15.1
		c8.1-0.7,17.8-0.8,25.3,2.8c2.6,1.3,4.1,3.5,5.2,6.1C629.7,749.1,627.8,751.4,622.6,750.6z"/>
	<linearGradient id="SVGID_30_" gradientUnits="userSpaceOnUse" x1="309.4702" y1="953.485" x2="710.4702" y2="642.485">
		<stop  offset="0" style="stop-color:#3E2172"/>
		<stop  offset="0.3826" style="stop-color:#442C80"/>
		<stop  offset="1" style="stop-color:#53449E"/>
	</linearGradient>
	<path class="st32" d="M623.7,716.2c-1.1,3.5-0.9,4.5-4.1,5.5c-2.1,0.6-4.3,1.2-6.5,0.6c-2.7-0.8-5.9-2.8-6.2-5.6
		c-0.4-3.1,2.4-5.5,4.9-6.8c5.1-2.8,9.3-2.5,11.8,3.2L623.7,716.2L623.7,716.2z"/>
	<linearGradient id="SVGID_31_" gradientUnits="userSpaceOnUse" x1="96.6823" y1="679.1187" x2="497.6823" y2="368.1186">
		<stop  offset="0" style="stop-color:#3E2172"/>
		<stop  offset="0.3826" style="stop-color:#442C80"/>
		<stop  offset="1" style="stop-color:#53449E"/>
	</linearGradient>
	<path class="st33" d="M403.2,485.3c0-2.1-0.2-3.5-1.1-5.4c-1.1-2.3-2.1-4.7-3.6-6.8c-1-1.5-1.6-3.1-2.6-4.6
		c-1.3-2.1-2.7-4.1-3.8-6.3c-1.5-2.9-3.7-5.3-5.7-7.8c-1.4-1.8-2.6-3.2-3.7-5.2c-0.8-1.6-2.1-2.8-2.9-4.3c-1.1-1.9-1.8-4.2-2.8-6.2
		c-1.1-2.2-2.2-4.2-3.5-6.3c-0.9-1.4-1.8-3.1-3.2-4.1c-0.9-0.7-2.1-2.2-3.1-2.6c-2.5-1.1-3.8-0.2-5.1,2.1c-2.1,3.7-2.9,9-2.7,13.2
		c0.2,4.7,1.1,9.5,2.6,13.9c1.1,3.2,2.9,6.1,4.5,9c3.1,5.4,6.8,10.4,10.4,15.5c2.1,3,5.7,5.5,8.6,7.8c1.9,1.5,3.8,2.5,6.1,3.2
		c1.2,0.4,3,1.3,4.3,1c1.2-0.2,2.5-1.1,3.7-1.5C402.7,488.9,404,486.3,403.2,485.3z"/>
	<linearGradient id="SVGID_32_" gradientUnits="userSpaceOnUse" x1="125.5942" y1="716.3973" x2="526.5942" y2="405.3974">
		<stop  offset="0" style="stop-color:#3E2172"/>
		<stop  offset="0.3826" style="stop-color:#442C80"/>
		<stop  offset="1" style="stop-color:#53449E"/>
	</linearGradient>
	<path class="st34" d="M414.7,489.5c1.8,0.9,3.7,1.6,4.5,3.5c0.2,0.5,0.6,1.7,0.2,2.2c-1.4,2.1-6.4-0.7-7.5-1.8
		c-1.1-1.2-2.4-3.2-1.3-4.7c1-1.3,3-1.5,4.2-0.3v1.1L414.7,489.5L414.7,489.5z"/>
	<linearGradient id="SVGID_33_" gradientUnits="userSpaceOnUse" x1="58.1008" y1="629.3721" x2="459.1008" y2="318.3721">
		<stop  offset="0" style="stop-color:#3E2172"/>
		<stop  offset="0.3826" style="stop-color:#442C80"/>
		<stop  offset="1" style="stop-color:#53449E"/>
	</linearGradient>
	<path class="st35" d="M322.3,414.8c1,0.6,2.5,1.2,3.3,2.2c0.5,0.7,0.7,1.9,1,2.6c1.2,3.3,2.1,6.7,2.4,10.3c0.3,3.4,0.5,9.5-3.6,11
		c-7.8,2.7-19.2-2.9-19.9-11.7c-0.4-5,2.3-9.6,5.3-13.4c1.4-1.9,3.1-4,5-5.4c1.2-0.9,3.1-1.6,4.7-1.3
		C323.1,409.5,325.2,412.2,322.3,414.8z"/>
	<linearGradient id="SVGID_34_" gradientUnits="userSpaceOnUse" x1="72.8149" y1="648.3442" x2="473.8149" y2="337.3443">
		<stop  offset="0" style="stop-color:#3E2172"/>
		<stop  offset="0.3826" style="stop-color:#442C80"/>
		<stop  offset="1" style="stop-color:#53449E"/>
	</linearGradient>
	<path class="st36" d="M323.8,457.6c0-1.7,0.1-2.1-1.1-3.2c-0.7-0.6-1.6-1.6-2.5-1.9c-1.9-0.6-3.1,0.8-3.1,2.5c-0.1,1.3-0.1,4,1.1,5
		c1.1,0.9,6.1,0.1,5.7-1.8v-0.6H323.8z"/>
	<linearGradient id="SVGID_35_" gradientUnits="userSpaceOnUse" x1="44.5048" y1="611.8415" x2="445.5048" y2="300.8415">
		<stop  offset="0" style="stop-color:#3E2172"/>
		<stop  offset="0.3826" style="stop-color:#442C80"/>
		<stop  offset="1" style="stop-color:#53449E"/>
	</linearGradient>
	<path class="st37" d="M266.9,422.1c0.8,3.3,0.7,6.6,1.3,9.9c1,5.3,1.6,11.1,1.8,16.5c0.1,2.8,0,5.7,0.1,8.5c0.2,3.5,0.7,7,0.3,10.5
		c-0.5,4.5-1,9.3-4,12.9c-2.1,2.6-5.1,1.6-8,0.6c-2.3-0.8-4.3-2.7-6.3-4c-1.6-1.1-3-2.2-4.5-3.5c-6.2-5.8-11.8-12.2-14.3-20.6
		c-1.8-6.1-3.6-13-2.1-19.3c1-4.2,2.4-7.6,5.2-10.9c2.1-2.5,4.5-4,7.4-5.5c2.3-1.2,4.8-1.3,7.3-1.9c2.2-0.5,4.1-0.7,6.3-0.7
		c1.9,0,4,0.2,5.9,0.6C267.3,416.1,268.3,421.5,266.9,422.1z"/>
	<linearGradient id="SVGID_36_" gradientUnits="userSpaceOnUse" x1="65.2404" y1="638.5778" x2="466.2404" y2="327.5777">
		<stop  offset="0" style="stop-color:#3E2172"/>
		<stop  offset="0.3826" style="stop-color:#442C80"/>
		<stop  offset="1" style="stop-color:#53449E"/>
	</linearGradient>
	<path class="st38" d="M260.6,490c-0.7-2.3-2.3-4.6-5-3.4c-1.9,0.9-3,3.3-2,5.2c0.7,1.4,2.5,2.2,4.1,1.7c0.9-0.3,2-1.2,2.5-2
		c0.9-1.3,0.2-2.2,0-3.7L260.6,490z"/>
	<linearGradient id="SVGID_37_" gradientUnits="userSpaceOnUse" x1="91.9298" y1="672.9908" x2="492.9298" y2="361.9908">
		<stop  offset="0" style="stop-color:#3E2172"/>
		<stop  offset="0.3826" style="stop-color:#442C80"/>
		<stop  offset="1" style="stop-color:#53449E"/>
	</linearGradient>
	<path class="st39" d="M253.3,545.9c2.1,0.2,4.1,0.6,6.1,1.3c0.2,0.5,0.4,0.9,0.8,1.3c0.4,0.6,1.7,1.3,1.5,2.1
		c-2.6,1.1-6.4-0.7-8.7-1.9c-1.1-0.6-2.4-1.3-3.3-2.2c-0.4-0.4-1.5-1.4-1.8-1.9c-0.8-1.5,0-2.3,1.5-2.3c1.7,0,5.3,1.2,5.5,3.1
		L253.3,545.9z"/>
	<linearGradient id="SVGID_38_" gradientUnits="userSpaceOnUse" x1="51.3337" y1="620.6467" x2="452.3337" y2="309.6467">
		<stop  offset="0" style="stop-color:#3E2172"/>
		<stop  offset="0.3826" style="stop-color:#442C80"/>
		<stop  offset="1" style="stop-color:#53449E"/>
	</linearGradient>
	<path class="st40" d="M166.6,537c0,2.3,0.3,3,1.2,5.1c0.7,1.9,1.8,4.1,1.5,6.2c-0.7,4.9-7.5,3.9-11,3.5c-4.1-0.5-8-1.4-11-4.3
		c-2.4-2.3-3.5-4.1-4-7.4c-0.7-5.2-1.9-14.1,5.8-14c3.4,0,6.1,1.5,8.9,3.3c2,1.2,3.1,2.8,4.6,4.5C164.3,535.9,166.3,537.7,166.6,537
		z"/>
	<linearGradient id="SVGID_39_" gradientUnits="userSpaceOnUse" x1="204.2829" y1="817.8577" x2="605.2829" y2="506.8577">
		<stop  offset="0" style="stop-color:#3E2172"/>
		<stop  offset="0.3826" style="stop-color:#442C80"/>
		<stop  offset="1" style="stop-color:#53449E"/>
	</linearGradient>
	<path class="st41" d="M220.9,821.2c-2.3-7.3-5.8-13.6-12.5-17.7c-1.6-1-2.9-2.2-4.8-1.3c-1.5,0.8-1.2,2.6-0.8,4.1
		c0.6,2,2.5,4.8,3.9,6.4c1.5,1.8,3.3,3.5,5,5c1,0.9,2.3,2.1,3.6,2.4C216.6,820.3,218.1,820.1,220.9,821.2z"/>
	<linearGradient id="SVGID_40_" gradientUnits="userSpaceOnUse" x1="306.4454" y1="949.5848" x2="707.4454" y2="638.5848">
		<stop  offset="0" style="stop-color:#3E2172"/>
		<stop  offset="0.3826" style="stop-color:#442C80"/>
		<stop  offset="1" style="stop-color:#53449E"/>
	</linearGradient>
	<path class="st42" d="M486.8,829.5c-0.1-2.8-1.7-4.1-4-6c-4.7-3.9-10.8-6.6-16.6-8.4c-5.1-1.6-11.2-2.7-16.5-1.3
		c-2.4,0.7-5.3,1.8-6.4,4.2c-1.7,4.2,2.8,10.4,6.1,12.7c4.2,2.9,10.3,3.8,15.1,5.3c4.3,1.3,9.4,1.8,13.9,1.2
		c1.6-0.2,3.4-0.3,4.9-0.9c1.4-0.6,3.1-0.6,4.5-1.4c1.3-0.7,3-1.8,3.1-3.3c0.1-0.8-0.2-2-0.6-2.7
		C489.6,827.6,487.8,827.5,486.8,829.5z"/>
</g>
<g>
	<linearGradient id="SVGID_41_" gradientUnits="userSpaceOnUse" x1="69.5666" y1="610.641" x2="445.5666" y2="307.641">
		<stop  offset="0" style="stop-color:#6F4EC4"/>
		<stop  offset="1" style="stop-color:#957AE5"/>
	</linearGradient>
	<path class="st43" d="M174.2,518.1c1.7,1.2,4.9,2.8,4.4,5.3c-0.3,1.2-1,2.2-1.3,3.4c-0.3,1-0.5,2.1-0.6,3.1
		c-0.1,1.4-0.9,3.7-1.9,4.8c-0.8,0.8-1.6,0-2.1-0.8c-0.6-0.9-1.2-1.8-1.2-2.8c-0.1-1.4-0.1-2.7-0.5-4.1c-0.1-0.5-0.5-1-0.7-1.5
		c-0.2-0.7-0.1-1.5-0.1-2.2C170.2,521.7,171.3,518.7,174.2,518.1z"/>
	<linearGradient id="SVGID_42_" gradientUnits="userSpaceOnUse" x1="146.3524" y1="705.9263" x2="522.3524" y2="402.9263">
		<stop  offset="0" style="stop-color:#6F4EC4"/>
		<stop  offset="1" style="stop-color:#957AE5"/>
	</linearGradient>
	<path class="st44" d="M201.4,665.1c0.3,0.2,0.7,0.3,0.8,0.6c0.1,0.1,0.1,0.4,0.1,0.5c0.1,0.8-1.1,1.2-1.6,1.4
		c-1.6,0.5-3.5,0.4-5-0.5c-1-0.6-2-1.8-2.1-3.1c-0.2-1.7,1.1-3.1,2.4-3.8c1.2-0.7,2.9-1.3,4.2-0.4c0.5,0.3,0.9,0.7,1.1,1.3
		c0.2,0.4,0.1,0.9,0.2,1.3c0.2,0.6,0.6,1,0.5,1.7C201.9,664.4,201.7,664.8,201.4,665.1z"/>
	<linearGradient id="SVGID_43_" gradientUnits="userSpaceOnUse" x1="145.437" y1="704.7903" x2="521.437" y2="401.7903">
		<stop  offset="0" style="stop-color:#6F4EC4"/>
		<stop  offset="1" style="stop-color:#957AE5"/>
	</linearGradient>
	<path class="st45" d="M192.2,667.8c-0.1-0.5-0.1-0.6-0.5-0.9c-0.3-0.3-0.6-0.4-1-0.1c-0.5,0.3-0.7,1.2-0.3,1.8
		c0.3,0.3,0.8,0.4,1.2,0.4c0.5-0.1,0.7-0.6,0.7-1.1L192.2,667.8z"/>
	<linearGradient id="SVGID_44_" gradientUnits="userSpaceOnUse" x1="119.6606" y1="672.8039" x2="495.6606" y2="369.8039">
		<stop  offset="0" style="stop-color:#6F4EC4"/>
		<stop  offset="1" style="stop-color:#957AE5"/>
	</linearGradient>
	<path class="st46" d="M169.3,633.1c0.7,0.1,1,0.2,1.5,0.7c0.3,0.3,0.4,0.5,0.4,0.9c-0.1,1-0.8,2.2-1.5,2.7
		c-0.5,0.4-1.3,0.6-1.9,0.4c-0.6-0.2-1.1-0.7-1.6-1.1c-0.4-0.3-0.9-0.7-1.3-1.1c-0.7-0.7-1.4-1.4-1.1-2.5c0.2-0.9,1-1.9,1.9-2
		c0.7-0.1,1.2,0,1.9,0.2C168.1,631.5,168.7,631.6,169.3,633.1z"/>
	<linearGradient id="SVGID_45_" gradientUnits="userSpaceOnUse" x1="123.2827" y1="677.2986" x2="499.2827" y2="374.2986">
		<stop  offset="0" style="stop-color:#6F4EC4"/>
		<stop  offset="1" style="stop-color:#957AE5"/>
	</linearGradient>
	<path class="st47" d="M173.5,636.2c-0.5,0.2-0.9,0.4-1.2,0.8c0.1,0.2-0.1,0.4,0,0.7c0.2,0.4,0.8,0.1,1.1,0s0.6-0.4,0.8-0.7
		c0.1-0.1,0.3-0.7,0-0.6L173.5,636.2z"/>
	<linearGradient id="SVGID_46_" gradientUnits="userSpaceOnUse" x1="151.6696" y1="712.5246" x2="527.6696" y2="409.5246">
		<stop  offset="0" style="stop-color:#6F4EC4"/>
		<stop  offset="1" style="stop-color:#957AE5"/>
	</linearGradient>
	<path class="st48" d="M224.4,655c0.5,0.5,1,1.1,0.7,1.9c-0.3,0.7-1.3,0.9-1.9,0.7c-0.4-0.1-0.8-0.1-0.9-0.5
		c-0.2-0.4-0.2-0.9-0.4-1.3c-0.3-1-1.4-1.4-0.9-2.6c0.2-0.5,0.8-1,1.3-1c0.9-0.1,1.7,0.9,2.2,1.6L224.4,655z"/>
	<linearGradient id="SVGID_47_" gradientUnits="userSpaceOnUse" x1="253.2386" y1="838.564" x2="629.2386" y2="535.564">
		<stop  offset="0" style="stop-color:#6F4EC4"/>
		<stop  offset="1" style="stop-color:#957AE5"/>
	</linearGradient>
	<path class="st49" d="M362.2,753.2c-0.3-0.6-0.6-1.8-1.7-2.2c-0.9-0.3-1.3-0.1-2,0.1c-1.6,0.3-3.2,0.8-2.1,2.4
		c0.5,0.7,1.9,1.5,2.9,1.7s2.7-0.1,2.6-1L362.2,753.2z"/>
	<linearGradient id="SVGID_48_" gradientUnits="userSpaceOnUse" x1="49.8296" y1="586.1489" x2="425.8297" y2="283.1489">
		<stop  offset="0" style="stop-color:#6F4EC4"/>
		<stop  offset="1" style="stop-color:#957AE5"/>
	</linearGradient>
	<path class="st50" d="M265.2,415.8c0.4,1.5,0.9,3.3-0.8,4.3c-1.1,0.7-2.9,0-3.8-0.8c-1.4-1.1-2.9-3.8-3.1-5.6
		c-0.2-1.9,2-3.9,3.8-4.1c3.5-0.4,5.4,5.2,5.6,7.8L265.2,415.8z"/>
	<linearGradient id="SVGID_49_" gradientUnits="userSpaceOnUse" x1="208.8781" y1="783.5159" x2="584.8781" y2="480.5159">
		<stop  offset="0" style="stop-color:#6F4EC4"/>
		<stop  offset="1" style="stop-color:#957AE5"/>
	</linearGradient>
	<path class="st51" d="M273,735c1.3,1.8,1.4,3.7,1.2,5.6c-0.1,1.2-0.1,2.7-1.7,3.1c-3.6,0.9-7.4-5.9-8.3-8c-0.8-1.8-1.3-3.8-1.1-5.6
		c0.1-1.1,0.9-3.1,2.1-3.6c1.6-0.6,3.7,0.5,4.8,1.7c2.7,2.7,2.5,5.9,4,8.8L273,735z"/>
	<linearGradient id="SVGID_50_" gradientUnits="userSpaceOnUse" x1="212.4442" y1="787.9412" x2="588.4442" y2="484.9412">
		<stop  offset="0" style="stop-color:#6F4EC4"/>
		<stop  offset="1" style="stop-color:#957AE5"/>
	</linearGradient>
	<path class="st52" d="M274.9,734.8c0.4,0.1,2.1,0.4,2.8,0.7c0.4,0.3,1.2,0.7,1.3,1.1c0.2,0.6-0.2,1.1-0.6,1.4
		c-0.3,0.2-0.8,0.4-1.3,0.2c-0.4-0.1-0.7-0.6-0.9-0.8c-0.4-0.5-0.8-1-1.1-1.5c-0.2-0.2-0.4-0.5-0.5-0.7c-0.1-0.4,0.2-0.5,0.3-0.8
		L274.9,734.8z"/>
	<linearGradient id="SVGID_51_" gradientUnits="userSpaceOnUse" x1="221.0651" y1="798.6391" x2="597.0651" y2="495.6391">
		<stop  offset="0" style="stop-color:#6F4EC4"/>
		<stop  offset="1" style="stop-color:#957AE5"/>
	</linearGradient>
	<path class="st53" d="M279.1,750.8c-0.4,0.1-0.8,0.2-1.2,0.4c0.1,0.4,0,0.9,0.5,1.2c0.4,0.2,1.2,0.3,1.6,0.2
		c0.5-0.1,0.8-0.4,0.8-0.9c-0.1-0.5-0.7-0.8-1.4-1L279.1,750.8z"/>
	<linearGradient id="SVGID_52_" gradientUnits="userSpaceOnUse" x1="249.9458" y1="834.4778" x2="625.9458" y2="531.4778">
		<stop  offset="0" style="stop-color:#6F4EC4"/>
		<stop  offset="1" style="stop-color:#957AE5"/>
	</linearGradient>
	<path class="st54" d="M340.3,764.4c0.1,0.4,0.1,0.7-0.5,0.9c-0.8,0.3-1.8,0.1-2.4-0.5c-0.9-0.8-1.7-2.3-1.1-3.2
		c0.3-0.5,1.7-0.9,2.4-0.3c0.4,0.3,0.9,0.7,1.2,1.1C340.4,763,340.4,763.7,340.3,764.4L340.3,764.4z"/>
	<linearGradient id="SVGID_53_" gradientUnits="userSpaceOnUse" x1="224.6833" y1="803.1291" x2="600.6833" y2="500.1291">
		<stop  offset="0" style="stop-color:#6F4EC4"/>
		<stop  offset="1" style="stop-color:#957AE5"/>
	</linearGradient>
	<path class="st55" d="M404.7,660c0.4,0.4,0.6,0.5,0.7,1.1s0.2,1.2-0.2,1.8c-0.7,1.1-2.5,1.8-3.7,2.1c-1.1,0.3-2,0.1-3-0.6
		c-1.1-0.8-1.7-1.7-1.9-3c-0.2-1.4,0.1-2.3,1.2-3.2c0.9-0.7,2.2-1.4,3.4-1.6c1.1-0.2,1.8,0.1,2.6,0.8
		C404.6,658.1,405.6,659.1,404.7,660z"/>
	<linearGradient id="SVGID_54_" gradientUnits="userSpaceOnUse" x1="223.8942" y1="802.1498" x2="599.8942" y2="499.1498">
		<stop  offset="0" style="stop-color:#6F4EC4"/>
		<stop  offset="1" style="stop-color:#957AE5"/>
	</linearGradient>
	<path class="st56" d="M395.2,664.2c0-0.4,0.1-0.8-0.3-0.9c-0.5-0.1-1.4,0.3-1.7,0.7c-0.3,0.3-0.6,0.9-0.5,1.3
		c0,0.3,0.4,0.6,0.6,0.8c0.4,0.3,0.9,0.4,1.4,0.1c0.3-0.2,1-0.6,0.9-1L395.2,664.2z"/>
	<linearGradient id="SVGID_55_" gradientUnits="userSpaceOnUse" x1="273.3324" y1="863.4989" x2="649.3324" y2="560.4989">
		<stop  offset="0" style="stop-color:#6F4EC4"/>
		<stop  offset="1" style="stop-color:#957AE5"/>
	</linearGradient>
	<path class="st57" d="M576.9,627.2c2.7-3.8,4-8.1,3.8-12.8c-0.1-2,0.1-5.5-2.7-5.2c-3.7,0.4-5.6,6.1-6.7,9.1
		c-1.5,4.3-3,8.7-2.5,13.3c0.8,6.4,9.1-6.3,9.9-7.5L576.9,627.2z"/>
	<linearGradient id="SVGID_56_" gradientUnits="userSpaceOnUse" x1="264.0934" y1="852.034" x2="640.0934" y2="549.034">
		<stop  offset="0" style="stop-color:#6F4EC4"/>
		<stop  offset="1" style="stop-color:#957AE5"/>
	</linearGradient>
	<path class="st58" d="M568.8,606.2c0.7,3.7-1,8.9-5,10.1c-1.4,0.4-2-0.5-2.7-1.8s-1.2-2.8-0.7-4.3c0.4-1,1.2-1.9,1.7-2.8
		c0.4-0.6,0.8-1,1-1.5c0.3-0.6,0.2-1,0.6-1.6c1.1-1.3,5.4-2.3,5,0.6v1.3H568.8z"/>
	<linearGradient id="SVGID_57_" gradientUnits="userSpaceOnUse" x1="369.2497" y1="982.525" x2="745.2498" y2="679.525">
		<stop  offset="0" style="stop-color:#6F4EC4"/>
		<stop  offset="1" style="stop-color:#957AE5"/>
	</linearGradient>
	<path class="st59" d="M528.1,867.9c-1.1-2.6-2.2-4.1-4.6-5.7c-2.1-1.5-5.3-2.9-7.8-3.5c-2.3-0.5-5.8-0.5-7.9,0.6
		c-2.4,1.3-4.6,3.2-6.9,4.7c-2.1,1.4-4.2,2.1-6,4c-1.6,1.6-2.9,3.8-3.7,5.9c-1.3,3.4-2.2,8.5-0.8,11.9c1.3,3.1,3.2,3.2,6.3,3.1
		c4.4-0.1,8.6-3.6,11.3-6.8c1.4-1.6,2.4-3.2,4.1-4.6c2-1.6,4.1-3,6.1-4.4c1.9-1.3,4.1-2.2,5.9-3.8
		C525,868.7,527.5,866.7,528.1,867.9z"/>
	<linearGradient id="SVGID_58_" gradientUnits="userSpaceOnUse" x1="249.092" y1="833.4184" x2="625.092" y2="530.4184">
		<stop  offset="0" style="stop-color:#6F4EC4"/>
		<stop  offset="1" style="stop-color:#957AE5"/>
	</linearGradient>
	<path class="st60" d="M452.9,670.5c0.3,1.6,0.7,2.3-0.5,3.1c-0.8,0.5-1.6,0.5-2.5,0s-2.8-2.4-2.6-3.5c0.5-2.3,6.4-2.4,6.1,0.4
		H452.9z"/>
	<linearGradient id="SVGID_59_" gradientUnits="userSpaceOnUse" x1="230.7352" y1="810.6389" x2="606.7352" y2="507.6389">
		<stop  offset="0" style="stop-color:#6F4EC4"/>
		<stop  offset="1" style="stop-color:#957AE5"/>
	</linearGradient>
	<path class="st61" d="M343.4,745.4c0.9-4.4-3.5-10.7-8.5-14.2c-7.1-5.1-18-6.2-26-5.1c-6.7,0.9-12.2,4.4-13.5,9.2
		c-0.4,1.3-0.1,2.6-0.4,3.9c-0.2,1-0.5,1.5,1,2.4c3.6,2,9.3,3.3,13.4,4c4.5,0.7,9.4,1.6,13.7,1.5c3.9-0.1,7.6-0.7,11.5-0.8
		c2-0.1,3.7-0.1,5.5-0.5C340.8,745.5,343.1,745.8,343.4,745.4z"/>
	<linearGradient id="SVGID_60_" gradientUnits="userSpaceOnUse" x1="213.7797" y1="789.5984" x2="589.7797" y2="486.5984">
		<stop  offset="0" style="stop-color:#6F4EC4"/>
		<stop  offset="1" style="stop-color:#957AE5"/>
	</linearGradient>
	<path class="st62" d="M306.6,718.6c-0.7,0.8-0.7,1.3-2,1.4c-1,0.1-2.1-0.4-2.9-0.8c-1.1-0.6-2.5-2.1-2-2.9c0.9-1.6,7.2-0.6,6.6,1.5
		L306.6,718.6z"/>
	<linearGradient id="SVGID_61_" gradientUnits="userSpaceOnUse" x1="133.9" y1="690.4738" x2="509.9" y2="387.4738">
		<stop  offset="0" style="stop-color:#6F4EC4"/>
		<stop  offset="1" style="stop-color:#957AE5"/>
	</linearGradient>
	<path class="st63" d="M207.5,634.7c-0.2-0.8-0.6-2.8-1.3-3.4c-0.5-0.5-1.3-0.5-2.1-0.4c-1.5,0.1-2.4,0.7-3.3,1.9
		c-0.5,0.7-1.2,1.3-1.4,2.1C198.4,639.5,206.5,637.5,207.5,634.7L207.5,634.7z"/>
</g>
</svg>
