<?xml version="1.0" encoding="utf-8"?>
<!-- Generator: Adobe Illustrator 21.1.0, SVG Export Plug-In . SVG Version: 6.00 Build 0)  -->
<svg version="1.1" id="Layer_1" xmlns="http://www.w3.org/2000/svg" xmlns:xlink="http://www.w3.org/1999/xlink" x="0px" y="0px"
	 viewBox="0 0 635 592" style="enable-background:new 0 0 635 592;" xml:space="preserve">
<style type="text/css">
	.st0{fill:#00001E;}
	.st1{fill:#F44337;stroke:#00001E;stroke-width:2;stroke-miterlimit:10;}
	.st2{fill:none;stroke:#00001E;stroke-width:2;stroke-miterlimit:10;}
	.st3{fill:#ECECEC;stroke:#000000;stroke-width:2;stroke-miterlimit:10;}
	.st4{fill:#FFFFFF;stroke:#00001E;stroke-width:2;stroke-miterlimit:10;}
	.st5{clip-path:url(#SVGID_2_);}
	.st6{fill:#FFFFFF;}
</style>
<g>
	<polygon class="st0" points="450.4,347.6 426.7,366.7 439.9,384 445.9,400 480.9,376.3 	"/>
	<path class="st1" d="M194.1,250.6c0,0,61.2-79.5,139.8-131.5c65.8-43.6,96.6-60.9,164.7-57.1c68.4,3.7,74.9,34.1,74.9,34.1
		s5.6-32.1-22.7-62.5C525.5,6.6,427.5-4.8,360.9,23c-58.5,24.4-93.4,43.9-168.1,114.7c-58.8,55.8-77.1,100.9-77.1,100.9L194.1,250.6
		z"/>
	<path class="st2" d="M275.2,181.4c27.7-26.8,58.4-50.5,91.4-70.3"/>
	<path class="st1" d="M554.6,37.8c0,0,19.3,43.2,12.8,81.8c-7.3,43.7-34.6,88-71.7,133.9c-26.9,33.3-73.9,85.3-73.9,85.3l57.6,76.8
		c0,0,100.3-89.6,127.8-162.1c19.9-52.4,25.4-85.7,12.3-125.5C606.6,88.2,554.6,37.8,554.6,37.8z"/>
	<g>
		
			<ellipse transform="matrix(3.552809e-02 -0.9994 0.9994 3.552809e-02 -244.6067 432.796)" class="st3" cx="101.9" cy="343.1" rx="112.8" ry="92.1"/>
		
			<ellipse transform="matrix(3.552809e-02 -0.9994 0.9994 3.552809e-02 -207.0101 477.3546)" class="st4" cx="143.8" cy="345.9" rx="112.8" ry="92.1"/>
		
			<ellipse transform="matrix(3.552761e-02 -0.9994 0.9994 3.552761e-02 -191.4906 494.6237)" class="st0" cx="160.5" cy="346.5" rx="56.4" ry="49.8"/>
		<g>
			<defs>
				
					<ellipse id="SVGID_1_" transform="matrix(3.552761e-02 -0.9994 0.9994 3.552761e-02 -191.4906 494.6237)" cx="160.5" cy="346.5" rx="56.4" ry="49.8"/>
			</defs>
			<clipPath id="SVGID_2_">
				<use xlink:href="#SVGID_1_"  style="overflow:visible;"/>
			</clipPath>
			<g class="st5">
				<g>
					
						<ellipse transform="matrix(0.9592 -0.2828 0.2828 0.9592 -109.9181 54.3266)" class="st6" cx="133.2" cy="407.9" rx="2.2" ry="2.2"/>
					
						<ellipse transform="matrix(0.9592 -0.2828 0.2828 0.9592 -107.7087 59.1689)" class="st6" cx="151.1" cy="402.6" rx="2.2" ry="2.2"/>
					
						<ellipse transform="matrix(0.9592 -0.2828 0.2828 0.9592 -105.4901 64.0048)" class="st6" cx="168.9" cy="397.4" rx="2.2" ry="2.2"/>
					
						<ellipse transform="matrix(0.9591 -0.2829 0.2829 0.9591 -103.3 68.8663)" class="st6" cx="186.8" cy="392.1" rx="2.2" ry="2.2"/>
					
						<ellipse transform="matrix(0.9592 -0.2828 0.2828 0.9592 -101.0447 73.6687)" class="st6" cx="204.6" cy="386.8" rx="2.2" ry="2.2"/>
					
						<ellipse transform="matrix(0.9592 -0.2828 0.2828 0.9592 -98.8264 78.5042)" class="st6" cx="222.5" cy="381.6" rx="2.2" ry="2.2"/>
					
						<ellipse transform="matrix(0.9592 -0.2828 0.2828 0.9592 -96.608 83.3397)" class="st6" cx="240.4" cy="376.3" rx="2.2" ry="2.2"/>
				</g>
				<g>
					
						<ellipse transform="matrix(0.9592 -0.2828 0.2828 0.9592 -104.6682 51.9196)" class="st6" cx="127.5" cy="388.5" rx="2.2" ry="2.2"/>
					
						<ellipse transform="matrix(0.9592 -0.2828 0.2828 0.9592 -102.4505 56.756)" class="st6" cx="145.3" cy="383.2" rx="2.2" ry="2.2"/>
					
						<ellipse transform="matrix(0.9592 -0.2828 0.2828 0.9592 -100.2319 61.5918)" class="st6" cx="163.2" cy="377.9" rx="2.2" ry="2.2"/>
					
						<ellipse transform="matrix(0.9591 -0.2829 0.2829 0.9591 -98.0365 66.4488)" class="st6" cx="181.1" cy="372.7" rx="2.2" ry="2.2"/>
					
						<ellipse transform="matrix(0.9592 -0.2828 0.2828 0.9592 -95.7901 71.2589)" class="st6" cx="198.9" cy="367.4" rx="2.2" ry="2.2"/>
					
						<ellipse transform="matrix(0.9592 -0.2828 0.2828 0.9592 -93.572 76.0947)" class="st6" cx="216.8" cy="362.1" rx="2.2" ry="2.2"/>
					
						<ellipse transform="matrix(0.9592 -0.2828 0.2828 0.9592 -91.3568 80.9342)" class="st6" cx="234.6" cy="356.9" rx="2.2" ry="2.2"/>
				</g>
				<g>
					
						<ellipse transform="matrix(0.9592 -0.2828 0.2828 0.9592 -99.4176 49.5121)" class="st6" cx="121.8" cy="369.1" rx="2.2" ry="2.2"/>
					
						<ellipse transform="matrix(0.9592 -0.2828 0.2828 0.9592 -97.1924 54.3432)" class="st6" cx="139.6" cy="363.8" rx="2.2" ry="2.2"/>
					
						<ellipse transform="matrix(0.9592 -0.2828 0.2828 0.9592 -94.9739 59.179)" class="st6" cx="157.5" cy="358.5" rx="2.2" ry="2.2"/>
					
						<ellipse transform="matrix(0.9592 -0.2829 0.2829 0.9592 -92.7737 64.0317)" class="st6" cx="175.3" cy="353.3" rx="2.2" ry="2.2"/>
					
						<ellipse transform="matrix(0.9592 -0.2828 0.2828 0.9592 -90.5354 68.849)" class="st6" cx="193.2" cy="348" rx="2.2" ry="2.2"/>
					
						<ellipse transform="matrix(0.9592 -0.2828 0.2828 0.9592 -88.3173 73.6851)" class="st6" cx="211.1" cy="342.7" rx="2.2" ry="2.2"/>
					
						<ellipse transform="matrix(0.9592 -0.2828 0.2828 0.9592 -86.1049 78.5282)" class="st6" cx="228.9" cy="337.5" rx="2.2" ry="2.2"/>
				</g>
				<g>
					
						<ellipse transform="matrix(0.9592 -0.2829 0.2829 0.9592 -94.1664 47.1043)" class="st6" cx="116" cy="349.7" rx="2.2" ry="2.2"/>
					
						<ellipse transform="matrix(0.9592 -0.2828 0.2828 0.9592 -91.9345 51.9305)" class="st6" cx="133.9" cy="344.4" rx="2.2" ry="2.2"/>
					
						<ellipse transform="matrix(0.9592 -0.2828 0.2828 0.9592 -89.716 56.7662)" class="st6" cx="151.8" cy="339.1" rx="2.2" ry="2.2"/>
					
						<ellipse transform="matrix(0.9592 -0.2829 0.2829 0.9592 -87.5114 61.615)" class="st6" cx="169.6" cy="333.9" rx="2.2" ry="2.2"/>
					
						<ellipse transform="matrix(0.9592 -0.2828 0.2828 0.9592 -85.2804 66.439)" class="st6" cx="187.5" cy="328.6" rx="2.2" ry="2.2"/>
					
						<ellipse transform="matrix(0.9592 -0.2828 0.2828 0.9592 -83.0625 71.2754)" class="st6" cx="205.3" cy="323.3" rx="2.2" ry="2.2"/>
					
						<ellipse transform="matrix(0.9592 -0.2829 0.2829 0.9592 -80.8525 76.1219)" class="st6" cx="223.2" cy="318.1" rx="2.2" ry="2.2"/>
				</g>
				<g>
					
						<ellipse transform="matrix(0.9592 -0.2829 0.2829 0.9592 -88.9146 44.696)" class="st6" cx="110.3" cy="330.2" rx="2.2" ry="2.2"/>
					
						<ellipse transform="matrix(0.9592 -0.2828 0.2828 0.9592 -86.6767 49.518)" class="st6" cx="128.2" cy="325" rx="2.2" ry="2.2"/>
					
						<ellipse transform="matrix(0.9592 -0.2828 0.2828 0.9592 -84.4583 54.3536)" class="st6" cx="146" cy="319.7" rx="2.2" ry="2.2"/>
					
						<ellipse transform="matrix(0.9592 -0.2829 0.2829 0.9592 -82.2497 59.1987)" class="st6" cx="163.9" cy="314.4" rx="2.2" ry="2.2"/>
					
						<ellipse transform="matrix(0.9592 -0.2828 0.2828 0.9592 -80.0253 64.0289)" class="st6" cx="181.7" cy="309.2" rx="2.2" ry="2.2"/>
					
						<ellipse transform="matrix(0.9592 -0.2828 0.2828 0.9592 -77.8075 68.8656)" class="st6" cx="199.6" cy="303.9" rx="2.2" ry="2.2"/>
					
						<ellipse transform="matrix(0.9592 -0.2829 0.2829 0.9592 -75.5994 73.7151)" class="st6" cx="217.5" cy="298.6" rx="2.2" ry="2.2"/>
				</g>
				<g>
					
						<ellipse transform="matrix(0.9591 -0.2829 0.2829 0.9591 -83.6622 42.2873)" class="st6" cx="104.6" cy="310.8" rx="2.2" ry="2.2"/>
					
						<ellipse transform="matrix(0.9592 -0.2828 0.2828 0.9592 -81.4192 47.1056)" class="st6" cx="122.5" cy="305.6" rx="2.2" ry="2.2"/>
					
						<ellipse transform="matrix(0.9592 -0.2828 0.2828 0.9592 -79.2008 51.9411)" class="st6" cx="140.3" cy="300.3" rx="2.2" ry="2.2"/>
					
						<ellipse transform="matrix(0.9592 -0.2828 0.2828 0.9592 -76.9886 56.7827)" class="st6" cx="158.2" cy="295" rx="2.2" ry="2.2"/>
					
						<ellipse transform="matrix(0.9592 -0.2828 0.2828 0.9592 -74.7701 61.6187)" class="st6" cx="176" cy="289.8" rx="2.2" ry="2.2"/>
					
						<ellipse transform="matrix(0.9592 -0.2828 0.2828 0.9592 -72.5523 66.4556)" class="st6" cx="193.9" cy="284.5" rx="2.2" ry="2.2"/>
					
						<ellipse transform="matrix(0.9591 -0.2829 0.2829 0.9591 -70.3458 71.308)" class="st6" cx="211.7" cy="279.2" rx="2.2" ry="2.2"/>
				</g>
			</g>
		</g>
	</g>
	<g>
		
			<ellipse transform="matrix(0.7942 -0.6077 0.6077 0.7942 -215.1189 287.4896)" class="st3" cx="316.8" cy="461.3" rx="144" ry="112.6"/>
		
			<ellipse transform="matrix(0.7601 -0.6498 0.6498 0.7601 -235.2042 324.9922)" class="st4" cx="322.5" cy="481" rx="110.7" ry="88.5"/>
		
			<ellipse transform="matrix(0.7942 -0.6077 0.6077 0.7942 -230.2753 304.3266)" class="st3" cx="334.1" cy="492.1" rx="63.9" ry="50"/>
	</g>
	<path class="st2" d="M594.3,305.1c-27.9,46.1-62.9,87.9-103.4,123.4"/>
	<path class="st2" d="M627.9,225.5c-5.8,21-14.3,41.3-25.2,60.1"/>
</g>
</svg>
