<?xml version="1.0" encoding="utf-8"?>
<!-- Generator: Adobe Illustrator 21.1.0, SVG Export Plug-In . SVG Version: 6.00 Build 0)  -->
<svg version="1.1" id="Layer_1" xmlns="http://www.w3.org/2000/svg" xmlns:xlink="http://www.w3.org/1999/xlink" x="0px" y="0px"
	 viewBox="0 0 697 472" style="enable-background:new 0 0 697 472;" xml:space="preserve">
<style type="text/css">
	.st0{fill:#476BFF;}
	.st1{fill:none;stroke:#00001E;stroke-width:2;stroke-miterlimit:10;}
	.st2{fill:#00001E;}
	.st3{fill:#F44337;}
	.st4{fill:#FFFFFF;}
	.st5{fill:#ECECEC;}
	.st6{fill:#00020C;}
	.st7{fill:#222627;}
	.st8{fill:none;stroke:#2E2E3B;stroke-width:2;stroke-miterlimit:10;}
</style>
<g>
	<rect x="194.6" y="224.1" class="st0" width="80" height="36"/>
	<g>
		<g>
			<g>
				<g>
					<path class="st1" d="M486.8,388.4c0.3,0,0.7,0,1,0c0.3,0,0.6,0.1,0.9,0.1c0.3,0.1,0.5,0.1,0.7,0.2c0.2,0.1,0.3,0.2,0.4,0.2
						l63.5,64c0.2,0.2,0.2,0.3,0.2,0.5c0,0.1-0.2,0.3-0.4,0.4c-0.2,0.1-0.5,0.2-0.8,0.3c-0.4,0.1-0.8,0.1-1.3,0.1H114.9
						c-0.5,0-0.9,0-1.3-0.1c-0.4-0.1-0.6-0.2-0.8-0.3c-0.2-0.1-0.3-0.2-0.4-0.4c0-0.1,0-0.3,0.2-0.5l63.5-64
						c0.1-0.1,0.2-0.2,0.4-0.2c0.2-0.1,0.4-0.1,0.7-0.2c0.3-0.1,0.6-0.1,0.9-0.1c0.3,0,0.7,0,1,0h36.4l-0.3,0.4
						c-0.1,0.1-0.1,0.2,0,0.2c0.1,0.1,0.2,0.1,0.4,0.2c0.2,0.1,0.4,0.1,0.7,0.1c0.3,0,0.6,0,0.9,0h231c0.3,0,0.7,0,0.9,0
						c0.3,0,0.5-0.1,0.7-0.1c0.2-0.1,0.3-0.1,0.4-0.2c0.1-0.1,0.1-0.2,0-0.2l-0.3-0.4H486.8z M510.8,426.6l-30-33.1
						c-0.1-0.1-0.2-0.2-0.4-0.3c-0.1-0.1-0.3-0.2-0.5-0.3c-0.2-0.1-0.4-0.2-0.6-0.3c-0.2-0.1-0.4-0.2-0.7-0.3l-2.2-0.5
						c-0.3,0-0.7-0.1-1.2-0.1c-0.4,0-0.9-0.1-1.3-0.1c-0.5,0-0.9,0-1.3-0.1c-0.4,0-0.8,0-1.2,0h-278c-0.3,0-0.7,0-1.2,0
						c-0.4,0-0.9,0-1.3,0.1c-0.5,0-0.9,0-1.3,0.1c-0.4,0-0.8,0.1-1.2,0.1l-2.2,0.5c-0.2,0.1-0.4,0.2-0.7,0.3
						c-0.2,0.1-0.4,0.2-0.6,0.3c-0.2,0.1-0.4,0.2-0.5,0.3c-0.1,0.1-0.3,0.2-0.4,0.3l-30.3,33.1c-0.1,0.1-0.2,0.3-0.3,0.4
						c-0.1,0.2-0.1,0.3-0.2,0.5c0,0.2-0.1,0.3,0,0.5c0,0.2,0,0.3,0.1,0.4l1.6,0.7c0.3,0.1,0.7,0.1,1.2,0.2c0.5,0,0.9,0.1,1.5,0.1
						c0.5,0,1,0.1,1.5,0.1c0.5,0,1,0,1.4,0H504c0.4,0,0.9,0,1.4,0c0.5,0,1,0,1.5-0.1c0.5,0,1-0.1,1.4-0.1c0.5,0,0.9-0.1,1.2-0.2
						l1.6-0.7c0.1-0.1,0.1-0.3,0.1-0.4c0-0.2,0-0.3,0-0.5c0-0.2-0.1-0.3-0.2-0.5C511,426.8,510.9,426.7,510.8,426.6L510.8,426.6z
						 M376,449.5l-3.2-16.4c0-0.1-0.1-0.3-0.3-0.4c-0.2-0.1-0.4-0.2-0.7-0.3c-0.3-0.1-0.7-0.2-1-0.2c-0.4-0.1-0.8-0.1-1.2-0.1h-73.1
						c-0.4,0-0.8,0-1.2,0.1c-0.4,0.1-0.7,0.1-1,0.2c-0.3,0.1-0.6,0.2-0.7,0.3c-0.2,0.1-0.3,0.3-0.3,0.4l-3.3,16.4
						c0,0.2,0,0.3,0.2,0.5c0.1,0.1,0.4,0.3,0.7,0.4c0.3,0.1,0.6,0.2,1,0.3c0.4,0.1,0.8,0.1,1.3,0.1h79.9c0.5,0,0.9,0,1.3-0.1
						c0.4-0.1,0.7-0.2,1-0.3c0.3-0.1,0.5-0.2,0.7-0.4C375.9,449.8,376,449.7,376,449.5L376,449.5z"/>
					<g>
						<g>
							<path class="st2" d="M369.4,432.1c0.4,0,0.8,0,1.2,0.1c0.4,0.1,0.7,0.1,1,0.2c0.3,0.1,0.6,0.2,0.7,0.3
								c0.2,0.1,0.3,0.3,0.3,0.4l3.2,16.4c0,0.2,0,0.3-0.2,0.5c-0.1,0.1-0.4,0.3-0.7,0.4c-0.3,0.1-0.6,0.2-1,0.3
								c-0.4,0.1-0.8,0.1-1.3,0.1h-79.9c-0.5,0-0.9,0-1.3-0.1c-0.4-0.1-0.8-0.2-1-0.3c-0.3-0.1-0.5-0.2-0.7-0.4
								c-0.1-0.1-0.2-0.3-0.2-0.5l3.3-16.4c0-0.1,0.1-0.3,0.3-0.4c0.2-0.1,0.4-0.2,0.7-0.3c0.3-0.1,0.7-0.2,1-0.2
								c0.4-0.1,0.8-0.1,1.2-0.1H369.4z"/>
							<path class="st2" d="M553.5,453.5C553.5,453.5,553.5,453.5,553.5,453.5c0,0.1-0.1,0.2-0.2,0.3c-0.1,0-0.1,0.1-0.2,0.1l0,0
								c-0.1,0-0.2,0.1-0.3,0.1c-0.1,0-0.2,0.1-0.3,0.1c0,0,0,0,0,0c-0.1,0-0.2,0-0.4,0.1c0,0,0,0,0,0c-0.1,0-0.3,0-0.4,0
								c0,0,0,0,0,0c-0.2,0-0.3,0-0.5,0H114.9c-0.2,0-0.4,0-0.5,0l0,0c-0.2,0-0.3,0-0.5,0h0c-0.3,0-0.6-0.1-0.8-0.2
								c-0.1,0-0.2-0.1-0.3-0.1c0,0,0,0,0,0c-0.1,0-0.1-0.1-0.2-0.1c0,0,0,0,0,0c-0.1,0-0.1-0.1-0.1-0.1c0,0,0,0,0,0
								c0-0.1,0-0.1-0.1-0.1c0.4,3.9,0.9,7.8,1.3,11.6c0,0,0,0.1,0,0.1c0,0,0,0,0,0c0,0,0,0,0,0c0,0,0,0,0,0c0,0,0.1,0.1,0.1,0.1
								c0,0,0,0,0,0c0,0,0,0,0,0c0,0,0,0,0,0c0,0,0,0,0.1,0.1c0,0,0,0,0,0c0,0,0,0,0,0c0,0,0,0,0,0c0,0,0,0,0,0c0,0,0,0,0,0
								c0,0,0,0,0,0c0,0,0,0,0,0c0,0,0,0,0,0c0,0,0,0,0,0c0,0,0,0,0,0c0,0,0,0,0,0c0,0,0,0,0,0l0,0l0,0c0,0,0,0,0,0c0,0,0,0,0,0
								c0,0,0,0,0,0c0,0,0,0,0,0c0,0,0,0,0,0c0,0,0,0,0,0c0,0,0,0,0,0c0,0,0,0,0,0c0,0,0,0,0,0c0,0,0,0,0,0h0c0,0,0,0,0,0
								c0,0,0,0,0,0c0,0,0,0,0,0c0,0,0,0,0,0c0,0,0,0,0,0c0,0,0,0,0,0c0,0,0,0,0,0c0,0,0,0,0,0c0,0,0,0,0,0c0,0,0,0,0,0h0h0l0,0
								c0,0,0,0,0,0c0,0,0,0,0,0c0,0,0,0,0,0c0,0,0,0,0,0c0,0,0,0,0,0c0,0,0,0,0,0c0,0,0,0,0,0c0,0,0,0,0,0c0,0,0,0,0,0c0,0,0,0,0,0
								c0,0,0,0,0,0c0,0,0,0,0,0h0c0,0,0,0,0,0c0,0,0,0,0,0c0,0,0,0,0,0c0,0,0,0,0,0c0,0,0,0,0,0c0,0,0,0,0,0c0,0,0,0,0,0
								c0,0,0,0,0.1,0c0,0,0,0,0,0c0,0,0,0,0,0c0,0,0,0,0,0c0,0,0,0,0,0c0,0,0,0,0,0h433.6c0,0,0,0,0,0c0,0,0,0,0,0c0,0,0,0,0,0
								c0,0,0,0,0,0l0,0l0,0l0,0c0,0,0,0,0.1,0c0,0,0,0,0.1,0c0,0,0,0,0.1,0c0,0,0,0,0.1,0c0,0,0,0,0.1,0c0,0,0,0,0.1,0
								c0,0,0,0,0.1,0c0,0,0,0,0.1,0c0,0,0.1,0,0.1,0c0,0,0.1,0,0.1,0c0,0,0.1,0,0.1,0c0,0,0.1,0,0.1,0c0,0,0,0,0.1,0c0,0,0,0,0,0
								c0,0,0,0,0,0c0,0,0.1,0,0.1,0c0.1,0,0.1,0,0.2,0c0,0,0,0,0.1,0c0,0,0,0,0,0c0,0,0.1,0,0.1,0c0.1,0,0.1,0,0.2-0.1
								c0,0,0.1,0,0.1,0h0c0,0,0,0,0,0l0,0c0,0,0.1,0,0.1,0c0,0,0.1,0,0.1,0c0,0,0,0,0.1,0c0,0,0,0,0,0c0,0,0,0,0,0c0,0,0,0,0,0
								c0,0,0,0,0,0v0l0,0v0c0,0,0,0,0,0c0,0,0,0,0,0c0,0,0,0,0,0c0,0,0,0,0,0c0,0,0,0,0,0c0,0,0,0,0,0c0,0,0,0,0,0c0,0,0,0,0,0
								c0,0,0,0,0,0c0,0,0,0,0,0c0,0,0,0,0,0l0,0c0,0,0,0,0,0c0,0,0,0,0,0c0,0,0,0,0,0c0,0,0,0,0,0c0,0,0,0,0,0c0,0,0,0,0,0
								c0,0,0,0,0,0c0,0,0,0,0,0c0,0,0,0,0,0c0,0,0,0,0,0c0,0,0,0,0,0l0,0l0,0v0C552.7,461.2,553.1,457.4,553.5,453.5
								C553.5,453.5,553.5,453.5,553.5,453.5L553.5,453.5z"/>
							<g>
								<path class="st0" d="M192.2,391.6c-0.4,0-0.9,0-1.3,0.1c-0.2,0-0.5,0-0.7,0c-0.2,0-0.4,0-0.7,0c-0.2,0-0.4,0-0.6,0.1
									c-0.2,0-0.4,0-0.6,0l-2.2,0.5c-0.2,0.1-0.4,0.2-0.7,0.3c-0.2,0.1-0.4,0.2-0.6,0.3c-0.1,0-0.1,0.1-0.2,0.1
									c-0.1,0.1-0.2,0.2-0.3,0.2c-0.1,0.1-0.3,0.2-0.4,0.3l-30.3,33.1c-0.1,0.1-0.2,0.3-0.3,0.4c-0.1,0.2-0.1,0.3-0.2,0.5
									c0,0.1,0,0.1,0,0.2c0,0.1,0,0.2,0,0.3c0,0.2,0,0.3,0.1,0.4l1.2,0.5l0.4,0.2c0.3,0.1,0.7,0.1,1.2,0.2c0.5,0,0.9,0.1,1.5,0.1
									c0.5,0,1,0.1,1.5,0.1c0.5,0,1,0,1.4,0H504c0.4,0,0.9,0,1.4,0c0.5,0,1-0.1,1.5-0.1c0.5,0,1-0.1,1.4-0.1
									c0.5,0,0.9-0.1,1.2-0.2l1.6-0.7c0.1-0.1,0.1-0.3,0.1-0.4c0-0.1,0-0.2,0-0.2c0,0,0,0,0,0c0-0.1,0-0.1,0-0.2
									c0-0.2-0.1-0.3-0.2-0.5c-0.1-0.2-0.2-0.3-0.3-0.4l-30-33.1c-0.1-0.1-0.2-0.2-0.4-0.3c-0.1-0.1-0.2-0.1-0.2-0.2
									c-0.1-0.1-0.2-0.1-0.3-0.2c-0.1-0.1-0.2-0.1-0.3-0.2c-0.1-0.1-0.2-0.1-0.3-0.2c-0.2-0.1-0.4-0.2-0.6-0.3l-2.2-0.5
									c-0.3,0-0.7-0.1-1.2-0.1c-0.4,0-0.9-0.1-1.3-0.1c-0.5,0-0.9,0-1.3-0.1c-0.4,0-0.8,0-1.2,0h-278
									C193,391.6,192.6,391.6,192.2,391.6z M176.6,410.3l3.4-3.9c0,0,0.1,0,0.1-0.1c0.1-0.1,0.2-0.1,0.3-0.2c0,0,0.1,0,0.1,0
									c0.1-0.1,0.3-0.1,0.5-0.2c0.1,0,0.2-0.1,0.3-0.1c0.1,0,0.3,0,0.4-0.1c0.2,0,0.4-0.1,0.6-0.1c0.4,0,0.7-0.1,1.1-0.1h33.7h0
									c0.4,0,0.7,0,1,0.1c0.3,0,0.6,0.1,0.8,0.2c0.2,0.1,0.3,0.1,0.4,0.2c0.1,0.1,0.1,0.2,0,0.3l-2.5,3.9
									c-0.1,0.1-0.2,0.2-0.4,0.3h0l0,0c0,0-0.1,0-0.1,0.1c-0.2,0.1-0.4,0.1-0.6,0.2c-0.1,0-0.3,0.1-0.5,0.1
									c-0.2,0-0.3,0.1-0.5,0.1c-0.4,0-0.7,0.1-1.1,0.1h-34.8l0,0c-0.4,0-0.7,0-1-0.1c-0.3,0-0.6-0.1-0.7-0.2
									c-0.2-0.1-0.3-0.2-0.4-0.3C176.5,410.6,176.5,410.4,176.6,410.3L176.6,410.3z M220.9,412.9c0.4,0,0.7,0,1.1,0.1
									c0.3,0,0.6,0.1,0.8,0.2c0.2,0.1,0.4,0.2,0.5,0.3c0.1,0.1,0.1,0.2,0,0.3l-2.5,4.2c-0.1,0.1-0.2,0.2-0.4,0.3
									c-0.2,0.1-0.5,0.2-0.8,0.3c-0.3,0.1-0.7,0.1-1,0.2c-0.4,0-0.8,0.1-1.2,0.1h-11.1c-0.4,0-0.8,0-1.1-0.1
									c-0.3,0-0.6-0.1-0.8-0.2c-0.2-0.1-0.4-0.2-0.4-0.3c-0.1-0.1-0.1-0.2,0-0.3l2.9-4.2c0.1-0.1,0.2-0.2,0.4-0.3
									c0.2-0.1,0.5-0.2,0.8-0.3c0.3-0.1,0.7-0.1,1-0.2c0.4,0,0.8-0.1,1.1-0.1H220.9L220.9,412.9z M170,417.9l3.7-4.2
									c0.1-0.1,0.3-0.2,0.5-0.3c0.2-0.1,0.5-0.2,0.8-0.3c0.3-0.1,0.7-0.1,1.1-0.2c0.4,0,0.8-0.1,1.2-0.1h20.1c0.4,0,0.7,0,1.1,0.1
									c0.3,0,0.6,0.1,0.8,0.2c0.2,0.1,0.3,0.2,0.4,0.3c0.1,0.1,0.1,0.2,0,0.3l-3.1,4.2c-0.1,0.1-0.2,0.2-0.5,0.3
									c-0.2,0.1-0.5,0.2-0.8,0.3c-0.3,0.1-0.7,0.1-1.1,0.2c-0.4,0-0.8,0.1-1.2,0.1h-20.8c-0.4,0-0.8,0-1.1-0.1
									c-0.3,0-0.6-0.1-0.8-0.2c-0.2-0.1-0.3-0.2-0.4-0.3C169.9,418.1,169.9,418,170,417.9L170,417.9z M187.7,421.5l-3.5,4.6
									c-0.1,0.1-0.3,0.3-0.5,0.4c-0.2,0.1-0.5,0.2-0.9,0.3c-0.3,0.1-0.7,0.2-1.1,0.2c-0.4,0-0.8,0.1-1.2,0.1h0h-15.4l0,0
									c-0.4,0-0.8,0-1.1-0.1c-0.3,0-0.6-0.1-0.8-0.2c-0.2-0.1-0.3-0.2-0.4-0.3c-0.1-0.1,0-0.2,0.1-0.4l4-4.6
									c0.1-0.1,0.1-0.1,0.2-0.2c0.1-0.1,0.2-0.1,0.3-0.2c0,0,0.1,0,0.1-0.1c0.2-0.1,0.5-0.2,0.7-0.2c0.3-0.1,0.7-0.1,1-0.2
									c0,0,0.1,0,0.1,0c0.4,0,0.8-0.1,1.2-0.1h14.9l0,0c0.4,0,0.8,0,1.1,0.1c0.3,0,0.6,0.1,0.8,0.2c0.2,0.1,0.4,0.2,0.4,0.3
									C187.8,421.3,187.8,421.4,187.7,421.5L187.7,421.5z M213.6,421.5l-2.9,4.6c-0.1,0.1-0.2,0.3-0.5,0.4
									c-0.2,0.1-0.5,0.2-0.8,0.3c-0.3,0.1-0.7,0.2-1.1,0.2c-0.4,0-0.8,0.1-1.2,0.1l0,0h-15.4c-0.2,0-0.4,0-0.6,0
									c-0.2,0-0.4,0-0.5-0.1c-0.3,0-0.6-0.1-0.8-0.2c-0.2-0.1-0.4-0.2-0.4-0.3c-0.1-0.1-0.1-0.2,0-0.4l3.4-4.6
									c0-0.1,0.1-0.1,0.2-0.2c0.1-0.1,0.2-0.1,0.3-0.2c0.2-0.1,0.4-0.2,0.7-0.2c0,0,0.1,0,0.1,0c0,0,0.1,0,0.1,0
									c0.3-0.1,0.6-0.1,0.9-0.2c0,0,0,0,0.1,0c0.4,0,0.8-0.1,1.2-0.1l0,0h14.9h0c0.4,0,0.8,0,1.1,0.1c0.3,0,0.6,0.1,0.8,0.2
									c0.2,0.1,0.4,0.2,0.5,0.3C213.7,421.3,213.7,421.4,213.6,421.5L213.6,421.5z M239.5,421.5l-2.3,4.6
									c-0.1,0.1-0.2,0.3-0.4,0.4c-0.2,0.1-0.5,0.2-0.8,0.3c-0.3,0.1-0.7,0.2-1.1,0.2c-0.4,0-0.8,0.1-1.2,0.1h-15.4
									c-0.4,0-0.8,0-1.1-0.1c-0.3,0-0.6-0.1-0.8-0.2c-0.2-0.1-0.4-0.2-0.5-0.3c-0.1-0.1-0.1-0.2,0-0.4l2.8-4.6
									c0.1-0.1,0.2-0.2,0.4-0.3c0.2-0.1,0.5-0.2,0.8-0.3c0.3-0.1,0.7-0.1,1.1-0.2c0.4,0,0.8-0.1,1.2-0.1h14.9c0.4,0,0.8,0,1.1,0.1
									c0.3,0,0.6,0.1,0.8,0.2c0.2,0.1,0.4,0.2,0.5,0.3C239.5,421.3,239.5,421.4,239.5,421.5L239.5,421.5z M240.3,405.7
									c0.3,0,0.6,0.1,0.8,0.2c0.2,0.1,0.4,0.1,0.5,0.2c0.1,0.1,0.1,0.2,0.1,0.3l-2,3.9c-0.1,0.1-0.2,0.2-0.4,0.3
									c-0.2,0.1-0.4,0.2-0.7,0.3c-0.3,0.1-0.6,0.1-1,0.2c-0.4,0-0.7,0.1-1.1,0.1h-10.3c-0.4,0-0.7,0-1.1-0.1
									c-0.3,0-0.6-0.1-0.8-0.2c-0.2-0.1-0.4-0.2-0.4-0.3c-0.1-0.1-0.1-0.2,0-0.3l2.4-3.9c0.1-0.1,0.2-0.2,0.4-0.3
									c0.2-0.1,0.4-0.2,0.7-0.2c0.3-0.1,0.6-0.1,1-0.2c0.3,0,0.7-0.1,1.1-0.1h9.9C239.7,405.7,240,405.7,240.3,405.7L240.3,405.7z
									 M239.9,403.4l1.9-3.6c0.1-0.1,0.2-0.2,0.4-0.3c0.2-0.1,0.4-0.2,0.7-0.2c0.3-0.1,0.6-0.1,0.9-0.1c0.3,0,0.7-0.1,1-0.1h9.6
									c0.4,0,0.7,0,1,0.1c0.3,0,0.6,0.1,0.8,0.1c0.2,0.1,0.4,0.1,0.5,0.2c0.1,0.1,0.1,0.2,0.1,0.3l-1.6,3.6c0,0.1-0.2,0.2-0.3,0.3
									c-0.2,0.1-0.4,0.2-0.7,0.2c-0.3,0.1-0.6,0.1-0.9,0.2c-0.3,0-0.7,0.1-1.1,0.1h-9.9c-0.4,0-0.7,0-1-0.1
									c-0.3,0-0.6-0.1-0.8-0.2c-0.2-0.1-0.4-0.1-0.5-0.2C239.8,403.6,239.8,403.5,239.9,403.4L239.9,403.4z M241.4,418.7
									c-0.4,0-0.8,0.1-1.2,0.1h-11.1c-0.4,0-0.8,0-1.1-0.1c-0.3,0-0.6-0.1-0.8-0.2c-0.2-0.1-0.4-0.2-0.5-0.3
									c-0.1-0.1-0.1-0.2,0-0.3l2.4-4.2c0.1-0.1,0.2-0.2,0.4-0.3c0.2-0.1,0.5-0.2,0.8-0.3c0.3-0.1,0.6-0.1,1-0.2
									c0.4,0,0.7-0.1,1.1-0.1h10.7c0.4,0,0.7,0,1.1,0.1c0.3,0,0.6,0.1,0.8,0.2c0.2,0.1,0.4,0.2,0.5,0.3c0.1,0.1,0.1,0.2,0.1,0.3
									l-2,4.2c-0.1,0.1-0.2,0.2-0.4,0.3c-0.2,0.1-0.5,0.2-0.8,0.3C242.1,418.6,241.8,418.7,241.4,418.7L241.4,418.7z M370.3,426.5
									c-0.1,0.1-0.3,0.2-0.6,0.3c-0.3,0.1-0.6,0.2-0.9,0.2c-0.4,0-0.8,0.1-1.2,0.1H245.1c-0.4,0-0.8,0-1.2-0.1
									c-0.3,0-0.6-0.1-0.9-0.2c-0.2-0.1-0.4-0.2-0.5-0.3c-0.1-0.1-0.1-0.2-0.1-0.4l2.1-4.6c0.1-0.1,0.2-0.2,0.4-0.3
									c0.2-0.1,0.5-0.2,0.8-0.3c0.3-0.1,0.7-0.1,1-0.2c0.4,0,0.8-0.1,1.2-0.1h118.5c0.4,0,0.8,0,1.2,0.1c0.4,0,0.7,0.1,1,0.2
									c0.3,0.1,0.5,0.2,0.7,0.3c0.2,0.1,0.3,0.2,0.3,0.3l0.9,4.6C370.5,426.3,370.4,426.4,370.3,426.5L370.3,426.5z M399.1,412.9
									c0.4,0,0.8,0,1.1,0.1c0.4,0,0.7,0.1,1,0.2c0.3,0.1,0.5,0.2,0.7,0.3c0.2,0.1,0.3,0.2,0.3,0.3l1.6,4.2c0,0.1,0,0.2-0.1,0.3
									c-0.1,0.1-0.3,0.2-0.5,0.3c-0.2,0.1-0.5,0.1-0.9,0.2c-0.3,0-0.7,0.1-1.1,0.1h-11.1c-0.4,0-0.8,0-1.2-0.1
									c-0.4,0-0.7-0.1-1-0.2c-0.3-0.1-0.5-0.2-0.7-0.3c-0.2-0.1-0.3-0.2-0.3-0.3l-1.2-4.2c0-0.1,0-0.2,0.1-0.3
									c0.1-0.1,0.3-0.2,0.5-0.3c0.2-0.1,0.5-0.1,0.8-0.2c0.3,0,0.7-0.1,1.1-0.1H399.1L399.1,412.9z M394,406.4
									c0-0.1,0-0.2,0.1-0.3c0.1-0.1,0.3-0.2,0.5-0.2c0.2-0.1,0.5-0.1,0.8-0.2c0.3,0,0.7-0.1,1-0.1h9.9c0.4,0,0.7,0,1.1,0.1
									c0.3,0,0.7,0.1,0.9,0.2c0.3,0.1,0.5,0.1,0.7,0.2c0.2,0.1,0.3,0.2,0.3,0.3l1.7,3.9c0,0.1,0,0.2-0.1,0.3
									c-0.1,0.1-0.3,0.2-0.5,0.3c-0.2,0.1-0.5,0.1-0.8,0.2c-0.3,0-0.7,0.1-1.1,0.1h-10.3c-0.4,0-0.8,0-1.1-0.1
									c-0.3,0-0.7-0.1-1-0.2c-0.3-0.1-0.5-0.2-0.7-0.3c-0.2-0.1-0.3-0.2-0.3-0.3L394,406.4L394,406.4z M389.6,410.6
									c-0.1,0.1-0.3,0.2-0.5,0.3c-0.2,0.1-0.5,0.1-0.8,0.2c-0.3,0-0.7,0.1-1.1,0.1h-10.3c-0.4,0-0.8,0-1.1-0.1
									c-0.3,0-0.7-0.1-0.9-0.2c-0.3-0.1-0.5-0.2-0.7-0.3c-0.2-0.1-0.3-0.2-0.3-0.3l-0.9-3.9c0-0.1,0-0.2,0.1-0.3
									c0.1-0.1,0.3-0.2,0.5-0.2c0.2-0.1,0.5-0.1,0.8-0.2c0.3,0,0.7-0.1,1-0.1h9.9c0.4,0,0.7,0,1.1,0.1c0.3,0,0.6,0.1,0.9,0.2
									c0.3,0.1,0.5,0.1,0.7,0.2c0.2,0.1,0.3,0.2,0.3,0.3l1.2,3.9C389.7,410.4,389.7,410.6,389.6,410.6L389.6,410.6z M380.9,417.9
									c0,0.1,0,0.2-0.1,0.3c-0.1,0.1-0.3,0.2-0.6,0.3c-0.2,0.1-0.5,0.1-0.9,0.2c-0.3,0-0.7,0.1-1.1,0.1h-11.1
									c-0.4,0-0.8,0-1.1-0.1c-0.4,0-0.7-0.1-1-0.2c-0.3-0.1-0.5-0.2-0.7-0.3c-0.2-0.1-0.3-0.2-0.3-0.3l-0.7-4.2
									c0-0.1,0-0.2,0.2-0.3c0.1-0.1,0.3-0.2,0.6-0.3c0.2-0.1,0.5-0.1,0.9-0.2c0.3,0,0.7-0.1,1.1-0.1h10.7c0.4,0,0.8,0,1.1,0.1
									c0.3,0,0.7,0.1,0.9,0.2c0.3,0.1,0.5,0.2,0.7,0.3c0.2,0.1,0.3,0.2,0.3,0.3L380.9,417.9L380.9,417.9z M378.6,403.6
									c-0.1,0.1-0.3,0.2-0.5,0.2c-0.2,0.1-0.5,0.1-0.8,0.2c-0.3,0-0.7,0.1-1,0.1h-9.9c-0.4,0-0.7,0-1.1-0.1
									c-0.3,0-0.6-0.1-0.9-0.2c-0.3-0.1-0.5-0.1-0.6-0.2c-0.1-0.1-0.2-0.2-0.3-0.3l-0.6-3.6c0-0.1,0-0.2,0.2-0.3
									c0.1-0.1,0.3-0.2,0.5-0.2c0.2-0.1,0.5-0.1,0.8-0.1c0.3,0,0.6-0.1,1-0.1h9.6c0.4,0,0.7,0,1,0.1c0.3,0,0.6,0.1,0.9,0.1
									c0.3,0.1,0.5,0.1,0.6,0.2c0.2,0.1,0.2,0.2,0.3,0.3l1,3.6C378.8,403.5,378.7,403.6,378.6,403.6L378.6,403.6z M364.6,405.7
									c0.4,0,0.7,0,1.1,0.1c0.3,0,0.6,0.1,0.9,0.2c0.3,0.1,0.5,0.1,0.6,0.2c0.2,0.1,0.3,0.2,0.3,0.3l0.8,3.9c0,0.1,0,0.2-0.2,0.3
									c-0.1,0.1-0.3,0.2-0.6,0.3c-0.2,0.1-0.5,0.1-0.9,0.2c-0.3,0-0.7,0.1-1.1,0.1h-10.3c-0.4,0-0.8,0-1.1-0.1
									c-0.3,0-0.6-0.1-0.9-0.2c-0.3-0.1-0.5-0.2-0.6-0.3c-0.1-0.1-0.2-0.2-0.3-0.3l-0.4-3.9c0-0.1,0.1-0.2,0.2-0.3
									c0.1-0.1,0.3-0.2,0.6-0.2c0.2-0.1,0.5-0.1,0.8-0.2c0.3,0,0.7-0.1,1-0.1H364.6L364.6,405.7z M354.5,412.9
									c0.4,0,0.8,0,1.1,0.1c0.3,0,0.7,0.1,0.9,0.2c0.3,0.1,0.5,0.2,0.6,0.3c0.2,0.1,0.3,0.2,0.3,0.3l0.6,4.2
									c0,0.1-0.1,0.2-0.2,0.3c-0.1,0.1-0.3,0.2-0.6,0.3c-0.3,0.1-0.6,0.1-0.9,0.2c-0.3,0-0.7,0.1-1.1,0.1h-11.1
									c-0.4,0-0.8,0-1.1-0.1c-0.4,0-0.7-0.1-0.9-0.2c-0.3-0.1-0.5-0.2-0.6-0.3c-0.2-0.1-0.2-0.2-0.2-0.3l-0.2-4.2
									c0-0.1,0.1-0.2,0.2-0.3c0.1-0.1,0.3-0.2,0.6-0.3c0.3-0.1,0.6-0.1,0.9-0.2c0.3,0,0.7-0.1,1.1-0.1H354.5L354.5,412.9z
									 M346.6,410.6c-0.1,0.1-0.3,0.2-0.6,0.3c-0.2,0.1-0.5,0.1-0.9,0.2c-0.3,0-0.7,0.1-1.1,0.1h-10.3c-0.4,0-0.8,0-1.1-0.1
									c-0.3,0-0.6-0.1-0.9-0.2c-0.3-0.1-0.5-0.2-0.6-0.3c-0.1-0.1-0.2-0.2-0.2-0.3l0-3.9c0-0.1,0.1-0.2,0.2-0.3
									c0.1-0.1,0.3-0.2,0.6-0.2c0.2-0.1,0.5-0.1,0.9-0.2c0.3,0,0.7-0.1,1.1-0.1h10c0.4,0,0.7,0,1.1,0.1c0.3,0,0.6,0.1,0.9,0.2
									c0.3,0.1,0.5,0.1,0.6,0.2c0.1,0.1,0.2,0.2,0.2,0.3l0.3,3.9C346.8,410.4,346.8,410.6,346.6,410.6L346.6,410.6z M332.2,412.9
									c0.4,0,0.8,0,1.1,0.1c0.3,0,0.6,0.1,0.9,0.2c0.3,0.1,0.5,0.2,0.6,0.3c0.1,0.1,0.2,0.2,0.2,0.3l0,4.2c0,0.1-0.1,0.2-0.2,0.3
									c-0.1,0.1-0.4,0.2-0.6,0.3c-0.3,0.1-0.6,0.1-0.9,0.2c-0.3,0-0.7,0.1-1.1,0.1h-11.1c-0.4,0-0.8,0-1.1-0.1
									c-0.3,0-0.7-0.1-0.9-0.2c-0.3-0.1-0.5-0.2-0.6-0.3c-0.1-0.1-0.2-0.2-0.2-0.3l0.3-4.2c0-0.1,0.1-0.2,0.2-0.3
									c0.2-0.1,0.4-0.2,0.6-0.3c0.3-0.1,0.6-0.1,0.9-0.2c0.3,0,0.7-0.1,1.1-0.1H332.2L332.2,412.9z M325.4,410.3
									c0,0.1-0.1,0.2-0.2,0.3c-0.1,0.1-0.4,0.2-0.6,0.3c-0.3,0.1-0.6,0.1-0.9,0.2c-0.3,0-0.7,0.1-1.1,0.1h-10.3
									c-0.4,0-0.7,0-1.1-0.1c-0.3,0-0.6-0.1-0.9-0.2c-0.2-0.1-0.4-0.2-0.6-0.3c-0.1-0.1-0.2-0.2-0.2-0.3l0.5-3.9
									c0-0.1,0.1-0.2,0.3-0.3c0.2-0.1,0.4-0.2,0.6-0.2c0.3-0.1,0.6-0.1,0.9-0.2c0.3,0,0.7-0.1,1.1-0.1h9.9c0.4,0,0.7,0,1.1,0.1
									c0.3,0,0.6,0.1,0.9,0.2c0.2,0.1,0.4,0.1,0.6,0.2c0.1,0.1,0.2,0.2,0.2,0.3L325.4,410.3L325.4,410.3z M312.7,413.7l-0.5,4.2
									c0,0.1-0.1,0.2-0.3,0.3c-0.2,0.1-0.4,0.2-0.7,0.3c-0.3,0.1-0.6,0.1-1,0.2c-0.4,0-0.7,0.1-1.1,0.1h-11.1
									c-0.4,0-0.8,0-1.1-0.1c-0.3,0-0.6-0.1-0.9-0.2c-0.2-0.1-0.4-0.2-0.6-0.3c-0.1-0.1-0.2-0.2-0.2-0.3l0.9-4.2
									c0-0.1,0.1-0.2,0.3-0.3c0.2-0.1,0.4-0.2,0.7-0.3c0.3-0.1,0.6-0.1,0.9-0.2c0.3,0,0.7-0.1,1.1-0.1H310c0.4,0,0.8,0,1.1,0.1
									c0.3,0,0.6,0.1,0.9,0.2c0.2,0.1,0.4,0.2,0.6,0.3C312.7,413.5,312.7,413.6,312.7,413.7L312.7,413.7z M316.9,403.4
									c0,0.1-0.1,0.2-0.2,0.3c-0.1,0.1-0.4,0.2-0.6,0.2c-0.2,0.1-0.5,0.1-0.9,0.2c-0.3,0-0.7,0.1-1.1,0.1h-9.9c-0.4,0-0.7,0-1-0.1
									c-0.3,0-0.6-0.1-0.8-0.2c-0.2-0.1-0.4-0.1-0.5-0.2c-0.1-0.1-0.2-0.2-0.2-0.3l0.7-3.6c0-0.1,0.1-0.2,0.3-0.3
									c0.1-0.1,0.4-0.2,0.6-0.2c0.2-0.1,0.5-0.1,0.9-0.1c0.3,0,0.7-0.1,1-0.1h9.6c0.4,0,0.7,0,1,0.1c0.3,0,0.6,0.1,0.8,0.1
									c0.2,0.1,0.4,0.1,0.5,0.2c0.1,0.1,0.2,0.2,0.2,0.3L316.9,403.4L316.9,403.4z M302,405.7L302,405.7c0.4,0,0.7,0,1,0.1
									c0.3,0,0.6,0.1,0.8,0.2c0.2,0.1,0.4,0.1,0.5,0.2c0.1,0.1,0.2,0.2,0.2,0.3l-0.6,3.9c0,0.1-0.1,0.2-0.2,0.3c0,0,0,0,0,0
									c0,0-0.1,0.1-0.1,0.1c-0.1,0.1-0.3,0.1-0.5,0.2c-0.3,0.1-0.6,0.1-0.9,0.2c-0.3,0-0.7,0.1-1.1,0.1h0h-10.3l0,0
									c-0.4,0-0.7,0-1.1-0.1c-0.3,0-0.6-0.1-0.9-0.2c-0.2-0.1-0.4-0.2-0.5-0.3c-0.1-0.1-0.2-0.2-0.1-0.3l1-3.9
									c0-0.1,0-0.1,0.1-0.2c0,0,0.1-0.1,0.2-0.1c0.1,0,0.2-0.1,0.3-0.1c0.1,0,0.2-0.1,0.4-0.1c0.1,0,0.3-0.1,0.4-0.1
									c0.2,0,0.3,0,0.5-0.1c0.2,0,0.3,0,0.5,0c0.2,0,0.4,0,0.6,0l0,0H302L302,405.7z M288.8,412.9c0.3,0,0.6,0.1,0.9,0.2
									c0.2,0.1,0.4,0.2,0.5,0.3c0.1,0.1,0.2,0.2,0.2,0.3l-1,4.2c0,0.1-0.1,0.2-0.3,0.3c-0.2,0.1-0.4,0.2-0.7,0.3
									c-0.3,0.1-0.6,0.1-1,0.2c-0.4,0-0.7,0.1-1.2,0.1h-11.1c-0.4,0-0.8,0-1.1-0.1c-0.3,0-0.6-0.1-0.9-0.2
									c-0.2-0.1-0.4-0.2-0.5-0.3c-0.1-0.1-0.2-0.2-0.1-0.3l1.4-4.2c0-0.1,0.2-0.2,0.3-0.3c0.2-0.1,0.4-0.2,0.7-0.3
									c0.3-0.1,0.6-0.1,1-0.2c0.4,0,0.7-0.1,1.1-0.1h10.7C288.1,412.9,288.5,412.9,288.8,412.9L288.8,412.9z M282.5,410.3
									c0,0.1,0,0.1-0.1,0.2c-0.1,0.1-0.1,0.1-0.2,0.1c0,0-0.1,0.1-0.2,0.1c-0.1,0.1-0.3,0.1-0.5,0.2c-0.3,0.1-0.6,0.1-0.9,0.2
									c-0.2,0-0.4,0-0.5,0c-0.2,0-0.4,0-0.6,0h0h-10.3l0,0c-0.4,0-0.7,0-1.1-0.1c-0.3,0-0.6-0.1-0.8-0.2c-0.2-0.1-0.4-0.2-0.5-0.3
									c-0.1,0-0.1-0.1-0.1-0.1c0-0.1,0-0.1,0-0.2l1.4-3.9c0-0.1,0.1-0.2,0.3-0.3c0.1-0.1,0.2-0.1,0.4-0.2c0.1,0,0.2-0.1,0.3-0.1
									c0.1,0,0.2-0.1,0.4-0.1c0.2,0,0.4-0.1,0.6-0.1c0.3,0,0.7-0.1,1.1-0.1h0h10c0.4,0,0.7,0,1,0.1c0.3,0,0.6,0.1,0.8,0.2
									c0.2,0.1,0.4,0.1,0.5,0.2c0.1,0.1,0.2,0.2,0.1,0.3L282.5,410.3L282.5,410.3z M267.3,413.1c0.2,0.1,0.4,0.2,0.5,0.3
									c0.1,0.1,0.1,0.2,0.1,0.3l-1.5,4.2c0,0.1-0.2,0.2-0.3,0.3c-0.2,0.1-0.4,0.2-0.7,0.3c-0.3,0.1-0.6,0.1-1,0.2
									c-0.4,0-0.8,0.1-1.2,0.1h-11.1c-0.4,0-0.8,0-1.1-0.1c-0.3,0-0.6-0.1-0.8-0.2c-0.2-0.1-0.4-0.2-0.5-0.3
									c-0.1-0.1-0.1-0.2-0.1-0.3l1.9-4.2c0-0.1,0.2-0.2,0.4-0.3c0.2-0.1,0.4-0.2,0.7-0.3c0.3-0.1,0.6-0.1,1-0.2
									c0.4,0,0.7-0.1,1.1-0.1h10.7c0.4,0,0.8,0,1.1,0.1C266.8,413,267.1,413,267.3,413.1L267.3,413.1z M396.8,426.5
									c-0.1,0.1-0.3,0.2-0.6,0.3c-0.3,0.1-0.6,0.2-0.9,0.2c-0.3,0-0.7,0.1-1.2,0.1h-15.4c-0.4,0-0.8,0-1.2-0.1
									c-0.4,0-0.7-0.1-1-0.2c-0.3-0.1-0.5-0.2-0.7-0.3c-0.2-0.1-0.3-0.2-0.3-0.4l-1-4.6c0-0.1,0-0.2,0.2-0.3
									c0.1-0.1,0.3-0.2,0.6-0.3c0.2-0.1,0.6-0.1,0.9-0.2c0.3,0,0.7-0.1,1.1-0.1h14.9c0.4,0,0.8,0,1.2,0.1c0.4,0,0.7,0.1,1,0.2
									c0.3,0.1,0.5,0.2,0.7,0.3c0.2,0.1,0.3,0.2,0.3,0.3l1.5,4.6C397,426.3,396.9,426.4,396.8,426.5L396.8,426.5z M423.3,426.5
									c-0.1,0.1-0.3,0.2-0.5,0.3c-0.2,0.1-0.5,0.2-0.9,0.2c-0.3,0-0.7,0.1-1.2,0.1h-15.4c-0.4,0-0.8,0-1.2-0.1
									c-0.4,0-0.7-0.1-1-0.2c-0.3-0.1-0.6-0.2-0.8-0.3c-0.2-0.1-0.3-0.2-0.4-0.4l-1.6-4.6c0-0.1,0-0.2,0.1-0.3
									c0.1-0.1,0.3-0.2,0.5-0.3c0.2-0.1,0.5-0.1,0.9-0.2c0.3,0,0.7-0.1,1.1-0.1h14.9c0.4,0,0.8,0,1.2,0.1c0.4,0,0.7,0.1,1,0.2
									c0.3,0.1,0.6,0.2,0.8,0.3c0.2,0.1,0.3,0.2,0.4,0.3l2.1,4.6C423.5,426.3,423.4,426.4,423.3,426.5L423.3,426.5z M426.6,418.2
									c-0.1,0.1-0.3,0.2-0.5,0.3c-0.2,0.1-0.5,0.1-0.8,0.2c-0.3,0-0.7,0.1-1.1,0.1h-11.1c-0.4,0-0.8,0-1.2-0.1
									c-0.4,0-0.7-0.1-1-0.2c-0.3-0.1-0.6-0.2-0.7-0.3c-0.2-0.1-0.3-0.2-0.4-0.3l-1.7-4.2c0-0.1,0-0.2,0.1-0.3
									c0.1-0.1,0.3-0.2,0.5-0.3c0.2-0.1,0.5-0.1,0.8-0.2c0.3,0,0.7-0.1,1.1-0.1h10.7c0.4,0,0.8,0,1.1,0.1c0.4,0,0.7,0.1,1,0.2
									c0.3,0.1,0.5,0.2,0.7,0.3c0.2,0.1,0.3,0.2,0.4,0.3l2.1,4.2C426.7,418,426.7,418.1,426.6,418.2L426.6,418.2z M441.5,411.1
									c-0.4,0-0.8,0-1.1-0.1c-0.4,0-0.7-0.1-1-0.2c-0.3-0.1-0.6-0.2-0.8-0.3c-0.2-0.1-0.3-0.2-0.4-0.3l-2.3-3.9
									c-0.1-0.1,0-0.2,0-0.3c0.1-0.1,0.2-0.2,0.4-0.2c0.2-0.1,0.5-0.1,0.8-0.2c0.3,0,0.6-0.1,1-0.1h9.9c0.4,0,0.7,0,1.1,0.1
									c0.4,0,0.7,0.1,1,0.2c0.3,0.1,0.5,0.1,0.8,0.2c0.2,0.1,0.3,0.2,0.4,0.3l2.6,3.9c0.1,0.1,0.1,0.2,0,0.3
									c-0.1,0.1-0.2,0.2-0.4,0.3c-0.2,0.1-0.5,0.1-0.8,0.2c-0.3,0-0.7,0.1-1,0.1H441.5L441.5,411.1z M449.5,418.2
									c-0.1,0.1-0.2,0.2-0.5,0.3c-0.2,0.1-0.5,0.1-0.8,0.2c-0.3,0-0.7,0.1-1.1,0.1h-11.1c-0.4,0-0.8,0-1.2-0.1
									c-0.4,0-0.7-0.1-1-0.2c-0.3-0.1-0.6-0.2-0.8-0.3c-0.2-0.1-0.3-0.2-0.4-0.3l-2.3-4.2c-0.1-0.1,0-0.2,0.1-0.3
									c0.1-0.1,0.3-0.2,0.5-0.3c0.2-0.1,0.5-0.1,0.8-0.2c0.3,0,0.7-0.1,1.1-0.1h10.7c0.4,0,0.8,0,1.1,0.1c0.4,0,0.7,0.1,1,0.2
									c0.3,0.1,0.6,0.2,0.8,0.3c0.2,0.1,0.4,0.2,0.4,0.3l2.6,4.2C449.6,418,449.6,418.1,449.5,418.2L449.5,418.2z M440.6,403.6
									c-0.1,0.1-0.2,0.2-0.4,0.2c-0.2,0.1-0.5,0.1-0.8,0.2c-0.3,0-0.6,0.1-1,0.1l0,0h-9.9l0,0c-0.4,0-0.7,0-1.1-0.1
									c-0.3,0-0.7-0.1-0.9-0.2c-0.3-0.1-0.5-0.1-0.7-0.2c-0.2-0.1-0.3-0.2-0.4-0.3l-1.9-3.6c-0.1-0.1,0-0.2,0.1-0.3
									c0,0,0.1,0,0.1-0.1c0.1,0,0.1-0.1,0.2-0.1c0,0,0.1,0,0.1,0c0.2-0.1,0.5-0.1,0.8-0.1c0,0,0,0,0,0c0.3,0,0.6-0.1,0.9-0.1h0
									l0,0h9.6l0,0c0.4,0,0.7,0,1.1,0.1c0.3,0,0.7,0.1,0.9,0.1c0.3,0.1,0.5,0.1,0.7,0.2c0.1,0,0.2,0.1,0.2,0.1
									c0.1,0,0.1,0.1,0.1,0.1l2.2,3.6C440.6,403.5,440.6,403.6,440.6,403.6L440.6,403.6z M427.3,405.7c0.4,0,0.7,0,1.1,0.1
									c0.3,0,0.7,0.1,1,0.2c0.3,0.1,0.5,0.1,0.7,0.2c0.2,0.1,0.3,0.2,0.4,0.3l2.2,3.9c0.1,0.1,0,0.2-0.1,0.3
									c-0.1,0.1-0.2,0.2-0.5,0.3c-0.2,0.1-0.5,0.1-0.8,0.2c-0.3,0-0.7,0.1-1.1,0.1H420c-0.4,0-0.8,0-1.1-0.1c-0.4,0-0.7-0.1-1-0.2
									c-0.3-0.1-0.5-0.2-0.7-0.3c-0.2-0.1-0.3-0.2-0.4-0.3l-1.8-3.9c0-0.1,0-0.2,0.1-0.3c0.1-0.1,0.3-0.2,0.5-0.2
									c0.2-0.1,0.5-0.1,0.8-0.2c0.3,0,0.7-0.1,1-0.1H427.3L427.3,405.7z M449.9,426.5c-0.1,0.1-0.2,0.2-0.5,0.3
									c-0.2,0.1-0.5,0.2-0.9,0.2c-0.3,0-0.7,0.1-1.1,0.1H432c-0.4,0-0.8,0-1.2-0.1c-0.4,0-0.8-0.1-1.1-0.2
									c-0.3-0.1-0.6-0.2-0.8-0.3c-0.2-0.1-0.4-0.2-0.4-0.4l-0.6-1.2c-0.1-0.1,0-0.2,0.1-0.4c0.1-0.1,0.3-0.2,0.5-0.3
									c0.2-0.1,0.5-0.2,0.9-0.2c0.3,0,0.7-0.1,1.1-0.1h15.2c0.4,0,0.8,0,1.2,0.1c0.4,0,0.8,0.1,1.1,0.2c0.3,0.1,0.6,0.2,0.8,0.3
									c0.2,0.1,0.4,0.2,0.5,0.4l0.7,1.2C450,426.3,450,426.4,449.9,426.5L449.9,426.5z M452.8,422.3c-0.2-0.1-0.4-0.2-0.5-0.3
									l-0.7-1.1c-0.1-0.1-0.1-0.2,0-0.3c0.1-0.1,0.2-0.2,0.5-0.3c0.2-0.1,0.5-0.1,0.8-0.2c0.3,0,0.7-0.1,1.1-0.1h14.8
									c0.4,0,0.8,0,1.2,0.1c0.4,0,0.8,0.1,1.1,0.2c0.3,0.1,0.6,0.2,0.8,0.3c0.2,0.1,0.4,0.2,0.5,0.3l0.8,1.1
									c0.1,0.1,0.1,0.2,0,0.3c-0.1,0.1-0.2,0.2-0.4,0.3c-0.2,0.1-0.5,0.1-0.8,0.2c-0.3,0-0.7,0.1-1.1,0.1h-15.1
									c-0.4,0-0.8,0-1.2-0.1c-0.4,0-0.8-0.1-1.1-0.2C453.3,422.5,453,422.4,452.8,422.3L452.8,422.3z M476.4,426.5
									c-0.1,0.1-0.2,0.2-0.4,0.3c-0.2,0.1-0.5,0.2-0.8,0.2c-0.3,0-0.7,0.1-1.1,0.1h-15.4c-0.4,0-0.8,0-1.2-0.1
									c-0.4,0-0.8-0.1-1.1-0.2c-0.3-0.1-0.6-0.2-0.8-0.3c-0.2-0.1-0.4-0.2-0.5-0.4l-0.7-1.2c-0.1-0.1-0.1-0.2,0-0.4
									c0.1-0.1,0.2-0.2,0.5-0.3c0.2-0.1,0.5-0.2,0.8-0.2c0.3,0,0.7-0.1,1.1-0.1h15.2c0.4,0,0.8,0,1.2,0.1c0.4,0,0.8,0.1,1.1,0.2
									c0.3,0.1,0.6,0.2,0.9,0.3c0.2,0.1,0.4,0.2,0.5,0.4l0.9,1.2C476.5,426.3,476.5,426.4,476.4,426.5L476.4,426.5z M499.3,424.1
									c0.4,0,0.8,0.1,1.1,0.2c0.3,0.1,0.6,0.2,0.9,0.3c0.2,0.1,0.4,0.2,0.5,0.4l1,1.2c0.1,0.1,0.1,0.3,0.1,0.4
									c-0.1,0.1-0.2,0.2-0.4,0.3c-0.2,0.1-0.5,0.2-0.8,0.2c-0.3,0-0.7,0.1-1.1,0.1h-15.4c-0.4,0-0.8,0-1.2-0.1
									c-0.4,0-0.8-0.1-1.1-0.2c-0.3-0.1-0.6-0.2-0.9-0.3c-0.2-0.1-0.4-0.2-0.5-0.4l-0.9-1.2c-0.1-0.1-0.1-0.2,0-0.4
									c0.1-0.1,0.2-0.2,0.4-0.3c0.2-0.1,0.5-0.2,0.8-0.2c0.3,0,0.7-0.1,1.1-0.1H498C498.5,424,498.9,424.1,499.3,424.1
									L499.3,424.1z M490.7,413.1c0.3,0.1,0.6,0.2,0.8,0.3c0.2,0.1,0.4,0.2,0.5,0.3l3.7,4.2c0.1,0.1,0.1,0.2,0.1,0.3
									c-0.1,0.1-0.2,0.2-0.4,0.3c-0.2,0.1-0.5,0.1-0.8,0.2c-0.3,0-0.7,0.1-1.1,0.1h-33.7c-0.4,0-0.8,0-1.2-0.1
									c-0.4,0-0.7-0.1-1.1-0.2c-0.3-0.1-0.6-0.2-0.8-0.3c-0.2-0.1-0.4-0.2-0.4-0.3l-2.8-4.2c-0.1-0.1-0.1-0.2,0-0.3
									c0.1-0.1,0.2-0.2,0.4-0.3c0.2-0.1,0.5-0.1,0.8-0.2c0.3,0,0.7-0.1,1.1-0.1h32.6c0.4,0,0.8,0,1.2,0.1
									C490,413,490.4,413,490.7,413.1L490.7,413.1z M478.8,399.4c0.3,0.1,0.6,0.1,0.8,0.2c0.2,0.1,0.4,0.2,0.4,0.3l9.1,10.4
									c0.1,0.1,0.1,0.2,0.1,0.3c-0.1,0.1-0.2,0.2-0.4,0.3c-0.2,0.1-0.4,0.1-0.7,0.2c-0.3,0-0.6,0.1-1,0.1h-23.6
									c-0.4,0-0.8,0-1.1-0.1c-0.4,0-0.7-0.1-1-0.2c-0.3-0.1-0.6-0.2-0.8-0.3c-0.2-0.1-0.4-0.2-0.4-0.3l-3.8-5.4
									c-0.1-0.1-0.2-0.2-0.4-0.3c-0.2-0.1-0.5-0.2-0.8-0.2c-0.3-0.1-0.6-0.1-1-0.2c-0.3,0-0.7-0.1-1.1-0.1h-3
									c-0.4,0-0.7,0-1.1-0.1c-0.3,0-0.7-0.1-1-0.2c-0.3-0.1-0.5-0.1-0.7-0.2c-0.2-0.1-0.3-0.2-0.4-0.3l-2.4-3.6
									c-0.1-0.1,0-0.2,0-0.3c0.1-0.1,0.2-0.2,0.4-0.2c0.2-0.1,0.4-0.1,0.7-0.2c0.3,0,0.6-0.1,1-0.1h5.7c0.4,0,0.8,0,1.2,0
									c0.4,0,0.9,0,1.4,0c0.5,0,1,0,1.4,0c0.4,0,0.9,0,1.2,0h19.2c0.4,0,0.7,0,1.1,0.1C478.2,399.3,478.5,399.3,478.8,399.4
									L478.8,399.4z M433.1,393.3c0.1-0.1,0.2-0.1,0.4-0.2c0.1,0,0.2-0.1,0.3-0.1c0.1,0,0.3,0,0.4-0.1c0.1,0,0.3,0,0.4,0
									c0.2,0,0.3,0,0.5,0l0,0h12.7h0c0.3,0,0.7,0,1.2,0c0.4,0,0.9,0,1.3,0c0.5,0,0.9,0,1.3,0c0.4,0,0.8,0,1.2,0h18.5
									c0.3,0,0.7,0,1,0.1c0.3,0,0.6,0.1,0.9,0.1c0.3,0.1,0.5,0.1,0.7,0.2c0.2,0.1,0.3,0.2,0.4,0.3l2.9,3.3c0.1,0.1,0.1,0.2,0,0.3
									c-0.1,0.1-0.2,0.2-0.4,0.2c-0.1,0-0.2,0.1-0.3,0.1c-0.1,0-0.2,0.1-0.4,0.1c-0.1,0-0.3,0-0.4,0c-0.2,0-0.4,0-0.5,0l0,0h-19
									l0,0c-0.4,0-0.8,0-1.2,0l0,0c-0.4,0-0.9,0-1.4,0l0,0c-0.5,0-0.9,0-1.4,0c-0.4,0-0.9,0-1.2,0l0,0h-13.1c-0.4,0-0.7,0-1-0.1
									c-0.3,0-0.6-0.1-0.9-0.1c-0.3-0.1-0.5-0.1-0.7-0.2c-0.2-0.1-0.3-0.2-0.4-0.3l-2.1-3.3C433,393.5,433.1,393.4,433.1,393.3
									L433.1,393.3z M409,393.3c0.1-0.1,0.2-0.1,0.4-0.2c0.2-0.1,0.5-0.1,0.7-0.1c0.3,0,0.6-0.1,1-0.1h12.7c0.4,0,0.7,0,1,0.1
									c0.3,0,0.6,0.1,0.9,0.1c0.3,0.1,0.5,0.1,0.7,0.2c0.2,0.1,0.3,0.2,0.3,0.3l1.9,3.3c0.1,0.1,0,0.2-0.1,0.3
									c-0.1,0.1-0.2,0.2-0.4,0.2c-0.2,0.1-0.4,0.1-0.7,0.1c-0.3,0-0.6,0.1-1,0.1h-13.1c-0.4,0-0.7,0-1-0.1c-0.3,0-0.6-0.1-0.9-0.1
									c-0.3-0.1-0.5-0.1-0.7-0.2c-0.2-0.1-0.3-0.2-0.3-0.3l-1.6-3.3C408.9,393.5,408.9,393.4,409,393.3L409,393.3z M405.6,399.1
									h9.6c0.4,0,0.7,0,1,0.1c0.3,0,0.6,0.1,0.9,0.1c0.3,0.1,0.5,0.1,0.7,0.2c0.2,0.1,0.3,0.2,0.3,0.3l1.8,3.6
									c0.1,0.1,0,0.2-0.1,0.3c-0.1,0.1-0.3,0.2-0.5,0.2c-0.2,0.1-0.5,0.1-0.8,0.2c-0.3,0-0.6,0.1-1,0.1h-9.9c-0.4,0-0.7,0-1.1-0.1
									c-0.3,0-0.6-0.1-0.9-0.2c-0.3-0.1-0.5-0.1-0.7-0.2c-0.2-0.1-0.3-0.2-0.3-0.3l-1.5-3.6c0-0.1,0-0.2,0.1-0.3
									c0.1-0.1,0.3-0.2,0.5-0.2c0.2-0.1,0.5-0.1,0.8-0.1C404.9,399.1,405.2,399.1,405.6,399.1L405.6,399.1z M384.8,393.3
									c0.1-0.1,0.3-0.1,0.5-0.2c0.2-0.1,0.5-0.1,0.8-0.1c0.3,0,0.6-0.1,1-0.1h12.7c0.3,0,0.7,0,1,0.1c0.3,0,0.6,0.1,0.9,0.1
									c0.3,0.1,0.5,0.1,0.6,0.2c0.2,0.1,0.3,0.2,0.3,0.3l1.4,3.3c0,0.1,0,0.2-0.1,0.3c-0.1,0.1-0.3,0.2-0.5,0.2
									c-0.2,0.1-0.5,0.1-0.8,0.1c-0.3,0-0.6,0.1-1,0.1h-13.1c-0.4,0-0.7,0-1-0.1c-0.3,0-0.6-0.1-0.9-0.1c-0.3-0.1-0.5-0.1-0.6-0.2
									c-0.2-0.1-0.3-0.2-0.3-0.3l-1.1-3.3C384.7,393.5,384.7,393.4,384.8,393.3L384.8,393.3z M383.2,399.5
									c0.1-0.1,0.3-0.2,0.5-0.2c0.2-0.1,0.5-0.1,0.8-0.1c0.3,0,0.6-0.1,1-0.1h9.6c0.4,0,0.7,0,1,0.1c0.3,0,0.6,0.1,0.9,0.1
									c0.3,0.1,0.5,0.1,0.6,0.2c0.2,0.1,0.3,0.2,0.3,0.3l1.4,3.6c0,0.1,0,0.2-0.1,0.3c-0.1,0.1-0.3,0.2-0.5,0.2
									c-0.2,0.1-0.5,0.1-0.8,0.2c-0.3,0-0.7,0.1-1,0.1h-9.9c-0.4,0-0.7,0-1.1-0.1c-0.3,0-0.6-0.1-0.9-0.2
									c-0.3-0.1-0.5-0.1-0.6-0.2c-0.2-0.1-0.3-0.2-0.3-0.3l-1.1-3.6C383.1,399.7,383.1,399.6,383.2,399.5L383.2,399.5z
									 M360.7,393.3c0.1-0.1,0.3-0.1,0.5-0.2c0.2-0.1,0.5-0.1,0.8-0.1c0.3,0,0.6-0.1,1-0.1h12.7c0.4,0,0.7,0,1,0.1
									c0.3,0,0.6,0.1,0.8,0.1c0.2,0.1,0.4,0.1,0.6,0.2c0.1,0.1,0.2,0.2,0.3,0.3l0.9,3.3c0,0.1,0,0.2-0.1,0.3
									c-0.1,0.1-0.3,0.2-0.5,0.2c-0.2,0.1-0.5,0.1-0.8,0.1c-0.3,0-0.6,0.1-1,0.1h-13.1c-0.4,0-0.7,0-1-0.1c-0.3,0-0.6-0.1-0.9-0.1
									c-0.2-0.1-0.4-0.1-0.6-0.2c-0.1-0.1-0.2-0.2-0.2-0.3l-0.6-3.3C360.5,393.5,360.6,393.4,360.7,393.3L360.7,393.3z
									 M355.9,399.1c0.3,0,0.6,0.1,0.9,0.1c0.2,0.1,0.4,0.1,0.6,0.2c0.1,0.1,0.2,0.2,0.2,0.3l0.5,3.6c0,0.1,0,0.2-0.2,0.3
									c-0.1,0.1-0.3,0.2-0.5,0.2c-0.2,0.1-0.5,0.1-0.8,0.2c-0.3,0-0.7,0.1-1,0.1h-9.9c-0.4,0-0.7,0-1-0.1c-0.3,0-0.6-0.1-0.9-0.2
									c-0.2-0.1-0.5-0.1-0.6-0.2c-0.1-0.1-0.2-0.2-0.2-0.3l-0.2-3.6c0-0.1,0.1-0.2,0.2-0.3c0.1-0.1,0.3-0.2,0.6-0.2
									c0.2-0.1,0.5-0.1,0.8-0.1c0.3,0,0.7-0.1,1-0.1h9.6C355.2,399.1,355.6,399.1,355.9,399.1L355.9,399.1z M336.5,393.3
									c0.1-0.1,0.3-0.1,0.5-0.2c0.2-0.1,0.5-0.1,0.8-0.1c0.3,0,0.6-0.1,1-0.1h12.7c0.3,0,0.7,0,1,0.1c0.3,0,0.6,0.1,0.8,0.1
									c0.2,0.1,0.4,0.1,0.6,0.2c0.1,0.1,0.2,0.2,0.2,0.3l0.4,3.3c0,0.1,0,0.2-0.2,0.3c-0.1,0.1-0.3,0.2-0.5,0.2
									c-0.2,0.1-0.5,0.1-0.8,0.1c-0.3,0-0.6,0.1-1,0.1H339c-0.4,0-0.7,0-1-0.1c-0.3,0-0.6-0.1-0.8-0.1c-0.2-0.1-0.4-0.1-0.6-0.2
									c-0.1-0.1-0.2-0.2-0.2-0.3l-0.1-3.3C336.4,393.5,336.4,393.4,336.5,393.3L336.5,393.3z M335.8,399.1c0.3,0,0.6,0.1,0.8,0.1
									c0.2,0.1,0.4,0.1,0.6,0.2c0.1,0.1,0.2,0.2,0.2,0.3l0.1,3.6c0,0.1-0.1,0.2-0.2,0.3c-0.1,0.1-0.3,0.2-0.6,0.2
									c-0.2,0.1-0.5,0.1-0.9,0.2c-0.3,0-0.7,0.1-1,0.1H325c-0.4,0-0.7,0-1-0.1c-0.3,0-0.6-0.1-0.8-0.2c-0.2-0.1-0.4-0.1-0.6-0.2
									c-0.1-0.1-0.2-0.2-0.2-0.3l0.2-3.6c0-0.1,0.1-0.2,0.2-0.3c0.1-0.1,0.3-0.2,0.6-0.2c0.2-0.1,0.5-0.1,0.8-0.1
									c0.3,0,0.7-0.1,1-0.1h9.6C335.1,399.1,335.5,399.1,335.8,399.1L335.8,399.1z M312.2,393.6c0-0.1,0.1-0.2,0.2-0.3
									c0.1-0.1,0.3-0.1,0.6-0.2c0.2-0.1,0.5-0.1,0.8-0.1c0.3,0,0.6-0.1,1-0.1h12.7c0.3,0,0.7,0,1,0.1c0.3,0,0.6,0.1,0.8,0.1
									c0.2,0.1,0.4,0.1,0.5,0.2c0.1,0.1,0.2,0.2,0.2,0.3l-0.1,3.3c0,0.1-0.1,0.2-0.2,0.3c-0.1,0.1-0.3,0.2-0.6,0.2
									c-0.2,0.1-0.5,0.1-0.8,0.1c-0.3,0-0.7,0.1-1,0.1h-13.1c-0.4,0-0.7,0-1-0.1c-0.3,0-0.6-0.1-0.8-0.1c-0.2-0.1-0.4-0.1-0.5-0.2
									c-0.1-0.1-0.2-0.2-0.2-0.3L312.2,393.6L312.2,393.6z M288,393.6c0-0.1,0.1-0.2,0.3-0.3c0.1-0.1,0.4-0.1,0.6-0.2
									c0.2-0.1,0.5-0.1,0.8-0.1c0.3,0,0.6-0.1,1-0.1h12.7c0.3,0,0.7,0,1,0.1c0.3,0,0.6,0.1,0.8,0.1c0.2,0.1,0.4,0.1,0.5,0.2
									c0.1,0.1,0.2,0.2,0.2,0.3l-0.6,3.3c0,0.1-0.1,0.2-0.2,0.3c-0.1,0.1-0.3,0.2-0.6,0.2c-0.2,0.1-0.5,0.1-0.8,0.1
									c-0.3,0-0.7,0.1-1,0.1h-13.1c-0.4,0-0.7,0-1-0.1c-0.3,0-0.6-0.1-0.8-0.1c-0.2-0.1-0.4-0.1-0.5-0.2c-0.1-0.1-0.2-0.2-0.1-0.3
									L288,393.6L288,393.6z M282.5,399.5c0.2-0.1,0.4-0.2,0.6-0.2c0.3-0.1,0.6-0.1,0.9-0.1c0.3,0,0.7-0.1,1-0.1h9.6
									c0.4,0,0.7,0,1,0.1c0.3,0,0.6,0.1,0.8,0.1c0.2,0.1,0.4,0.1,0.5,0.2c0.1,0.1,0.2,0.2,0.1,0.3l-0.8,3.6c0,0.1-0.1,0.2-0.3,0.3
									c-0.2,0.1-0.4,0.2-0.6,0.2c-0.3,0.1-0.6,0.1-0.9,0.2c-0.3,0-0.7,0.1-1.1,0.1h-9.9c-0.4,0-0.7,0-1-0.1
									c-0.3,0-0.6-0.1-0.8-0.2c-0.2-0.1-0.4-0.1-0.5-0.2c-0.1-0.1-0.2-0.2-0.1-0.3l1.1-3.6C282.2,399.7,282.3,399.6,282.5,399.5
									L282.5,399.5z M262.4,396.9l1.4-3.3c0-0.1,0.1-0.2,0.3-0.3c0.2-0.1,0.4-0.1,0.6-0.2c0.3-0.1,0.5-0.1,0.9-0.1
									c0.3,0,0.7-0.1,1-0.1h12.7c0.3,0,0.7,0,1,0.1c0.3,0,0.5,0.1,0.8,0.1c0.2,0.1,0.4,0.1,0.5,0.2c0.1,0.1,0.2,0.2,0.1,0.3
									l-1.1,3.3c0,0.1-0.1,0.2-0.3,0.3c-0.2,0.1-0.4,0.2-0.6,0.2c-0.3,0.1-0.5,0.1-0.9,0.1c-0.3,0-0.7,0.1-1,0.1h-13.1
									c-0.4,0-0.7,0-1-0.1c-0.3,0-0.6-0.1-0.8-0.1c-0.2-0.1-0.4-0.1-0.5-0.2C262.4,397.1,262.3,397,262.4,396.9L262.4,396.9z
									 M260.5,403.4l1.5-3.6c0-0.1,0.2-0.2,0.3-0.3c0.2-0.1,0.4-0.2,0.7-0.2c0.3-0.1,0.6-0.1,0.9-0.1c0.3,0,0.7-0.1,1-0.1h9.6
									c0.4,0,0.7,0,1,0.1c0.3,0,0.6,0.1,0.8,0.1c0.2,0.1,0.4,0.1,0.5,0.2c0.1,0.1,0.1,0.2,0.1,0.3l-1.2,3.6c0,0.1-0.1,0.2-0.3,0.3
									c-0.2,0.1-0.4,0.2-0.7,0.2c-0.3,0.1-0.6,0.1-0.9,0.2c-0.3,0-0.7,0.1-1.1,0.1h-9.9c-0.4,0-0.7,0-1-0.1
									c-0.3,0-0.6-0.1-0.8-0.2c-0.2-0.1-0.4-0.1-0.5-0.2C260.5,403.6,260.4,403.5,260.5,403.4L260.5,403.4z M260.2,405.7
									c0.4,0,0.7,0,1,0.1c0.3,0,0.6,0.1,0.8,0.2c0.2,0.1,0.4,0.1,0.5,0.2c0.1,0.1,0.1,0.2,0.1,0.3l-1.6,3.9c0,0.1-0.2,0.2-0.3,0.3
									h0l0,0c0,0,0,0,0,0c-0.2,0.1-0.4,0.2-0.7,0.2c-0.3,0.1-0.6,0.1-1,0.2c-0.4,0-0.7,0.1-1.1,0.1l0,0h-10.3l0,0
									c-0.4,0-0.7,0-1.1-0.1c-0.3,0-0.6-0.1-0.8-0.2c-0.2-0.1-0.4-0.2-0.5-0.3c-0.1-0.1-0.1-0.2-0.1-0.3l1.9-3.9
									c0-0.1,0.1-0.1,0.1-0.2c0.1,0,0.1-0.1,0.2-0.1c0.1-0.1,0.2-0.1,0.4-0.2c0.1,0,0.2-0.1,0.3-0.1c0.1,0,0.2-0.1,0.4-0.1
									c0.2,0,0.4-0.1,0.6-0.1c0.3,0,0.7-0.1,1.1-0.1l0,0H260.2L260.2,405.7L260.2,405.7z M237.7,396.9l1.9-3.3
									c0.1-0.1,0.2-0.2,0.3-0.3c0.2-0.1,0.4-0.1,0.7-0.2c0.3-0.1,0.6-0.1,0.9-0.1c0.3,0,0.7-0.1,1-0.1h12.7c0.3,0,0.7,0,1,0.1
									c0.3,0,0.5,0.1,0.7,0.1c0.2,0.1,0.4,0.1,0.4,0.2c0.1,0.1,0.1,0.2,0.1,0.3l-1.6,3.3c0,0.1-0.2,0.2-0.3,0.3
									c-0.2,0.1-0.4,0.2-0.7,0.2c-0.3,0.1-0.6,0.1-0.9,0.1c-0.3,0-0.7,0.1-1,0.1h-13.1c-0.4,0-0.7,0-1-0.1c-0.3,0-0.5-0.1-0.7-0.1
									c-0.2-0.1-0.3-0.1-0.4-0.2C237.6,397.1,237.6,397,237.7,396.9L237.7,396.9z M235.3,399.1c0.3,0,0.5,0.1,0.7,0.1
									c0.2,0.1,0.3,0.1,0.4,0.2c0.1,0.1,0.1,0.2,0.1,0.3l-2.1,3.6c-0.1,0.1-0.2,0.2-0.4,0.3c-0.2,0.1-0.4,0.2-0.7,0.2
									c-0.3,0.1-0.6,0.1-0.9,0.2c-0.3,0-0.7,0.1-1.1,0.1h-9.9c-0.4,0-0.7,0-1-0.1c-0.3,0-0.6-0.1-0.8-0.2
									c-0.2-0.1-0.3-0.1-0.4-0.2c-0.1-0.1-0.1-0.2,0-0.3l2.4-3.6c0.1-0.1,0.2-0.2,0.4-0.3c0.2-0.1,0.4-0.2,0.7-0.2
									c0.3-0.1,0.6-0.1,0.9-0.1c0.3,0,0.7-0.1,1-0.1h9.6C234.6,399.1,235,399.1,235.3,399.1L235.3,399.1z M213,396.9l2.4-3.3
									c0.1-0.1,0.2-0.2,0.4-0.3c0.2-0.1,0.4-0.1,0.7-0.2c0.3-0.1,0.6-0.1,0.9-0.1c0.3,0,0.7-0.1,1-0.1h12.7c0.3,0,0.7,0,0.9,0.1
									c0.3,0,0.5,0.1,0.7,0.1c0.2,0.1,0.3,0.1,0.4,0.2c0.1,0.1,0.1,0.2,0,0.3l-2,3.3c-0.1,0.1-0.2,0.2-0.4,0.3
									c-0.2,0.1-0.4,0.2-0.7,0.2c-0.3,0.1-0.6,0.1-0.9,0.1c-0.3,0-0.7,0.1-1,0.1h-13.1c-0.4,0-0.7,0-1-0.1c-0.3,0-0.5-0.1-0.7-0.1
									c-0.2-0.1-0.3-0.1-0.4-0.2C212.9,397.1,212.9,397,213,396.9L213,396.9z M213.9,399.1c0.3,0,0.5,0.1,0.7,0.1
									c0.2,0.1,0.3,0.1,0.4,0.2c0.1,0.1,0.1,0.2,0,0.3l-2.5,3.6c-0.1,0.1-0.2,0.2-0.4,0.3c-0.2,0.1-0.5,0.2-0.7,0.2
									c-0.3,0.1-0.6,0.1-1,0.2c-0.3,0-0.7,0.1-1.1,0.1h-24.6c-0.4,0-0.7,0-1-0.1c-0.3,0-0.5-0.1-0.7-0.2c-0.2-0.1-0.3-0.1-0.4-0.2
									c-0.1-0.1-0.1-0.2,0-0.3l3.1-3.6c0.1-0.1,0.2-0.2,0.4-0.3c0.2-0.1,0.5-0.2,0.8-0.2c0.3-0.1,0.6-0.1,1-0.1
									c0.3,0,0.7-0.1,1.1-0.1h23.8C213.3,399.1,213.6,399.1,213.9,399.1L213.9,399.1z M207,392.9c0.3,0,0.7,0,0.9,0.1
									c0.3,0,0.5,0.1,0.7,0.1c0.2,0.1,0.3,0.1,0.4,0.2c0.1,0.1,0.1,0.2,0,0.3l-2.5,3.3c-0.1,0.1-0.2,0.2-0.4,0.3
									c-0.2,0.1-0.4,0.2-0.7,0.2c-0.3,0.1-0.6,0.1-0.9,0.1c-0.3,0-0.7,0.1-1,0.1h-13.1c-0.4,0-0.7,0-1-0.1c-0.3,0-0.5-0.1-0.7-0.1
									c-0.2-0.1-0.3-0.1-0.4-0.2c-0.1-0.1-0.1-0.2,0-0.3l2.9-3.3c0.1-0.1,0.2-0.2,0.4-0.3c0.2-0.1,0.4-0.1,0.7-0.2
									c0.3-0.1,0.6-0.1,0.9-0.1c0.3,0,0.7-0.1,1-0.1H207L207,392.9z"/>
							</g>
						</g>
						<g>
							<g>
								<path class="st1" d="M488.9,380.3c0,3.7-3,6.7-6.8,6.7H179.5c-3.7,0-6.8-3-6.8-6.7V196.2c0-3.7,3-6.7,6.8-6.7h302.6
									c3.7,0,6.8,3,6.8,6.7V380.3z"/>
							</g>
							<g>
								<g>
									<rect x="284.2" y="224.1" class="st3" width="80" height="36"/>
									<path class="st4" d="M320.5,234.6l9,6.3c0.9,0.6,0.9,1.9,0,2.5l-9,6.3c-1,0.7-2.4,0-2.4-1.3v-12.6
										C318.2,234.6,319.5,233.9,320.5,234.6z"/>
									<g>
										<g>
											<rect x="195.3" y="271.1" class="st2" width="62.8" height="5.2"/>
											<rect x="195.3" y="282.2" class="st2" width="80" height="2.3"/>
											<rect x="195.3" y="288.4" class="st2" width="80" height="2.3"/>
											<rect x="195.3" y="295" class="st2" width="80" height="2.3"/>
										</g>
										<path class="st4" d="M231.7,234.6l9,6.3c0.9,0.6,0.9,1.9,0,2.5l-9,6.3c-1,0.7-2.4,0-2.4-1.3v-12.6
											C229.3,234.6,230.7,233.9,231.7,234.6z"/>
									</g>
								</g>
								<g>
									<rect x="284.2" y="271.1" class="st2" width="66.3" height="5.2"/>
									<rect x="284.2" y="282.2" class="st2" width="80.1" height="2.3"/>
									<rect x="284.2" y="288.4" class="st2" width="80.1" height="2.3"/>
									<rect x="284.2" y="295" class="st2" width="80.1" height="2.3"/>
								</g>
								<g>
									<rect x="184" y="203.4" class="st1" width="292.3" height="173.1"/>
									<line class="st1" x1="184.1" y1="215.3" x2="476.4" y2="215.3"/>
									<g>
										<ellipse class="st2" cx="194" cy="210" rx="2.3" ry="2.4"/>
										<ellipse class="st0" cx="203.3" cy="210" rx="2.3" ry="2.4"/>
										<ellipse class="st3" cx="213.3" cy="210" rx="2.3" ry="2.4"/>
									</g>
								</g>
								<g>
									<rect x="374.2" y="223.2" class="st5" width="87.9" height="146.7"/>
									<polyline class="st1" points="471.4,364.5 383.5,364.5 383.5,217.9 									"/>
									<rect x="445.9" y="255.9" class="st6" width="22.2" height="22.6"/>
								</g>
							</g>
						</g>
					</g>
				</g>
				<g>
					<ellipse class="st0" cx="109.8" cy="174.2" rx="16.4" ry="16.7"/>
					<g>
						<path class="st1" d="M109.6,163.5c-5.9,0-10.6,4.9-10.6,10.8c0,6,4.8,10.8,10.6,10.8c5.9,0,10.6-4.9,10.6-10.8
							C120.2,168.4,115.4,163.5,109.6,163.5z"/>
						<path class="st1" d="M131.9,159h-7.5l-3.5-9H98.4l-3.5,9h-1.2v-4.5h-5.3v4.5h-1.1c-2.3,0-4.2,1.9-4.2,4.3v26.5
							c0,2.4,1.9,4.4,4.3,4.4h44.5c2.4,0,4.3-2,4.3-4.4v-26.5C136.1,160.9,134.2,159,131.9,159z M91.9,159h-1.8v-2.7h1.8V159z
							 M109.6,190.5c-8.8,0-15.9-7.3-15.9-16.2c0-8.9,7.1-16.2,15.9-16.2c8.8,0,15.9,7.3,15.9,16.2
							C125.5,183.3,118.4,190.5,109.6,190.5z M129,169.8c-2,0-3.5-1.6-3.5-3.6c0-2,1.6-3.6,3.5-3.6c2,0,3.5,1.6,3.5,3.6
							C132.6,168.2,131,169.8,129,169.8z"/>
					</g>
					<ellipse class="st4" cx="116.2" cy="165.9" rx="2.9" ry="3"/>
				</g>
				<g>
					<g>
						<ellipse class="st1" cx="127.9" cy="258.3" rx="14.6" ry="14.9"/>
						<line class="st1" x1="140" y1="249.2" x2="116.9" y2="267.7"/>
					</g>
					<g>
						<ellipse class="st1" cx="627.4" cy="45.2" rx="14.6" ry="14.9"/>
						<line class="st1" x1="639.5" y1="36.2" x2="616.4" y2="54.7"/>
						<line class="st1" x1="616.4" y1="36.2" x2="639.5" y2="54.7"/>
					</g>
				</g>
				<g>
					<path class="st1" d="M421.7,148.5c0,1-0.6,1.9-1.4,2.3c-0.3,0.2-0.7,0.2-1.1,0.2c-0.6,0-1.1-0.2-1.6-0.6l-13.5-11.4h-7.2
						c-1.4,0-2.5-1.1-2.5-2.5v-10c0-1.4,1.1-2.5,2.5-2.5h7.2l13.5-11.4c0.7-0.6,1.8-0.8,2.6-0.3c0.9,0.4,1.4,1.3,1.4,2.3
						L421.7,148.5L421.7,148.5z"/>
					<g>
						<path class="st0" d="M431.2,144.6c-0.1,0-0.1,0-0.2,0c-0.7,0-1.3-0.3-1.7-0.7l-0.3-0.3c-0.9-0.9-1-2.3-0.2-3.3
							c1.8-2.5,2.8-5.6,2.8-8.7c0-3.4-1.1-6.6-3.2-9.2c-0.8-1-0.7-2.5,0.2-3.4l0.3-0.3c0.5-0.5,1.2-0.8,1.9-0.7
							c0.7,0,1.3,0.4,1.8,0.9c2.9,3.6,4.4,8,4.4,12.7c0,4.4-1.4,8.6-3.9,12.1C432.5,144.2,431.9,144.5,431.2,144.6z"/>
						<path class="st0" d="M441.4,152.4c-0.4,0.5-1.1,0.9-1.8,0.9c0,0-0.1,0-0.1,0c-0.7,0-1.3-0.3-1.7-0.7l-0.3-0.3
							c-0.9-0.9-1-2.4-0.1-3.4c4-4.8,6.2-11,6.2-17.3c0-6.6-2.3-12.9-6.6-17.8c-0.9-1-0.8-2.5,0.1-3.4l0.3-0.3
							c0.5-0.5,1.1-0.8,1.8-0.7c0.7,0,1.3,0.3,1.8,0.8c5.2,5.9,8,13.5,8,21.5C448.9,139.2,446.2,146.6,441.4,152.4z"/>
					</g>
				</g>
				<g>
					<rect x="211.5" y="144.4" class="st1" width="22.2" height="22.6"/>
					
						<rect x="184.3" y="166.8" transform="matrix(-1 -1.224647e-16 1.224647e-16 -1 375.6964 340.7381)" class="st1" width="7" height="7.2"/>
				</g>
				<g>
					<rect x="626.9" y="143.6" class="st0" width="16.6" height="16.9"/>
					<g>
						<rect x="517.6" y="208.5" class="st0" width="30.6" height="31.2"/>
						<g>
							<g>
								<ellipse class="st7" cx="509.3" cy="275.3" rx="1.1" ry="1.1"/>
								<ellipse class="st7" cx="518.6" cy="275.3" rx="1.1" ry="1.1"/>
								<ellipse class="st7" cx="527.9" cy="275.3" rx="1.1" ry="1.1"/>
								<ellipse class="st7" cx="537.1" cy="275.3" rx="1.1" ry="1.1"/>
								<ellipse class="st7" cx="546.4" cy="275.3" rx="1.1" ry="1.1"/>
								<ellipse class="st7" cx="555.7" cy="275.3" rx="1.1" ry="1.1"/>
								<ellipse class="st7" cx="564.9" cy="275.3" rx="1.1" ry="1.1"/>
							</g>
							<g>
								<ellipse class="st7" cx="509.3" cy="265" rx="1.1" ry="1.1"/>
								<ellipse class="st7" cx="518.6" cy="265" rx="1.1" ry="1.1"/>
								<ellipse class="st7" cx="527.9" cy="265" rx="1.1" ry="1.1"/>
								<ellipse class="st7" cx="537.1" cy="265" rx="1.1" ry="1.1"/>
								<ellipse class="st7" cx="546.4" cy="265" rx="1.1" ry="1.1"/>
								<ellipse class="st7" cx="555.7" cy="265" rx="1.1" ry="1.1"/>
								<ellipse class="st7" cx="564.9" cy="265" rx="1.1" ry="1.1"/>
							</g>
							<g>
								<ellipse class="st7" cx="509.3" cy="254.7" rx="1.1" ry="1.1"/>
								<ellipse class="st7" cx="518.6" cy="254.7" rx="1.1" ry="1.1"/>
								<ellipse class="st7" cx="527.9" cy="254.7" rx="1.1" ry="1.1"/>
								<ellipse class="st7" cx="537.1" cy="254.7" rx="1.1" ry="1.1"/>
								<ellipse class="st7" cx="546.4" cy="254.7" rx="1.1" ry="1.1"/>
								<ellipse class="st7" cx="555.7" cy="254.7" rx="1.1" ry="1.1"/>
								<ellipse class="st7" cx="564.9" cy="254.7" rx="1.1" ry="1.1"/>
							</g>
							<g>
								<ellipse class="st7" cx="509.3" cy="244.4" rx="1.1" ry="1.1"/>
								<ellipse class="st7" cx="518.6" cy="244.4" rx="1.1" ry="1.1"/>
								<ellipse class="st7" cx="527.9" cy="244.4" rx="1.1" ry="1.1"/>
								<ellipse class="st7" cx="537.1" cy="244.4" rx="1.1" ry="1.1"/>
								<ellipse class="st7" cx="546.4" cy="244.4" rx="1.1" ry="1.1"/>
								<ellipse class="st7" cx="555.7" cy="244.4" rx="1.1" ry="1.1"/>
								<ellipse class="st7" cx="564.9" cy="244.4" rx="1.1" ry="1.1"/>
							</g>
							<g>
								<ellipse class="st7" cx="509.3" cy="234.2" rx="1.1" ry="1.1"/>
								<ellipse class="st7" cx="518.6" cy="234.2" rx="1.1" ry="1.1"/>
								<ellipse class="st7" cx="527.9" cy="234.2" rx="1.1" ry="1.1"/>
								<ellipse class="st7" cx="537.1" cy="234.2" rx="1.1" ry="1.1"/>
								<ellipse class="st7" cx="546.4" cy="234.2" rx="1.1" ry="1.1"/>
								<ellipse class="st7" cx="555.7" cy="234.2" rx="1.1" ry="1.1"/>
								<ellipse class="st7" cx="564.9" cy="234.2" rx="1.1" ry="1.1"/>
							</g>
							<g>
								<ellipse class="st7" cx="509.3" cy="223.9" rx="1.1" ry="1.1"/>
								<ellipse class="st7" cx="518.6" cy="223.9" rx="1.1" ry="1.1"/>
								<ellipse class="st7" cx="527.9" cy="223.9" rx="1.1" ry="1.1"/>
								<ellipse class="st7" cx="537.1" cy="223.9" rx="1.1" ry="1.1"/>
								<ellipse class="st7" cx="546.4" cy="223.9" rx="1.1" ry="1.1"/>
								<ellipse class="st7" cx="555.7" cy="223.9" rx="1.1" ry="1.1"/>
								<ellipse class="st7" cx="564.9" cy="223.9" rx="1.1" ry="1.1"/>
							</g>
						</g>
					</g>
				</g>
				<g>
					<path class="st8" d="M198,359.8c0,0,5.2-6.3,6.8-8.8c2.1-3.5,7.4-14.5,7.4-14.5c1.9-3.5,6.8-3.5,8.7,0l7,13.2
						c2.2,4.1,8.1,3.2,9.1-1.2l9.2-39.3c1.2-5.1,8.4-5.2,9.6,0l8.1,33.3c1.2,5,8.2,5.1,9.6,0.1l7.8-29.1c1.3-5,8.2-5,9.5,0l9.5,35.7
						c1.2,4.4,7,5.1,9.1,1.1l7.3-13.7c1.9-3.5,6.8-3.5,8.7,0l9.9,18.6c1.6,3,5.6,3.5,7.9,1l13.4-14.6"/>
					<g>
						<path class="st8" d="M201.8,355.2c-18.4,25.2-50.9,36.3-81.7,36.8c-18.4,0.3-38.1-3.3-51-16.6c-16.4-16.9-16.4-46.1-3.2-65.7
							c4.9-7.3,14.1-14,21.7-9.7c3.2,1.8,5.3,5.2,6.4,8.8c6.2,19.2-14.3,39.1-34,37.7s-35.7-17.7-44.4-35.8
							c-17.5-36.2-12.2-81.4,9.1-115.4c21.3-34,56.8-57.3,94.9-68.1c26.4-7.5,54.4-9.6,81.6-5.9c36.1,4.9,70.1,19.5,105.2,29.2
							c46.6,13,95.5,17.4,143.6,13c28.3-2.6,57-8.4,81.1-23.7c24.1-15.3,43.1-41.3,44.1-70.3c0.5-13.7-4.3-29.1-16.4-35.2
							c-13.9-7-32.3,2.8-37.2,17.9s2.1,32.3,14.2,42.3c12.1,10,38.7,18,54.2,17.6c51.3-1.1,88.8-26.8,101.1-109.1"/>
						<path class="st8" d="M515.5,44.4c-4.2,8-4.8,17.9-1.6,26.3"/>
						<path class="st8" d="M518.8,38.5c4.2-3.6,8.9-6.5,13.9-8.7"/>
						<path class="st8" d="M474.8,169.7c15.5-2.1,30.7-6.3,45.1-12.4"/>
					</g>
					<path class="st8" d="M688.5,42.2c-4.7,16.6-13,32.1-24.1,45.1"/>
				</g>
			</g>
		</g>
	</g>
</g>
</svg>
