<?xml version="1.0" encoding="utf-8"?>
<!-- Generator: Adobe Illustrator 21.1.0, SVG Export Plug-In . SVG Version: 6.00 Build 0)  -->
<svg version="1.1" id="Layer_1" xmlns="http://www.w3.org/2000/svg" xmlns:xlink="http://www.w3.org/1999/xlink" x="0px" y="0px"
	 viewBox="0 0 351 379" style="enable-background:new 0 0 351 379;" xml:space="preserve">
<style type="text/css">
	.st0{fill:#ECECEC;stroke:#000000;stroke-width:3;stroke-miterlimit:10;}
	.st1{fill:#00020C;}
	.st2{clip-path:url(#SVGID_4_);}
	.st3{fill:#FFFFFF;}
	.st4{fill:none;stroke:#000000;stroke-width:3;stroke-miterlimit:10;}
	.st5{clip-path:url(#SVGID_6_);}
	.st6{fill:#ECECEC;}
	.st7{fill:none;stroke:#00001E;stroke-width:3;stroke-miterlimit:10;}
	.st8{fill:#00001E;}
	.st9{font-family:'Montserrat-Regular';}
	.st10{font-size:6.9988px;}
	.st11{fill:#F44337;}
	.st12{font-family:'BebasNeue-Regular';}
	.st13{font-size:41.229px;}
	.st14{font-size:39.4887px;}
</style>
<g>
	<path class="st0" d="M336.7,296.8L95.8,370.4c-4.8,1.5-9.9-1.2-11.3-6l-56-183.2l258.3-78.9l56,183.2
		C344.2,290.3,341.5,295.4,336.7,296.8z"/>
	<g>
		<g>
			
				<rect x="-7.7" y="86" transform="matrix(0.8372 -0.5469 0.5469 0.8372 -33.6625 92.7797)" class="st1" width="293.4" height="33.8"/>
		</g>
		<g>
			<defs>
				
					<rect id="SVGID_2_" x="-7.7" y="86" transform="matrix(0.8372 -0.5469 0.5469 0.8372 -33.6625 92.7797)" width="293.4" height="33.8"/>
			</defs>
			<clipPath id="SVGID_4_">
				<use xlink:href="#SVGID_2_"  style="overflow:visible;"/>
			</clipPath>
			<g class="st2">
				<polygon class="st3" points="88.4,180.6 74.7,189.5 -17.3,154.2 -3.6,145.3 				"/>
				<polygon class="st3" points="129.2,153.9 115.6,162.8 23.5,127.5 37.2,118.6 				"/>
				<polygon class="st3" points="170.1,127.2 156.4,136.2 64.3,100.8 78,91.9 				"/>
				<polygon class="st3" points="210.9,100.6 197.2,109.5 105.2,74.2 118.8,65.2 				"/>
				<polygon class="st3" points="251.7,73.9 238,82.8 146,47.5 159.7,38.6 				"/>
				<polygon class="st3" points="292.5,47.2 278.8,56.2 186.8,20.8 200.5,11.9 				"/>
			</g>
		</g>
		<g>
			
				<rect id="SVGID_1_" x="-7.7" y="86" transform="matrix(0.8372 -0.5469 0.5469 0.8372 -33.6625 92.7797)" class="st4" width="293.4" height="33.8"/>
		</g>
	</g>
	<g>
		<g>
			
				<rect x="15.5" y="139.9" transform="matrix(0.9564 -0.2922 0.2922 0.9564 -38.7414 54.2375)" class="st1" width="293.4" height="33.8"/>
		</g>
		<g>
			<defs>
				
					<rect id="SVGID_5_" x="15.5" y="139.9" transform="matrix(0.9564 -0.2922 0.2922 0.9564 -38.7414 54.2375)" width="293.4" height="33.8"/>
			</defs>
			<clipPath id="SVGID_6_">
				<use xlink:href="#SVGID_5_"  style="overflow:visible;"/>
			</clipPath>
			<g class="st5">
				<polygon class="st3" points="92,217.3 76.3,222.1 -2.2,162.5 13.4,157.8 				"/>
				<polygon class="st3" points="138.6,203.1 123,207.8 44.4,148.3 60,143.5 				"/>
				<polygon class="st3" points="185.2,188.8 169.6,193.6 91,134 106.7,129.3 				"/>
				<polygon class="st3" points="231.9,174.6 216.2,179.3 137.7,119.8 153.3,115 				"/>
				<polygon class="st3" points="278.5,160.3 262.9,165.1 184.3,105.5 199.9,100.8 				"/>
				<polygon class="st3" points="325.1,146.1 309.5,150.8 230.9,91.3 246.6,86.5 				"/>
			</g>
		</g>
		<g>
			
				<rect id="SVGID_3_" x="15.5" y="139.9" transform="matrix(0.9564 -0.2922 0.2922 0.9564 -38.7414 54.2375)" class="st4" width="293.4" height="33.8"/>
		</g>
	</g>
	<g>
		<path class="st6" d="M5.3,171.2l14.3,46.7c1.1,3.5,4.7,5.4,8.2,4.3l70.5-21.6c4.5-1.4,6.1-7,3-10.6c-8.2-9.3-24.2-24.1-46.3-28.1
			c-23.5-4.1-38.1-1.4-45.5,1C6.1,164.2,4.3,167.8,5.3,171.2z"/>
		<path class="st7" d="M10.4,172.8l12.4,40.5c0.9,3,4.1,4.7,7.1,3.8L91,198.4c3.9-1.2,5.3-6.1,2.6-9.1c-7.1-8.1-21-20.9-40.2-24.3
			c-20.4-3.6-33-1.3-39.4,0.8C11.1,166.7,9.5,169.9,10.4,172.8z"/>
		<g>
			<g>
				
					<ellipse transform="matrix(0.9564 -0.2922 0.2922 0.9564 -52.3944 33.1831)" class="st7" cx="84.9" cy="192" rx="3.8" ry="3.8"/>
				<ellipse transform="matrix(0.9564 -0.2922 0.2922 0.9564 -52.3946 33.183)" class="st8" cx="84.9" cy="192" rx="1.5" ry="1.5"/>
			</g>
			<g>
				
					<ellipse transform="matrix(0.9564 -0.2922 0.2922 0.9564 -49.7085 13.1849)" class="st7" cx="19.3" cy="173" rx="3.8" ry="3.8"/>
				
					<ellipse transform="matrix(0.9563 -0.2923 0.2923 0.9563 -49.7236 13.1949)" class="st8" cx="19.3" cy="173" rx="1.5" ry="1.5"/>
			</g>
			<g>
				
					<ellipse transform="matrix(0.9564 -0.2922 0.2922 0.9564 -59.6646 17.9289)" class="st7" cx="30.2" cy="208.7" rx="3.8" ry="3.8"/>
				
					<ellipse transform="matrix(0.9564 -0.2922 0.2922 0.9564 -59.6637 17.9302)" class="st8" cx="30.2" cy="208.7" rx="1.5" ry="1.5"/>
			</g>
		</g>
	</g>
	<text transform="matrix(0.9564 -0.2922 0.2922 0.9564 68.1962 247.6313)" class="st1 st9 st10">Hour</text>
	<text transform="matrix(0.9564 -0.2922 0.2922 0.9564 95.9416 317.5316)" class="st1 st9 st10">date</text>
	<text transform="matrix(0.9564 -0.2922 0.2922 0.9564 118.7021 231.0544)" class="st1 st9 st10">minute</text>
	<text transform="matrix(0.9564 -0.2922 0.2922 0.9564 187.8711 209.9185)" class="st1 st9 st10">second</text>
	<g>
		<text transform="matrix(0.9564 -0.2922 0.2922 0.9564 76.2211 293.8913)" class="st11 st12 st13">10</text>
	</g>
	<g>
		<text transform="matrix(0.9564 -0.2922 0.2922 0.9564 131.3356 275.8613)" class="st11 st12 st13">23</text>
	</g>
	<text transform="matrix(0.9564 -0.2922 0.2922 0.9564 141.0871 324.4836)" class="st1 st12 st14">17.11.2021</text>
	<g>
		<text transform="matrix(0.9564 -0.2922 0.2922 0.9564 197.0032 257.7233)" class="st11 st12 st13">57.38</text>
	</g>
	<line class="st4" x1="80.8" y1="352.4" x2="339.1" y2="273.5"/>
	<g>
		<line class="st4" x1="67.1" y1="307.5" x2="325.4" y2="228.6"/>
		<line class="st4" x1="52.3" y1="259" x2="310.5" y2="180.1"/>
		<line class="st4" x1="110.2" y1="241.8" x2="124.9" y2="289.9"/>
		<line class="st4" x1="161.5" y1="226.1" x2="176.3" y2="274.3"/>
	</g>
	<line class="st4" x1="299.8" y1="142.6" x2="200.2" y2="171.5"/>
</g>
</svg>
