<?xml version="1.0" encoding="utf-8"?>
<!-- Generator: Adobe Illustrator 21.1.0, SVG Export Plug-In . SVG Version: 6.00 Build 0)  -->
<svg version="1.1" id="Layer_1" xmlns="http://www.w3.org/2000/svg" xmlns:xlink="http://www.w3.org/1999/xlink" x="0px" y="0px"
	 viewBox="0 0 1693 957" style="enable-background:new 0 0 1693 957;" xml:space="preserve">
<style type="text/css">
	.st0{fill:#FFFFFF;}
	.st1{fill:#222627;}
	.st2{fill:#00001E;}
	.st3{fill:#476BFF;}
	.st4{fill:#F44337;}
	.st5{fill:none;stroke:#2E2E3B;stroke-width:3;stroke-miterlimit:10;}
	.st6{fill:none;stroke:#00001E;stroke-width:0.9375;stroke-miterlimit:10;}
</style>
<g>
	<g>
		<g>
			<rect x="895.1" y="310.1" class="st0" width="74.4" height="74.4"/>
			<g>
				<g>
					<circle class="st1" cx="1070.7" cy="469.2" r="2.6"/>
					<circle class="st1" cx="1048.1" cy="469.2" r="2.6"/>
					<circle class="st1" cx="1025.6" cy="469.2" r="2.6"/>
					<circle class="st1" cx="1003.1" cy="469.2" r="2.6"/>
					<circle class="st1" cx="980.5" cy="469.2" r="2.6"/>
					<circle class="st1" cx="958" cy="469.2" r="2.6"/>
					<circle class="st1" cx="935.4" cy="469.2" r="2.6"/>
				</g>
				<g>
					<circle class="st1" cx="1070.7" cy="444.7" r="2.6"/>
					<circle class="st1" cx="1048.1" cy="444.7" r="2.6"/>
					<circle class="st1" cx="1025.6" cy="444.7" r="2.6"/>
					<circle class="st1" cx="1003.1" cy="444.7" r="2.6"/>
					<circle class="st1" cx="980.5" cy="444.7" r="2.6"/>
					<circle class="st1" cx="958" cy="444.7" r="2.6"/>
					<circle class="st1" cx="935.4" cy="444.7" r="2.6"/>
				</g>
				<g>
					<circle class="st1" cx="1070.7" cy="420.2" r="2.6"/>
					<circle class="st1" cx="1048.1" cy="420.2" r="2.6"/>
					<circle class="st1" cx="1025.6" cy="420.2" r="2.6"/>
					<circle class="st1" cx="1003.1" cy="420.2" r="2.6"/>
					<circle class="st1" cx="980.5" cy="420.2" r="2.6"/>
					<circle class="st1" cx="958" cy="420.2" r="2.6"/>
					<circle class="st1" cx="935.4" cy="420.2" r="2.6"/>
				</g>
				<g>
					<circle class="st1" cx="1070.7" cy="395.7" r="2.6"/>
					<circle class="st1" cx="1048.1" cy="395.7" r="2.6"/>
					<circle class="st1" cx="1025.6" cy="395.7" r="2.6"/>
					<circle class="st1" cx="1003.1" cy="395.7" r="2.6"/>
					<circle class="st1" cx="980.5" cy="395.7" r="2.6"/>
					<circle class="st1" cx="958" cy="395.7" r="2.6"/>
					<circle class="st1" cx="935.4" cy="395.7" r="2.6"/>
				</g>
				<g>
					<circle class="st1" cx="1070.7" cy="371.2" r="2.6"/>
					<circle class="st1" cx="1048.1" cy="371.2" r="2.6"/>
					<circle class="st1" cx="1025.6" cy="371.2" r="2.6"/>
					<circle class="st1" cx="1003.1" cy="371.2" r="2.6"/>
					<circle class="st1" cx="980.5" cy="371.2" r="2.6"/>
					<circle class="st1" cx="958" cy="371.2" r="2.6"/>
					<circle class="st1" cx="935.4" cy="371.2" r="2.6"/>
				</g>
				<g>
					<circle class="st1" cx="1070.7" cy="346.7" r="2.6"/>
					<circle class="st1" cx="1048.1" cy="346.7" r="2.6"/>
					<circle class="st1" cx="1025.6" cy="346.7" r="2.6"/>
					<circle class="st1" cx="1003.1" cy="346.7" r="2.6"/>
					<circle class="st1" cx="980.5" cy="346.7" r="2.6"/>
					<circle class="st1" cx="958" cy="346.7" r="2.6"/>
					<circle class="st1" cx="935.4" cy="346.7" r="2.6"/>
				</g>
			</g>
		</g>
		<g>
			<g>
				<g>
					<g>
						<g>
							<g>
								<circle class="st2" cx="1224.5" cy="517.8" r="5.7"/>
								<circle class="st3" cx="1201.8" cy="517.8" r="5.7"/>
								<circle class="st4" cx="1177.6" cy="517.8" r="5.7"/>
							</g>
						</g>
					</g>
				</g>
			</g>
		</g>
		<g>
			<g>
				<circle class="st5" cx="1385.1" cy="632.9" r="35.5"/>
				<line class="st5" x1="1355.8" y1="611.3" x2="1411.8" y2="655.4"/>
			</g>
			<g>
				<circle class="st5" cx="170.7" cy="124.8" r="35.5"/>
				<line class="st5" x1="141.4" y1="103.2" x2="197.4" y2="147.3"/>
				<line class="st5" x1="197.4" y1="103.2" x2="141.4" y2="147.3"/>
			</g>
		</g>
		<g>
			<path class="st5" d="M670.9,335.2c0,2.3,1.3,4.4,3.5,5.4c0.8,0.4,1.7,0.6,2.6,0.6c1.4,0,2.7-0.5,3.8-1.4l32.8-27.2h17.5
				c3.3,0,6-2.7,6-6v-23.9c0-3.3-2.7-6-6-6h-17.5l-32.8-27.2c-1.8-1.5-4.3-1.8-6.4-0.8c-2.1,1-3.5,3.1-3.5,5.4L670.9,335.2
				L670.9,335.2z"/>
			<g>
				<path class="st0" d="M647.8,325.8c0.1,0,0.3,0,0.4,0c1.6,0,3.1-0.6,4.2-1.8l0.8-0.8c2.1-2.1,2.4-5.4,0.6-7.8
					c-4.5-6.1-6.9-13.2-6.9-20.8c0-8.1,2.7-15.7,7.8-22c1.9-2.4,1.8-5.9-0.4-8l-0.8-0.8c-1.2-1.2-2.8-1.9-4.5-1.7
					c-1.7,0.1-3.3,0.9-4.4,2.2c-7.1,8.7-10.8,19.2-10.8,30.4c0,10.5,3.3,20.4,9.6,28.8C644.5,324.8,646.1,325.7,647.8,325.8z"/>
				<path class="st0" d="M623,344.3c1.1,1.3,2.7,2.1,4.3,2.1c0.1,0,0.2,0,0.3,0c1.6,0,3.1-0.6,4.2-1.8l0.8-0.8
					c2.2-2.2,2.4-5.7,0.3-8.1c-9.7-11.5-15-26.1-15-41.2c0-15.6,5.7-30.7,16.1-42.4c2.1-2.4,2-6-0.2-8.2l-0.8-0.8
					c-1.2-1.2-2.7-1.8-4.4-1.8s-3.2,0.8-4.3,2c-12.5,14.1-19.4,32.3-19.4,51.2C604.8,312.8,611.3,330.5,623,344.3z"/>
			</g>
		</g>
		<g>
			<rect x="1127.9" y="361.5" class="st5" width="54" height="54"/>
			<rect x="1230.9" y="414.7" class="st6" width="17.1" height="17.1"/>
		</g>
		<g>
			<path class="st5" d="M1214.7,867.8c0,0-12.7-15-16.4-21c-5.2-8.3-17.9-34.7-17.9-34.7c-4.6-8.3-16.5-8.3-21.1,0l-17.1,31.4
				c-5.3,9.7-19.7,7.7-22.2-3l-22.4-93.7c-2.9-12.2-20.3-12.3-23.3-0.1l-19.7,79.3c-3,12-20,12.2-23.3,0.3l-18.9-69.3
				c-3.2-11.8-20-11.8-23.2,0L966,842c-2.8,10.4-17,12.1-22.1,2.6L926,812.1c-4.6-8.3-16.5-8.3-21.1,0l-24.1,44.3
				c-3.9,7.2-13.7,8.4-19.3,2.5L828.7,824"/>
			<g>
				<path class="st5" d="M1205.4,856.7c44.8,60.2,123.7,86.5,198.8,87.7c44.6,0.7,92.6-7.9,124.1-39.6c40-40.3,39.9-110,7.7-156.8
					c-12-17.4-34.3-33.3-52.9-23.1c-7.8,4.3-12.8,12.4-15.6,20.9c-15,45.7,34.8,93.3,82.7,90s86.8-42.3,108-85.5
					c42.5-86.3,29.6-194.1-22.1-275.3c-51.7-81.1-138.1-136.5-230.8-162.5c-64.3-18-132.2-22.8-198.4-14
					c-87.7,11.6-170.4,46.4-255.7,69.7c-113.3,30.9-232.1,41.5-349.1,31c-68.8-6.1-138.6-20.1-197.3-56.5s-104.7-98.6-107.2-167.6
					c-1.1-32.7,10.4-69.4,39.8-83.9c33.9-16.8,78.6,6.8,90.4,42.7s-5.1,77.1-34.5,100.8c-29.4,23.8-94,42.8-131.8,42.1
					c-124.7-2.6-216-64-245.9-260.1"/>
				<path class="st5" d="M442.8,115.6c10.2,19.1,11.6,42.6,3.8,62.7"/>
				<path class="st5" d="M434.8,101.5C424.6,93,413.2,86,401.1,80.7"/>
				<path class="st5" d="M541.7,414.6c-37.6-4.9-74.6-14.9-109.6-29.6"/>
			</g>
			<path class="st5" d="M22.2,110.5C33.6,150,53.7,187,80.8,218"/>
		</g>
	</g>
</g>
</svg>
