<?xml version="1.0" encoding="utf-8"?>
<!-- Generator: Adobe Illustrator 21.1.0, SVG Export Plug-In . SVG Version: 6.00 Build 0)  -->
<svg version="1.1" id="Layer_1" xmlns="http://www.w3.org/2000/svg" xmlns:xlink="http://www.w3.org/1999/xlink" x="0px" y="0px"
	 viewBox="0 0 193 204" style="enable-background:new 0 0 193 204;" xml:space="preserve">
	<style type="text/css">
		.st0{fill:url(#SVGID_1_);}
		.st1{fill:url(#SVGID_2_);}
		.st2{fill:url(#SVGID_3_);}
		.st3{fill:url(#SVGID_4_);}
		.st4{fill:url(#SVGID_5_);}
		.st5{fill:url(#SVGID_6_);}
		.st6{fill:url(#SVGID_7_);}
		.st7{fill:url(#SVGID_8_);}
		.st8{fill:url(#SVGID_9_);}
		.st9{fill:url(#SVGID_10_);}
		.mixBlendColorDodge {mix-blend-mode: color-dodge;}
		.mixBlendMultiply {mix-blend-mode: multiply;}
		.mixBlendScreen {mix-blend-mode: screen;}
	</style>
	<g>
		
			<linearGradient id="SVGID_1_" gradientUnits="userSpaceOnUse" x1="126.7418" y1="115.3718" x2="281.5958" y2="115.3718" gradientTransform="matrix(0.9964 -8.418990e-02 8.418985e-02 0.9964 -122.0723 0.9483)">
			<stop  offset="0.1616" style="stop-color:#FFE86B"/>
			<stop  offset="0.2489" style="stop-color:#FFEE6F"/>
			<stop  offset="0.3619" style="stop-color:#FDFE7B"/>
			<stop  offset="0.3682" style="stop-color:#FDFF7C"/>
			<stop  offset="0.4736" style="stop-color:#FFEF7B"/>
			<stop  offset="0.4743" style="stop-color:#FFEF7B"/>
			<stop  offset="0.5407" style="stop-color:#FFD461"/>
			<stop  offset="0.6147" style="stop-color:#FFD864"/>
			<stop  offset="0.7067" style="stop-color:#FDFF82"/>
			<stop  offset="1" style="stop-color:#FFE369"/>
		</linearGradient>
		<path class="st0" d="M146.3,138c10.6-14.9,17.8-32.3,19.8-50.4c5-45.2-24.5-76.8-66-70.7c-24.9,3.7-48.4,20.1-64.4,42.5
			C25.2,74.3,18,91.8,16,109.8c-5,45.1,24.5,76.8,66,70.7C106.9,176.8,130.4,160.4,146.3,138L146.3,138z"/>
		
			<linearGradient id="SVGID_2_" gradientUnits="userSpaceOnUse" x1="-177.5055" y1="438.2502" x2="3.755" y2="438.2502" gradientTransform="matrix(-0.5805 0.8143 -0.8143 -0.5805 399.5677 425.3424)">
			<stop  offset="0" style="stop-color:#E5A601"/>
			<stop  offset="8.330940e-02" style="stop-color:#FDC324"/>
			<stop  offset="0.1516" style="stop-color:#FDD55A"/>
			<stop  offset="0.4069" style="stop-color:#FDF2A3"/>
			<stop  offset="0.421" style="stop-color:#FCEE9D"/>
			<stop  offset="0.4392" style="stop-color:#FBE48D"/>
			<stop  offset="0.4598" style="stop-color:#F8D372"/>
			<stop  offset="0.4821" style="stop-color:#F5BB4D"/>
			<stop  offset="0.5055" style="stop-color:#F19D1E"/>
			<stop  offset="0.518" style="stop-color:#EE8B01"/>
			<stop  offset="0.5625" style="stop-color:#BD4A01"/>
			<stop  offset="0.6087" style="stop-color:#8E4500"/>
			<stop  offset="0.6515" style="stop-color:#E5A002"/>
			<stop  offset="0.6569" style="stop-color:#EAAB16"/>
			<stop  offset="0.6669" style="stop-color:#F2BD37"/>
			<stop  offset="0.6766" style="stop-color:#F8CA4E"/>
			<stop  offset="0.6856" style="stop-color:#FCD25C"/>
			<stop  offset="0.6934" style="stop-color:#FDD561"/>
			<stop  offset="0.7326" style="stop-color:#FDD55F"/>
			<stop  offset="0.7467" style="stop-color:#FDD358"/>
			<stop  offset="0.7568" style="stop-color:#FDD14D"/>
			<stop  offset="0.7649" style="stop-color:#FDCD3C"/>
			<stop  offset="0.7707" style="stop-color:#FDC92A"/>
			<stop  offset="0.7826" style="stop-color:#FAC326"/>
			<stop  offset="0.7985" style="stop-color:#F0B21A"/>
			<stop  offset="0.8167" style="stop-color:#E09606"/>
			<stop  offset="0.8205" style="stop-color:#DC8F01"/>
			<stop  offset="0.8227" style="stop-color:#E29D16"/>
			<stop  offset="0.8267" style="stop-color:#EAB233"/>
			<stop  offset="0.8311" style="stop-color:#F0C34B"/>
			<stop  offset="0.836" style="stop-color:#F6D05E"/>
			<stop  offset="0.8418" style="stop-color:#F9D96B"/>
			<stop  offset="0.8493" style="stop-color:#FBDE73"/>
			<stop  offset="0.8644" style="stop-color:#FCE075"/>
			<stop  offset="0.9367" style="stop-color:#FCE27D"/>
			<stop  offset="1" style="stop-color:#FCD74B"/>
		</linearGradient>
		<path class="st1" d="M40.1,173.7l12.2,8.6l1.1-1.6c9,3.3,19.3,4.3,30.5,2.7c25.3-3.7,49.3-20.5,65.5-43.2
			c10.8-15.1,18.1-32.9,20.2-51.3c2.4-21.3-2.8-39.6-13.3-52.5l1.2-1.6l-11.7-8.3l0,0c-11.5-8.2-26.5-11.9-43.3-9.4
			c-25.3,3.7-49.3,20.5-65.5,43.2c-10.8,15.1-18.1,32.9-20.2,51.3C13.7,138.8,23.1,161.3,40.1,173.7L40.1,173.7z"/>
		
			<linearGradient id="SVGID_3_" gradientUnits="userSpaceOnUse" x1="138.2633" y1="126.3083" x2="295.8525" y2="126.3083" gradientTransform="matrix(0.9964 -8.418990e-02 8.418985e-02 0.9964 -122.0723 0.9483)">
			<stop  offset="0.1616" style="stop-color:#FDF6C5"/>
			<stop  offset="0.1989" style="stop-color:#FDF4BF"/>
			<stop  offset="0.2472" style="stop-color:#FCEEAF"/>
			<stop  offset="0.3017" style="stop-color:#FCE494"/>
			<stop  offset="0.3607" style="stop-color:#FBD66F"/>
			<stop  offset="0.4226" style="stop-color:#FAC440"/>
			<stop  offset="0.469" style="stop-color:#F9B517"/>
			<stop  offset="0.5531" style="stop-color:#AA5C06"/>
			<stop  offset="0.5826" style="stop-color:#8D3B00"/>
			<stop  offset="0.6342" style="stop-color:#8F3F01"/>
			<stop  offset="0.6767" style="stop-color:#D08C14"/>
			<stop  offset="0.7035" style="stop-color:#FABF20"/>
			<stop  offset="0.8149" style="stop-color:#E19605"/>
			<stop  offset="0.8202" style="stop-color:#E5A113"/>
			<stop  offset="0.8332" style="stop-color:#EDB630"/>
			<stop  offset="0.8469" style="stop-color:#F4C747"/>
			<stop  offset="0.8618" style="stop-color:#F8D357"/>
			<stop  offset="0.8784" style="stop-color:#FBDA61"/>
			<stop  offset="0.9005" style="stop-color:#FCDC64"/>
			<stop  offset="1" style="stop-color:#FAC442"/>
		</linearGradient>
		<path class="st2" d="M161.1,148.5c10.8-15.1,18.1-32.9,20.2-51.3c5.1-46-25-78.2-67.2-71.9c-25.3,3.7-49.3,20.5-65.5,43.2
			c-10.8,15.1-18.1,32.9-20.2,51.3c-5.1,45.9,25,78.2,67.2,71.9C120.9,188,144.9,171.3,161.1,148.5L161.1,148.5z"/>
		
			<linearGradient id="SVGID_4_" gradientUnits="userSpaceOnUse" x1="158.3437" y1="129.4526" x2="283.1729" y2="129.4526" gradientTransform="matrix(0.9964 -8.418990e-02 8.418985e-02 0.9964 -122.0723 0.9483)">
			<stop  offset="0.1616" style="stop-color:#C87600"/>
			<stop  offset="0.2493" style="stop-color:#C27000"/>
			<stop  offset="0.3631" style="stop-color:#B26000"/>
			<stop  offset="0.4907" style="stop-color:#984500"/>
			<stop  offset="0.5407" style="stop-color:#8C3900"/>
			<stop  offset="0.6147" style="stop-color:#8F3F01"/>
			<stop  offset="0.7067" style="stop-color:#FCB900"/>
			<stop  offset="1" style="stop-color:#8C4E01"/>
		</linearGradient>
		<path class="st3" d="M153.3,143c8.5-12,14.4-26.1,16-40.6c4-36.4-19.8-61.9-53.2-57c-20.1,3-39,16.2-51.9,34.2
			c-8.5,12-14.4,26.1-16,40.6c-4,36.4,19.8,61.9,53.2,57C121.5,174.3,140.5,161,153.3,143L153.3,143z"/>
		
			<radialGradient id="SVGID_5_" cx="-31.6563" cy="1203.1869" r="11.6279" gradientTransform="matrix(5.3924 -0.4556 0.4556 5.3924 -272.6242 -6393.9814)" gradientUnits="userSpaceOnUse">
			<stop  offset="0" style="stop-color:#FCDC6D"/>
			<stop  offset="0.7075" style="stop-color:#F3B736"/>
			<stop  offset="0.871" style="stop-color:#FFBF29"/>
			<stop  offset="1" style="stop-color:#FFB21F"/>
		</radialGradient>
		<path class="st4" d="M148.8,139.8c8.4-11.8,14.2-25.7,15.8-40.1c4-35.9-19.5-61.1-52.5-56.2c-19.8,2.9-38.5,16-51.2,33.8
			c-8.4,11.8-14.2,25.7-15.8,40.1c-4,35.9,19.5,61.1,52.5,56.2C117.4,170.6,136.1,157.5,148.8,139.8L148.8,139.8z"/>
		
			<linearGradient id="SVGID_6_" gradientUnits="userSpaceOnUse" x1="144.8076" y1="167.1776" x2="292.026" y2="89.2976" gradientTransform="matrix(0.9964 -8.418990e-02 8.418985e-02 0.9964 -122.0723 0.9483)">
			<stop  offset="0" style="stop-color:#FDD966"/>
			<stop  offset="0.4069" style="stop-color:#FDED7E"/>
			<stop  offset="0.4591" style="stop-color:#FDEB78"/>
			<stop  offset="0.5269" style="stop-color:#FDE568"/>
			<stop  offset="0.6032" style="stop-color:#FDDB4D"/>
			<stop  offset="0.6853" style="stop-color:#FDCD28"/>
			<stop  offset="0.7531" style="stop-color:#FDC004"/>
			<stop  offset="0.8478" style="stop-color:#FFDE2E"/>
			<stop  offset="0.9209" style="stop-color:#FFA611"/>
		</linearGradient>
		<path class="st5" d="M63,78.8C75.6,61,94.3,47.9,114.1,45c33-4.9,56.5,20.3,52.5,56.2c-1.6,14.3-7.3,28.2-15.8,40.1
			c-12.7,17.8-31.4,30.8-51.2,33.7c-33,4.9-56.4-20.3-52.5-56.2C48.8,104.5,54.5,90.6,63,78.8L63,78.8z M162.6,149.6
			c10.7-15,18-32.6,20-50.7c5.1-45.5-24.7-77.4-66.5-71.2C91,31.4,67.3,47.9,51.2,70.4c-10.7,15-18,32.6-20,50.7
			c-5.1,45.5,24.7,77.4,66.5,71.2C122.8,188.6,146.5,172.1,162.6,149.6L162.6,149.6z"/>
		
			<linearGradient id="SVGID_7_" gradientUnits="userSpaceOnUse" x1="-134.3535" y1="470.0077" x2="-96.5893" y2="431.1645" gradientTransform="matrix(-0.5805 0.8143 -0.8143 -0.5805 399.5677 425.3424)">
			<stop  offset="0" style="stop-color:#A8A8A8"/>
			<stop  offset="0.9972" style="stop-color:#000000"/>
		</linearGradient>
		<path class="st6 mixBlendScreen" d="M46.8,126.1c0-2.4,0.1-4.8,0.4-7.3c1.6-14.3,7.3-28.2,15.8-40.1C75.6,61,94.3,47.9,114.1,45
			c31.1-4.6,53.8,17.6,52.9,50.3c5.6,1.9,10.7,4.1,15.2,6.2c0.1-0.9,0.2-1.7,0.3-2.6c5.1-45.5-24.7-77.4-66.5-71.2
			C91,31.4,67.3,47.9,51.2,70.4c-10.7,15-18,32.6-20,50.7c-0.7,6.3-0.7,12.3-0.1,18C36.1,134.9,41.3,130.5,46.8,126.1z"/>
		
			<linearGradient id="SVGID_8_" gradientUnits="userSpaceOnUse" x1="-87.4196" y1="357.8795" x2="-87.4196" y2="488.5398" gradientTransform="matrix(-0.5805 0.8143 -0.8143 -0.5805 399.5677 425.3424)">
			<stop  offset="0.1616" style="stop-color:#BE7100"/>
			<stop  offset="0.2541" style="stop-color:#B96B00"/>
			<stop  offset="0.374" style="stop-color:#AA5B00"/>
			<stop  offset="0.5085" style="stop-color:#934000"/>
			<stop  offset="0.5407" style="stop-color:#8C3900"/>
			<stop  offset="0.6147" style="stop-color:#8F3F01"/>
			<stop  offset="0.7067" style="stop-color:#A25500"/>
			<stop  offset="1" style="stop-color:#8C4E01"/>
		</linearGradient>
		<path class="st7" d="M75.3,147.9l11.5-1.7l0.5-4.4c0.9,0.5,2,1,3.4,1.5c1.4,0.5,2.9,0.9,4.7,1.2l-1.3,11.8l1.9,1.4l1.7-1.6l0-0.3
			l7.7-1.1l1.1-10.2c3.4-0.5,6.6-1.5,9.8-2.9c3.2-1.5,6-3.3,8.6-5.4c1.8-1.6,3.5-3.3,4.9-5.3c0.5-0.7,1-1.5,1.5-2.3
			c1.7-2.9,2.7-6,3.1-9.6c0.5-4.7,0.1-8.4-1.4-11.1c-1.5-2.6-3.4-4.7-5.8-6.1c-2.4-1.4-5.1-2.3-8-2.8c-3-0.5-5.7-0.9-8.2-1.3
			c-2.5-0.4-4.6-0.9-6.2-1.7c-1.6-0.7-2.4-2-2.2-3.7c0.1-0.7,0.4-1.3,0.8-2c0.3-0.4,0.6-0.8,1-1.2c1.1-1.1,2.8-1.8,5-2.1
			c3.2-0.5,6,0.2,8.3,1.9c2.3,1.8,3.7,4.5,4.1,8.2l1.9,1.4l1.1-1.8l11.5-1.7l2.3-20.9l2.5-4.1l-1.9-1.4l-14.6,2.1l-0.5,4.3
			c-3.3-1.6-6.5-2.6-9.7-3l0.9-7.7l2.3-1.9l-1.9-1.4l-11.4,1.7l-1.1,10c-3.4,0.7-6.6,1.6-9.8,3c-3.2,1.3-6,3-8.5,5.1
			c-1.9,1.6-3.5,3.3-4.9,5.3c-0.5,0.7-0.9,1.4-1.4,2.1c-1.6,2.8-2.7,6-3.1,9.6c-0.5,4.8-0.1,8.6,1.4,11.3c1.5,2.7,3.4,4.8,5.8,6.2
			c2.4,1.4,5.2,2.4,8.2,2.8c3,0.5,5.8,0.9,8.4,1.3c2.5,0.4,4.7,0.9,6.4,1.6c1.7,0.6,2.5,1.8,2.3,3.6c-0.1,0.8-0.4,1.6-0.8,2.2
			c-0.3,0.5-0.8,0.9-1.3,1.3c-1.3,0.9-2.8,1.5-4.7,1.8c-1.5,0.2-2.9,0.1-4.3-0.2c-1.4-0.4-2.6-1-3.7-1.8c-1.1-0.8-1.9-1.9-2.6-3.2
			c-0.2-0.4-0.4-0.9-0.6-1.3l1.4-1.7l-1.9-1.4l-14.7,2.2L72,148.3l1.9,1.4L75.3,147.9z"/>
		
			<linearGradient id="SVGID_9_" gradientUnits="userSpaceOnUse" x1="-87.4197" y1="355.5348" x2="-87.4197" y2="486.1951" gradientTransform="matrix(-0.5805 0.8143 -0.8143 -0.5805 399.5677 425.3424)">
			<stop  offset="0" style="stop-color:#FCE28A"/>
			<stop  offset="0.4069" style="stop-color:#FDF2A3"/>
			<stop  offset="0.462" style="stop-color:#FDF09D"/>
			<stop  offset="0.5336" style="stop-color:#FDEB8D"/>
			<stop  offset="0.6143" style="stop-color:#FDE172"/>
			<stop  offset="0.7009" style="stop-color:#FDD54D"/>
			<stop  offset="0.7707" style="stop-color:#FDC92A"/>
			<stop  offset="0.8644" style="stop-color:#FCE075"/>
			<stop  offset="0.9367" style="stop-color:#FCE27D"/>
		</linearGradient>
		<path class="st8" d="M131.7,132.1c0.5-0.7,1-1.5,1.5-2.3c1.7-2.9,2.7-6.1,3.1-9.6c0.5-4.7,0.1-8.4-1.4-11.1
			c-1.4-2.6-3.4-4.7-5.8-6.1c-2.4-1.4-5.1-2.3-8-2.8c-3-0.5-5.7-0.9-8.2-1.3c-2.5-0.4-4.6-0.9-6.2-1.7c-1.6-0.7-2.4-2-2.2-3.7
			c0.1-0.7,0.4-1.3,0.8-2c0.3-0.4,0.6-0.8,1-1.2c1.1-1.1,2.8-1.8,5-2.1c3.2-0.5,6,0.2,8.3,1.9c2.3,1.8,3.7,4.5,4.1,8.2l14.6-2.1
			l2.9-26.3l-14.6,2.1l-0.5,4.3c-3.3-1.6-6.5-2.6-9.7-3l1.2-11l-11.4,1.7l-1.1,10c-3.4,0.7-6.6,1.6-9.8,3c-3.2,1.3-6,3-8.5,5.1
			c-1.9,1.6-3.5,3.3-4.9,5.3c-0.5,0.7-0.9,1.4-1.4,2.1c-1.6,2.8-2.7,6-3.1,9.6c-0.5,4.8-0.1,8.6,1.4,11.3c1.5,2.7,3.4,4.8,5.8,6.2
			c2.4,1.4,5.2,2.4,8.2,2.8c3,0.5,5.8,0.9,8.4,1.3c2.5,0.4,4.7,0.9,6.4,1.6c1.7,0.6,2.5,1.8,2.3,3.6c-0.1,0.8-0.4,1.6-0.8,2.2
			c-0.3,0.5-0.8,0.9-1.3,1.3c-1.3,0.9-2.8,1.5-4.7,1.8c-1.5,0.2-2.9,0.1-4.3-0.2c-1.4-0.4-2.6-1-3.7-1.8c-1.1-0.8-1.9-1.9-2.6-3.2
			c-0.7-1.3-1.1-2.7-1.1-4.4L76.8,124l-2.9,25.7l14.7-2.2l0.5-4.4c0.9,0.5,2,1,3.4,1.5c1.4,0.5,2.9,0.9,4.7,1.2L96,157.6l11.4-1.7
			l1.1-10.2c3.4-0.5,6.6-1.5,9.8-2.9c3.2-1.5,6-3.3,8.6-5.4C128.7,135.8,130.3,134,131.7,132.1L131.7,132.1z"/>
		
			<linearGradient id="SVGID_10_" gradientUnits="userSpaceOnUse" x1="-119.9984" y1="444.1956" x2="-101.6559" y2="428.011" gradientTransform="matrix(-0.5805 0.8143 -0.8143 -0.5805 399.5677 425.3424)">
			<stop  offset="0" style="stop-color:#A8A8A8"/>
			<stop  offset="0.9972" style="stop-color:#000000"/>
		</linearGradient>
		<path class="st9 mixBlendScreen" d="M105.3,91.6c0.3-0.4,0.6-0.8,1-1.2c1.1-1.1,2.8-1.8,5-2.1c2.3-0.3,4.5-0.1,6.3,0.8c7.3-0.9,14.5-0.8,21.5-0.1
			l2.1-19l-14.6,2.1l-0.5,4.3c-3.3-1.6-6.5-2.6-9.7-3l1.2-11l-11.4,1.7l-1.1,10c-3.4,0.7-6.6,1.6-9.8,3c-3.2,1.3-6,3-8.5,5.1
			c-1.9,1.6-3.5,3.3-4.9,5.3c-0.5,0.7-0.9,1.4-1.4,2.1c-1.6,2.8-2.7,6-3.1,9.6c-0.2,1.9-0.3,3.7-0.2,5.3
			C87,98.7,96.5,94.1,105.3,91.6z"/>
	</g>
</svg>
