<?xml version="1.0" encoding="utf-8"?>
<!-- Generator: Adobe Illustrator 21.1.0, SVG Export Plug-In . SVG Version: 6.00 Build 0)  -->
<svg version="1.1" id="Layer_1" xmlns="http://www.w3.org/2000/svg" xmlns:xlink="http://www.w3.org/1999/xlink" x="0px" y="0px"
	 viewBox="0 0 157 135" style="enable-background:new 0 0 157 135;" xml:space="preserve">
<style type="text/css">
	.st0{fill:url(#SVGID_1_);}
	.st1{fill:url(#SVGID_2_);}
	.st2{fill:url(#SVGID_3_);}
	.st3{fill:url(#SVGID_4_);}
	.st4{fill:url(#SVGID_5_);}
	.st5{fill:url(#SVGID_6_);}
	.st6{fill:url(#SVGID_7_);}
	.st7{fill:url(#SVGID_8_);}
	.st8{fill:url(#SVGID_9_);}
				.mixBlendColorDodge {mix-blend-mode: color-dodge;}
		.mixBlendMultiply {mix-blend-mode: multiply;}
		.mixBlendScreen {mix-blend-mode: screen;}
</style>
<g>
	
		<linearGradient id="SVGID_1_" gradientUnits="userSpaceOnUse" x1="-139.3438" y1="-2014.967" x2="-39.331" y2="-2014.967" gradientTransform="matrix(-0.784 0.6207 -0.6207 -0.784 -1249.8519 -1464.5795)">
		<stop  offset="0.1616" style="stop-color:#FDF6C5"/>
		<stop  offset="0.1989" style="stop-color:#FDF4BF"/>
		<stop  offset="0.2472" style="stop-color:#FCEEAF"/>
		<stop  offset="0.3017" style="stop-color:#FCE494"/>
		<stop  offset="0.3607" style="stop-color:#FBD66F"/>
		<stop  offset="0.4226" style="stop-color:#FAC440"/>
		<stop  offset="0.469" style="stop-color:#F9B517"/>
		<stop  offset="0.5355" style="stop-color:#AA5C06"/>
		<stop  offset="0.5588" style="stop-color:#8D3B00"/>
		<stop  offset="0.6146" style="stop-color:#8F3F01"/>
		<stop  offset="0.644" style="stop-color:#D08C14"/>
		<stop  offset="0.6625" style="stop-color:#FABF20"/>
		<stop  offset="0.8107" style="stop-color:#E19605"/>
		<stop  offset="0.8162" style="stop-color:#E5A113"/>
		<stop  offset="0.8298" style="stop-color:#EDB630"/>
		<stop  offset="0.8443" style="stop-color:#F4C747"/>
		<stop  offset="0.8598" style="stop-color:#F8D357"/>
		<stop  offset="0.8773" style="stop-color:#FBDA61"/>
		<stop  offset="0.9005" style="stop-color:#FCDC64"/>
		<stop  offset="1" style="stop-color:#FAC442"/>
	</linearGradient>
	<path class="st0" d="M31.2,89.1L31.2,89.1l1.2,3.3l1.3-1c3.9,1.2,11.6-1,22.3-6.7c16.1-8.7,33.9-22.9,45-35.4
		c3.1-3.5,5.7-6.9,7.6-10c2.3-3.9,3.3-6.8,3-8.9l1-0.8l-2.6-1.7l0,0c-3.4-2.1-11.6-0.1-23.4,6.2c-16.1,8.7-33.9,22.9-45,35.4
		c-3.1,3.5-5.7,6.9-7.6,10C31.4,83.9,30.5,87.1,31.2,89.1L31.2,89.1L31.2,89.1z"/>
	
		<linearGradient id="SVGID_2_" gradientUnits="userSpaceOnUse" x1="-140.8896" y1="-2018.6479" x2="-38.9234" y2="-2018.6479" gradientTransform="matrix(-0.784 0.6207 -0.6207 -0.784 -1249.8519 -1464.5795)">
		<stop  offset="0" style="stop-color:#E5A601"/>
		<stop  offset="8.330940e-02" style="stop-color:#FDC324"/>
		<stop  offset="0.1516" style="stop-color:#FDD55A"/>
		<stop  offset="0.4069" style="stop-color:#FDF2A3"/>
		<stop  offset="0.421" style="stop-color:#FCEE9D"/>
		<stop  offset="0.4392" style="stop-color:#FBE48D"/>
		<stop  offset="0.4598" style="stop-color:#F8D372"/>
		<stop  offset="0.4821" style="stop-color:#F5BB4D"/>
		<stop  offset="0.5055" style="stop-color:#F19D1E"/>
		<stop  offset="0.518" style="stop-color:#EE8B01"/>
		<stop  offset="0.5625" style="stop-color:#BD4A01"/>
		<stop  offset="0.6087" style="stop-color:#8E4500"/>
		<stop  offset="0.6515" style="stop-color:#E5A002"/>
		<stop  offset="0.6569" style="stop-color:#EAAB16"/>
		<stop  offset="0.6669" style="stop-color:#F2BD37"/>
		<stop  offset="0.6766" style="stop-color:#F8CA4E"/>
		<stop  offset="0.6856" style="stop-color:#FCD25C"/>
		<stop  offset="0.6934" style="stop-color:#FDD561"/>
		<stop  offset="0.7326" style="stop-color:#FDD55F"/>
		<stop  offset="0.7467" style="stop-color:#FDD358"/>
		<stop  offset="0.7568" style="stop-color:#FDD14D"/>
		<stop  offset="0.7649" style="stop-color:#FDCD3C"/>
		<stop  offset="0.7707" style="stop-color:#FDC92A"/>
		<stop  offset="0.7826" style="stop-color:#FAC326"/>
		<stop  offset="0.7985" style="stop-color:#F0B21A"/>
		<stop  offset="0.8167" style="stop-color:#E09606"/>
		<stop  offset="0.8205" style="stop-color:#DC8F01"/>
		<stop  offset="0.8227" style="stop-color:#E29D16"/>
		<stop  offset="0.8267" style="stop-color:#EAB233"/>
		<stop  offset="0.8311" style="stop-color:#F0C34B"/>
		<stop  offset="0.836" style="stop-color:#F6D05E"/>
		<stop  offset="0.8418" style="stop-color:#F9D96B"/>
		<stop  offset="0.8493" style="stop-color:#FBDE73"/>
		<stop  offset="0.8644" style="stop-color:#FCE075"/>
		<stop  offset="0.9367" style="stop-color:#FCE27D"/>
		<stop  offset="1" style="stop-color:#FCD74B"/>
	</linearGradient>
	<path class="st1" d="M40.2,102.2l14.2-11c1.4-0.7,2.9-1.4,4.5-2.3c16.4-8.8,34.5-23.3,45.8-36c0.7-0.8,1.4-1.6,2-2.3l14.1-10.9
		l-7.6-9.6l0,0c-2.6-3.3-11.5-1.6-24.7,5.5c-16.4,8.8-34.5,23.3-45.8,36c-3.2,3.6-5.8,7-7.7,10.2c-3.2,5.3-3.8,9-2.2,10.9l0,0
		L40.2,102.2z"/>
	
		<linearGradient id="SVGID_3_" gradientUnits="userSpaceOnUse" x1="-141.902" y1="-2029.6267" x2="-37.6763" y2="-2029.6267" gradientTransform="matrix(-0.784 0.6207 -0.6207 -0.784 -1249.8519 -1464.5795)">
		<stop  offset="0.1616" style="stop-color:#D67F01"/>
		<stop  offset="0.2104" style="stop-color:#D98503"/>
		<stop  offset="0.2737" style="stop-color:#E1950A"/>
		<stop  offset="0.3447" style="stop-color:#EFB014"/>
		<stop  offset="0.3682" style="stop-color:#F4BA18"/>
		<stop  offset="0.4303" style="stop-color:#F2AA1A"/>
		<stop  offset="0.4743" style="stop-color:#F09C1B"/>
		<stop  offset="0.5407" style="stop-color:#8C3900"/>
		<stop  offset="0.6147" style="stop-color:#8F3F01"/>
		<stop  offset="0.7067" style="stop-color:#FCB900"/>
		<stop  offset="0.7559" style="stop-color:#F6B200"/>
		<stop  offset="0.8301" style="stop-color:#E49D00"/>
		<stop  offset="0.9195" style="stop-color:#C67B01"/>
		<stop  offset="1" style="stop-color:#A75701"/>
	</linearGradient>
	<path class="st2" d="M40.8,102.8L40.8,102.8L40.8,102.8c0.4,0.3,0.7,0.4,1.1,0.6l1.3,0.7l0.4-0.3c4.3,0.4,11.6-1.9,21.3-7.1
		c16.4-8.8,34.5-23.3,45.8-36c3.2-3.6,5.8-7,7.7-10.2c1.9-3.1,2.8-5.6,3-7.5l0.3-0.2l-0.3-1.2c0-0.3-0.1-0.6-0.2-0.9l0,0l0,0
		c-1.7-4.4-10.9-3.1-25.2,4.6c-16.4,8.8-34.5,23.3-45.8,36c-3.2,3.6-5.8,7-7.7,10.2C38.9,97.3,38.6,101.1,40.8,102.8z"/>
	
		<linearGradient id="SVGID_4_" gradientUnits="userSpaceOnUse" x1="-129.0357" y1="-2031.1478" x2="-51.6421" y2="-2031.1478" gradientTransform="matrix(-0.784 0.6207 -0.6207 -0.784 -1249.8519 -1464.5795)">
		<stop  offset="0.1616" style="stop-color:#C87600"/>
		<stop  offset="0.2245" style="stop-color:#C27000"/>
		<stop  offset="0.3061" style="stop-color:#B26000"/>
		<stop  offset="0.3976" style="stop-color:#984500"/>
		<stop  offset="0.4334" style="stop-color:#8C3900"/>
		<stop  offset="0.6147" style="stop-color:#8F3F01"/>
		<stop  offset="1" style="stop-color:#AB4B00"/>
	</linearGradient>
	<path class="st3" d="M46.9,99.4c-3.7-4.7,8.7-20.6,27.7-35.6c19-15,37.3-23.4,41-18.7c3.7,4.7-8.7,20.6-27.7,35.6
		C69,95.6,50.6,104,46.9,99.4z"/>
	
		<radialGradient id="SVGID_5_" cx="712.2646" cy="13762.1709" r="7.1714" gradientTransform="matrix(-4.2429 3.3591 -0.8178 -1.0339 14357.5645 11907.7822)" gradientUnits="userSpaceOnUse">
		<stop  offset="0" style="stop-color:#C88F0F"/>
		<stop  offset="1" style="stop-color:#B16805"/>
	</radialGradient>
	<path class="st4" d="M49.7,95.7c-3.3-4.2,7.8-18.5,24.9-32c17.1-13.5,33.6-21,36.9-16.8c3.3,4.2-7.8,18.5-24.9,32
		C69.6,92.4,53.1,99.9,49.7,95.7z"/>
	
		<radialGradient id="SVGID_6_" cx="708.8456" cy="8633.5283" r="7.651" gradientTransform="matrix(-4.2429 3.3591 -1.0688 -1.3494 12318.8086 9344.5488)" gradientUnits="userSpaceOnUse">
		<stop  offset="0" style="stop-color:#FFFFFF"/>
		<stop  offset="0.4002" style="stop-color:#FFFFFF"/>
		<stop  offset="0.4661" style="stop-color:#FFFFFF"/>
		<stop  offset="0.6609" style="stop-color:#FEFEFD"/>
		<stop  offset="0.733" style="stop-color:#FCFAF6"/>
		<stop  offset="0.7846" style="stop-color:#F8F2EA"/>
		<stop  offset="0.8266" style="stop-color:#F3E7D9"/>
		<stop  offset="0.8626" style="stop-color:#EBDAC3"/>
		<stop  offset="0.8946" style="stop-color:#E2C8A8"/>
		<stop  offset="0.9236" style="stop-color:#D7B487"/>
		<stop  offset="0.9502" style="stop-color:#CB9C61"/>
		<stop  offset="0.9751" style="stop-color:#BC8136"/>
		<stop  offset="0.9972" style="stop-color:#AD6407"/>
		<stop  offset="1" style="stop-color:#AB6001"/>
	</radialGradient>
	<path class="st5 mixBlendMultiply" d="M49.7,95.7c-3.3-4.2,7.8-18.5,24.9-32c17.1-13.5,33.6-21,36.9-16.8c3.3,4.2-7.8,18.5-24.9,32
		C69.6,92.4,53.1,99.9,49.7,95.7z"/>
	
		<linearGradient id="SVGID_7_" gradientUnits="userSpaceOnUse" x1="193.7779" y1="131.2469" x2="193.7779" y2="61.7719" gradientTransform="matrix(0.9964 -8.418990e-02 8.418985e-02 0.9964 -119.0283 -0.8668)">
		<stop  offset="0" style="stop-color:#E09110"/>
		<stop  offset="0.4437" style="stop-color:#E08800"/>
		<stop  offset="1" style="stop-color:#AB5300"/>
	</linearGradient>
	<path class="st6" d="M58.2,80.4c8.8-9.8,22.8-21.1,35.5-27.9c16.3-8.8,24.1-7,17.4,4.1c-1.5,2.4-3.5,5.1-6,7.9
		c-8.8,9.8-22.9,21.1-35.5,27.9c-16.3,8.8-24.1,7-17.4-4.1C53.6,85.8,55.7,83.2,58.2,80.4L58.2,80.4z M111.4,62.2
		c3.1-3.5,5.7-6.9,7.6-10c8.4-14-1.4-16.3-22-5.1c-16.1,8.7-33.9,22.9-45,35.4c-3.1,3.5-5.7,6.9-7.6,10c-8.4,13.9,1.4,16.2,22,5.1
		C82.4,89,100.3,74.7,111.4,62.2L111.4,62.2z"/>
	
		<linearGradient id="SVGID_8_" gradientUnits="userSpaceOnUse" x1="-1602.8301" y1="-2030.9199" x2="-1551.2452" y2="-2030.9199" gradientTransform="matrix(-0.784 0.6207 -0.6207 -0.784 -2415.9084 -541.6161)">
		<stop  offset="1.473460e-02" style="stop-color:#8E3900"/>
		<stop  offset="6.083851e-02" style="stop-color:#934100"/>
		<stop  offset="0.1342" style="stop-color:#A15900"/>
		<stop  offset="0.1616" style="stop-color:#A76300"/>
		<stop  offset="0.272" style="stop-color:#A35D00"/>
		<stop  offset="0.4149" style="stop-color:#994D00"/>
		<stop  offset="0.5407" style="stop-color:#8C3900"/>
		<stop  offset="0.6147" style="stop-color:#8F3F01"/>
		<stop  offset="0.7067" style="stop-color:#A25500"/>
		<stop  offset="1" style="stop-color:#8C4E01"/>
	</linearGradient>
	<path class="st7" d="M60.9,84.1l2.5-1.3c-0.6,1.1-1,2-1.2,2.8c-0.2,0.8-0.2,1.4,0.2,1.7l0.7,0.8l0.4-0.5c0.2,0,0.5,0,0.8-0.1
		c0.9-0.2,2.2-0.7,3.8-1.6c2.2-1.2,4.1-2.4,5.9-3.8c1.7-1.3,3.2-2.7,4.6-4c1-0.9,1.8-1.9,2.6-2.8c0.3-0.4,0.7-0.8,1-1.1
		c1.1-1.3,2-2.5,2.9-3.5c0.5-0.6,1-1.2,1.5-1.8c0.3-0.4,0.7-0.8,1-1.1c0.8-0.8,1.6-1.5,2.4-1.9c0.7-0.4,1-0.4,1.1-0.2
		c0.1,0.2,0,0.6-0.4,1.2c-0.3,0.5-0.7,1-1.3,1.7c-0.6,0.6-1.2,1.3-1.9,1.9c-0.7,0.6-1.4,1.3-2.2,1.9c-0.8,0.6-1.6,1.2-2.4,1.7
		l-3,4.9l0.7,0.8l1.4-2l9.6-5.2l1.8-3l1.8-1L94.4,68l-2,1.1c0.5-0.5,1-1.1,1.7-1.7c0.3-0.3,0.6-0.6,0.8-0.9c0.3-0.4,0.7-0.8,1-1.2
		l5.3-2.9l1-1.7l1.9-1.2l-0.7-0.8L98.9,61c0.7-1.1,1.1-2.1,1.3-2.9c0.2-0.8,0.1-1.3-0.3-1.7c-0.4-0.3-1-0.4-1.9-0.2
		c-0.9,0.2-2.2,0.7-3.8,1.6c-2.2,1.2-4.1,2.4-5.7,3.7c-1.7,1.3-3.2,2.6-4.5,3.9c-1,0.9-1.8,1.9-2.7,2.8c-0.3,0.4-0.6,0.7-0.9,1.1
		c-1,1.3-2,2.4-2.9,3.5c-0.4,0.5-0.9,1-1.3,1.5c-0.4,0.5-0.8,0.9-1.2,1.3c-0.8,0.8-1.6,1.4-2.4,1.9c-0.5,0.3-0.8,0.3-1,0.2
		c-0.2-0.1-0.1-0.6,0.4-1.3c0.3-0.6,0.8-1.2,1.4-1.9c0.5-0.6,1.1-1.2,1.8-1.8c1.5-1.4,3.2-2.7,5.1-3.9l1.6-2.6l2.1-1.5L83.2,64
		l-11.9,6.4l-2.9,4.9l0.4,0.5c-0.4,0.5-0.8,0.9-1.2,1.3c-0.5,0.6-1,1.1-1.4,1.6l-5,2.7l-2.3,3.8l0.7,0.8L60.9,84.1z"/>
	<g>
		
			<linearGradient id="SVGID_9_" gradientUnits="userSpaceOnUse" x1="-1577.0378" y1="-2040.6898" x2="-1577.0378" y2="-2019.8063" gradientTransform="matrix(-0.784 0.6207 -0.6207 -0.784 -2415.9084 -541.6161)">
			<stop  offset="0" style="stop-color:#EAA210"/>
			<stop  offset="0.4069" style="stop-color:#FDC301"/>
			<stop  offset="0.5144" style="stop-color:#FABD01"/>
			<stop  offset="0.6537" style="stop-color:#F3AD00"/>
			<stop  offset="0.7707" style="stop-color:#EA9A00"/>
			<stop  offset="1" style="stop-color:#B46501"/>
		</linearGradient>
		<path class="st8" d="M101.9,63.2l2.3-3.8l-4.6,2.5c0.7-1.1,1.1-2.1,1.3-2.9c0.2-0.8,0.1-1.3-0.3-1.7c-0.4-0.3-1-0.4-1.9-0.2
			c-0.9,0.2-2.2,0.7-3.8,1.6c-2.2,1.2-4.1,2.4-5.7,3.7c-1.7,1.3-3.2,2.6-4.5,3.9c-1,0.9-1.8,1.9-2.7,2.8c-0.3,0.4-0.6,0.7-0.9,1.1
			c-1,1.3-2,2.4-2.9,3.5c-0.4,0.5-0.9,1-1.3,1.5c-0.4,0.5-0.8,0.9-1.2,1.3c-0.8,0.8-1.6,1.4-2.4,1.9c-0.5,0.3-0.8,0.3-1,0.2
			c-0.2-0.1-0.1-0.5,0.4-1.3c0.3-0.6,0.8-1.2,1.4-1.9c0.5-0.6,1.1-1.2,1.8-1.8c1.5-1.4,3.2-2.7,5.1-3.9l2.9-4.9l-11.9,6.4L69,76.1
			l1.9-1c-1,1-1.9,2-2.7,2.9c-0.5,0.6-1,1.1-1.4,1.6l-5,2.7L59.5,86l4.5-2.4c-0.6,1.1-1,2-1.2,2.8c-0.2,0.8-0.2,1.4,0.1,1.7
			c0.3,0.4,0.9,0.4,1.8,0.3c0.9-0.2,2.2-0.7,3.8-1.6c2.2-1.2,4.1-2.4,5.9-3.8c1.7-1.3,3.2-2.6,4.6-4c0.9-0.9,1.8-1.9,2.6-2.8
			c0.3-0.4,0.7-0.8,1-1.1c1.1-1.3,2-2.5,2.9-3.5c0.5-0.6,1-1.2,1.5-1.8c0.3-0.4,0.7-0.8,1-1.1c0.8-0.8,1.6-1.5,2.4-1.9
			c0.7-0.3,1-0.4,1.1-0.2c0.1,0.2,0,0.6-0.4,1.2c-0.3,0.5-0.7,1-1.3,1.7c-0.6,0.6-1.2,1.3-1.9,1.9c-0.7,0.6-1.4,1.3-2.2,1.9
			c-0.8,0.6-1.6,1.2-2.4,1.7l-3,4.9l11.7-6.3l3-4.9l-2,1.1c0.5-0.5,1-1.1,1.7-1.7c0.3-0.3,0.6-0.6,0.8-0.9c0.3-0.4,0.7-0.8,1-1.2
			L101.9,63.2L101.9,63.2z"/>
	</g>
</g>
</svg>
