<?xml version="1.0" encoding="utf-8"?>
<!-- Generator: Adobe Illustrator 21.1.0, SVG Export Plug-In . SVG Version: 6.00 Build 0)  -->
<svg version="1.1" id="Layer_1" xmlns="http://www.w3.org/2000/svg" xmlns:xlink="http://www.w3.org/1999/xlink" x="0px" y="0px"
	 viewBox="0 0 1399 1199" style="enable-background:new 0 0 1399 1199;" xml:space="preserve">
<style type="text/css">
	.st0{fill:#14162A;}
	.st1{fill:#222543;}
	.st2{opacity:0.7;}
	.st3{opacity:0.8;}
	.st4{fill:#E7E7E7;}
	.st5{fill:#222539;}
	.st6{fill:#1B1C32;}
	.st7{fill:url(#SVGID_1_);}
	.st8{fill:#E2E2E2;}
	.st9{fill:#EAEAEA;}
	.st10{opacity:0.9;}
	.st11{opacity:0.5;}
	.st12{fill:#181933;}
	.st13{fill:url(#SVGID_2_);}
	.st14{fill:#373A5B;}
	.st15{enable-background:new    ;}
	.st16{fill:#333654;}
	.st17{fill:#0B0E23;}
	.st18{fill:url(#SVGID_3_);}
	.st19{fill:#FFFFFF;}
	.st20{fill:#E1E1E1;}
	.st21{fill:url(#SVGID_4_);}
	.st22{fill:url(#SVGID_5_);}
	.st23{fill:url(#SVGID_6_);}
	.st24{fill:url(#SVGID_7_);}
	.st25{fill:none;}
	.st26{fill:url(#SVGID_8_);}
	.st27{fill:url(#SVGID_9_);}
	.st28{fill:#C5D6F2;}
	.st29{fill:#EFF5F9;}
	.st30{fill:url(#SVGID_10_);}
	.st31{fill:#5F6187;}
	.st32{fill:#A482FF;}
	.st33{opacity:0.2;}
	.st34{fill:none;stroke:#6A4AFF;stroke-width:2.0896;stroke-linecap:round;stroke-linejoin:round;stroke-miterlimit:10;}
	.st35{fill:none;stroke:#A482FF;stroke-width:2.7861;stroke-linecap:round;stroke-linejoin:round;stroke-miterlimit:10;}
	.st36{fill:#F0F4FE;}
	.st37{fill:url(#SVGID_11_);}
	.st38{opacity:0.15;clip-path:url(#SVGID_13_);}
	.st39{opacity:0.3;fill:url(#SVGID_14_);}
	.st40{opacity:0.3;fill:url(#SVGID_15_);}
</style>
<symbol  id="New_Symbol_1" viewBox="-491.5 -435.7 983 871.4">
	<g>
		<g>
			
				<image style="overflow:visible;opacity:0.3;enable-background:new    ;" width="385" height="414" xlink:href="65C6A29EBF15B698.png"  transform="matrix(0.9975 0 0 -0.9975 -401.1402 200.2913)">
			</image>
			<g>
				<path d="M-60.4-91.8l-200-92c-6.8-3.1-14.8-0.2-17.9,6.6L-395.9,78.4c-3.1,6.8-0.2,14.8,6.6,17.9l200,92
					c6.8,3.1,14.8,0.2,17.9-6.6L-53.8-73.8C-50.7-80.6-53.7-88.6-60.4-91.8z"/>
				<path class="st0" d="M-59.7-92.5l-200-92c-6.8-3.1-14.8-0.2-17.9,6.6L-395.2,77.7c-3.1,6.8-0.2,14.8,6.6,17.9l200,92
					c6.8,3.1,14.8,0.2,17.9-6.6L-53-74.6C-49.9-81.4-52.9-89.4-59.7-92.5z"/>
				<path class="st1" d="M-60-92.1l-200-92c-6.8-3.1-14.8-0.2-17.9,6.6L-395.5,78.1c-3.1,6.8-0.2,14.8,6.6,17.9l200,92
					c6.8,3.1,14.8,0.2,17.9-6.6L-53.4-74.2C-50.3-81-53.3-89-60-92.1z"/>
			</g>
		</g>
		<g>
			<g>
				<g>
					<g class="st2">
						
							<image style="overflow:visible;enable-background:new    ;" width="119" height="119" xlink:href="65C6A29EBF15B699.png"  transform="matrix(0.9916 0 0 -0.9916 -313.9678 -31.4979)">
						</image>
					</g>
					<g class="st3">
						
							<image style="overflow:visible;enable-background:new    ;" width="119" height="119" xlink:href="65C6A29EBF15B69F.png"  transform="matrix(0.9916 0 0 -0.9916 -318.9762 -27.3736)">
						</image>
					</g>
					
						<ellipse transform="matrix(0.418 -0.9085 0.9085 0.418 -68.918 -285.877)" class="st1" cx="-257.6" cy="-89.2" rx="22.2" ry="22.2"/>
				</g>
				<g>
					<path class="st4" d="M-249.5-92.2c-0.1,0-0.2-0.1-0.3,0l-10.5,1.3c-0.2,0-0.4,0.2-0.5,0.3s-0.1,0.4,0,0.6l5.9,8.8
						c0.1,0.2,0.3,0.3,0.5,0.3s0.4-0.1,0.5-0.3l4.6-10.1c0.1-0.2,0.1-0.4-0.1-0.6C-249.3-92.1-249.4-92.2-249.5-92.2z M-259.2-90
						l8.5-1l-3.8,8.2L-259.2-90z"/>
				</g>
				<g>
					<path class="st4" d="M-260.6-97.4c-0.3-0.1-0.6,0-0.8,0.3L-266-87c-0.1,0.3,0,0.6,0.3,0.8c0.3,0.1,0.6,0,0.8-0.3l4.6-10.1
						C-260.2-96.9-260.3-97.2-260.6-97.4z"/>
				</g>
			</g>
			<g>
				<g>
					<g class="st2">
						
							<image style="overflow:visible;enable-background:new    ;" width="119" height="119" xlink:href="65C6A29EBF15B69A.png"  transform="matrix(0.9916 0 0 -0.9916 -189.9678 25.5021)">
						</image>
					</g>
					<g class="st3">
						
							<image style="overflow:visible;enable-background:new    ;" width="119" height="119" xlink:href="65C6A29EBF15B69B.png"  transform="matrix(0.9916 0 0 -0.9916 -194.9762 29.6264)">
						</image>
					</g>
					
						<ellipse transform="matrix(0.418 -0.9085 0.9085 0.418 -48.5767 -140.1434)" class="st1" cx="-133.7" cy="-32.2" rx="22.2" ry="22.2"/>
				</g>
				<g>
					<path class="st4" d="M-136.7-40.4c-0.1,0-0.2-0.1-0.3-0.1c-0.2,0-0.4,0.1-0.5,0.3l-4.6,10.1c-0.1,0.2-0.1,0.4,0.1,0.6
						c0.1,0.2,0.3,0.3,0.5,0.2l10.5-1.3c0.2,0,0.4-0.2,0.5-0.3c0.1-0.2,0.1-0.4,0-0.6l-5.9-8.8C-136.5-40.2-136.6-40.3-136.7-40.4z
						 M-140.6-30.4l3.8-8.2l4.8,7.2L-140.6-30.4z"/>
				</g>
				<g>
					<path class="st4" d="M-125.6-35.2c-0.3-0.1-0.6,0-0.8,0.3l-4.6,10.1c-0.1,0.3,0,0.6,0.3,0.8c0.3,0.2,0.6,0,0.8-0.3l4.6-10.1
						C-125.2-34.8-125.3-35.1-125.6-35.2z"/>
				</g>
			</g>
			<g>
				<g>
					<g class="st2">
						
							<image style="overflow:visible;enable-background:new    ;" width="119" height="118" xlink:href="65C6A29EBF15B696.png"  transform="matrix(0.9916 0 0 -0.9916 -251.9657 -3.4958)">
						</image>
					</g>
					<g class="st3">
						
							<image style="overflow:visible;enable-background:new    ;" width="119" height="118" xlink:href="65C6A29EBF15B697.png"  transform="matrix(0.9916 0 0 -0.9916 -256.9741 0.6285)">
						</image>
					</g>
					
						<ellipse transform="matrix(0.418 -0.9085 0.9085 0.418 -58.7926 -213.0395)" class="st5" cx="-195.7" cy="-60.6" rx="22.2" ry="22.2"/>
				</g>
				<g>
					<g class="st2">
						
							<image style="overflow:visible;enable-background:new    ;" width="119" height="118" xlink:href="65C6A29EBF15B6A8.png"  transform="matrix(0.9916 0 0 -0.9916 -251.9657 -3.4958)">
						</image>
					</g>
					<g class="st3">
						
							<image style="overflow:visible;enable-background:new    ;" width="119" height="118" xlink:href="65C6A29EBF15B6AB.png"  transform="matrix(0.9916 0 0 -0.9916 -256.9741 0.6285)">
						</image>
					</g>
					
						<ellipse transform="matrix(0.418 -0.9085 0.9085 0.418 -58.7926 -213.0395)" class="st1" cx="-195.7" cy="-60.6" rx="22.2" ry="22.2"/>
				</g>
				<g>
					<g>
						<path class="st4" d="M-201.5-70.2c-0.1,0-0.2-0.1-0.3-0.1c-0.2,0-0.4,0.1-0.5,0.3l-4.6,10.1c-0.1,0.2-0.1,0.4,0.1,0.6
							c0.1,0.2,0.3,0.3,0.5,0.2l10.5-1.3c0.2,0,0.4-0.2,0.5-0.3c0.1-0.2,0.1-0.4,0-0.6l-5.9-8.8C-201.3-70-201.4-70.1-201.5-70.2z
							 M-205.4-60.2l3.8-8.2l4.8,7.2L-205.4-60.2z"/>
					</g>
					<g>
						<path class="st4" d="M-189.3-64.6c-0.3-0.1-0.6,0-0.8,0.3l-4.6,10.1c-0.1,0.3,0,0.6,0.3,0.8s0.6,0,0.8-0.3l4.6-10.1
							C-188.9-64.1-189-64.4-189.3-64.6z"/>
					</g>
					<g>
						<path class="st4" d="M-184.7-62.4c-0.3-0.1-0.6,0-0.8,0.3l-4.6,10.1c-0.1,0.3,0,0.6,0.3,0.8c0.3,0.1,0.6,0,0.8-0.3l4.6-10.1
							C-184.3-62-184.4-62.3-184.7-62.4z"/>
					</g>
				</g>
			</g>
		</g>
		<g>
			<g>
				<g>
					<path d="M-258.8-142.9L-258.8-142.9c-1.2,2.6-0.1,5.8,2.6,7l157.1,72.3c2.6,1.2,5.8,0.1,7-2.6l0,0c1.2-2.6,0.1-5.8-2.6-7
						l-157.1-72.3C-254.5-146.7-257.6-145.6-258.8-142.9z"/>
					<g class="st2">
						
							<image style="overflow:visible;enable-background:new    ;" width="242" height="157" xlink:href="B5B580F19E236447.png"  transform="matrix(0.9952 0 0 -0.9952 -294.0267 -26.8047)">
						</image>
					</g>
					<g class="st3">
						
							<image style="overflow:visible;enable-background:new    ;" width="242" height="157" xlink:href="B5B580F19E236445.png"  transform="matrix(0.9952 0 0 -0.9952 -296.9176 -24.4241)">
						</image>
					</g>
					<path class="st6" d="M-258.8-142.9L-258.8-142.9c-1.2,2.6-0.1,5.8,2.6,7l157.1,72.3c2.6,1.2,5.8,0.1,7-2.6l0,0
						c1.2-2.6,0.1-5.8-2.6-7l-157.1-72.3C-254.5-146.7-257.6-145.6-258.8-142.9z"/>
				</g>
				<g>
					<path d="M-92.3-66.1L-92.3-66.1c-1.2,2.6-4.3,3.8-7,2.6l-157.1-72.3c-2.6-1.2-3.8-4.3-2.6-7l0,0c1.2-2.6,4.3-3.8,7-2.6
						l157.1,72.3C-92.2-71.9-91.1-68.8-92.3-66.1z M-252.4-144.4c-2.1-1-4.6,0-5.5,2c-1,2.1,0,4.6,2,5.5l157.1,72.3
						c2.1,1,4.6,0,5.5-2c1-2.1,0-4.6-2-5.5L-252.4-144.4z"/>
					<path class="st0" d="M-92.1-66.4L-92.1-66.4c-1.2,2.6-4.3,3.8-7,2.6l-157.1-72.3c-2.6-1.2-3.8-4.3-2.6-7l0,0
						c1.2-2.6,4.3-3.8,7-2.6l157.1,72.3C-92-72.1-90.8-69-92.1-66.4z M-252.2-144.6c-2.1-1-4.6,0-5.5,2c-1,2.1,0,4.6,2,5.5
						l157.1,72.3c2.1,1,4.6,0,5.5-2c1-2.1,0-4.6-2-5.5L-252.2-144.6z"/>
					<path class="st1" d="M-92.2-66.3L-92.2-66.3c-1.2,2.6-4.3,3.8-7,2.6L-256.3-136c-2.6-1.2-3.8-4.3-2.6-7l0,0
						c1.2-2.6,4.3-3.8,7-2.6l157.2,72.4C-92.1-72-90.9-68.9-92.2-66.3z M-252.3-144.5c-2.1-1-4.6,0-5.5,2c-1,2.1,0,4.6,2,5.5
						l157.1,72.3c2.1,1,4.6,0,5.5-2c1-2.1,0-4.6-2-5.5L-252.3-144.5z"/>
				</g>
				
					<linearGradient id="SVGID_1_" gradientUnits="userSpaceOnUse" x1="-5101.1655" y1="-26181.2793" x2="-5101.1655" y2="-26023.1113" gradientTransform="matrix(0.418 -0.9085 0.9085 0.418 25659.4121 6166.5361)">
					<stop  offset="0" style="stop-color:#B24EFF"/>
					<stop  offset="1" style="stop-color:#3793FF"/>
				</linearGradient>
				<path class="st7" d="M-252.3-144.5c-2.1-1-4.6,0-5.5,2c-1,2.1,0,4.6,2,5.5l136.2,62.6c2.1,1,4.6,0,5.5-2c1-2.1,0-4.6-2-5.5
					L-252.3-144.5z"/>
			</g>
			<g>
				
					<image style="overflow:visible;opacity:0.1;enable-background:new    ;" width="18" height="18" xlink:href="B5B580F19E236443.png"  transform="matrix(0.9444 0 0 -0.9444 -126.1604 -69.6523)">
				</image>
				<g>
					<g>
						<ellipse transform="matrix(0.418 -0.9085 0.9085 0.418 2.2962 -152.5038)" class="st8" cx="-117.9" cy="-78" rx="4" ry="4"/>
						<path class="st9" d="M-119.8-74c2.3,1,4.9,0,6-2.2c1-2.3,0-4.9-2.2-6c-2.3-1-4.9,0-6,2.2C-123-77.7-122-75-119.8-74z
							 M-116.4-81.3c1.8,0.8,2.5,2.9,1.7,4.7c-0.8,1.8-2.9,2.5-4.7,1.7c-1.8-0.8-2.5-2.9-1.7-4.7C-120.3-81.3-118.2-82.1-116.4-81.3
							z"/>
					</g>
				</g>
			</g>
		</g>
		<g>
			<g>
				<g class="st10">
					
						<image style="overflow:visible;enable-background:new    ;" width="209" height="209" xlink:href="B5B580F19E23645D.png"  transform="matrix(0.9952 0 0 -0.9952 -349.7205 154.8784)">
					</image>
				</g>
				<g class="st3">
					
						<image style="overflow:visible;enable-background:new    ;" width="209" height="209" xlink:href="B5B580F19E23645F.png"  transform="matrix(0.9952 0 0 -0.9952 -353.3295 157.8504)">
					</image>
				</g>
				
					<ellipse transform="matrix(0.418 -0.9085 0.9085 0.418 -191.0674 -194.5381)" class="st5" cx="-247.4" cy="51.8" rx="67.6" ry="67.6"/>
			</g>
			<g>
				<g class="st11">
					
						<image style="overflow:visible;enable-background:new    ;" width="209" height="209" xlink:href="B5B580F19E236442.png"  transform="matrix(0.9952 0 0 -0.9952 -349.7205 154.8784)">
					</image>
				</g>
				<g class="st3">
					
						<image style="overflow:visible;enable-background:new    ;" width="209" height="209" xlink:href="B5B580F19E236441.png"  transform="matrix(0.9952 0 0 -0.9952 -353.3295 157.8504)">
					</image>
				</g>
				
					<ellipse transform="matrix(0.418 -0.9085 0.9085 0.418 -191.0674 -194.5381)" class="st12" cx="-247.4" cy="51.8" rx="67.6" ry="67.6"/>
			</g>
			<g>
				
					<linearGradient id="SVGID_2_" gradientUnits="userSpaceOnUse" x1="8936.3984" y1="6165.3174" x2="9027.3027" y2="6264.0337" gradientTransform="matrix(0.9085 0.418 -0.418 0.9085 -5798.3848 -9344.7383)">
					<stop  offset="0" style="stop-color:#B24EFF"/>
					<stop  offset="1" style="stop-color:#3793FF"/>
				</linearGradient>
				<path class="st13" d="M-247.4,51.8l-24.8,53.9l0,0c29.6,13.6,65.1,0.5,78.7-29.1c13.6-29.6,0.5-65.1-29.1-78.7
					c-17.9-8.2-38.8-7-55.7,3.2L-247.4,51.8z"/>
			</g>
			<g>
				<path d="M-204.4,72c11-23.9,0.5-52.2-23.4-63.2S-280,8.3-291,32.2s-0.5,52.2,23.4,63.2C-243.8,106.4-215.4,96-204.4,72z
					 M-186.3,80.4c15.6-33.9,0.8-74.1-33.2-89.7c-33.9-15.6-74.1-0.8-89.7,33.2C-324.8,57.8-310,98-276,113.6
					C-242.1,129.1-201.9,114.3-186.3,80.4z M-199.2,74.4c-12.3,26.8-44.1,38.5-70.9,26.2c-26.8-12.3-38.5-44.1-26.2-70.9
					C-284,2.9-252.2-8.8-225.4,3.5C-198.6,15.9-186.9,47.6-199.2,74.4z"/>
				<path class="st0" d="M-203.8,71.4c11-23.9,0.5-52.2-23.4-63.2s-52.2-0.5-63.2,23.4s-0.5,52.2,23.4,63.2
					C-243.1,105.8-214.8,95.3-203.8,71.4z M-185.7,79.7c15.6-33.9,0.8-74.1-33.2-89.7c-33.9-15.6-74.1-0.8-89.7,33.2
					c-15.6,33.9-0.8,74.1,33.2,89.7C-241.4,128.5-201.3,113.6-185.7,79.7z M-198.5,73.8c-12.3,26.8-44.1,38.5-70.9,26.2
					s-38.5-44.1-26.2-70.9c12.3-26.8,44.1-38.5,70.9-26.2S-186.2,47-198.5,73.8z"/>
				<path d="M-204.1,71.7c11-23.9,0.5-52.2-23.4-63.2s-52.2-0.6-63.2,23.3S-291.2,84-267.3,95C-243.4,106.1-215.1,95.6-204.1,71.7z
					 M-186,80c15.6-33.9,0.8-74.1-33.2-89.7c-33.9-15.6-74.1-0.8-89.7,33.2c-15.6,33.9-0.8,74.1,33.2,89.7
					C-241.8,128.8-201.6,114-186,80z M-198.9,74.1c-12.3,26.8-44.1,38.5-70.9,26.2s-38.5-44.1-26.2-70.9
					c12.3-26.8,44.1-38.5,70.9-26.2C-198.3,15.6-186.5,47.3-198.9,74.1z"/>
			</g>
			<g>
				<g>
					<path class="st14" d="M-225.1,50l-35.5-16.3c-1.8-0.8-4,0-4.8,1.8l-9.7,21.1c-0.8,1.8,0,4,1.8,4.8l5.2,2.4l0.7,3.6
						c0.2,1.1,1,2.1,2,2.6l15.7,7.2c1,0.5,2.3,0.4,3.3-0.1l3.2-1.8l5.2,2.4c1.8,0.8,4,0,4.8-1.8l9.7-21.1
						C-222.5,53-223.3,50.9-225.1,50z M-272.3,59.2c-0.6-0.3-0.9-1-0.6-1.6l9.7-21.1c0.3-0.6,1-0.9,1.6-0.6l35.5,16.3
						c0.6,0.3,0.9,1,0.6,1.6l-9.7,21.1c-0.3,0.6-1,0.9-1.6,0.6l-5.9-2.7c-0.3-0.2-0.8-0.1-1.1,0l-3.7,2.1c-0.3,0.2-0.8,0.2-1.1,0
						l-15.7-7.2c-0.4-0.2-0.6-0.5-0.7-0.9l-0.8-4.2c-0.1-0.4-0.3-0.7-0.7-0.9L-272.3,59.2z"/>
				</g>
				<g>
					<g>
						<path class="st14" d="M-245.9,48.6c-4.6-2.1-10.1-0.1-12.3,4.5c-2.1,4.6-0.1,10.1,4.5,12.3c4.6,2.1,10.1,0.1,12.3-4.5
							C-239.3,56.2-241.3,50.7-245.9,48.6z M-252.7,63.2c-3.4-1.6-4.9-5.7-3.4-9.1c1.6-3.4,5.7-4.9,9.1-3.4c3.4,1.6,4.9,5.7,3.4,9.1
							C-245.2,63.3-249.2,64.8-252.7,63.2z"/>
					</g>
				</g>
			</g>
			
				<text transform="matrix(0.9085 0.418 0.418 -0.9085 -256.9319 21.8418)" class="st14" style="font-family:'ArialMT'; font-size:7.7832px;">Album Cover</text>
			<g>
				
					<image style="overflow:visible;opacity:0.1;enable-background:new    ;" width="26" height="26" xlink:href="B5B580F19E236446.png"  transform="matrix(0.9615 0 0 -0.9615 -284.6784 19.8657)">
				</image>
				<g>
					<g>
						
							<ellipse transform="matrix(0.418 -0.9085 0.9085 0.418 -166.864 -243.4974)" class="st8" cx="-273.5" cy="8.5" rx="5.8" ry="5.8"/>
						<path class="st9" d="M-276.1,14.3c3.2,1.5,7.1,0.1,8.6-3.2c1.5-3.2,0.1-7.1-3.2-8.6c-3.2-1.5-7.1-0.1-8.6,3.2
							C-280.8,8.9-279.4,12.8-276.1,14.3z M-271.3,3.8c2.5,1.2,3.6,4.2,2.5,6.7c-1.2,2.5-4.2,3.7-6.7,2.5s-3.7-4.2-2.5-6.7
							C-276.9,3.7-273.9,2.6-271.3,3.8z"/>
					</g>
				</g>
			</g>
		</g>
	</g>
	<g>
		<g>
			
				<image style="overflow:visible;opacity:0.3;enable-background:new    ;" width="343" height="325" xlink:href="B5B580F19E236440.png"  transform="matrix(0.997 0 0 -0.997 -257.1083 -111.6774)">
			</image>
			<g>
				<path class="st16" d="M42-314.4l-200-92c-6.8-3.1-14.8-0.2-17.9,6.6l-76.5,166.3c-3.1,6.8-0.2,14.8,6.6,17.9l200,92
					c6.8,3.1,14.8,0.2,17.9-6.6l76.5-166.3C51.7-303.2,48.8-311.3,42-314.4z"/>
				<path class="st0" d="M42.8-315.2l-200-92c-6.8-3.1-14.8-0.2-17.9,6.6l-76.5,166.3c-3.1,6.8-0.2,14.8,6.6,17.9l200,92
					c6.8,3.1,14.8,0.2,17.9-6.6l76.5-166.2C52.5-304,49.5-312,42.8-315.2z"/>
				<path class="st1" d="M42.4-314.8l-200-92c-6.8-3.1-14.8-0.2-17.9,6.6L-252-233.9c-3.1,6.8-0.2,14.8,6.6,17.9l200,92
					c6.8,3.1,14.8,0.2,17.9-6.6L49-296.9C52.1-303.6,49.2-311.7,42.4-314.8z"/>
			</g>
		</g>
		<g>
			<g>
				<path d="M25.4-303.2l-180.7-83.1c-4.5-2.1-9.9-0.1-11.9,4.4l-41.3,89.7c-2.1,4.5-0.1,9.9,4.4,11.9l180.7,83.1
					c4.5,2.1,9.9,0.1,11.9-4.4l41.3-89.7C31.9-295.8,29.9-301.1,25.4-303.2z"/>
				<path class="st17" d="M25-302.8L-155.7-386c-4.5-2.1-9.9-0.1-11.9,4.4l-41.3,89.7c-2.1,4.5-0.1,9.9,4.4,11.9l180.7,83.1
					c4.5,2.1,9.9,0.1,11.9-4.4L29.4-291C31.5-295.4,29.5-300.7,25-302.8z"/>
				<path d="M25.8-303.6l-180.7-83.1c-4.5-2.1-9.9-0.1-11.9,4.4l-41.3,89.7c-2.1,4.5-0.1,9.9,4.4,11.9L-23-197.6
					c4.5,2.1,9.9,0.1,11.9-4.4l41.3-89.7C32.3-296.2,30.3-301.5,25.8-303.6z"/>
				<path class="st12" d="M25.4-303.2l-180.7-83.1c-4.5-2.1-9.9-0.1-11.9,4.4l-41.3,89.7c-2.1,4.5-0.1,9.9,4.4,11.9l180.7,83.1
					c4.5,2.1,9.9,0.1,11.9-4.4l41.3-89.7C31.9-295.8,29.9-301.1,25.4-303.2z"/>
			</g>
			
				<linearGradient id="SVGID_3_" gradientUnits="userSpaceOnUse" x1="8863.8525" y1="5855.4937" x2="9076.2012" y2="5855.4937" gradientTransform="matrix(0.9085 0.418 -0.418 0.9085 -5798.3848 -9344.7383)">
				<stop  offset="0" style="stop-color:#B24EFF"/>
				<stop  offset="1" style="stop-color:#3793FF"/>
			</linearGradient>
			<path class="st18" d="M-7-249.3l-168.1-77.4c-6.9-3.2-15-0.2-18.1,6.7l0,0c-3.2,6.9-0.2,15,6.7,18.1l168.1,77.4
				c6.9,3.2,15,0.2,18.1-6.7l0,0C2.8-238-0.2-246.1-7-249.3z"/>
			<g>
				
					<text transform="matrix(0.9085 0.418 0.418 -0.9085 -176.1495 -315.932)" class="st6" style="font-family:'ArialMT'; font-size:9.365px;">Europe - EN / ES</text>
			</g>
			<g>
				
					<text transform="matrix(0.9085 0.418 0.418 -0.9085 -164.984 -340.1995)" class="st19" style="font-family:'ArialMT'; font-size:9.365px;">America - EN</text>
			</g>
			<g>
				
					<text transform="matrix(0.9085 0.418 0.418 -0.9085 -153.8194 -364.4641)" class="st19" style="font-family:'ArialMT'; font-size:9.365px;">Asia-Pasific - EN / JP</text>
			</g>
			<g>
				
					<text transform="matrix(0.9085 0.418 0.418 -0.9085 -187.3124 -291.6666)" class="st19" style="font-family:'ArialMT'; font-size:9.365px;">Select</text>
			</g>
			<g>
				<polygon class="st19" points="-27.5,-217.5 -33.4,-215.3 -33,-214.1 -28.3,-215.9 -26.6,-211.2 -25.4,-211.6 				"/>
			</g>
		</g>
		<g>
			<g>
				
					<text transform="matrix(0.9085 0.418 0.418 -0.9085 -221.1316 -242.3405)" class="st20" style="font-family:'ArialMT'; font-size:12.4867px;">Choose Your</text>
				
					<text transform="matrix(0.9085 0.418 0.418 -0.9085 -214.8615 -255.9683)" class="st20" style="font-family:'ArialMT'; font-size:12.4867px;">Region</text>
			</g>
		</g>
	</g>
	<g>
		<g>
			
				<image style="overflow:visible;opacity:0.3;enable-background:new    ;" width="309" height="250" xlink:href="B5B580F19E23644E.png"  transform="matrix(0.9965 0 0 -0.9965 -87.0747 191.3664)">
			</image>
			<g>
				<path class="st16" d="M177.6,63.5l-200-92c-6.8-3.1-14.8-0.2-17.9,6.6l-41.9,91.1c-3.1,6.8-0.2,14.8,6.6,17.9l200,92
					c6.8,3.1,14.8,0.2,17.9-6.6l42-91C187.4,74.7,184.4,66.7,177.6,63.5z"/>
				<path class="st0" d="M178.4,62.8l-200-92c-6.8-3.1-14.8-0.2-17.9,6.6l-41.9,91.1c-3.1,6.8-0.2,14.8,6.6,17.9l200,92
					c6.8,3.1,14.8,0.2,17.9-6.6L185,80.7C188.1,73.9,185.2,65.9,178.4,62.8z"/>
				<path class="st1" d="M178,63.2l-200-92c-6.7-3.2-14.8-0.2-17.9,6.6l-41.9,91.1c-3.1,6.8-0.2,14.8,6.6,17.9l200,92
					c6.8,3.1,14.8,0.2,17.9-6.6l41.9-91.1C187.8,74.3,184.8,66.3,178,63.2z"/>
			</g>
		</g>
		<g>
			<g>
				<polygon class="st16" points="-41.5,77.5 -32.8,72.2 -22.6,73.8 -25,63.8 -20.4,54.7 -30.6,53.8 -37.9,46.6 -41.8,56 
					-50.9,60.7 -43.2,67.4 				"/>
				<polygon class="st17" points="-41.9,77.9 -33.2,72.6 -23,74.2 -25.4,64.2 -20.8,55.1 -31,54.2 -38.3,47 -42.2,56.4 -51.3,61.1 
					-43.6,67.8 				"/>
				<polygon class="st16" points="-41.1,77.1 -32.3,71.8 -22.2,73.3 -24.6,63.4 -20,54.2 -30.2,53.4 -37.5,46.2 -41.4,55.6 
					-50.5,60.3 -42.8,67 				"/>
				<polygon class="st6" points="-41.5,77.5 -32.8,72.2 -22.6,73.8 -25,63.8 -20.4,54.7 -30.6,53.8 -37.9,46.6 -41.8,56 -50.9,60.7 
					-43.2,67.4 				"/>
			</g>
			<g>
				<polygon class="st16" points="-3.4,95 5.4,89.8 15.5,91.3 13.1,81.3 17.7,72.2 7.5,71.3 0.2,64.1 -3.7,73.6 -12.8,78.3 -5.1,85 
									"/>
				<polygon class="st17" points="-3.8,95.5 4.9,90.2 15.1,91.7 12.7,81.7 17.3,72.6 7.1,71.7 -0.2,64.6 -4.1,74 -13.2,78.7 
					-5.5,85.4 				"/>
				<polygon class="st16" points="-3,94.6 5.8,89.4 15.9,90.9 13.5,80.9 18.1,71.8 7.9,70.9 0.6,63.7 -3.3,73.2 -12.4,77.9 
					-4.7,84.6 				"/>
				<polygon class="st6" points="-3.4,95 5.4,89.8 15.5,91.3 13.1,81.3 17.7,72.2 7.5,71.3 0.2,64.1 -3.7,73.6 -12.8,78.3 -5.1,85 
									"/>
			</g>
			<g>
				<polygon class="st16" points="34.7,112.6 43.5,107.3 53.6,108.8 51.2,98.9 55.8,89.7 45.6,88.9 38.3,81.7 34.4,91.1 25.3,95.8 
					33,102.5 				"/>
				<polygon class="st17" points="34.3,113 43.1,107.7 53.2,109.2 50.8,99.3 55.4,90.1 45.2,89.3 37.9,82.1 34,91.5 24.9,96.2 
					32.6,102.9 				"/>
				<polygon class="st16" points="35.1,112.2 43.9,106.9 54,108.4 51.6,98.5 56.2,89.3 46,88.5 38.7,81.3 34.8,90.7 25.7,95.4 
					33.4,102.1 				"/>
				<polygon class="st6" points="34.7,112.6 43.5,107.3 53.6,108.8 51.2,98.9 55.8,89.7 45.6,88.9 38.3,81.7 34.4,91.1 25.3,95.8 
					33,102.5 				"/>
			</g>
			<g>
				<polygon class="st16" points="72.8,130.1 81.6,124.8 91.7,126.3 89.3,116.4 93.9,107.2 83.7,106.4 76.4,99.2 72.5,108.6 
					63.4,113.3 71.1,120 				"/>
				<polygon class="st17" points="72.4,130.5 81.2,125.2 91.3,126.7 88.9,116.8 93.5,107.7 83.3,106.8 76,99.6 72.1,109 63,113.7 
					70.7,120.4 				"/>
				<polygon class="st16" points="73.2,129.7 82,124.4 92.1,125.9 89.7,116 94.3,106.8 84.1,106 76.9,98.8 72.9,108.2 63.8,112.9 
					71.5,119.6 				"/>
				<polygon class="st6" points="72.8,130.1 81.6,124.8 91.7,126.3 89.3,116.4 93.9,107.2 83.7,106.4 76.4,99.2 72.5,108.6 
					63.4,113.3 71.1,120 				"/>
			</g>
			<g>
				<polygon points="-41.5,77.5 -32.8,72.2 -22.6,73.8 -25,63.8 -20.4,54.7 -30.6,53.8 -37.9,46.6 -41.8,56 -50.9,60.7 -43.2,67.4 
									"/>
				<polygon class="st17" points="-41.9,77.9 -33.2,72.6 -23,74.2 -25.4,64.2 -20.8,55.1 -31,54.2 -38.3,47 -42.2,56.4 -51.3,61.1 
					-43.6,67.8 				"/>
				<polygon points="-41.1,77.1 -32.3,71.8 -22.2,73.3 -24.6,63.4 -20,54.2 -30.2,53.4 -37.5,46.2 -41.4,55.6 -50.5,60.3 -42.8,67 
									"/>
				
					<linearGradient id="SVGID_4_" gradientUnits="userSpaceOnUse" x1="9153.6875" y1="6135.6187" x2="9348.252" y2="6164.1689" gradientTransform="matrix(0.9085 0.418 -0.418 0.9085 -5798.3848 -9344.7383)">
					<stop  offset="0" style="stop-color:#B24EFF"/>
					<stop  offset="1" style="stop-color:#3793FF"/>
				</linearGradient>
				<polygon class="st21" points="-41.5,77.5 -32.8,72.2 -22.6,73.8 -25,63.8 -20.4,54.7 -30.6,53.8 -37.9,46.6 -41.8,56 
					-50.9,60.7 -43.2,67.4 				"/>
			</g>
			<g>
				<polygon class="st16" points="-3.4,95 5.4,89.8 15.5,91.3 13.1,81.3 17.7,72.2 7.5,71.3 0.2,64.1 -3.7,73.6 -12.8,78.3 -5.1,85 
									"/>
				<polygon class="st17" points="-3.8,95.5 4.9,90.2 15.1,91.7 12.7,81.7 17.3,72.6 7.1,71.7 -0.2,64.6 -4.1,74 -13.2,78.7 
					-5.5,85.4 				"/>
				<polygon class="st16" points="-3,94.6 5.8,89.4 15.9,90.9 13.5,80.9 18.1,71.8 7.9,70.9 0.6,63.7 -3.3,73.2 -12.4,77.9 
					-4.7,84.6 				"/>
				
					<linearGradient id="SVGID_5_" gradientUnits="userSpaceOnUse" x1="9154.5762" y1="6129.5698" x2="9349.1406" y2="6158.1201" gradientTransform="matrix(0.9085 0.418 -0.418 0.9085 -5798.3848 -9344.7383)">
					<stop  offset="0" style="stop-color:#B24EFF"/>
					<stop  offset="1" style="stop-color:#3793FF"/>
				</linearGradient>
				<polygon class="st22" points="-3.4,95 5.4,89.8 15.5,91.3 13.1,81.3 17.7,72.2 7.5,71.3 0.2,64.1 -3.7,73.6 -12.8,78.3 -5.1,85 
									"/>
			</g>
			<g>
				<polygon class="st16" points="34.7,112.6 43.5,107.3 53.6,108.8 51.2,98.9 55.8,89.7 45.6,88.9 38.3,81.7 34.4,91.1 25.3,95.8 
					33,102.5 				"/>
				<polygon class="st17" points="34.3,113 43.1,107.7 53.2,109.2 50.8,99.3 55.4,90.1 45.2,89.3 37.9,82.1 34,91.5 24.9,96.2 
					32.6,102.9 				"/>
				<polygon class="st16" points="35.1,112.2 43.9,106.9 54,108.4 51.6,98.5 56.2,89.3 46,88.5 38.7,81.3 34.8,90.7 25.7,95.4 
					33.4,102.1 				"/>
				
					<linearGradient id="SVGID_6_" gradientUnits="userSpaceOnUse" x1="9155.457" y1="6123.5625" x2="9350.0205" y2="6152.1128" gradientTransform="matrix(0.9085 0.418 -0.418 0.9085 -5798.3848 -9344.7383)">
					<stop  offset="0" style="stop-color:#B24EFF"/>
					<stop  offset="1" style="stop-color:#3793FF"/>
				</linearGradient>
				<polygon class="st23" points="34.7,112.6 43.5,107.3 53.6,108.8 51.2,98.9 55.8,89.7 45.6,88.9 38.3,81.7 34.4,91.1 25.3,95.8 
					33,102.5 				"/>
			</g>
			<g>
				<polygon class="st16" points="72.8,130.1 81.6,124.8 91.7,126.3 89.3,116.4 93.9,107.2 83.7,106.4 76.4,99.2 72.5,108.6 
					63.4,113.3 71.1,120 				"/>
				<polygon class="st17" points="72.4,130.5 81.2,125.2 91.3,126.7 88.9,116.8 93.5,107.7 83.3,106.8 76,99.6 72.1,109 63,113.7 
					70.7,120.4 				"/>
				<polygon class="st16" points="73.2,129.7 82,124.4 92.1,125.9 89.7,116 94.3,106.8 84.1,106 76.9,98.8 72.9,108.2 63.8,112.9 
					71.5,119.6 				"/>
				
					<linearGradient id="SVGID_7_" gradientUnits="userSpaceOnUse" x1="9156.3457" y1="6117.5137" x2="9350.9082" y2="6146.064" gradientTransform="matrix(0.9085 0.418 -0.418 0.9085 -5798.3848 -9344.7383)">
					<stop  offset="0" style="stop-color:#B24EFF"/>
					<stop  offset="1" style="stop-color:#3793FF"/>
				</linearGradient>
				<polygon class="st24" points="72.8,130.1 81.6,124.8 91.7,126.3 89.3,116.4 93.9,107.2 83.7,106.4 76.4,99.2 72.5,108.6 
					63.4,113.3 71.1,120 				"/>
			</g>
			<g>
				<polygon points="110.9,147.6 119.7,142.4 129.8,143.9 127.4,133.9 132,124.8 121.8,123.9 114.6,116.7 110.6,126.2 101.5,130.9 
					109.2,137.6 				"/>
				<polygon class="st17" points="110.5,148 119.3,142.8 129.4,144.3 127,134.3 131.6,125.2 121.4,124.3 114.1,117.1 110.2,126.6 
					101.1,131.3 108.8,138 				"/>
				<polygon points="111.3,147.2 120.1,141.9 130.2,143.5 127.9,133.5 132.4,124.4 122.2,123.5 115,116.3 111,125.8 101.9,130.5 
					109.7,137.2 				"/>
				<polygon class="st12" points="110.9,147.6 119.7,142.4 129.8,143.9 127.4,133.9 132,124.8 121.8,123.9 114.6,116.7 110.6,126.2 
					101.5,130.9 109.2,137.6 				"/>
			</g>
		</g>
		<g>
			
				<text transform="matrix(0.9085 0.418 0.418 -0.9085 -32.3777 18.0415)" class="st20" style="font-family:'ArialMT'; font-size:14.0475px;">Rate us</text>
		</g>
		<g>
			
				<rect x="54.8" y="-58.3" transform="matrix(0.418 -0.9085 0.9085 0.418 1.6466 83.572)" class="st25" width="22.5" height="197.6"/>
			
				<text transform="matrix(0.9085 0.418 0.418 -0.9085 -25.6796 3.3831)" class="st19" style="font-family:'ArialMT'; font-size:9.365px;">How do you like using our services today?</text>
		</g>
	</g>
	<g>
		<g>
			
				<image style="overflow:visible;opacity:0.3;enable-background:new    ;" width="380" height="405" xlink:href="B5B580F19E236466.png"  transform="matrix(0.9975 0 0 -0.9975 -19.1378 44.2933)">
			</image>
			<g>
				<path class="st16" d="M316.6-238.5l-200-92c-6.8-3.1-14.8-0.2-17.9,6.6l-113,245.6c-3.1,6.8-0.2,14.8,6.6,17.9l200,92
					c6.8,3.1,14.8,0.2,17.9-6.6l113-245.7C326.4-227.4,323.4-235.4,316.6-238.5z"/>
				<path class="st0" d="M317.4-239.3l-200-92c-6.8-3.1-14.8-0.2-17.9,6.6L-13.5-79c-3.2,6.7-0.2,14.8,6.6,17.9l200,92
					c6.8,3.1,14.8,0.2,17.9-6.6l113-245.7C327.1-228.2,324.2-236.2,317.4-239.3z"/>
				<path class="st1" d="M317-238.9l-200-92c-6.8-3.1-14.8-0.2-17.9,6.6l-113,245.6c-3.1,6.8-0.2,14.8,6.6,17.9l200,92
					c6.8,3.1,14.8,0.2,17.9-6.6l113-245.7C326.7-227.8,323.8-235.8,317-238.9z"/>
			</g>
		</g>
		<g>
			<path d="M110.5-311.8L53.2-187.3c-1,2.3-0.1,4.9,2.2,6l188,86.5c2.3,1,4.9,0.1,6-2.2l57.3-124.5c1-2.3,0.1-4.9-2.2-6l-188-86.5
				C114.2-315,111.6-314.1,110.5-311.8z"/>
			<path class="st17" d="M110.1-311.4L52.8-186.9c-1,2.3-0.1,4.9,2.2,6l188,86.5c2.3,1,4.9,0.1,6-2.2l57.3-124.6
				c1-2.3,0.1-4.9-2.2-6l-188-86.5C113.9-314.7,111.2-313.7,110.1-311.4z"/>
			<path d="M110.9-312.2L53.6-187.7c-1,2.3-0.1,4.9,2.2,6l188,86.5c2.3,1,4.9,0.1,6-2.2l57.3-124.5c1-2.3,0.1-4.9-2.2-6l-188-86.5
				C114.6-315.4,111.9-314.4,110.9-312.2z"/>
			<path class="st12" d="M110.5-311.8L53.2-187.3c-1,2.3-0.1,4.9,2.2,6l188,86.5c2.3,1,4.9,0.1,6-2.2l57.3-124.5
				c1-2.3,0.1-4.9-2.2-6l-188-86.5C114.2-315,111.6-314.1,110.5-311.8z"/>
		</g>
		<g>
			
				<text transform="matrix(0.9085 0.418 0.418 -0.9085 15.8356 -87.6109)" class="st20" style="font-family:'ArialMT'; font-size:14.0475px;">Customize</text>
			
				<text transform="matrix(0.9085 0.418 0.418 -0.9085 22.8997 -102.9642)" class="st20" style="font-family:'ArialMT'; font-size:14.0475px;">Your Website</text>
		</g>
		<g>
			
				<rect x="95.9" y="-207.9" transform="matrix(0.418 -0.9085 0.9085 0.418 177.3209 58.6697)" class="st25" width="77" height="197.6"/>
			
				<text transform="matrix(0.9085 0.418 0.418 -0.9085 31.3419 -121.4145)" class="st19" style="font-family:'ArialMT'; font-size:9.365px;">Try our Designer-Made template &amp; Customi</text>
			
				<text transform="matrix(0.9085 0.418 0.418 -0.9085 201.8673 -42.9559)" class="st19" style="font-family:'ArialMT'; font-size:9.365px;">-</text>
			
				<text transform="matrix(0.9085 0.418 0.418 -0.9085 36.5667 -132.7702)" class="st19" style="font-family:'ArialMT'; font-size:9.365px;">zation features. We offers the freedom for </text>
			
				<text transform="matrix(0.9085 0.418 0.418 -0.9085 41.7918 -144.1268)" class="st19" style="font-family:'ArialMT'; font-size:9.365px;">you to create your own unique online page.</text>
		</g>
		<g>
			<g>
				<g class="st2">
					
						<image style="overflow:visible;enable-background:new    ;" width="105" height="98" xlink:href="B5B580F19E236465.png"  transform="matrix(0.9902 0 0 -0.9902 129.2457 37.4215)">
					</image>
				</g>
				<g class="st3">
					
						<image style="overflow:visible;enable-background:new    ;" width="105" height="98" xlink:href="B5B580F19E236462.png"  transform="matrix(0.9902 0 0 -0.9902 127.5895 38.7853)">
					</image>
				</g>
				<path class="st5" d="M177.1-21.6l13.7,6.3c4.4,2,6.3,7.2,4.3,11.6l0,0c-2,4.4-7.2,6.3-11.6,4.3l-13.7-6.3
					c-4.4-2-6.3-7.2-4.3-11.6l0,0C167.6-21.7,172.8-23.6,177.1-21.6z"/>
			</g>
			<g>
				<path class="st16" d="M177.1-21.6l13.7,6.3c4.4,2,6.3,7.2,4.3,11.6l0,0c-2,4.4-7.2,6.3-11.6,4.3l-13.7-6.3
					c-4.4-2-6.3-7.2-4.3-11.6l0,0C167.6-21.7,172.8-23.6,177.1-21.6z"/>
				<path class="st17" d="M177-21.4l13.7,6.3c4.4,2,6.3,7.2,4.3,11.6l0,0c-2,4.4-7.2,6.3-11.6,4.3l-13.7-6.3
					c-4.4-2-6.3-7.2-4.3-11.6l0,0C167.5-21.5,172.6-23.4,177-21.4z"/>
				<path class="st16" d="M177.3-21.7l13.7,6.3c4.4,2,6.3,7.2,4.3,11.6l0,0c-2,4.4-7.2,6.3-11.6,4.3L170-5.8
					c-4.4-2-6.3-7.2-4.3-11.6l0,0C167.7-21.8,172.9-23.7,177.3-21.7z"/>
				<path class="st6" d="M177.1-21.6l13.7,6.3c4.4,2,6.3,7.2,4.3,11.6l0,0c-2,4.4-7.2,6.3-11.6,4.3l-13.7-6.3
					c-4.4-2-6.3-7.2-4.3-11.6l0,0C167.6-21.7,172.8-23.6,177.1-21.6z"/>
			</g>
			<ellipse transform="matrix(0.418 -0.9085 0.9085 0.418 113.4026 149.6997)" class="st4" cx="173.5" cy="-13.7" rx="7" ry="7"/>
		</g>
		<g>
			
				<linearGradient id="SVGID_8_" gradientUnits="userSpaceOnUse" x1="-16.4938" y1="-274.7238" x2="34.598" y2="-234.7578" gradientTransform="matrix(1 -5.119922e-03 5.119958e-03 1 89.8065 58.5549)">
				<stop  offset="0" style="stop-color:#B24EFF"/>
				<stop  offset="1" style="stop-color:#3793FF"/>
			</linearGradient>
			<path class="st26" d="M97.2-200.6l-8.3,7.6l-0.5-0.2l0.5-11.6c0-0.9,0-1.5,0-1.8c-0.1-0.5-0.4-0.8-0.8-1.1l0.2-0.5l3.7,1.7
				l-0.2,0.5c-0.4-0.2-0.7-0.3-1-0.3c-0.4,0-0.7,0.1-0.8,0.3s-0.2,0.6-0.2,1.1c0,0.3-0.1,0.8-0.1,1.6l4,1.9l1-0.9
				c0.2-0.2,0.4-0.4,0.5-0.5c0.2-0.2,0.4-0.4,0.4-0.6c0.1-0.3,0.1-0.5,0-0.7s-0.5-0.4-1.1-0.7l0.2-0.5l5.8,2.7l-0.2,0.4
				c-0.4-0.2-0.8-0.2-1.1,0C98.8-202,98.1-201.4,97.2-200.6z M89.6-202.5l-0.3,4.9l0.2,0.1l3.6-3.4L89.6-202.5z M108.7-197.7
				c0-0.1-0.1-0.1-0.2-0.1c-0.1,0-0.2,0-0.3,0c-0.1,0.1-0.2,0.2-0.3,0.3l-2,4.3c-0.5,1.1-1.2,1.6-2,1.7c-0.9,0.1-1.8-0.1-2.8-0.6
				c-0.9-0.4-1.6-1-2.1-1.7s-0.5-1.4-0.2-2.1c0.2-0.4,0.4-0.6,0.8-0.7c0.3-0.1,0.7-0.1,1,0.1c0.3,0.1,0.5,0.3,0.7,0.6
				c0.1,0.3,0.1,0.6,0,0.9c-0.1,0.1-0.1,0.2-0.3,0.3c-0.1,0.1-0.2,0.2-0.3,0.2l-0.2,0.1c-0.1,0-0.1,0.1-0.2,0.1c0,0-0.1,0.1-0.1,0.2
				c-0.1,0.2,0,0.4,0.1,0.6c0.2,0.2,0.4,0.4,0.7,0.5c0.6,0.3,1,0.3,1.4,0.2c0.3-0.2,0.6-0.5,0.9-1l0.6-1.3c-1.4-1.2-2.4-2.3-3-3.1
				s-0.7-1.6-0.3-2.5c0.3-0.7,0.7-1,1.3-1.2c0.6-0.1,1.1-0.1,1.6,0.2c0.4,0.2,0.7,0.4,1,0.7c0.5,0.5,0.9,1.1,1.2,1.8
				c0.2-0.3,0.4-0.5,0.7-0.6c0.4-0.2,0.8-0.2,1.4,0.1c0.3,0.1,0.6,0.3,0.8,0.5c0.4,0.4,0.6,0.8,0.8,1.4l-0.4,0.3
				C108.8-197.6,108.7-197.7,108.7-197.7z M105.3-198.3c-0.1-0.3-0.2-0.6-0.3-0.7c-0.2-0.3-0.4-0.5-0.7-0.6c-0.2-0.1-0.5-0.1-0.7,0
				c-0.3,0.1-0.5,0.4-0.7,0.8c-0.3,0.7-0.2,1.3,0.2,2.1c0.2,0.4,0.6,0.8,1,1.1L105.3-198.3z M90.4-219.3c0.7-1.6,0-3.4-1.5-4.2
				c-1.6-0.7-3.4,0-4.2,1.5c-0.7,1.6,0,3.4,1.5,4.2C87.8-217.1,89.7-217.8,90.4-219.3z M98-177.7c-0.2,0.1-0.4,0.2-0.4,0.4
				c0,0.1-0.1,0.2-0.1,0.3s0,0.2,0.1,0.3c0.1,0.3,0.4,0.5,0.7,0.5c0.1,0,0.2,0,0.3-0.1c0.2-0.1,0.4-0.2,0.4-0.4
				c0.1-0.2,0.1-0.4,0-0.6c-0.1-0.2-0.2-0.3-0.4-0.4C98.4-177.7,98.2-177.7,98-177.7z M79.1-186.3c-0.2,0.1-0.4,0.2-0.4,0.4
				c-0.1,0.2-0.1,0.4,0,0.6c0.1,0.4,0.6,0.6,1,0.5c0.1,0,0.2-0.1,0.3-0.2c0.1-0.1,0.1-0.2,0.2-0.2c0-0.1,0.1-0.2,0.1-0.3
				s0-0.2,0-0.3s-0.1-0.2-0.2-0.2c-0.1-0.1-0.1-0.1-0.2-0.2C79.5-186.4,79.3-186.4,79.1-186.3z M88.1-181.6c-0.2,0.4,0,0.9,0.4,1
				c0.4,0.2,0.9,0,1-0.4c0.2-0.4,0-0.9-0.4-1C88.8-182.2,88.3-182,88.1-181.6z M108.6-180.2c0.1-0.2,0.1-0.4,0-0.6
				c0-0.1-0.1-0.2-0.2-0.3c-0.1-0.1-0.2-0.1-0.3-0.2c-0.2-0.1-0.4-0.1-0.6,0c-0.2,0.1-0.4,0.2-0.4,0.4c0,0.1-0.1,0.2-0.1,0.3
				s0,0.2,0.1,0.3c0.1,0.3,0.4,0.5,0.7,0.5c0.1,0,0.2,0,0.3,0s0.2-0.1,0.2-0.2C108.5-180,108.5-180.1,108.6-180.2z M92.8-179.4
				c-0.2,0.4,0,0.9,0.4,1c0.4,0.2,0.9,0,1-0.4c0.2-0.4,0-0.9-0.4-1C93.5-180,93-179.8,92.8-179.4z M115.1-194.3c0.2-0.4,0-0.9-0.4-1
				c-0.4-0.2-0.9,0-1,0.4c-0.2,0.4,0,0.9,0.4,1C114.4-193.7,114.9-193.9,115.1-194.3z M102-175.2c-0.7,1.6,0,3.4,1.5,4.2
				c1.6,0.7,3.4,0,4.2-1.5c0.7-1.6,0-3.4-1.5-4.2C104.6-177.5,102.7-176.8,102-175.2z M110.7-184.9c0.2-0.4,0-0.9-0.4-1.1
				c-0.4-0.2-0.9,0-1,0.4c-0.2,0.4,0,0.8,0.4,1C110.1-184.3,110.6-184.5,110.7-184.9z M116.8-198.6c0.1,0,0.2-0.1,0.3-0.2
				c0.1-0.1,0.1-0.2,0.2-0.2c0.1-0.2,0.1-0.4,0-0.6c0-0.1-0.1-0.2-0.2-0.2c-0.1-0.1-0.1-0.1-0.2-0.2c-0.2-0.1-0.4-0.1-0.6,0
				c-0.2,0.1-0.4,0.2-0.4,0.4c0,0.1-0.1,0.2-0.1,0.3s0,0.2,0.1,0.3c0,0.1,0.1,0.2,0.2,0.3c0.1,0.2,0.3,0.2,0.5,0.2
				C116.6-198.6,116.7-198.6,116.8-198.6z M112.9-189.6c0.2-0.4,0-0.9-0.4-1c-0.4-0.2-0.9,0-1,0.4c-0.2,0.4,0,0.9,0.4,1
				C112.3-189,112.7-189.2,112.9-189.6z M83.4-183.8c-0.2,0.4,0,0.9,0.4,1c0.4,0.2,0.9,0,1-0.4c0.2-0.4,0-0.9-0.4-1
				C84-184.3,83.6-184.2,83.4-183.8z M104.3-213c0.2-0.4,0-0.8-0.4-1s-0.9,0-1,0.4c-0.2,0.4,0,0.9,0.4,1
				C103.6-212.4,104.1-212.6,104.3-213z M109-210.8c0.2-0.4,0-0.9-0.4-1c-0.4-0.2-0.9,0-1,0.4c-0.2,0.4,0,0.9,0.4,1
				C108.3-210.2,108.8-210.4,109-210.8z M94.7-217c0.1-0.1,0.1-0.2,0.2-0.3c0-0.1,0.1-0.2,0.1-0.3s0-0.2-0.1-0.3
				c-0.1-0.2-0.2-0.4-0.4-0.4c-0.2-0.1-0.4-0.1-0.6,0c-0.1,0-0.2,0.1-0.2,0.2c-0.1,0.1-0.1,0.2-0.2,0.2c0,0.1-0.1,0.2-0.1,0.3
				s0,0.2,0,0.3c0.2,0.4,0.6,0.6,1,0.5C94.5-216.9,94.6-217,94.7-217z M99.6-215.1c0.2-0.4,0-0.8-0.4-1s-0.9,0-1,0.4
				c-0.2,0.4,0,0.9,0.4,1C98.9-214.6,99.4-214.7,99.6-215.1z M122.4-204.6c0.7-1.6,0-3.4-1.5-4.2c-1.6-0.7-3.4,0-4.2,1.5
				c-0.7,1.6,0,3.4,1.5,4.2C119.8-202.3,121.7-203,122.4-204.6z M113.5-208.4c0.1-0.1,0.1-0.2,0.2-0.3c0-0.1,0.1-0.2,0.1-0.3
				s0-0.2-0.1-0.3c0-0.1-0.1-0.2-0.2-0.3c-0.1-0.1-0.1-0.1-0.2-0.2c-0.2-0.1-0.4-0.1-0.6,0c-0.1,0-0.2,0.1-0.3,0.2
				c-0.1,0.1-0.1,0.2-0.2,0.2c0,0.1-0.1,0.2-0.1,0.3s0,0.2,0.1,0.3c0,0.1,0.1,0.2,0.2,0.3c0.1,0.1,0.3,0.2,0.5,0.2
				c0.1,0,0.2,0,0.3-0.1C113.3-208.3,113.4-208.3,113.5-208.4z M75.7-187.3c0.7-1.6,0-3.4-1.5-4.2c-1.6-0.7-3.4,0-4.2,1.5
				c-0.7,1.6,0,3.4,1.5,4.2C73.1-185.1,75-185.7,75.7-187.3z M75.9-196c-0.1,0-0.2,0-0.3,0c-0.2,0.1-0.4,0.2-0.4,0.4
				c0,0.1-0.1,0.2-0.1,0.3s0,0.2,0,0.3s0.1,0.2,0.2,0.3c0.2,0.2,0.6,0.3,0.8,0.2c0.1,0,0.2-0.1,0.3-0.2c0.1-0.1,0.1-0.2,0.2-0.2
				c0.1-0.2,0.1-0.4,0-0.6c-0.1-0.2-0.2-0.3-0.4-0.4C76.1-196,76-196,75.9-196z M79.5-205c-0.2,0.4,0,0.9,0.4,1c0.4,0.2,0.9,0,1-0.4
				c0.2-0.4,0-0.9-0.4-1S79.6-205.4,79.5-205z M81.6-209.7c-0.2,0.4,0,0.9,0.4,1c0.4,0.2,0.9,0,1-0.4c0.2-0.4,0-0.9-0.4-1
				C82.3-210.2,81.8-210.1,81.6-209.7z M77.3-200.2c-0.2,0.4,0,0.8,0.4,1s0.9,0,1-0.4c0.2-0.4,0-0.9-0.4-1.1
				C77.9-200.8,77.5-200.6,77.3-200.2z M83.8-214.4c0,0.1-0.1,0.2-0.1,0.3s0,0.2,0.1,0.3c0,0.1,0.1,0.2,0.2,0.3
				c0.2,0.2,0.6,0.3,0.8,0.2c0.1,0,0.2-0.1,0.3-0.2c0.1-0.1,0.1-0.2,0.2-0.2c0.1-0.2,0.1-0.4,0-0.6c-0.1-0.2-0.2-0.3-0.4-0.4
				c-0.2-0.1-0.4-0.1-0.6,0C84-214.7,83.9-214.6,83.8-214.4z"/>
			<g>
				<path class="st16" d="M126.7-224.9l-30.3-14c-1.6-0.7-3.5,0-4.3,1.6l0,0c-0.7,1.6,0,3.5,1.6,4.3l30.3,14c1.6,0.7,3.5,0,4.3-1.6
					l0,0C129-222.3,128.3-224.2,126.7-224.9z"/>
				<path class="st16" d="M270.8-174.1l-168.6-77.6c-1.6-0.7-3.5,0-4.3,1.6l0,0c-0.7,1.6,0,3.5,1.6,4.3l168.6,77.6
					c1.6,0.7,3.5,0,4.3-1.6l0,0C273.1-171.4,272.4-173.3,270.8-174.1z"/>
				<path class="st16" d="M276.7-186.9l-168.6-77.6c-1.6-0.7-3.5,0-4.3,1.6l0,0c-0.7,1.6,0,3.5,1.6,4.3L274-181
					c1.6,0.7,3.5,0,4.3-1.6l0,0C279-184.2,278.3-186.1,276.7-186.9z"/>
				<path class="st16" d="M225.8-225.7l-111.9-51.5c-1.6-0.7-3.5,0-4.3,1.6l0,0c-0.7,1.6,0,3.5,1.6,4.3l111.9,51.5
					c1.6,0.7,3.5,0,4.3-1.6l0,0C228.2-223.1,227.5-225,225.8-225.7z"/>
			</g>
			
				<linearGradient id="SVGID_9_" gradientUnits="userSpaceOnUse" x1="169.1576" y1="-281.1549" x2="205.4162" y2="-281.1549" gradientTransform="matrix(1 -5.119922e-03 5.119958e-03 1 89.8065 58.5549)">
				<stop  offset="0" style="stop-color:#B24EFF"/>
				<stop  offset="1" style="stop-color:#3793FF"/>
			</linearGradient>
			<path class="st27" d="M293.4-215.4c1.1-2.4,0.1-5.2-2.3-6.3s-5.2-0.1-6.3,2.3c-1.1,2.4-0.1,5.2,2.3,6.3
				C289.5-212,292.3-213.1,293.4-215.4z M273.7-219.3c-2.4-1.1-3.4-3.9-2.3-6.3c1.1-2.4,3.9-3.4,6.3-2.3c2.4,1.1,3.4,3.9,2.3,6.3
				C278.8-219.2,276-218.2,273.7-219.3z M260.2-225.5c-2.4-1.1-3.4-3.9-2.3-6.3c1.1-2.4,3.9-3.4,6.3-2.3c2.4,1.1,3.4,3.9,2.3,6.3
				C265.4-225.4,262.6-224.4,260.2-225.5z"/>
		</g>
	</g>
	<g>
		<g>
			
				<image style="overflow:visible;opacity:0.3;enable-background:new    ;" width="361" height="386" xlink:href="B5B580F19E23646D.png"  transform="matrix(0.9973 0 0 -0.9973 131.4635 371.6904)">
			</image>
			<g>
				<path d="M271.6,8.4L453,92c11.7,5.4,16.8,19.3,11.4,31l-15.8,34.3l-88.8,192.6c-5.4,11.7-19.3,16.8-31,11.4l-181.4-83.6
					c-11.7-5.4-16.8-19.3-11.4-31L240.6,19.8C246,8.1,259.9,3,271.6,8.4z"/>
				<path class="st0" d="M272.1,7.9l181.4,83.6c11.7,5.4,16.8,19.3,11.4,31l-15.8,34.3l-88.8,192.6c-5.4,11.7-19.3,16.8-31,11.4
					l-181.4-83.6c-11.7-5.4-16.8-19.3-11.4-31L241.1,19.3C246.5,7.6,260.4,2.5,272.1,7.9z"/>
				<path class="st1" d="M271.8,8.1l181.4,83.6c11.7,5.4,16.8,19.3,11.4,31L448.8,157L360,349.6c-5.4,11.7-19.3,16.8-31,11.4
					l-181.4-83.6c-11.7-5.4-16.8-19.3-11.4-31L240.9,19.6C246.3,7.9,260.1,2.7,271.8,8.1z"/>
			</g>
		</g>
		<g>
			<g>
				<ellipse transform="matrix(0.4185 -0.9082 0.9082 0.4185 -107.5644 480.4832)" cx="321.4" cy="324.2" rx="11.6" ry="11.6"/>
				
					<ellipse transform="matrix(0.4185 -0.9082 0.9082 0.4185 -107.9532 480.3175)" class="st17" cx="321.1" cy="324.5" rx="11.6" ry="11.6"/>
				<ellipse transform="matrix(0.4185 -0.9082 0.9082 0.4185 -107.2083 480.4999)" cx="321.6" cy="324" rx="11.6" ry="11.6"/>
				
					<ellipse transform="matrix(0.4185 -0.9082 0.9082 0.4185 -107.5644 480.4832)" class="st12" cx="321.4" cy="324.2" rx="11.6" ry="11.6"/>
			</g>
			<g>
				<polygon class="st28" points="321.9,320 320.5,320.6 322.1,324.5 318.1,325.8 318.6,327.3 324.2,325.5 				"/>
			</g>
		</g>
		<g>
			<g>
				<ellipse transform="matrix(0.4185 -0.9082 0.9082 0.4185 -130.4952 315.1157)" cx="180.8" cy="259.5" rx="11.6" ry="11.6"/>
				
					<ellipse transform="matrix(0.4185 -0.9082 0.9082 0.4185 -130.8513 315.099)" class="st17" cx="180.6" cy="259.7" rx="11.6" ry="11.6"/>
				<ellipse transform="matrix(0.4185 -0.9082 0.9082 0.4185 -130.0482 315.1905)" cx="181.1" cy="259.2" rx="11.6" ry="11.6"/>
				
					<ellipse transform="matrix(0.4185 -0.9082 0.9082 0.4185 -130.4952 315.1157)" class="st12" cx="180.8" cy="259.5" rx="11.6" ry="11.6"/>
			</g>
			<g>
				<polygon class="st28" points="183.6,256.3 184.1,257.8 180.1,259 181.7,262.9 180.3,263.5 178,258.1 				"/>
			</g>
		</g>
		<g>
			<g>
				
					<text transform="matrix(0.9082 0.4185 0.4185 -0.9082 228.7339 275.9996)" class="st29" style="font-family:'ArialMT'; font-size:12.4495px;">DEC 2021</text>
			</g>
		</g>
		<g>
			<g>
				<g>
					
						<text transform="matrix(0.9082 0.4185 0.4185 -0.9082 182.5455 201.7003)" class="st29" style="font-family:'ArialMT'; font-size:9.3371px;">Sun</text>
				</g>
			</g>
			<g>
				<g>
					
						<text transform="matrix(0.9082 0.4185 0.4185 -0.9082 209.147 213.9601)" class="st29" style="font-family:'ArialMT'; font-size:9.3371px;">Mon</text>
				</g>
			</g>
			<g>
				<g>
					
						<text transform="matrix(0.9082 0.4185 0.4185 -0.9082 238.5816 227.5245)" class="st29" style="font-family:'ArialMT'; font-size:9.3371px;">Tue</text>
				</g>
			</g>
			<g>
				<g>
					
						<text transform="matrix(0.9082 0.4185 0.4185 -0.9082 264.9605 239.6813)" class="st29" style="font-family:'ArialMT'; font-size:9.3371px;">Wed</text>
				</g>
			</g>
			<g>
				<g>
					
						<text transform="matrix(0.9082 0.4185 0.4185 -0.9082 294.1773 253.1456)" class="st29" style="font-family:'ArialMT'; font-size:9.3371px;">Thu</text>
				</g>
			</g>
			<g>
				<g>
					
						<text transform="matrix(0.9082 0.4185 0.4185 -0.9082 324.4468 267.0948)" class="st29" style="font-family:'ArialMT'; font-size:9.3371px;">Fri</text>
				</g>
			</g>
			<g>
				<g>
					
						<text transform="matrix(0.9082 0.4185 0.4185 -0.9082 351.2652 279.4542)" class="st29" style="font-family:'ArialMT'; font-size:9.3371px;">Sat</text>
				</g>
			</g>
		</g>
		<g>
			<path class="st16" d="M189.8,175L189.8,175c-2.9,6.2-0.1,13.5,6,16.4l0,0c6.2,2.9,13.5,0.1,16.4-6l0,0c2.9-6.2,0.1-13.5-6-16.4
				l0,0C200,166.1,192.6,168.9,189.8,175z"/>
			<path class="st17" d="M189.5,175.3L189.5,175.3c-2.9,6.2-0.1,13.5,6,16.4l0,0c6.2,2.9,13.5,0.1,16.4-6l0,0
				c2.9-6.2,0.1-13.5-6-16.4l0,0C199.7,166.4,192.4,169.1,189.5,175.3z"/>
			<path class="st16" d="M190,174.8L190,174.8c-2.9,6.2-0.1,13.5,6,16.4l0,0c6.2,2.9,13.5,0.1,16.4-6l0,0c2.9-6.2,0.1-13.5-6-16.4
				l0,0C200.2,165.9,192.9,168.6,190,174.8z"/>
			<path class="st12" d="M189.8,175L189.8,175c-2.9,6.2-0.1,13.5,6,16.4l0,0c6.2,2.9,13.5,0.1,16.4-6l0,0c2.9-6.2,0.1-13.5-6-16.4
				l0,0C200,166.1,192.6,168.9,189.8,175z"/>
		</g>
		<g>
			<path class="st16" d="M217.7,187.9L217.7,187.9c-2.9,6.2-0.1,13.5,6,16.4l0,0c6.2,2.9,13.5,0.1,16.4-6l0,0
				c2.9-6.2,0.1-13.5-6-16.4l0,0C227.9,179,220.5,181.7,217.7,187.9z"/>
			<path class="st17" d="M217.4,188.2L217.4,188.2c-2.9,6.2-0.1,13.5,6,16.4l0,0c6.2,2.9,13.5,0.1,16.4-6l0,0
				c2.9-6.2,0.1-13.5-6-16.4l0,0C227.6,179.3,220.3,182,217.4,188.2z"/>
			<path class="st16" d="M218,187.6L218,187.6c-2.9,6.2-0.1,13.5,6,16.4l0,0c6.2,2.9,13.5,0.1,16.4-6l0,0c2.9-6.2,0.1-13.5-6-16.4
				l0,0C228.1,178.7,220.8,181.4,218,187.6z"/>
			<path class="st12" d="M217.7,187.9L217.7,187.9c-2.9,6.2-0.1,13.5,6,16.4l0,0c6.2,2.9,13.5,0.1,16.4-6l0,0
				c2.9-6.2,0.1-13.5-6-16.4l0,0C227.9,179,220.5,181.7,217.7,187.9z"/>
		</g>
		<g>
			<path class="st16" d="M245.6,200.8L245.6,200.8c-2.9,6.2-0.1,13.5,6,16.4l0,0c6.2,2.9,13.5,0.1,16.4-6l0,0
				c2.9-6.2,0.1-13.5-6-16.4l0,0C255.8,191.9,248.5,194.6,245.6,200.8z"/>
			<path class="st17" d="M245.3,201L245.3,201c-2.9,6.2-0.1,13.5,6,16.4l0,0c6.2,2.9,13.5,0.1,16.4-6l0,0c2.9-6.2,0.1-13.5-6-16.4
				l0,0C255.5,192.1,248.2,194.8,245.3,201z"/>
			<path class="st16" d="M245.9,200.5L245.9,200.5c-2.9,6.2-0.1,13.5,6,16.4l0,0c6.2,2.9,13.5,0.1,16.4-6l0,0
				c2.9-6.2,0.1-13.5-6-16.4l0,0C256,191.6,248.7,194.3,245.9,200.5z"/>
			<path class="st12" d="M245.6,200.8L245.6,200.8c-2.9,6.2-0.1,13.5,6,16.4l0,0c6.2,2.9,13.5,0.1,16.4-6l0,0
				c2.9-6.2,0.1-13.5-6-16.4l0,0C255.8,191.9,248.5,194.6,245.6,200.8z"/>
		</g>
		<g>
			<path class="st16" d="M408.7,140.6L408.7,140.6c-2.9,6.2-0.1,13.5,6,16.4l0,0c6.2,2.9,13.5,0.1,16.4-6l0,0
				c2.9-6.2,0.1-13.5-6-16.4l0,0C418.9,131.7,411.6,134.4,408.7,140.6z"/>
			<path class="st17" d="M408.5,140.8L408.5,140.8c-2.9,6.2-0.1,13.5,6,16.4l0,0c6.2,2.9,13.5,0.1,16.4-6l0,0
				c2.9-6.2,0.1-13.5-6-16.4l0,0C418.6,131.9,411.3,134.6,408.5,140.8z"/>
			<path class="st16" d="M409,140.3L409,140.3c-2.9,6.2-0.1,13.5,6,16.4l0,0c6.2,2.9,13.5,0.1,16.4-6l0,0c2.9-6.2,0.1-13.5-6-16.4
				l0,0C419.2,131.4,411.8,134.1,409,140.3z"/>
			<path class="st12" d="M408.7,140.6L408.7,140.6c-2.9,6.2-0.1,13.5,6,16.4l0,0c6.2,2.9,13.5,0.1,16.4-6l0,0
				c2.9-6.2,0.1-13.5-6-16.4l0,0C418.9,131.7,411.6,134.4,408.7,140.6z"/>
		</g>
		<g>
			<path class="st16" d="M254.1,35.5L254.1,35.5c-2.9,6.2-0.1,13.5,6,16.4l0,0c6.2,2.9,13.5,0.1,16.4-6l0,0c2.9-6.2,0.1-13.5-6-16.4
				l0,0C264.3,26.6,256.9,29.3,254.1,35.5z"/>
			<path class="st17" d="M253.8,35.7L253.8,35.7c-2.9,6.2-0.1,13.5,6,16.4l0,0c6.2,2.9,13.5,0.1,16.4-6l0,0c2.9-6.2,0.1-13.5-6-16.4
				l0,0C264,26.8,256.7,29.5,253.8,35.7z"/>
			<path class="st16" d="M254.4,35.2L254.4,35.2c-2.9,6.2-0.1,13.5,6,16.4l0,0c6.2,2.9,13.5,0.1,16.4-6l0,0c2.9-6.2,0.1-13.5-6-16.4
				l0,0C264.5,26.3,257.2,29,254.4,35.2z"/>
			<path class="st12" d="M254.1,35.5L254.1,35.5c-2.9,6.2-0.1,13.5,6,16.4l0,0c6.2,2.9,13.5,0.1,16.4-6l0,0c2.9-6.2,0.1-13.5-6-16.4
				l0,0C264.3,26.6,256.9,29.3,254.1,35.5z"/>
		</g>
		<g>
			<path class="st16" d="M282,48.3L282,48.3c-2.9,6.2-0.1,13.5,6,16.4l0,0c6.2,2.9,13.5,0.1,16.4-6l0,0c2.9-6.2,0.1-13.5-6-16.4l0,0
				C292.2,39.4,284.9,42.1,282,48.3z"/>
			<path class="st17" d="M281.7,48.6L281.7,48.6c-2.9,6.2-0.1,13.5,6,16.4l0,0c6.2,2.9,13.5,0.1,16.4-6l0,0c2.9-6.2,0.1-13.5-6-16.4
				l0,0C291.9,39.7,284.6,42.4,281.7,48.6z"/>
			<path class="st16" d="M282.3,48.1L282.3,48.1c-2.9,6.2-0.1,13.5,6,16.4l0,0c6.2,2.9,13.5,0.1,16.4-6l0,0c2.9-6.2,0.1-13.5-6-16.4
				l0,0C292.5,39.2,285.1,41.9,282.3,48.1z"/>
			<path class="st12" d="M282,48.3L282,48.3c-2.9,6.2-0.1,13.5,6,16.4l0,0c6.2,2.9,13.5,0.1,16.4-6l0,0c2.9-6.2,0.1-13.5-6-16.4l0,0
				C292.2,39.4,284.9,42.1,282,48.3z"/>
		</g>
		<g>
			<path class="st16" d="M309.9,61.2L309.9,61.2c-2.9,6.2-0.1,13.5,6,16.4l0,0c6.2,2.9,13.5,0.1,16.4-6l0,0c2.9-6.2,0.1-13.5-6-16.4
				l0,0C320.1,52.3,312.8,55,309.9,61.2z"/>
			<path class="st17" d="M309.7,61.5L309.7,61.5c-2.9,6.2-0.1,13.5,6,16.4l0,0c6.2,2.9,13.5,0.1,16.4-6l0,0c2.9-6.2,0.1-13.5-6-16.4
				l0,0C319.8,52.6,312.5,55.3,309.7,61.5z"/>
			<path class="st16" d="M310.2,60.9L310.2,60.9c-2.9,6.2-0.1,13.5,6,16.4l0,0c6.2,2.9,13.5,0.1,16.4-6l0,0c2.9-6.2,0.1-13.5-6-16.4
				l0,0C320.4,52,313,54.7,310.2,60.9z"/>
			<path class="st12" d="M309.9,61.2L309.9,61.2c-2.9,6.2-0.1,13.5,6,16.4l0,0c6.2,2.9,13.5,0.1,16.4-6l0,0c2.9-6.2,0.1-13.5-6-16.4
				l0,0C320.1,52.3,312.8,55,309.9,61.2z"/>
		</g>
		<g>
			<path class="st16" d="M337.8,74.1L337.8,74.1c-2.9,6.2-0.1,13.5,6,16.4l0,0c6.2,2.9,13.5,0.1,16.4-6l0,0c2.9-6.2,0.1-13.5-6-16.4
				l0,0C348,65.2,340.7,67.9,337.8,74.1z"/>
			<path class="st17" d="M337.6,74.3L337.6,74.3c-2.9,6.2-0.1,13.5,6,16.4l0,0c6.2,2.9,13.5,0.1,16.4-6l0,0c2.9-6.2,0.1-13.5-6-16.4
				l0,0C347.8,65.4,340.4,68.1,337.6,74.3z"/>
			<path class="st16" d="M338.1,73.8L338.1,73.8c-2.9,6.2-0.1,13.5,6,16.4l0,0c6.2,2.9,13.5,0.1,16.4-6l0,0c2.9-6.2,0.1-13.5-6-16.4
				l0,0C348.3,64.9,341,67.6,338.1,73.8z"/>
			<path class="st12" d="M337.8,74.1L337.8,74.1c-2.9,6.2-0.1,13.5,6,16.4l0,0c6.2,2.9,13.5,0.1,16.4-6l0,0c2.9-6.2,0.1-13.5-6-16.4
				l0,0C348,65.2,340.7,67.9,337.8,74.1z"/>
		</g>
		<g>
			<path class="st16" d="M365.8,86.9L365.8,86.9c-2.9,6.2-0.1,13.5,6,16.4l0,0c6.2,2.9,13.5,0.1,16.4-6l0,0c2.9-6.2,0.1-13.5-6-16.4
				l0,0C375.9,78,368.6,80.7,365.8,86.9z"/>
			<path class="st17" d="M365.5,87.2L365.5,87.2c-2.9,6.2-0.1,13.5,6,16.4l0,0c6.2,2.9,13.5,0.1,16.4-6l0,0c2.9-6.2,0.1-13.5-6-16.4
				l0,0C375.7,78.3,368.3,81,365.5,87.2z"/>
			<path class="st16" d="M366,86.7L366,86.7c-2.9,6.2-0.1,13.5,6,16.4l0,0c6.2,2.9,13.5,0.1,16.4-6l0,0c2.9-6.2,0.1-13.5-6-16.4l0,0
				C376.2,77.8,368.9,80.5,366,86.7z"/>
			<path class="st12" d="M365.8,86.9L365.8,86.9c-2.9,6.2-0.1,13.5,6,16.4l0,0c6.2,2.9,13.5,0.1,16.4-6l0,0c2.9-6.2,0.1-13.5-6-16.4
				l0,0C375.9,78,368.6,80.7,365.8,86.9z"/>
		</g>
		<g>
			<path class="st16" d="M393.7,99.8L393.7,99.8c-2.9,6.2-0.1,13.5,6,16.4l0,0c6.2,2.9,13.5,0.1,16.4-6l0,0c2.9-6.2,0.1-13.5-6-16.4
				l0,0C403.8,90.9,396.5,93.6,393.7,99.8z"/>
			<path class="st17" d="M393.4,100.1L393.4,100.1c-2.9,6.2-0.1,13.5,6,16.4l0,0c6.2,2.9,13.5,0.1,16.4-6l0,0
				c2.9-6.2,0.1-13.5-6-16.4l0,0C403.6,91.2,396.3,93.9,393.4,100.1z"/>
			<path class="st16" d="M393.9,99.5L393.9,99.5c-2.9,6.2-0.1,13.5,6,16.4l0,0c6.2,2.9,13.5,0.1,16.4-6l0,0c2.9-6.2,0.1-13.5-6-16.4
				l0,0C404.1,90.6,396.8,93.3,393.9,99.5z"/>
			<path class="st12" d="M393.7,99.8L393.7,99.8c-2.9,6.2-0.1,13.5,6,16.4l0,0c6.2,2.9,13.5,0.1,16.4-6l0,0c2.9-6.2,0.1-13.5-6-16.4
				l0,0C403.8,90.9,396.5,93.6,393.7,99.8z"/>
		</g>
		<g>
			<path d="M421.6,112.7L421.6,112.7c-2.9,6.2-0.1,13.5,6,16.4l0,0c6.2,2.9,13.5,0.1,16.4-6l0,0c2.9-6.2,0.1-13.5-6-16.4l0,0
				C431.8,103.8,424.4,106.5,421.6,112.7z"/>
			<path class="st17" d="M421.3,112.9L421.3,112.9c-2.9,6.2-0.1,13.5,6,16.4l0,0c6.2,2.9,13.5,0.1,16.4-6l0,0
				c2.9-6.2,0.1-13.5-6-16.4l0,0C431.5,104,424.2,106.7,421.3,112.9z"/>
			<path d="M421.8,112.4L421.8,112.4c-2.9,6.2-0.1,13.5,6,16.4l0,0c6.2,2.9,13.5,0.1,16.4-6l0,0c2.9-6.2,0.1-13.5-6-16.4l0,0
				C432,103.5,424.7,106.2,421.8,112.4z"/>
			<path class="st12" d="M421.6,112.7L421.6,112.7c-2.9,6.2-0.1,13.5,6,16.4l0,0c6.2,2.9,13.5,0.1,16.4-6l0,0
				c2.9-6.2,0.1-13.5-6-16.4l0,0C431.8,103.8,424.4,106.5,421.6,112.7z"/>
		</g>
		<g>
			<g>
				<path class="st16" d="M273.2,213.9L273.2,213.9c-2.9,6.2-0.1,13.5,6,16.4l0,0c6.2,2.9,13.5,0.1,16.4-6l0,0
					c2.9-6.2,0.1-13.5-6-16.4l0,0C283.4,205,276.1,207.7,273.2,213.9z"/>
				<path class="st0" d="M273.8,213.4L273.8,213.4c-2.9,6.2-0.1,13.5,6,16.4l0,0c6.2,2.9,13.5,0.1,16.4-6l0,0
					c2.9-6.2,0.1-13.5-6-16.4l0,0C284,204.5,276.6,207.2,273.8,213.4z"/>
				<path class="st1" d="M273.5,213.6L273.5,213.6c-2.9,6.2-0.1,13.5,6,16.4l0,0c6.2,2.9,13.5,0.1,16.4-6l0,0
					c2.9-6.2,0.1-13.5-6-16.4l0,0C283.7,204.7,276.4,207.4,273.5,213.6z"/>
			</g>
			<g>
				<path d="M301.2,226.8L301.2,226.8c-2.9,6.2-0.1,13.5,6,16.4l0,0c6.2,2.9,13.5,0.1,16.4-6l0,0c2.9-6.2,0.1-13.5-6-16.4l0,0
					C311.3,217.9,304,220.6,301.2,226.8z"/>
				<path class="st0" d="M301.7,226.2L301.7,226.2c-2.9,6.2-0.1,13.5,6,16.4l0,0c6.2,2.9,13.5,0.1,16.4-6l0,0
					c2.9-6.2,0.1-13.5-6-16.4l0,0C311.9,217.3,304.6,220,301.7,226.2z"/>
				<path class="st1" d="M301.4,226.5L301.4,226.5c-2.9,6.2-0.1,13.5,6,16.4l0,0c6.2,2.9,13.5,0.1,16.4-6l0,0
					c2.9-6.2,0.1-13.5-6-16.4l0,0C311.6,217.6,304.3,220.3,301.4,226.5z"/>
			</g>
			<g>
				<path class="st16" d="M329.1,239.6L329.1,239.6c-2.9,6.2-0.1,13.5,6,16.4l0,0c6.2,2.9,13.5,0.1,16.4-6l0,0
					c2.9-6.2,0.1-13.5-6-16.4l0,0C339.3,230.7,331.9,233.4,329.1,239.6z"/>
				<path class="st0" d="M329.6,239.1L329.6,239.1c-2.9,6.2-0.1,13.5,6,16.4l0,0c6.2,2.9,13.5,0.1,16.4-6l0,0
					c2.9-6.2,0.1-13.5-6-16.4l0,0C339.8,230.2,332.5,232.9,329.6,239.1z"/>
				<path class="st1" d="M329.3,239.4L329.3,239.4c-2.9,6.2-0.1,13.5,6,16.4l0,0c6.2,2.9,13.5,0.1,16.4-6l0,0
					c2.9-6.2,0.1-13.5-6-16.4l0,0C339.5,230.5,332.2,233.2,329.3,239.4z"/>
			</g>
			<g>
				<path class="st16" d="M357,252.5L357,252.5c-2.9,6.2-0.1,13.5,6,16.4l0,0c6.2,2.9,13.5,0.1,16.4-6l0,0c2.9-6.2,0.1-13.5-6-16.4
					l0,0C367.2,243.6,359.8,246.3,357,252.5z"/>
				<path class="st0" d="M357.5,251.9L357.5,251.9c-2.9,6.2-0.1,13.5,6,16.4l0,0c6.2,2.9,13.5,0.1,16.4-6l0,0
					c2.9-6.2,0.1-13.5-6-16.4l0,0C367.7,243.1,360.4,245.8,357.5,251.9z"/>
				<path class="st1" d="M357.3,252.2L357.3,252.2c-2.9,6.2-0.1,13.5,6,16.4l0,0c6.2,2.9,13.5,0.1,16.4-6l0,0
					c2.9-6.2,0.1-13.5-6-16.4l0,0C367.4,243.3,360.1,246,357.3,252.2z"/>
			</g>
			<g>
				<path class="st16" d="M202.4,147.4L202.4,147.4c-2.9,6.2-0.1,13.5,6,16.4l0,0c6.2,2.9,13.5,0.1,16.4-6l0,0
					c2.9-6.2,0.1-13.5-6-16.4l0,0C212.6,138.5,205.2,141.2,202.4,147.4z"/>
				<path class="st0" d="M202.9,146.9L202.9,146.9c-2.9,6.2-0.1,13.5,6,16.4l0,0c6.2,2.9,13.5,0.1,16.4-6l0,0
					c2.9-6.2,0.1-13.5-6-16.4l0,0C213.1,138,205.8,140.7,202.9,146.9z"/>
				<path class="st1" d="M202.6,147.1L202.6,147.1c-2.9,6.2-0.1,13.5,6,16.4l0,0c6.2,2.9,13.5,0.1,16.4-6l0,0
					c2.9-6.2,0.1-13.5-6-16.4l0,0C212.8,138.2,205.5,140.9,202.6,147.1z"/>
			</g>
			<g>
				<path class="st16" d="M230.3,160.3L230.3,160.3c-2.9,6.2-0.1,13.5,6,16.4l0,0c6.2,2.9,13.5,0.1,16.4-6l0,0
					c2.9-6.2,0.1-13.5-6-16.4l0,0C240.5,151.4,233.1,154.1,230.3,160.3z"/>
				<path class="st0" d="M230.8,159.7L230.8,159.7c-2.9,6.2-0.1,13.5,6,16.4l0,0c6.2,2.9,13.5,0.1,16.4-6l0,0
					c2.9-6.2,0.1-13.5-6-16.4l0,0C241,150.8,233.7,153.5,230.8,159.7z"/>
				<path class="st1" d="M230.6,160L230.6,160c-2.9,6.2-0.1,13.5,6,16.4l0,0c6.2,2.9,13.5,0.1,16.4-6l0,0c2.9-6.2,0.1-13.5-6-16.4
					l0,0C240.7,151.1,233.4,153.8,230.6,160z"/>
			</g>
			<g>
				<path class="st16" d="M258.2,173.1L258.2,173.1c-2.9,6.2-0.1,13.5,6,16.4l0,0c6.2,2.9,13.5,0.1,16.4-6l0,0
					c2.9-6.2,0.1-13.5-6-16.4l0,0C268.4,164.2,261.1,166.9,258.2,173.1z"/>
				<path class="st0" d="M258.7,172.6L258.7,172.6c-2.9,6.2-0.1,13.5,6,16.4l0,0c6.2,2.9,13.5,0.1,16.4-6l0,0
					c2.9-6.2,0.1-13.5-6-16.4l0,0C268.9,163.7,261.6,166.4,258.7,172.6z"/>
				<path class="st1" d="M258.5,172.9L258.5,172.9c-2.9,6.2-0.1,13.5,6,16.4l0,0c6.2,2.9,13.5,0.1,16.4-6l0,0
					c2.9-6.2,0.1-13.5-6-16.4l0,0C268.6,164,261.3,166.7,258.5,172.9z"/>
			</g>
			<g>
				<path class="st16" d="M286.1,186L286.1,186c-2.9,6.2-0.1,13.5,6,16.4l0,0c6.2,2.9,13.5,0.1,16.4-6l0,0c2.9-6.2,0.1-13.5-6-16.4
					l0,0C296.3,177.1,289,179.8,286.1,186z"/>
				<path class="st0" d="M286.7,185.4L286.7,185.4c-2.9,6.2-0.1,13.5,6,16.4l0,0c6.2,2.9,13.5,0.1,16.4-6l0,0
					c2.9-6.2,0.1-13.5-6-16.4l0,0C296.8,176.6,289.5,179.3,286.7,185.4z"/>
				<path class="st1" d="M286.4,185.7L286.4,185.7c-2.9,6.2-0.1,13.5,6,16.4l0,0c6.2,2.9,13.5,0.1,16.4-6l0,0
					c2.9-6.2,0.1-13.5-6-16.4l0,0C296.6,176.8,289.2,179.5,286.4,185.7z"/>
			</g>
			<g>
				<path class="st16" d="M314,198.8L314,198.8c-2.9,6.2-0.1,13.5,6,16.4l0,0c6.2,2.9,13.5,0.1,16.4-6l0,0c2.9-6.2,0.1-13.5-6-16.4
					l0,0C324.2,190,316.9,192.7,314,198.8z"/>
				<path class="st0" d="M314.6,198.3L314.6,198.3c-2.9,6.2-0.1,13.5,6,16.4l0,0c6.2,2.9,13.5,0.1,16.4-6l0,0
					c2.9-6.2,0.1-13.5-6-16.4l0,0C324.7,189.4,317.4,192.1,314.6,198.3z"/>
				<path class="st1" d="M314.3,198.6L314.3,198.6c-2.9,6.2-0.1,13.5,6,16.4l0,0c6.2,2.9,13.5,0.1,16.4-6l0,0
					c2.9-6.2,0.1-13.5-6-16.4l0,0C324.5,189.7,317.1,192.4,314.3,198.6z"/>
			</g>
			<g>
				<path class="st16" d="M341.9,211.7L341.9,211.7c-2.9,6.2-0.1,13.5,6,16.4l0,0c6.2,2.9,13.5,0.1,16.4-6l0,0
					c2.9-6.2,0.1-13.5-6-16.4l0,0C352.1,202.8,344.8,205.5,341.9,211.7z"/>
				<path class="st0" d="M342.5,211.2L342.5,211.2c-2.9,6.2-0.1,13.5,6,16.4l0,0c6.2,2.9,13.5,0.1,16.4-6l0,0
					c2.9-6.2,0.1-13.5-6-16.4l0,0C352.7,202.3,345.3,205,342.5,211.2z"/>
				<path class="st1" d="M342.2,211.4L342.2,211.4c-2.9,6.2-0.1,13.5,6,16.4l0,0c6.2,2.9,13.5,0.1,16.4-6l0,0
					c2.9-6.2,0.1-13.5-6-16.4l0,0C352.4,202.6,345.1,205.3,342.2,211.4z"/>
			</g>
			<g>
				<path class="st16" d="M369.9,224.6L369.9,224.6c-2.9,6.2-0.1,13.5,6,16.4l0,0c6.2,2.9,13.5,0.1,16.4-6l0,0
					c2.9-6.2,0.1-13.5-6-16.4l0,0C380,215.7,372.7,218.4,369.9,224.6z"/>
				<path class="st0" d="M370.4,224L370.4,224c-2.9,6.2-0.1,13.5,6,16.4l0,0c6.2,2.9,13.5,0.1,16.4-6l0,0c2.9-6.2,0.1-13.5-6-16.4
					l0,0C380.6,215.1,373.2,217.8,370.4,224z"/>
				<path class="st1" d="M370.1,224.3L370.1,224.3c-2.9,6.2-0.1,13.5,6,16.4l0,0c6.2,2.9,13.5,0.1,16.4-6l0,0
					c2.9-6.2,0.1-13.5-6-16.4l0,0C380.3,215.4,373,218.1,370.1,224.3z"/>
			</g>
			<g>
				<path class="st16" d="M215.2,119.5L215.2,119.5c-2.9,6.2-0.1,13.5,6,16.4l0,0c6.2,2.9,13.5,0.1,16.4-6l0,0
					c2.9-6.2,0.1-13.5-6-16.4l0,0C225.4,110.6,218.1,113.3,215.2,119.5z"/>
				<path class="st0" d="M215.8,118.9L215.8,118.9c-2.9,6.2-0.1,13.5,6,16.4l0,0c6.2,2.9,13.5,0.1,16.4-6l0,0
					c2.9-6.2,0.1-13.5-6-16.4l0,0C226,110,218.6,112.8,215.8,118.9z"/>
				<path class="st1" d="M215.5,119.2L215.5,119.2c-2.9,6.2-0.1,13.5,6,16.4l0,0c6.2,2.9,13.5,0.1,16.4-6l0,0
					c2.9-6.2,0.1-13.5-6-16.4l0,0C225.7,110.3,218.4,113,215.5,119.2z"/>
			</g>
			<g>
				<path class="st16" d="M243.2,132.3L243.2,132.3c-2.9,6.2-0.1,13.5,6,16.4l0,0c6.2,2.9,13.5,0.1,16.4-6l0,0
					c2.9-6.2,0.1-13.5-6-16.4l0,0C253.3,123.5,246,126.2,243.2,132.3z"/>
				<path class="st0" d="M243.7,131.8L243.7,131.8c-2.9,6.2-0.1,13.5,6,16.4l0,0c6.2,2.9,13.5,0.1,16.4-6l0,0
					c2.9-6.2,0.1-13.5-6-16.4l0,0C253.9,122.9,246.5,125.6,243.7,131.8z"/>
				<path class="st1" d="M243.4,132.1L243.4,132.1c-2.9,6.2-0.1,13.5,6,16.4l0,0c6.2,2.9,13.5,0.1,16.4-6l0,0
					c2.9-6.2,0.1-13.5-6-16.4l0,0C253.6,123.2,246.3,125.9,243.4,132.1z"/>
			</g>
			<g>
				<path class="st16" d="M271.1,145.2L271.1,145.2c-2.9,6.2-0.1,13.5,6,16.4l0,0c6.2,2.9,13.5,0.1,16.4-6l0,0
					c2.9-6.2,0.1-13.5-6-16.4l0,0C281.2,136.3,273.9,139,271.1,145.2z"/>
				<path class="st0" d="M271.6,144.7L271.6,144.7c-2.9,6.2-0.1,13.5,6,16.4l0,0c6.2,2.9,13.5,0.1,16.4-6l0,0
					c2.9-6.2,0.1-13.5-6-16.4l0,0C281.8,135.8,274.5,138.5,271.6,144.7z"/>
				<path class="st1" d="M271.3,144.9L271.3,144.9c-2.9,6.2-0.1,13.5,6,16.4l0,0c6.2,2.9,13.5,0.1,16.4-6l0,0
					c2.9-6.2,0.1-13.5-6-16.4l0,0C281.5,136,274.2,138.8,271.3,144.9z"/>
			</g>
			<g>
				<path class="st16" d="M299,158.1L299,158.1c-2.9,6.2-0.1,13.5,6,16.4l0,0c6.2,2.9,13.5,0.1,16.4-6l0,0c2.9-6.2,0.1-13.5-6-16.4
					l0,0C309.2,149.2,301.8,151.9,299,158.1z"/>
				<path class="st0" d="M299.5,157.5L299.5,157.5c-2.9,6.2-0.1,13.5,6,16.4l0,0c6.2,2.9,13.5,0.1,16.4-6l0,0
					c2.9-6.2,0.1-13.5-6-16.4l0,0C309.7,148.6,302.4,151.3,299.5,157.5z"/>
				<path class="st1" d="M299.2,157.8L299.2,157.8c-2.9,6.2-0.1,13.5,6,16.4l0,0c6.2,2.9,13.5,0.1,16.4-6l0,0
					c2.9-6.2,0.1-13.5-6-16.4l0,0C309.4,148.9,302.1,151.6,299.2,157.8z"/>
			</g>
			<g>
				<path class="st16" d="M326.9,170.9L326.9,170.9c-2.9,6.2-0.1,13.5,6,16.4l0,0c6.2,2.9,13.5,0.1,16.4-6l0,0
					c2.9-6.2,0.1-13.5-6-16.4l0,0C337.1,162,329.7,164.7,326.9,170.9z"/>
				<path class="st0" d="M327.4,170.4L327.4,170.4c-2.9,6.2-0.1,13.5,6,16.4l0,0c6.2,2.9,13.5,0.1,16.4-6l0,0
					c2.9-6.2,0.1-13.5-6-16.4l0,0C337.6,161.5,330.3,164.2,327.4,170.4z"/>
				<path class="st1" d="M327.2,170.7L327.2,170.7c-2.9,6.2-0.1,13.5,6,16.4l0,0c6.2,2.9,13.5,0.1,16.4-6l0,0
					c2.9-6.2,0.1-13.5-6-16.4l0,0C337.3,161.8,330,164.5,327.2,170.7z"/>
			</g>
			<g>
				<path class="st16" d="M354.8,183.8L354.8,183.8c-2.9,6.2-0.1,13.5,6,16.4l0,0c6.2,2.9,13.5,0.1,16.4-6l0,0
					c2.9-6.2,0.1-13.5-6-16.4l0,0C365,174.9,357.7,177.6,354.8,183.8z"/>
				<path class="st0" d="M355.3,183.3L355.3,183.3c-2.9,6.2-0.1,13.5,6,16.4l0,0c6.2,2.9,13.5,0.1,16.4-6l0,0
					c2.9-6.2,0.1-13.5-6-16.4l0,0C365.5,174.4,358.2,177.1,355.3,183.3z"/>
				<path class="st1" d="M355.1,183.5L355.1,183.5c-2.9,6.2-0.1,13.5,6,16.4l0,0c6.2,2.9,13.5,0.1,16.4-6l0,0
					c2.9-6.2,0.1-13.5-6-16.4l0,0C365.3,174.6,357.9,177.3,355.1,183.5z"/>
			</g>
			<g>
				<path class="st16" d="M382.7,196.7L382.7,196.7c-2.9,6.2-0.1,13.5,6,16.4l0,0c6.2,2.9,13.5,0.1,16.4-6l0,0
					c2.9-6.2,0.1-13.5-6-16.4l0,0C392.9,187.8,385.6,190.5,382.7,196.7z"/>
				<path class="st0" d="M383.3,196.1L383.3,196.1c-2.9,6.2-0.1,13.5,6,16.4l0,0c6.2,2.9,13.5,0.1,16.4-6l0,0
					c2.9-6.2,0.1-13.5-6-16.4l0,0C393.4,187.2,386.1,189.9,383.3,196.1z"/>
				<path class="st1" d="M383,196.4L383,196.4c-2.9,6.2-0.1,13.5,6,16.4l0,0c6.2,2.9,13.5,0.1,16.4-6l0,0c2.9-6.2,0.1-13.5-6-16.4
					l0,0C393.2,187.5,385.8,190.2,383,196.4z"/>
			</g>
			
				<linearGradient id="SVGID_10_" gradientUnits="userSpaceOnUse" x1="9284.3643" y1="5284.7866" x2="9314.3008" y2="5254.8511" gradientTransform="matrix(0.9082 0.4185 -0.4185 0.9082 -5989.0142 -8585.5791)">
				<stop  offset="4.960300e-04" style="stop-color:#A482FF"/>
				<stop  offset="1" style="stop-color:#6A4AFF"/>
			</linearGradient>
			<path class="st30" d="M228.4,91.3L228.4,91.3c-2.9,6.2-0.1,13.5,6,16.4l0,0c6.2,2.9,13.5,0.1,16.4-6l0,0c2.9-6.2,0.1-13.5-6-16.4
				l0,0C238.5,82.4,231.2,85.1,228.4,91.3z"/>
			<g>
				<path class="st16" d="M256,104.4L256,104.4c-2.9,6.2-0.1,13.5,6,16.4l0,0c6.2,2.9,13.5,0.1,16.4-6l0,0c2.9-6.2,0.1-13.5-6-16.4
					l0,0C266.2,95.5,258.9,98.2,256,104.4z"/>
				<path class="st0" d="M256.6,103.9L256.6,103.9c-2.9,6.2-0.1,13.5,6,16.4l0,0c6.2,2.9,13.5,0.1,16.4-6l0,0
					c2.9-6.2,0.1-13.5-6-16.4l0,0C266.7,95,259.4,97.7,256.6,103.9z"/>
				<path class="st1" d="M256.3,104.2L256.3,104.2c-2.9,6.2-0.1,13.5,6,16.4l0,0c6.2,2.9,13.5,0.1,16.4-6l0,0
					c2.9-6.2,0.1-13.5-6-16.4l0,0C266.5,95.3,259.1,98,256.3,104.2z"/>
			</g>
			<g>
				<path class="st16" d="M283.9,117.3L283.9,117.3c-2.9,6.2-0.1,13.5,6,16.4l0,0c6.2,2.9,13.5,0.1,16.4-6l0,0
					c2.9-6.2,0.1-13.5-6-16.4l0,0C294.1,108.4,286.8,111.1,283.9,117.3z"/>
				<path class="st0" d="M284.5,116.8L284.5,116.8c-2.9,6.2-0.1,13.5,6,16.4l0,0c6.2,2.9,13.5,0.1,16.4-6l0,0
					c2.9-6.2,0.1-13.5-6-16.4l0,0C294.6,107.9,287.3,110.6,284.5,116.8z"/>
				<path class="st1" d="M284.2,117L284.2,117c-2.9,6.2-0.1,13.5,6,16.4l0,0c6.2,2.9,13.5,0.1,16.4-6l0,0c2.9-6.2,0.1-13.5-6-16.4
					l0,0C294.4,108.1,287,110.8,284.2,117z"/>
			</g>
			<g>
				<path class="st16" d="M311.8,130.2L311.8,130.2c-2.9,6.2-0.1,13.5,6,16.4l0,0c6.2,2.9,13.5,0.1,16.4-6l0,0
					c2.9-6.2,0.1-13.5-6-16.4l0,0C322,121.3,314.7,124,311.8,130.2z"/>
				<path class="st0" d="M312.4,129.6L312.4,129.6c-2.9,6.2-0.1,13.5,6,16.4l0,0c6.2,2.9,13.5,0.1,16.4-6l0,0
					c2.9-6.2,0.1-13.5-6-16.4l0,0C322.6,120.7,315.2,123.4,312.4,129.6z"/>
				<path class="st1" d="M312.1,129.9L312.1,129.9c-2.9,6.2-0.1,13.5,6,16.4l0,0c6.2,2.9,13.5,0.1,16.4-6l0,0
					c2.9-6.2,0.1-13.5-6-16.4l0,0C322.3,121,315,123.7,312.1,129.9z"/>
			</g>
			<g>
				<path class="st16" d="M339.8,143L339.8,143c-2.9,6.2-0.1,13.5,6,16.4l0,0c6.2,2.9,13.5,0.1,16.4-6l0,0c2.9-6.2,0.1-13.5-6-16.4
					l0,0C349.9,134.1,342.6,136.8,339.8,143z"/>
				<path class="st0" d="M340.3,142.5L340.3,142.5c-2.9,6.2-0.1,13.5,6,16.4l0,0c6.2,2.9,13.5,0.1,16.4-6l0,0
					c2.9-6.2,0.1-13.5-6-16.4l0,0C350.5,133.6,343.1,136.3,340.3,142.5z"/>
				<path class="st1" d="M340,142.8L340,142.8c-2.9,6.2-0.1,13.5,6,16.4l0,0c6.2,2.9,13.5,0.1,16.4-6l0,0c2.9-6.2,0.1-13.5-6-16.4
					l0,0C350.2,133.9,342.9,136.6,340,142.8z"/>
			</g>
			<g>
				<path class="st16" d="M367.7,155.9L367.7,155.9c-2.9,6.2-0.1,13.5,6,16.4l0,0c6.2,2.9,13.5,0.1,16.4-6l0,0
					c2.9-6.2,0.1-13.5-6-16.4l0,0C377.8,147,370.5,149.7,367.7,155.9z"/>
				<path class="st0" d="M368.2,155.3L368.2,155.3c-2.9,6.2-0.1,13.5,6,16.4l0,0c6.2,2.9,13.5,0.1,16.4-6l0,0
					c2.9-6.2,0.1-13.5-6-16.4l0,0C378.4,146.5,371.1,149.2,368.2,155.3z"/>
				<path class="st1" d="M367.9,155.6L367.9,155.6c-2.9,6.2-0.1,13.5,6,16.4l0,0c6.2,2.9,13.5,0.1,16.4-6l0,0
					c2.9-6.2,0.1-13.5-6-16.4l0,0C378.1,146.7,370.8,149.4,367.9,155.6z"/>
			</g>
			<g>
				<path class="st16" d="M395.6,168.7L395.6,168.7c-2.9,6.2-0.1,13.5,6,16.4l0,0c6.2,2.9,13.5,0.1,16.4-6l0,0
					c2.9-6.2,0.1-13.5-6-16.4l0,0C405.8,159.9,398.4,162.6,395.6,168.7z"/>
				<path class="st0" d="M396.1,168.2L396.1,168.2c-2.9,6.2-0.1,13.5,6,16.4l0,0c6.2,2.9,13.5,0.1,16.4-6l0,0
					c2.9-6.2,0.1-13.5-6-16.4l0,0C406.3,159.3,399,162,396.1,168.2z"/>
				<path class="st1" d="M395.9,168.5L395.9,168.5c-2.9,6.2-0.1,13.5,6,16.4l0,0c6.2,2.9,13.5,0.1,16.4-6l0,0
					c2.9-6.2,0.1-13.5-6-16.4l0,0C406,159.6,398.7,162.3,395.9,168.5z"/>
			</g>
			<g>
				<path class="st16" d="M244,57.4l-6,12.2c-1.3,2.7-0.2,5.9,2.5,7.2l12.5,6.1c2.7,1.3,5.9,0.2,7.2-2.5l6.1-12.5
					c1.3-2.7,0.2-5.9-2.5-7.2l-12.2-6C248.8,53.4,245.4,54.6,244,57.4z"/>
				<path class="st0" d="M244.6,56.9l-6,12.2c-1.3,2.7-0.2,5.9,2.5,7.2l12.5,6.1c2.7,1.3,5.9,0.2,7.2-2.5l6.1-12.5
					c1.3-2.7,0.2-5.9-2.5-7.2l-12.2-6C249.3,52.9,245.9,54.1,244.6,56.9z"/>
				<path class="st1" d="M244.3,57.1l-6,12.2c-1.3,2.7-0.2,5.9,2.5,7.2l12.5,6.1c2.7,1.3,5.9,0.2,7.2-2.5l6.1-12.5
					c1.3-2.7,0.2-5.9-2.5-7.2l-12.2-6C249,53.2,245.7,54.3,244.3,57.1z"/>
			</g>
			<g>
				<path class="st16" d="M268.9,76.5L268.9,76.5c-2.9,6.2-0.1,13.5,6,16.4l0,0c6.2,2.9,13.5,0.1,16.4-6l0,0
					c2.9-6.2,0.1-13.5-6-16.4l0,0C279.1,67.6,271.7,70.3,268.9,76.5z"/>
				<path class="st0" d="M269.4,76L269.4,76c-2.9,6.2-0.1,13.5,6,16.4l0,0c6.2,2.9,13.5,0.1,16.4-6l0,0c2.9-6.2,0.1-13.5-6-16.4l0,0
					C279.6,67.1,272.3,69.8,269.4,76z"/>
				<path class="st1" d="M269.1,76.2L269.1,76.2c-2.9,6.2-0.1,13.5,6,16.4l0,0c6.2,2.9,13.5,0.1,16.4-6l0,0c2.9-6.2,0.1-13.5-6-16.4
					l0,0C279.3,67.4,272,70.1,269.1,76.2z"/>
			</g>
			<g>
				<path class="st16" d="M296.8,89.4L296.8,89.4c-2.9,6.2-0.1,13.5,6,16.4l0,0c6.2,2.9,13.5,0.1,16.4-6l0,0
					c2.9-6.2,0.1-13.5-6-16.4l0,0C307,80.5,299.6,83.2,296.8,89.4z"/>
				<path class="st0" d="M297.3,88.8L297.3,88.8c-2.9,6.2-0.1,13.5,6,16.4l0,0c6.2,2.9,13.5,0.1,16.4-6l0,0c2.9-6.2,0.1-13.5-6-16.4
					l0,0C307.5,79.9,300.2,82.7,297.3,88.8z"/>
				<path class="st1" d="M297.1,89.1L297.1,89.1c-2.9,6.2-0.1,13.5,6,16.4l0,0c6.2,2.9,13.5,0.1,16.4-6l0,0c2.9-6.2,0.1-13.5-6-16.4
					l0,0C307.2,80.2,299.9,82.9,297.1,89.1z"/>
			</g>
			<g>
				<path class="st16" d="M324.7,102.2L324.7,102.2c-2.9,6.2-0.1,13.5,6,16.4l0,0c6.2,2.9,13.5,0.1,16.4-6l0,0
					c2.9-6.2,0.1-13.5-6-16.4l0,0C334.9,93.4,327.6,96.1,324.7,102.2z"/>
				<path class="st0" d="M325.2,101.7L325.2,101.7c-2.9,6.2-0.1,13.5,6,16.4l0,0c6.2,2.9,13.5,0.1,16.4-6l0,0
					c2.9-6.2,0.1-13.5-6-16.4l0,0C335.4,92.8,328.1,95.5,325.2,101.7z"/>
				<path class="st1" d="M325,102L325,102c-2.9,6.2-0.1,13.5,6,16.4l0,0c6.2,2.9,13.5,0.1,16.4-6l0,0c2.9-6.2,0.1-13.5-6-16.4l0,0
					C335.2,93.1,327.8,95.8,325,102z"/>
			</g>
			<g>
				<path class="st16" d="M352.6,115.1L352.6,115.1c-2.9,6.2-0.1,13.5,6,16.4l0,0c6.2,2.9,13.5,0.1,16.4-6l0,0
					c2.9-6.2,0.1-13.5-6-16.4l0,0C362.8,106.2,355.5,108.9,352.6,115.1z"/>
				<path class="st0" d="M353.2,114.6L353.2,114.6c-2.9,6.2-0.1,13.5,6,16.4l0,0c6.2,2.9,13.5,0.1,16.4-6l0,0
					c2.9-6.2,0.1-13.5-6-16.4l0,0C363.3,105.7,356,108.4,353.2,114.6z"/>
				<path class="st1" d="M352.9,114.8L352.9,114.8c-2.9,6.2-0.1,13.5,6,16.4l0,0c6.2,2.9,13.5,0.1,16.4-6l0,0
					c2.9-6.2,0.1-13.5-6-16.4l0,0C363.1,105.9,355.7,108.7,352.9,114.8z"/>
			</g>
			<g>
				<path class="st16" d="M380.5,128L380.5,128c-2.9,6.2-0.1,13.5,6,16.4l0,0c6.2,2.9,13.5,0.1,16.4-6l0,0c2.9-6.2,0.1-13.5-6-16.4
					l0,0C390.7,119.1,383.4,121.8,380.5,128z"/>
				<path class="st0" d="M381.1,127.4L381.1,127.4c-2.9,6.2-0.1,13.5,6,16.4l0,0c6.2,2.9,13.5,0.1,16.4-6l0,0
					c2.9-6.2,0.1-13.5-6-16.4l0,0C391.3,118.5,383.9,121.2,381.1,127.4z"/>
				<path class="st1" d="M380.8,127.7L380.8,127.7c-2.9,6.2-0.1,13.5,6,16.4l0,0c6.2,2.9,13.5,0.1,16.4-6l0,0
					c2.9-6.2,0.1-13.5-6-16.4l0,0C391,118.8,383.7,121.5,380.8,127.7z"/>
			</g>
		</g>
		<g>
			<g>
				<g>
					
						<text transform="matrix(0.9082 0.4185 0.4185 -0.9082 283.8716 215.3566)" class="st31" style="font-family:'ArialMT'; font-size:9.3371px;">1</text>
				</g>
			</g>
			<g>
				<g>
					
						<text transform="matrix(0.9082 0.4185 0.4185 -0.9082 311.7818 228.2189)" class="st31" style="font-family:'ArialMT'; font-size:9.3371px;">2</text>
				</g>
			</g>
			<g>
				<g>
					
						<text transform="matrix(0.9082 0.4185 0.4185 -0.9082 339.6978 241.0836)" class="st31" style="font-family:'ArialMT'; font-size:9.3371px;">3</text>
				</g>
			</g>
			<g>
				<g>
					
						<text transform="matrix(0.9082 0.4185 0.4185 -0.9082 367.6099 253.9469)" class="st31" style="font-family:'ArialMT'; font-size:9.3371px;">4</text>
				</g>
			</g>
			<g>
				<g>
					
						<text transform="matrix(0.9082 0.4185 0.4185 -0.9082 212.9966 148.8522)" class="st31" style="font-family:'ArialMT'; font-size:9.3371px;">5</text>
				</g>
			</g>
			<g>
				<g>
					
						<text transform="matrix(0.9082 0.4185 0.4185 -0.9082 240.9097 161.715)" class="st31" style="font-family:'ArialMT'; font-size:9.3371px;">6</text>
				</g>
			</g>
			<g>
				<g>
					
						<text transform="matrix(0.9082 0.4185 0.4185 -0.9082 268.8218 174.5782)" class="st31" style="font-family:'ArialMT'; font-size:9.3371px;">7</text>
				</g>
			</g>
			<g>
				<g>
					
						<text transform="matrix(0.9082 0.4185 0.4185 -0.9082 296.7359 187.4425)" class="st31" style="font-family:'ArialMT'; font-size:9.3371px;">8</text>
				</g>
			</g>
			<g>
				<g>
					
						<text transform="matrix(0.9082 0.4185 0.4185 -0.9082 324.646 200.3048)" class="st31" style="font-family:'ArialMT'; font-size:9.3371px;">9</text>
				</g>
			</g>
			<g>
				<g>
					
						<text transform="matrix(0.9082 0.4185 0.4185 -0.9082 350.1753 212.0699)" class="st31" style="font-family:'ArialMT'; font-size:9.3371px;">10</text>
				</g>
			</g>
			<g>
				<g>
					
						<text transform="matrix(0.9082 0.4185 0.4185 -0.9082 378.0874 224.9332)" class="st31" style="font-family:'ArialMT'; font-size:9.3371px;">11</text>
				</g>
			</g>
			<g>
				<g>
					
						<text transform="matrix(0.9082 0.4185 0.4185 -0.9082 223.4732 119.84)" class="st31" style="font-family:'ArialMT'; font-size:9.3371px;">12</text>
				</g>
			</g>
			<g>
				<g>
					
						<text transform="matrix(0.9082 0.4185 0.4185 -0.9082 251.3853 132.7032)" class="st31" style="font-family:'ArialMT'; font-size:9.3371px;">13</text>
				</g>
			</g>
			<g>
				<g>
					
						<text transform="matrix(0.9082 0.4185 0.4185 -0.9082 279.2974 145.566)" class="st31" style="font-family:'ArialMT'; font-size:9.3371px;">14</text>
				</g>
			</g>
			<g>
				<g>
					
						<text transform="matrix(0.9082 0.4185 0.4185 -0.9082 307.2115 158.4303)" class="st31" style="font-family:'ArialMT'; font-size:9.3371px;">15</text>
				</g>
			</g>
			<g>
				<g>
					
						<text transform="matrix(0.9082 0.4185 0.4185 -0.9082 335.1226 171.2926)" class="st31" style="font-family:'ArialMT'; font-size:9.3371px;">16</text>
				</g>
			</g>
			<g>
				<g>
					
						<text transform="matrix(0.9082 0.4185 0.4185 -0.9082 363.0376 184.1578)" class="st31" style="font-family:'ArialMT'; font-size:9.3371px;">17</text>
				</g>
			</g>
			<g>
				<g>
					
						<text transform="matrix(0.9082 0.4185 0.4185 -0.9082 390.9507 197.0211)" class="st31" style="font-family:'ArialMT'; font-size:9.3371px;">18</text>
				</g>
			</g>
			<g>
				<g>
					<g>
						
							<text transform="matrix(0.9082 0.4185 0.4185 -0.9082 236.3365 91.9278)" class="st29" style="font-family:'ArialMT'; font-size:9.3371px;">19</text>
					</g>
				</g>
			</g>
			<g>
				<g>
					
						<text transform="matrix(0.9082 0.4185 0.4185 -0.9082 264.2486 104.7911)" class="st31" style="font-family:'ArialMT'; font-size:9.3371px;">20</text>
				</g>
			</g>
			<g>
				<g>
					
						<text transform="matrix(0.9082 0.4185 0.4185 -0.9082 292.1607 117.6544)" class="st31" style="font-family:'ArialMT'; font-size:9.3371px;">21</text>
				</g>
			</g>
			<g>
				<g>
					
						<text transform="matrix(0.9082 0.4185 0.4185 -0.9082 320.0747 130.5182)" class="st31" style="font-family:'ArialMT'; font-size:9.3371px;">22</text>
				</g>
			</g>
			<g>
				<g>
					
						<text transform="matrix(0.9082 0.4185 0.4185 -0.9082 347.9849 143.381)" class="st31" style="font-family:'ArialMT'; font-size:9.3371px;">23</text>
				</g>
			</g>
			<g>
				<g>
					
						<text transform="matrix(0.9082 0.4185 0.4185 -0.9082 375.9009 156.2457)" class="st31" style="font-family:'ArialMT'; font-size:9.3371px;">24</text>
				</g>
			</g>
			<g>
				<g>
					
						<text transform="matrix(0.9082 0.4185 0.4185 -0.9082 403.813 169.109)" class="st31" style="font-family:'ArialMT'; font-size:9.3371px;">25</text>
				</g>
			</g>
			<g>
				<g>
					
						<text transform="matrix(0.9082 0.4185 0.4185 -0.9082 249.2007 64.0128)" class="st31" style="font-family:'ArialMT'; font-size:9.3371px;">26</text>
				</g>
			</g>
			<g>
				<g>
					
						<text transform="matrix(0.9082 0.4185 0.4185 -0.9082 277.1128 76.8761)" class="st31" style="font-family:'ArialMT'; font-size:9.3371px;">27</text>
				</g>
			</g>
			<g>
				<g>
					
						<text transform="matrix(0.9082 0.4185 0.4185 -0.9082 305.0249 89.7394)" class="st31" style="font-family:'ArialMT'; font-size:9.3371px;">28</text>
				</g>
			</g>
			<g>
				<g>
					
						<text transform="matrix(0.9082 0.4185 0.4185 -0.9082 332.939 102.6036)" class="st31" style="font-family:'ArialMT'; font-size:9.3371px;">29</text>
				</g>
			</g>
			<g>
				<g>
					
						<text transform="matrix(0.9082 0.4185 0.4185 -0.9082 360.8501 115.4659)" class="st31" style="font-family:'ArialMT'; font-size:9.3371px;">30</text>
				</g>
			</g>
			<g>
				<g>
					
						<text transform="matrix(0.9082 0.4185 0.4185 -0.9082 388.7652 128.3307)" class="st31" style="font-family:'ArialMT'; font-size:9.3371px;">31</text>
				</g>
			</g>
		</g>
		<g>
			<g>
				<g>
					
						<text transform="matrix(0.9082 0.4185 0.4185 -0.9082 197.7457 175.6656)" class="st16" style="font-family:'ArialMT'; font-size:9.3371px;">28</text>
				</g>
			</g>
			<g>
				<g>
					
						<text transform="matrix(0.9082 0.4185 0.4185 -0.9082 225.6578 188.5289)" class="st16" style="font-family:'ArialMT'; font-size:9.3371px;">29</text>
				</g>
			</g>
			<g>
				<g>
					
						<text transform="matrix(0.9082 0.4185 0.4185 -0.9082 253.5708 201.3922)" class="st16" style="font-family:'ArialMT'; font-size:9.3371px;">30</text>
				</g>
			</g>
			<g>
				<g>
					
						<text transform="matrix(0.9082 0.4185 0.4185 -0.9082 419.065 142.2941)" class="st16" style="font-family:'ArialMT'; font-size:9.3371px;">1</text>
				</g>
			</g>
			<g>
				<g>
					
						<text transform="matrix(0.9082 0.4185 0.4185 -0.9082 264.4517 37.1984)" class="st16" style="font-family:'ArialMT'; font-size:9.3371px;">2</text>
				</g>
			</g>
			<g>
				<g>
					
						<text transform="matrix(0.9082 0.4185 0.4185 -0.9082 292.3648 50.0616)" class="st16" style="font-family:'ArialMT'; font-size:9.3371px;">3</text>
				</g>
			</g>
			<g>
				<g>
					
						<text transform="matrix(0.9082 0.4185 0.4185 -0.9082 320.2769 62.9249)" class="st16" style="font-family:'ArialMT'; font-size:9.3371px;">4</text>
				</g>
			</g>
			<g>
				<g>
					
						<text transform="matrix(0.9082 0.4185 0.4185 -0.9082 348.1909 75.7892)" class="st16" style="font-family:'ArialMT'; font-size:9.3371px;">5</text>
				</g>
			</g>
			<g>
				<g>
					
						<text transform="matrix(0.9082 0.4185 0.4185 -0.9082 376.1011 88.6515)" class="st16" style="font-family:'ArialMT'; font-size:9.3371px;">6</text>
				</g>
			</g>
			<g>
				<g>
					
						<text transform="matrix(0.9082 0.4185 0.4185 -0.9082 404.0171 101.5162)" class="st16" style="font-family:'ArialMT'; font-size:9.3371px;">7</text>
				</g>
			</g>
			<g>
				<g>
					
						<text transform="matrix(0.9082 0.4185 0.4185 -0.9082 431.9292 114.3795)" class="st16" style="font-family:'ArialMT'; font-size:9.3371px;">8</text>
				</g>
			</g>
		</g>
	</g>
	<g>
		<g>
			
				<image style="overflow:visible;opacity:0.3;enable-background:new    ;" width="319" height="292" xlink:href="B5B580F19E23646E.png"  transform="matrix(0.9967 0 0 -0.9967 -491.4981 398.7296)">
			</image>
			<g>
				<path d="M-212.2,212.8l-183.4-83.5c-11.8-5.4-25.8-0.2-31.2,11.7l-60.4,132.6c-5.4,11.8-0.2,25.8,11.7,31.2l183.4,83.5
					c11.8,5.4,25.8,0.2,31.2-11.7l50-109.8l10.4-22.8C-195.2,232.2-200.4,218.2-212.2,212.8z"/>
				<path class="st0" d="M-211.7,212.3l-183.4-83.5c-11.8-5.4-25.8-0.2-31.2,11.7l-60.4,132.6c-5.4,11.8-0.2,25.8,11.7,31.2
					l183.4,83.5c11.8,5.4,25.8,0.2,31.2-11.7l50-109.8l10.4-22.8C-194.6,231.6-199.8,217.7-211.7,212.3z"/>
				<path class="st1" d="M-212,212.5L-395.4,129c-11.8-5.4-25.8-0.2-31.2,11.7L-487,273.3c-5.4,11.8-0.2,25.8,11.7,31.2l183.4,83.5
					c11.8,5.4,25.8,0.2,31.2-11.7l50-109.8l10.4-22.8C-194.9,231.9-200.1,217.9-212,212.5z"/>
			</g>
		</g>
		<g>
			<g>
				<g>
					
						<text transform="matrix(0.9102 0.4143 0.4143 -0.9102 -465.5887 272.1731)" class="st29" style="font-family:'ArialMT'; font-size:12.5611px;">DOW J</text>
				</g>
			</g>
		</g>
		<g>
			<g>
				<g>
					
						<text transform="matrix(0.9102 0.4143 0.4143 -0.9102 -308.0929 343.8569)" class="st29" style="font-family:'ArialMT'; font-size:12.5611px;">35.120</text>
				</g>
			</g>
		</g>
		<g>
			<g>
				
					<text transform="matrix(0.9102 0.4143 0.4143 -0.9102 -303.3461 327.7427)" class="st32" style="font-family:'ArialMT'; font-size:10.9909px;">+225,98</text>
			</g>
		</g>
		<g>
			<g>
				<g>
					
						<text transform="matrix(0.9102 0.4143 0.4143 -0.9102 -277.4395 293.5795)" class="st29" style="font-family:'ArialMT'; font-size:12.5611px;">6.110</text>
				</g>
			</g>
		</g>
		<g>
			<g>
				
					<text transform="matrix(0.9102 0.4143 0.4143 -0.9102 -273.4964 277.0963)" class="st32" style="font-family:'ArialMT'; font-size:10.9909px;">+79,06</text>
			</g>
		</g>
		<g>
			<g>
				<g>
					
						<text transform="matrix(0.9102 0.4143 0.4143 -0.9102 -259.6565 237.4396)" class="st29" style="font-family:'ArialMT'; font-size:12.5611px;">148,19</text>
				</g>
			</g>
		</g>
		<g>
			<g>
				
					<text transform="matrix(0.9102 0.4143 0.4143 -0.9102 -243.6471 226.4519)" class="st32" style="font-family:'ArialMT'; font-size:10.9909px;">+1,49</text>
			</g>
		</g>
		<g>
			<g>
				<g>
					
						<text transform="matrix(0.9102 0.4143 0.4143 -0.9102 -459.2003 258.1367)" class="st29" style="font-family:'ArialMT'; font-size:9.4208px;">Dow Jones Industrial Average</text>
				</g>
			</g>
		</g>
		<g class="st33">
			
				<rect x="-357.6" y="182.2" transform="matrix(0.4146 -0.91 0.91 0.4146 -470.6431 -156.2885)" class="st6" width="1.6" height="210.9"/>
		</g>
		<g>
			<g>
				<g>
					
						<text transform="matrix(0.9102 0.4143 0.4143 -0.9102 -441.3706 218.9644)" class="st29" style="font-family:'ArialMT'; font-size:12.5611px;">JKSE</text>
				</g>
			</g>
		</g>
		<g>
			<g>
				<g>
					
						<text transform="matrix(0.9102 0.4143 0.4143 -0.9102 -434.9817 204.9271)" class="st29" style="font-family:'ArialMT'; font-size:9.4208px;">Jakarta Composite Index</text>
				</g>
			</g>
		</g>
		<g class="st33">
			
				<rect x="-333.4" y="129" transform="matrix(0.4146 -0.91 0.91 0.4146 -408.0691 -165.4033)" class="st6" width="1.6" height="210.9"/>
		</g>
		<g>
			<g>
				<g>
					
						<text transform="matrix(0.9102 0.4143 0.4143 -0.9102 -417.1516 165.754)" class="st29" style="font-family:'ArialMT'; font-size:12.5611px;">AAPL</text>
				</g>
			</g>
		</g>
		<g>
			<g>
				<g>
					
						<text transform="matrix(0.9102 0.4143 0.4143 -0.9102 -410.7635 151.7184)" class="st29" style="font-family:'ArialMT'; font-size:9.4208px;">Apple Inc.</text>
				</g>
			</g>
		</g>
		<g>
			<g>
				<polygon class="st32" points="-321.9,341.2 -322.5,339.8 -326.4,341.4 -327.7,337.4 -329.2,337.9 -327.4,343.5 				"/>
			</g>
		</g>
		<g>
			<g>
				<polygon class="st32" points="-297.7,288 -298.3,286.6 -302.2,288.2 -303.5,284.2 -305,284.7 -303.1,290.3 				"/>
			</g>
		</g>
		<g>
			<g>
				<polygon class="st32" points="-273.5,234.8 -274.1,233.4 -278,235 -279.3,231 -280.8,231.5 -278.9,237.1 				"/>
			</g>
		</g>
	</g>
	<g>
		<g>
			
				<image style="overflow:visible;opacity:0.3;enable-background:new    ;" width="351" height="353" xlink:href="B5B580F19E23646C.png"  transform="matrix(0.9972 0 0 -0.9972 -203.5206 435.7051)">
			</image>
			<g>
				<path d="M115.2,198l-206.5-93.6c-5.3-2.4-11.4-0.1-13.8,5.2l-95.1,209.7c-2.4,5.3-0.1,11.4,5.2,13.8l206.5,93.6
					c5.3,2.4,11.4,0.1,13.8-5.2l95.1-209.7C122.8,206.6,120.5,200.4,115.2,198z"/>
				<path class="st0" d="M115.8,197.5l-206.5-93.7c-5.3-2.4-11.4-0.1-13.8,5.2l-95.1,209.7c-2.4,5.3-0.1,11.4,5.2,13.8l206.5,93.6
					c5.3,2.4,11.4,0.1,13.8-5.2L121,211.2C123.3,206.1,121,199.9,115.8,197.5z"/>
				<path class="st1" d="M115.5,197.7L-91,104.1c-5.3-2.4-11.4-0.1-13.8,5.2L-199.9,319c-2.4,5.3-0.1,11.4,5.2,13.8l206.5,93.6
					c5.3,2.4,11.4,0.1,13.8-5.2l95.1-209.7C123.1,206.3,120.7,200.1,115.5,197.7z"/>
			</g>
		</g>
		<g>
			<g class="st2">
				
					<image style="overflow:visible;enable-background:new    ;" width="225" height="226" xlink:href="B5B580F19E236463.png"  transform="matrix(0.9956 0 0 -0.9956 -149.7865 376.9098)">
				</image>
			</g>
			<g class="st3">
				
					<image style="overflow:visible;enable-background:new    ;" width="225" height="226" xlink:href="B5B580F19E236464.png"  transform="matrix(0.9956 0 0 -0.9956 -153.2749 379.7824)">
				</image>
			</g>
			
				<ellipse transform="matrix(0.413 -0.9107 0.9107 0.413 -264.8814 119.7589)" class="st1" cx="-39.5" cy="265.4" rx="75.7" ry="75.7"/>
		</g>
		<g>
			
				<ellipse transform="matrix(0.413 -0.9107 0.9107 0.413 -265.181 119.6747)" class="st1" cx="-39.8" cy="265.5" rx="75.7" ry="75.7"/>
			
				<ellipse transform="matrix(0.413 -0.9107 0.9107 0.413 -264.5232 119.7521)" class="st0" cx="-39.4" cy="265.1" rx="75.7" ry="75.7"/>
			
				<ellipse transform="matrix(0.413 -0.9107 0.9107 0.413 -264.8814 119.7589)" class="st1" cx="-39.5" cy="265.4" rx="75.7" ry="75.7"/>
		</g>
		<g>
			<ellipse transform="matrix(0.413 -0.9107 0.9107 0.413 -264.8814 119.7589)" cx="-39.5" cy="265.4" rx="75.7" ry="75.7"/>
			
				<ellipse transform="matrix(0.413 -0.9107 0.9107 0.413 -265.2721 119.5938)" class="st17" cx="-39.9" cy="265.6" rx="75.7" ry="75.7"/>
			<ellipse transform="matrix(0.413 -0.9107 0.9107 0.413 -264.4321 119.833)" cx="-39.3" cy="265" rx="75.7" ry="75.7"/>
			
				<ellipse transform="matrix(0.413 -0.9107 0.9107 0.413 -264.8814 119.7589)" class="st12" cx="-39.5" cy="265.4" rx="75.7" ry="75.7"/>
		</g>
		<g>
			<g>
				<g>
					
						<text transform="matrix(0.9107 0.413 0.413 -0.9107 -67.3252 312.2096)" class="st29" style="font-family:'ArialMT'; font-size:11.2321px;">12</text>
				</g>
			</g>
			<g>
				<g>
					
						<text transform="matrix(0.9107 0.413 0.413 -0.9107 -16.3076 207.3526)" class="st29" style="font-family:'ArialMT'; font-size:11.2321px;">6</text>
				</g>
			</g>
			<g>
				<g>
					
						<text transform="matrix(0.9107 0.413 0.413 -0.9107 -33.3926 317.4044)" class="st29" style="font-family:'ArialMT'; font-size:11.2321px;">1</text>
				</g>
			</g>
			<g>
				<g>
					
						<text transform="matrix(0.9107 0.413 0.413 -0.9107 -90.4014 291.5558)" class="st29" style="font-family:'ArialMT'; font-size:11.2321px;">11</text>
				</g>
			</g>
			<g>
				<g>
					
						<text transform="matrix(0.9107 0.413 0.413 -0.9107 7.3525 227.5436)" class="st29" style="font-family:'ArialMT'; font-size:11.2321px;">5</text>
				</g>
			</g>
			<g>
				<g>
					
						<text transform="matrix(0.9107 0.413 0.413 -0.9107 -47.0859 202.86)" class="st29" style="font-family:'ArialMT'; font-size:11.2321px;">7</text>
				</g>
			</g>
			<g>
				<g>
					
						<text transform="matrix(0.9107 0.413 0.413 -0.9107 -6.7246 308.5768)" class="st29" style="font-family:'ArialMT'; font-size:11.2321px;">2</text>
				</g>
			</g>
			<g>
				<g>
					
						<text transform="matrix(0.9107 0.413 0.413 -0.9107 -102.3272 265.2276)" class="st29" style="font-family:'ArialMT'; font-size:11.2321px;">10</text>
				</g>
			</g>
			<g>
				<g>
					
						<text transform="matrix(0.9107 0.413 0.413 -0.9107 17.3701 255.4366)" class="st29" style="font-family:'ArialMT'; font-size:11.2321px;">4</text>
				</g>
			</g>
			<g>
				<g>
					
						<text transform="matrix(0.9107 0.413 0.413 -0.9107 -75.3526 213.3932)" class="st29" style="font-family:'ArialMT'; font-size:11.2321px;">8</text>
				</g>
			</g>
			<g>
				<g>
					
						<text transform="matrix(0.9107 0.413 0.413 -0.9107 13.8135 285.4181)" class="st29" style="font-family:'ArialMT'; font-size:11.2321px;">3</text>
				</g>
			</g>
			<g>
				<g>
					
						<text transform="matrix(0.9107 0.413 0.413 -0.9107 -94.9658 236.0943)" class="st29" style="font-family:'ArialMT'; font-size:11.2321px;">9</text>
				</g>
			</g>
		</g>
		<g>
			
				<image style="overflow:visible;opacity:0.21;enable-background:new    ;" width="42" height="31" xlink:href="B5B580F19E236467.png"  transform="matrix(0.9732 0 0 -0.9732 -75.6889 290.0235)">
			</image>
			<g>
				<line class="st34" x1="-39.6" y1="265.3" x2="-73" y2="286.7"/>
			</g>
		</g>
		<g>
			
				<image style="overflow:visible;opacity:0.21;enable-background:new    ;" width="25" height="34" xlink:href="B5B580F19E23645B.png"  transform="matrix(0.9669 0 0 -0.9669 -42.8373 292.8757)">
			</image>
			<g>
				<line class="st35" x1="-39.6" y1="265.3" x2="-24" y2="289.7"/>
			</g>
		</g>
		<g>
			
				<image style="overflow:visible;opacity:0.1;enable-background:new    ;" width="16" height="17" xlink:href="B5B580F19E236489.png"  transform="matrix(0.9395 0 0 -0.9395 -46.2583 272.4154)">
			</image>
			<g>
				<g>
					
						<ellipse transform="matrix(0.413 -0.9107 0.9107 0.413 -264.8627 119.736)" class="st36" cx="-39.5" cy="265.3" rx="3.8" ry="3.8"/>
					<path class="st19" d="M-41.4,269.2c2.2,1,4.7,0,5.7-2.1c1-2.2,0-4.7-2.1-5.7c-2.2-1-4.7,0-5.7,2.1
						C-44.5,265.7-43.5,268.2-41.4,269.2z M-38.1,262c1.8,0.8,2.6,2.9,1.8,4.7c-0.8,1.8-2.9,2.6-4.7,1.8c-1.8-0.8-2.6-2.9-1.8-4.7
						C-42,262-39.9,261.2-38.1,262z"/>
				</g>
			</g>
		</g>
		<g>
			<g>
				
					<text transform="matrix(0.9107 0.413 0.413 -0.9107 -100.8936 341.3214)" class="st29" style="font-family:'ArialMT'; font-size:15.6379px;">Jakarta</text>
			</g>
		</g>
	</g>
</symbol>
<linearGradient id="SVGID_11_" gradientUnits="userSpaceOnUse" x1="2" y1="599" x2="1402" y2="599" gradientTransform="matrix(1 0 0 -1 0 1200)">
	<stop  offset="0" style="stop-color:#1D0E3D"/>
	<stop  offset="1" style="stop-color:#0F002C"/>
</linearGradient>
<rect x="2" y="1" class="st37" width="1400" height="1200"/>
<g>
	<g>
		<defs>
			<rect id="SVGID_12_" x="-0.5" y="0.5" width="1400" height="1200"/>
		</defs>
		<clipPath id="SVGID_13_">
			<use xlink:href="#SVGID_12_"  style="overflow:visible;"/>
		</clipPath>
		<g class="st38">
			
				<use xlink:href="#New_Symbol_1"  width="983" height="871.4" id="XMLID_1_" x="-491.5" y="-435.7" transform="matrix(2.0953 0 0 -2.0953 750.492 635.9706)" style="overflow:visible;"/>
		</g>
	</g>
</g>
<linearGradient id="SVGID_14_" gradientUnits="userSpaceOnUse" x1="188.7853" y1="569.4252" x2="1195.8828" y2="1356.641">
	<stop  offset="0" style="stop-color:#B24EFF"/>
	<stop  offset="1" style="stop-color:#3793FF"/>
</linearGradient>
<path class="st39" d="M206.6,450.2c-75.2,0-147.8,10.6-216.5,30.5V757c65.9-30.3,139.3-47.2,216.5-47.2
	c280.3,0,508.8,221.9,519.3,499.7h259.7C974.9,788.3,630.2,450.2,206.6,450.2z"/>
<g>
	<linearGradient id="SVGID_15_" gradientUnits="userSpaceOnUse" x1="1171.2875" y1="185.2629" x2="1695.057" y2="594.6767">
		<stop  offset="0" style="stop-color:#B24EFF"/>
		<stop  offset="1" style="stop-color:#3793FF"/>
	</linearGradient>
	<path class="st40" d="M1179.4-3.5c-13.2,56.9-20.2,116.2-20.2,177.1c0,225.7,95.9,429,249.3,571.2V-3.5H1179.4z"/>
</g>
</svg>
